# .PCD v0.7 - synthetic VGP smoke-test fixture
VERSION 0.7
FIELDS x y z rgb
SIZE 4 4 4 4
TYPE F F F F
COUNT 1 1 1 1
WIDTH 256
HEIGHT 1
VIEWPOINT 0 0 0 1 0 0 0
POINTS 256
DATA ascii
0.0998730 0.1830522 0.2239592 0
0.0144203 -0.0673323 0.1907595 0
0.0769999 -0.0785329 0.1153073 0
0.0692856 0.1420033 0.2625510 0
0.0953442 0.2324184 0.2098281 0
0.0490239 0.0692229 0.2688022 0
-0.1118492 0.0993041 0.2390775 0
-0.0422562 0.2138384 0.2762921 0
-0.0878752 0.0539275 0.2506629 0
-0.1290088 0.1816783 0.2137202 0
0.0611350 -0.0929895 0.1096550 0
0.1447410 0.0151751 0.1016623 0
0.0788067 0.0615735 0.2420430 0
-0.1294332 0.2582465 0.1736095 0
0.0996472 -0.0577732 0.1111578 0
-0.0463261 -0.0892350 0.1532209 0
-0.0690326 0.2863690 0.2201395 0
-0.1071491 0.1767305 0.2420685 0
-0.0296914 -0.0851836 0.1672890 0
0.0384217 0.0844485 0.2786839 0
0.1332068 0.0789594 0.1701039 0
-0.0273279 -0.0270669 0.2349095 0
-0.0061578 0.2853366 0.2414086 0
0.1430860 0.1438342 0.1585041 0
-0.1529562 0.0914618 0.1767470 0
-0.0666602 -0.0145225 0.2279186 0
-0.1124849 0.1447656 0.2406250 0
-0.1106481 -0.0551194 0.1355284 0
0.0500717 0.0726708 0.2690929 0
-0.1626015 0.1321270 0.1627499 0
-0.1542869 0.1781040 0.1728069 0
0.1170405 -0.0177135 0.1334120 0
-0.0393640 -0.1076615 0.1200292 0
-0.1250547 0.0050157 0.1797567 0
-0.1642082 0.0578034 0.1401218 0
0.0785000 -0.0768393 0.1161138 0
0.0383642 0.1557575 0.2825092 0
0.1517358 0.1642362 0.1352607 0
-0.0776633 0.1193839 0.2724754 0
-0.0347702 0.0349280 0.2721811 0
-0.1350085 0.1993313 0.1991300 0
0.0943517 0.1453972 0.2369092 0
0.1267709 0.0148214 0.1460210 0
-0.0969308 0.0979613 0.2543425 0
0.0607442 0.0234573 0.2415348 0
-0.0487982 0.2153577 0.2733025 0
0.0087044 -0.0254847 0.2356550 0
0.0040457 0.1817459 0.2896556 0
-0.0449454 -0.0902905 0.1521771 0
-0.0658871 0.1685739 0.2774374 0
-0.1069099 0.0053833 0.2051256 0
-0.1668540 0.1602037 0.1508476 0
0.0110451 0.2608089 0.2560982 0
-0.0635081 -0.0533023 0.1928788 0
-0.0141428 -0.0549542 0.2096578 0
0.0510981 -0.0936834 0.1217562 0
0.0999685 0.2074988 0.2156833 0
-0.0407839 0.1476958 0.2908745 0
-0.0693879 0.1557747 0.2770559 0
-0.0078953 -0.0829183 0.1735396 0
0.0254291 0.2903003 0.2297013 0
-0.0807742 0.2187908 0.2531491 0
0.0108414 0.1135535 0.2929229 0
0.1586334 0.0816393 0.1104487 0
-0.0987367 0.0782228 0.2484583 0
-0.0972446 -0.0606147 0.1481690 0
0.1244768 0.1688173 0.1906291 0
-0.0659305 -0.0962252 0.1236857 0
0.0741426 -0.0336372 0.1844090 0
-0.0705919 0.0452896 0.2603130 0
0.1194662 0.0768989 0.1940839 0
0.0299623 0.2387074 0.2620021 0
0.0292647 0.0706173 0.2795937 0
0.0990912 -0.0396966 0.1406637 0
0.0374442 0.0736505 0.2766275 0
-0.1810888 0.1866467 0.1051714 0
0.0042113 0.1371851 0.2948331 0
0.0543945 0.0143895 0.2413405 0
0.1484084 0.1071977 0.1448148 0
-0.0575811 -0.0033788 0.2416594 0
0.0646390 0.0290468 0.2412356 0
0.1421971 0.0440084 0.1334363 0
-0.0788098 0.0763820 0.2649456 0
0.0248628 0.2183667 0.2731808 0
0.0029390 0.1801182 0.2901586 0
-0.1388495 0.2374793 0.1729643 0
-0.1435230 0.0951090 0.1943485 0
0.0083683 0.1492630 0.2935508 0
-0.0129437 0.0598859 0.2847127 0
0.0472788 -0.1045192 0.1005934 0
0.0923516 -0.0619352 0.1186711 0
0.0330152 0.2146160 0.2711751 0
-0.0978748 0.1824568 0.2502174 0
-0.1222599 0.2410359 0.1970351 0
-0.0464202 0.1332254 0.2894899 0
-0.0314655 0.0992679 0.2914940 0
0.1640833 0.1468603 0.1040240 0
-0.0204026 0.2273122 0.2757144 0
-0.1632174 0.0978439 0.1575578 0
-0.0389758 -0.0123759 0.2433844 0
0.1266140 0.1482717 0.1900824 0
0.0325435 0.0364200 0.2659230 0
-0.1403542 0.1164494 0.2026937 0
-0.0355457 -0.0527411 0.2081078 0
0.0894269 0.1127039 0.2420698 0
-0.0624898 -0.0020928 0.2397240 0
0.0800463 0.1106360 0.2517522 0
-0.0690523 0.2945336 0.2128706 0
-0.1461353 0.1129075 0.1928193 0
0.0846494 0.1576706 0.2465990 0
-0.1391584 0.2490606 0.1639757 0
-0.0528566 0.2616543 0.2481448 0
0.0638325 0.0783874 0.2606000 0
0.1369161 0.0215593 0.1288873 0
0.1247917 -0.0022718 0.1339885 0
-0.0368258 -0.0347187 0.2257279 0
-0.1605182 0.0999744 0.1637373 0
-0.0343205 0.2239323 0.2746676 0
-0.0209706 -0.0941286 0.1543166 0
-0.0491682 0.2252704 0.2691560 0
-0.0326719 0.0413532 0.2754483 0
-0.1409799 0.2766589 0.1341184 0
-0.1121756 -0.0018988 0.1928352 0
-0.1237747 0.1681473 0.2239206 0
-0.0362218 -0.1138621 0.1060702 0
0.1224127 -0.0169701 0.1223282 0
0.0559357 0.0360594 0.2516446 0
-0.1796210 0.1736675 0.1148660 0
0.0344715 0.0660099 0.2759539 0
-0.1301236 0.2943364 0.1350359 0
-0.0668363 0.2574579 0.2429364 0
-0.0672607 -0.0595122 0.1824567 0
0.0029295 0.2796547 0.2448170 0
0.0974677 0.1643057 0.2309883 0
0.0458095 -0.0090758 0.2317830 0
0.0841214 0.2167840 0.2309816 0
-0.0159775 0.1564461 0.2946134 0
-0.0743498 0.0397018 0.2553824 0
-0.0547643 -0.1047104 0.1155254 0
-0.1295707 0.2653505 0.1673224 0
-0.0439917 -0.0247468 0.2318467 0
-0.1335653 0.1593021 0.2117494 0
-0.1149923 -0.0594125 0.1205054 0
0.0836091 -0.0792265 0.1013206 0
-0.1351668 0.1021488 0.2089149 0
-0.0510811 0.1651202 0.2853217 0
-0.1760411 0.2186731 0.1003021 0
0.0236826 0.2407088 0.2635669 0
-0.1146214 0.0631779 0.2265167 0
-0.1014825 0.1100740 0.2515557 0
0.0513834 -0.0047786 0.2309971 0
0.0051006 0.1184617 0.2943482 0
0.1332641 0.0753505 0.1687277 0
-0.1179014 0.2915723 0.1603298 0
-0.0225219 0.1556268 0.2941243 0
-0.1478979 0.0449721 0.1675641 0
0.0905513 0.0645639 0.2303063 0
0.0352219 0.1872253 0.2786070 0
0.0197571 0.0099078 0.2574122 0
0.0770884 0.0185881 0.2235224 0
0.1223015 0.0331772 0.1685146 0
-0.0831708 0.2251050 0.2485004 0
0.1158636 0.0544052 0.1912593 0
-0.1220602 -0.0385729 0.1391243 0
0.0370143 -0.0202819 0.2285335 0
0.1308450 0.1315336 0.1832822 0
0.1505535 0.0812951 0.1323935 0
-0.0327656 0.2337206 0.2707268 0
-0.1173691 0.1301878 0.2352764 0
-0.0401087 0.2134150 0.2771410 0
-0.0133833 0.0808576 0.2903424 0
0.1235395 0.2072046 0.1794565 0
0.0435493 0.1407751 0.2807920 0
-0.1180855 0.1532493 0.2333062 0
0.0157559 -0.0956918 0.1464275 0
-0.0906666 0.0915644 0.2588755 0
-0.1412759 0.0163785 0.1608662 0
0.1180650 0.1029559 0.2025798 0
-0.0438618 0.2929667 0.2286189 0
0.1018540 0.2293064 0.2027204 0
-0.0559708 0.2811758 0.2326306 0
-0.0611163 0.2756957 0.2339095 0
0.1035668 -0.0228499 0.1535147 0
-0.0367900 -0.0062671 0.2484305 0
0.1577502 0.1661916 0.1188117 0
-0.1622853 0.0676921 0.1494433 0
0.1439419 0.1976946 0.1422172 0
-0.1563334 -0.0085996 0.1006676 0
0.0764386 0.2767595 0.2019153 0
-0.0341309 0.1791076 0.2884806 0
0.1473504 0.0994765 0.1457301 0
-0.0472978 0.1199587 0.2888453 0
0.0009819 0.1616060 0.2934802 0
0.0637860 -0.0160076 0.2118993 0
-0.1254636 0.1780860 0.2195408 0
0.1117981 0.2027096 0.2007585 0
-0.1637292 0.1811768 0.1523122 0
0.1415484 0.1705840 0.1573754 0
-0.0861637 0.0669467 0.2565620 0
0.1025727 0.0339062 0.2010587 0
0.1195311 0.2877924 0.1205884 0
-0.0405213 0.1063932 0.2900441 0
-0.0627235 -0.0567001 0.1894179 0
-0.0280536 0.2380501 0.2696609 0
-0.0937909 -0.0475762 0.1704438 0
0.0719731 -0.0738799 0.1322626 0
-0.1700668 0.2212891 0.1157615 0
-0.0756603 -0.0123248 0.2230331 0
-0.0591650 -0.0419686 0.2081782 0
-0.0188336 -0.0012490 0.2553012 0
0.0778279 0.0504244 0.2388081 0
-0.0581407 0.0521245 0.2701896 0
0.0638086 0.1113881 0.2662953 0
-0.0345677 0.2317446 0.2711936 0
-0.1303156 -0.0343038 0.1287924 0
0.1511069 0.0999845 0.1367959 0
0.0877379 0.1629061 0.2425611 0
-0.1496845 0.1601212 0.1854164 0
0.0645103 0.0423207 0.2476828 0
-0.0632374 0.0483318 0.2660186 0
0.1539917 0.0668678 0.1166049 0
0.1103472 0.0222454 0.1820229 0
-0.1126690 0.0093531 0.2007217 0
0.0294139 -0.0581575 0.1953232 0
0.0267990 0.2851975 0.2333220 0
0.0379992 -0.0640643 0.1826301 0
-0.1192802 0.2195466 0.2130042 0
0.0551046 0.0417691 0.2548194 0
-0.1594856 0.2353290 0.1320937 0
-0.1380637 0.2529594 0.1628693 0
-0.0470037 0.1216092 0.2890363 0
-0.1261137 0.1455246 0.2236976 0
0.0755225 0.0364299 0.2348476 0
-0.0919849 0.0918535 0.2577782 0
0.0256671 -0.0970265 0.1383445 0
-0.1013296 -0.0477579 0.1603579 0
-0.1620218 0.1643630 0.1605912 0
0.0136523 -0.0767174 0.1783124 0
0.0791108 0.0675103 0.2437125 0
-0.1355710 0.2789971 0.1426884 0
-0.0504168 -0.1034552 0.1221884 0
-0.0407709 0.1741825 0.2875967 0
-0.1190110 0.2436600 0.1999178 0
-0.0708627 -0.0794559 0.1503151 0
0.0380307 -0.0268433 0.2223817 0
0.0568113 -0.0075043 0.2247675 0
-0.0404133 0.1729040 0.2879359 0
-0.0860336 0.2709875 0.2185296 0
-0.1666180 0.0491831 0.1291182 0
-0.1717841 0.0313303 0.1008816 0
-0.0020973 -0.0024799 0.2544601 0
0.1104200 0.0795635 0.2089495 0
-0.0428070 0.2087936 0.2778984 0
-0.0304930 -0.0605180 0.2007660 0
-0.0365157 -0.0660132 0.1921556 0
-0.1353394 0.1932803 0.2008129 0
