# .PCD v0.7 - synthetic VGP smoke-test fixture
VERSION 0.7
FIELDS x y z rgb
SIZE 4 4 4 4
TYPE F F F F
COUNT 1 1 1 1
WIDTH 2048
HEIGHT 1
VIEWPOINT 0 0 0 1 0 0 0
POINTS 2048
DATA ascii
-0.1666180 0.0491831 0.1291182 0
-0.0607466 -0.0762904 0.1643502 0
0.4947555 0.2149967 -0.1680963 0
-0.5961853 0.3417369 0.2534362 0
-0.3355434 0.3587945 0.1995289 0
-0.3526961 0.1420669 -0.2921765 0
0.2020455 0.0012543 0.0886190 0
-0.5132699 0.3551808 -0.1205160 0
-0.2564900 0.2275213 -0.2578659 0
0.0874579 -0.1004676 0.0006884 0
0.2149862 0.3245398 -0.1174329 0
-0.0201009 0.0203202 -0.2867944 0
-0.4565864 0.3278368 -0.1724647 0
-0.0044733 0.2123399 0.2818971 0
-0.3851288 0.1547363 0.2783241 0
-0.5474416 0.1980474 0.2304488 0
-0.0133833 0.0808576 0.2903424 0
0.4680946 0.1655901 0.0274464 0
0.5512406 0.1460020 -0.0427086 0
0.3653773 0.2204439 0.2633931 0
0.4702265 0.1579925 -0.0437585 0
-0.3158580 0.1154372 0.2807979 0
-0.2134998 0.3747294 -0.0650417 0
0.5172902 0.2480775 0.1983548 0
-0.6969390 0.0384859 -0.1999168 0
0.7056860 0.0558906 0.2211448 0
-0.2044248 0.1255224 0.0220925 0
-0.1676171 0.2779457 0.0523979 0
0.0454166 0.1367286 0.2798399 0
-0.3877298 0.3741362 -0.1784973 0
0.0549011 -0.0950525 0.1138325 0
-0.3135233 -0.1149315 0.0919910 0
-0.3298001 -0.1233440 0.0725352 0
0.5617902 0.0184041 0.0619174 0
0.7320037 0.1334769 -0.2650818 0
0.5140606 0.1377646 -0.1807985 0
-0.4707106 0.2468686 0.0407811 0
-0.7668787 0.2539978 -0.2573671 0
0.1702617 0.2389497 -0.0214906 0
0.5359870 0.0435369 0.0661052 0
-0.4645727 0.2334090 -0.2254623 0
-0.5328008 0.0357330 -0.0467049 0
0.7259585 0.4580508 0.1336841 0
-0.5246355 0.0437727 0.0703959 0
0.3454048 0.3372509 0.1897303 0
-0.0514047 0.0077501 0.2519854 0
0.6383040 -0.0218934 0.0044149 0
-0.2151047 0.2897339 -0.1911843 0
0.8656381 0.1411246 -0.0115884 0
-0.2333980 0.3966783 -0.0506676 0
-0.7716256 0.1140111 -0.2213406 0
-0.8110368 0.4310330 0.0025369 0
0.5190750 0.3265936 -0.1829999 0
-0.0003632 0.3856289 -0.1096306 0
-0.6970945 0.2628223 0.3052476 0
-0.1476143 0.1070751 -0.1110270 0
-0.1511195 0.2852932 0.0976796 0
-0.2345077 0.2646806 0.2103158 0
0.3548197 0.0597419 -0.2842836 0
0.6076398 0.0207567 0.1512761 0
0.7436708 0.4544428 0.1209378 0
-0.5274911 0.1305835 0.1094817 0
-0.7618736 0.4215457 0.1703352 0
-0.8246506 0.4076890 -0.0421247 0
-0.1786505 0.3378023 -0.0132918 0
0.2512616 0.2680100 -0.2308006 0
-0.4619776 0.2509614 0.2019913 0
-0.3027381 0.0224933 -0.2553599 0
0.4390278 0.0166431 0.1935789 0
-0.3421420 0.4405369 0.0193672 0
0.7820836 0.3477138 0.2163954 0
0.4360474 0.3693129 0.0816484 0
-0.4609379 0.3353761 0.1400853 0
-0.4391539 0.0004253 -0.2091325 0
0.6883893 0.4917174 -0.0164956 0
-0.1733790 -0.0202283 -0.0256152 0
0.3695653 0.1043297 0.2691943 0
0.4696422 0.2828674 -0.0778942 0
0.1559109 0.2354955 -0.0160949 0
0.8499751 0.1379988 -0.1055413 0
-0.4537252 0.2753785 0.1993176 0
-0.6021380 -0.0186358 0.0608849 0
-0.0670006 0.0566085 0.2668577 0
-0.6897712 0.2409414 -0.2902532 0
0.4526072 0.3740661 -0.0501386 0
-0.4077604 0.1633952 -0.2782892 0
-0.1112176 0.3262365 -0.1522865 0
0.0763492 0.3498480 0.1012324 0
-0.6717910 0.2723685 -0.2877565 0
0.0001679 -0.0323963 0.2312884 0
-0.4937873 0.2410922 0.1315011 0
0.7211845 0.0289715 -0.1677913 0
-0.5135548 0.3117391 0.0384264 0
0.5167949 0.0909213 -0.1237801 0
-0.1296449 0.1672577 -0.0023571 0
-0.5159076 0.0554240 -0.0061492 0
-0.7353331 0.2777779 0.2872823 0
0.1204039 -0.0151851 0.1291300 0
-0.8281298 0.3571123 0.1287446 0
0.4950694 0.1713546 0.1668464 0
0.2524369 0.3806898 -0.0443028 0
-0.6823415 0.3636665 0.2703014 0
0.7917634 0.2655866 -0.2444156 0
0.5107793 0.0802457 0.0745130 0
-0.2673447 0.2536617 -0.2551430 0
-0.5123419 0.1575383 0.1576558 0
-0.1222599 0.2410359 0.1970351 0
0.4044947 -0.0598727 -0.1710911 0
0.0602739 -0.1140443 0.0397054 0
0.1599435 0.2212595 0.0805791 0
-0.2782902 -0.1008669 -0.1065748 0
-0.1554393 0.0309595 0.0386672 0
0.6632859 0.4355700 -0.1901175 0
0.5919260 0.0075200 0.0970143 0
0.7910147 0.3286676 0.2170258 0
0.3345519 0.0164117 0.2354708 0
-0.6088352 0.1560972 0.2789208 0
-0.2444016 -0.0838534 -0.0983100 0
0.5002140 0.3039600 0.1465079 0
-0.2414637 0.3199029 -0.1961190 0
0.1926020 -0.0138539 0.0240320 0
-0.4192836 0.1198909 0.2585734 0
-0.3778972 0.4311185 0.0545275 0
-0.5352904 0.4273680 -0.0342903 0
-0.0456862 -0.1070927 -0.1373960 0
0.8144419 0.3866521 0.1183791 0
-0.5036000 0.3209595 -0.0859195 0
0.1803472 0.0241408 -0.1022091 0
-0.1036277 -0.0173887 -0.2184384 0
0.3273860 0.0322408 0.2435088 0
0.0594548 0.2952149 0.2025394 0
0.8630677 0.1682021 -0.0880267 0
-0.7212873 0.0214621 -0.1684906 0
-0.0196716 0.1713777 0.2923226 0
-0.0200739 0.1786780 0.2909426 0
-0.5033653 0.3160148 0.1275485 0
-0.3419960 0.3747307 0.1820353 0
-0.0345677 0.2317446 0.2711936 0
-0.4808576 0.2640329 -0.1918226 0
-0.3803128 0.3133080 -0.2383867 0
-0.1972647 0.1068401 -0.1044339 0
0.8717629 0.1626266 0.0055686 0
0.1972842 -0.0216706 0.0228869 0
0.1990680 0.0027722 -0.1269157 0
0.1517504 0.2328732 -0.1398481 0
0.1597237 0.2615770 -0.0553836 0
-0.2429660 0.2348296 -0.2462714 0
-0.2778595 0.1745392 0.2682466 0
-0.1505214 0.1791377 -0.2181941 0
0.1678508 0.0750340 0.0761406 0
0.1586334 0.0816393 0.1104487 0
0.1816364 0.2453998 -0.1409985 0
-0.0586009 0.3083249 -0.2278503 0
-0.4794906 0.2629794 0.0796049 0
0.4814391 0.3461611 -0.0417950 0
-0.4000492 0.0165567 0.2353455 0
-0.3971024 0.4112285 0.0989567 0
0.8557171 0.1200037 0.0303793 0
0.2117270 0.0810884 0.1706280 0
-0.1946348 0.0324427 -0.1727391 0
0.2333873 -0.0564784 -0.0928859 0
0.5663673 0.2889630 -0.2576984 0
-0.5051153 0.3744133 -0.0596660 0
0.1818142 0.1650753 0.0213920 0
0.6865846 0.0158405 0.1685329 0
-0.4547063 -0.0630213 0.0984985 0
-0.7347295 0.4533931 -0.1341342 0
0.3501434 0.0485040 -0.2797041 0
-0.1391070 -0.0298806 0.1155562 0
-0.6241072 0.3269432 0.2784570 0
0.7090160 -0.0197658 -0.0082535 0
-0.4963047 0.0194770 -0.1487788 0
-0.8231764 0.3733388 0.1218395 0
0.1598867 0.2470211 0.0480828 0
-0.4533668 0.0200417 -0.2095786 0
0.0139081 0.3905383 0.0647677 0
0.6873654 0.4913039 -0.0242252 0
-0.7346755 0.4391812 0.1737642 0
0.5028674 0.0920964 -0.1907975 0
-0.5581452 0.2427161 0.2461184 0
0.5335814 0.2289646 0.0463200 0
-0.1413178 0.0432335 0.1786274 0
0.6728280 0.4869758 0.0729301 0
-0.5933161 0.4497283 0.1345016 0
0.5336896 0.2333998 -0.0910552 0
0.0302060 0.0491457 -0.2929905 0
-0.2157005 -0.0774470 0.0019937 0
0.5963652 0.4079849 -0.1987691 0
-0.0968808 0.0772888 -0.2770180 0
0.3879446 -0.1076596 -0.0542726 0
-0.7941208 0.4244637 -0.1027431 0
-0.5821046 0.4708450 0.0347817 0
-0.0738978 0.3236467 0.1770057 0
0.2478051 0.1924124 -0.2592281 0
0.4583464 0.2265003 -0.0057185 0
-0.4939765 0.1767843 0.1206762 0
0.6527993 0.1792835 -0.2968370 0
0.3651379 -0.0996393 0.0820192 0
-0.3440140 0.0940782 0.2798551 0
0.0240822 -0.1316274 -0.0311009 0
0.8611225 0.3195615 -0.0734076 0
-0.7818320 0.1500035 -0.2304048 0
0.5587779 0.2989339 0.2453820 0
0.0470793 -0.1152250 -0.0882586 0
0.5401267 0.0682594 -0.0565357 0
-0.4527689 0.3648446 0.1124919 0
-0.8059750 0.1931529 0.2195104 0
-0.0786533 0.2168949 -0.2795426 0
0.3595563 -0.1128496 0.0238914 0
-0.1217396 -0.0846983 0.0341414 0
0.1440353 0.2923505 -0.0624974 0
0.7299322 0.2798651 0.2922748 0
0.1858023 0.3077872 -0.0284406 0
0.5167996 0.1644618 -0.1925749 0
-0.8748712 0.2574828 -0.0472889 0
-0.3271967 0.1060209 -0.2880990 0
0.5416284 0.4035146 0.1320662 0
-0.5313734 0.1937134 0.0947025 0
-0.2079499 -0.0435378 0.0886012 0
-0.7716734 0.3320703 0.2386823 0
-0.4703502 0.1417701 -0.2333793 0
-0.3858277 0.0914958 -0.2794750 0
-0.6241108 -0.0191675 -0.0822189 0
0.8761505 0.2082198 -0.0460581 0
-0.1350628 0.1127335 -0.0558571 0
0.7875892 0.3499758 0.2074141 0
-0.5643894 0.3402058 -0.2150730 0
-0.1133109 -0.0633198 -0.1460225 0
0.8020219 0.0979771 0.1658034 0
0.1438868 -0.0145931 -0.1002009 0
-0.5217877 0.0442314 -0.1102404 0
-0.4536577 0.3317055 0.1550608 0
-0.4935968 0.0126694 0.1229440 0
0.5952220 0.3039220 0.2770022 0
0.4901549 0.2173221 0.1627659 0
-0.5741306 0.2983797 0.2526018 0
0.6645089 0.4611295 -0.1448338 0
0.0207680 0.3932026 -0.0631957 0
0.2428700 0.0380648 0.1914258 0
-0.2389146 0.3384347 0.1600064 0
0.4739672 0.1602482 0.0559552 0
-0.5316336 0.1001367 0.0887864 0
-0.1403195 0.2388865 0.1693718 0
0.0669656 0.3682434 0.0675996 0
0.5028223 0.2807482 0.0898062 0
0.0095026 0.0986931 -0.3109194 0
-0.5525639 0.3632055 -0.1847459 0
0.5173576 0.1245848 -0.1723301 0
-0.5341921 0.2678349 -0.0460021 0
0.4309292 -0.0787577 -0.1016872 0
0.7043765 0.2391409 -0.3004565 0
-0.7994251 0.4421013 -0.0204478 0
0.6076540 0.1690843 0.2864990 0
-0.6752966 0.1831764 -0.2868989 0
-0.6529430 -0.0253553 0.1024328 0
0.3618597 0.2080436 0.2673223 0
0.7912694 0.2317009 -0.2476891 0
0.7025899 0.0979316 0.2619830 0
-0.1129268 0.3524040 0.0555772 0
-0.0204686 -0.0899344 0.1616530 0
-0.5589834 0.4174787 -0.1295485 0
0.1161769 0.1999438 -0.2304207 0
-0.5803248 0.1697682 0.2610990 0
-0.5422592 0.1770750 0.0624096 0
-0.2718954 0.1708514 0.2650879 0
-0.5855188 0.4314539 0.1569613 0
0.4585860 0.2288168 -0.0145752 0
-0.4045506 0.3516162 0.1851900 0
-0.7627445 0.4672353 -0.0514062 0
0.2075305 0.0998032 0.1703194 0
0.5371372 0.1769074 -0.1180276 0
-0.6668016 0.4411534 0.1967220 0
0.7543022 0.2371010 0.2806430 0
0.5360051 0.0844342 -0.1552799 0
-0.1253242 -0.0851634 -0.0366496 0
-0.2492165 0.4107610 -0.0351566 0
0.0046065 0.2049421 -0.3025492 0
0.6180418 0.1431521 -0.2751861 0
0.5036046 0.2636572 -0.1840954 0
0.3198499 0.3546013 -0.1901223 0
-0.2679968 -0.0935775 0.1006854 0
-0.7697700 0.0033689 -0.0741006 0
-0.1734869 0.0619846 0.1255063 0
0.8596310 0.1972851 0.1019298 0
0.4113029 -0.0934989 0.0566204 0
-0.1039302 0.3358048 0.1193391 0
0.5231696 0.2355511 0.0782005 0
0.7374131 0.3528639 0.2564383 0
0.1177297 0.1042071 0.2033072 0
-0.3859424 -0.1169072 -0.0806122 0
0.3283771 0.3930180 -0.1211544 0
0.7219718 -0.0162487 -0.0060411 0
-0.6874239 0.4839150 0.1098051 0
-0.3809477 -0.0109698 0.2265365 0
-0.8250595 0.3970638 0.0746400 0
-0.8147559 0.2654776 0.2062926 0
-0.5089167 0.1956538 0.1480899 0
0.4234449 0.3527460 0.1325463 0
-0.8715206 0.1613145 -0.0242200 0
0.5384778 0.2571940 0.2303151 0
0.3041328 0.1377436 -0.2941902 0
-0.0651661 0.3871172 0.0345496 0
-0.3129964 -0.1294117 0.0285702 0
0.4777659 0.1839551 -0.1110074 0
-0.5359501 0.3986596 -0.1144240 0
-0.5105398 0.3747298 -0.0826029 0
0.5965239 0.3297206 0.2668342 0
0.2632927 0.3705316 0.0826707 0
-0.5404680 0.2723037 -0.2163676 0
-0.1332050 -0.0428773 -0.1425120 0
0.1795394 0.1748230 -0.0748494 0
-0.5580088 0.2251208 -0.2403566 0
-0.7989748 0.0205748 0.0472365 0
-0.1625683 0.2558540 0.1042911 0
-0.1972601 0.2013369 0.0263179 0
-0.0690318 0.1601716 -0.2994947 0
-0.5810182 0.0628612 -0.1851759 0
-0.1587374 0.0159949 0.0258229 0
0.5101048 0.0267804 0.0806875 0
0.5038030 0.3484372 0.1180745 0
-0.3934372 -0.0180757 -0.2245195 0
0.6698944 0.2525263 0.3133458 0
0.8465655 0.1558797 -0.1340424 0
0.5522839 0.1436959 -0.0160378 0
0.0043301 -0.0886166 -0.1819621 0
-0.3196140 -0.1162631 0.0914181 0
0.4094210 0.2887027 -0.2423698 0
-0.4786690 0.3128638 -0.0326492 0
0.4564281 0.2254879 0.2061262 0
-0.3178851 0.0740192 -0.2795507 0
0.1348840 0.2996873 0.0518291 0
-0.5735067 0.4664570 0.0150817 0
-0.0202426 0.1944038 -0.3062372 0
0.5879232 0.0271085 -0.1377871 0
-0.5558096 0.4313589 -0.0957316 0
-0.1593899 0.2998476 -0.0723667 0
-0.6441783 0.4441634 0.1870075 0
0.7100486 0.4831518 -0.0572471 0
0.4107229 0.1778653 0.2559978 0
-0.5559686 0.0980068 0.1960476 0
0.6376535 0.2203654 -0.3009466 0
0.5481946 0.1623328 0.0185966 0
-0.2099290 0.0101950 0.1575718 0
0.1861979 0.1858685 -0.1826945 0
0.5672454 0.3597952 0.2207836 0
0.3342719 0.4122930 0.0089674 0
-0.8314431 0.0566712 0.0102374 0
-0.0375563 0.0394351 -0.2930937 0
-0.5158655 0.0635117 0.1124807 0
-0.1365971 0.1155931 -0.2438374 0
-0.2237324 -0.0228550 0.1476186 0
0.1530857 0.2217444 -0.0332794 0
-0.6719877 -0.0241494 -0.0924810 0
0.4093204 0.3973848 0.0344951 0
0.5313225 0.0388362 0.0133429 0
0.2219218 -0.0381019 0.0709025 0
0.7444178 0.4559917 0.1157303 0
-0.6103792 0.1285962 0.2687833 0
0.7856313 0.3934567 -0.1698488 0
0.0694152 0.2702123 -0.2403673 0
-0.2158770 0.3402844 -0.1416876 0
0.4480132 0.0889678 -0.2560105 0
0.3188133 0.2999274 -0.2462195 0
-0.7625954 -0.0040563 -0.0651755 0
0.4457105 0.3250096 -0.1788893 0
-0.4900373 0.1204555 0.0531756 0
0.0974677 0.1643057 0.2309883 0
0.3378230 0.2853696 0.2336306 0
0.7521467 0.0986218 0.2318596 0
-0.1821157 0.3337145 0.0404775 0
-0.7315889 0.3467836 -0.2482297 0
0.5375199 0.0939576 -0.1696720 0
-0.8307221 0.3683043 -0.1093882 0
0.7403724 0.1943079 0.2869568 0
-0.4237028 0.4106360 0.0585828 0
0.7835163 0.0174122 0.0170711 0
0.1943462 -0.0071381 -0.0938791 0
0.8670663 0.2541671 0.0802982 0
-0.0326834 0.3760360 0.1137123 0
-0.2045515 0.0906854 0.0023581 0
-0.0799651 0.3318518 0.1595766 0
0.4574753 0.3557733 0.0703123 0
0.4048310 0.4027936 0.0041384 0
0.1885593 0.0883282 -0.1789133 0
0.0682288 0.1894192 0.2560424 0
-0.0500576 -0.1054822 -0.1382249 0
-0.0620630 0.3438785 0.1582593 0
-0.1560790 -0.0041329 0.1072497 0
-0.2608015 0.4154394 -0.0511554 0
-0.4558920 -0.0830243 0.0403934 0
-0.3938885 0.1998462 -0.2800807 0
-0.1493866 0.2468902 -0.0826782 0
-0.4894609 0.3343965 -0.0643079 0
-0.5135093 0.3688399 -0.1027058 0
-0.2810128 -0.0509686 -0.1890683 0
-0.2754070 0.2375490 -0.2650821 0
0.1203162 0.3029534 -0.1299301 0
0.1435557 0.2748218 0.0699269 0
0.5484461 0.4225272 0.1103566 0
-0.6249372 0.4639980 -0.1236882 0
0.0568113 -0.0075043 0.2247675 0
-0.0328971 0.0636829 -0.3028027 0
0.6719120 0.3095745 -0.2915049 0
0.1892862 0.2328064 0.1207904 0
-0.6847551 0.4459278 -0.1707034 0
0.4307175 0.3774675 0.0690652 0
-0.6763765 0.3380798 0.2849527 0
0.1732668 0.1202460 0.0719288 0
0.0353899 -0.1289230 -0.0005617 0
0.2146452 0.3460601 0.0096765 0
0.2789692 0.3266936 -0.2028104 0
0.8128787 0.3934444 0.1108409 0
0.1425779 -0.0363117 -0.0281929 0
-0.2063751 0.2715156 0.1705739 0
0.5454149 0.0956086 0.1790475 0
0.5024516 0.0463080 0.1192071 0
0.4028873 0.0516286 0.2408987 0
0.8322544 0.0852519 -0.0776589 0
-0.0609147 0.2791093 0.2314194 0
-0.2539460 0.4153052 -0.0178590 0
-0.3239436 0.3573991 -0.2063379 0
0.6696784 0.3580388 -0.2673142 0
-0.4963617 0.3038347 -0.1320830 0
0.2357184 0.1148976 -0.2502545 0
-0.0898430 -0.1058655 -0.0804394 0
-0.1363030 0.2901009 -0.1618992 0
0.4772634 0.1360296 -0.0481006 0
-0.2862043 -0.1001212 0.1072877 0
-0.1754932 0.0706774 0.1180283 0
0.4728042 0.3015487 0.1305116 0
0.4761138 0.2816219 0.1450297 0
-0.4169571 -0.0241889 0.1948193 0
-0.7154726 0.3087191 -0.2717507 0
0.3156399 0.3806727 -0.1445946 0
0.2499243 0.0483829 -0.2402315 0
-0.3220618 0.0139122 0.2478854 0
-0.6828653 0.4600509 -0.1477986 0
0.1558580 0.0023298 0.0398151 0
-0.4614111 0.3324398 -0.1610026 0
-0.7646337 0.1406716 -0.2413038 0
0.3420916 0.4049158 0.0601831 0
0.7236328 -0.0140789 0.0378999 0
0.5343795 0.3211802 -0.2097689 0
0.6798305 0.3038215 0.3022479 0
-0.5535586 0.2344430 -0.2358923 0
-0.0540930 0.2177612 0.2700691 0
0.0679730 -0.1138031 0.0027052 0
-0.8331066 0.1375109 -0.1505856 0
-0.5704200 0.0440183 0.1585533 0
-0.5095147 0.2503978 -0.1518262 0
0.7980123 0.3347687 -0.2090125 0
-0.1600234 0.0298466 0.1314425 0
0.1983221 0.0880369 -0.1961643 0
-0.0919244 -0.1067301 -0.0703281 0
0.4714516 0.3241258 0.0077352 0
0.7839758 0.4514919 -0.0053219 0
0.3284694 0.4117613 0.0072368 0
0.1523221 0.2181355 -0.0334802 0
0.7232376 -0.0132607 0.0463190 0
0.7869693 0.1460777 -0.2293966 0
0.0841822 0.1602421 0.2467581 0
0.1849940 0.1466843 -0.0456663 0
-0.6870136 -0.0342628 -0.0494600 0
0.1231895 0.2520651 0.1512541 0
-0.4196068 0.3652565 0.1566319 0
0.5874223 0.1566452 -0.2651916 0
-0.1241772 0.2455862 -0.2234598 0
-0.3573482 0.3759935 -0.1858892 0
0.8420989 0.2766533 0.1493724 0
-0.1593309 0.1034075 -0.2075953 0
-0.7059707 0.4814398 -0.0898381 0
0.4707535 0.2194307 0.1909115 0
-0.8236716 0.3623407 -0.1345583 0
0.1960789 -0.0211743 0.0177079 0
-0.6913444 0.3627492 -0.2513344 0
-0.2280296 0.3608116 -0.1312706 0
0.2330752 0.2774177 0.1670518 0
-0.6864008 0.0182121 -0.1763390 0
0.1503184 0.1548221 -0.0797378 0
0.1002612 0.1019848 -0.2597508 0
-0.0831708 0.2251050 0.2485004 0
-0.3469364 0.4125020 0.1229705 0
-0.6464909 0.0403083 0.2191946 0
0.6480909 0.2165991 0.3113908 0
0.2755660 0.0118900 -0.2368844 0
0.8298193 0.4003855 0.0194602 0
0.0467851 0.3116802 0.1962413 0
-0.3730840 0.3760712 0.1745195 0
-0.2805666 0.4271987 0.0275375 0
0.1573937 0.1367625 -0.1694838 0
0.0748099 0.3113925 -0.1946505 0
-0.3850079 0.1696855 0.2779170 0
0.6171356 0.4729173 -0.0888676 0
0.5299340 0.1931597 -0.1354004 0
0.2537469 0.3793795 -0.0599026 0
-0.3496800 0.4395804 0.0274930 0
-0.4633668 0.1197302 -0.2381519 0
0.5418816 0.4337267 -0.0603295 0
0.2541995 0.2727281 -0.2302680 0
-0.2056774 0.1076827 0.0062527 0
-0.4006540 0.3149308 -0.2292523 0
-0.7010521 0.0080635 0.1751014 0
-0.6510379 0.4793890 -0.1018527 0
-0.6169626 0.2556887 -0.2787301 0
0.6409515 0.0478171 0.2145829 0
0.6060603 0.4602591 0.1210825 0
0.2088306 0.2734443 0.1305299 0
-0.7221048 -0.0142136 0.1140178 0
0.5058500 0.1832893 0.1451110 0
0.2461043 0.2236743 0.2127585 0
0.4878540 0.0798503 0.1661093 0
-0.1912879 -0.0443677 0.0270949 0
-0.3934401 0.0257922 0.2437782 0
0.0202866 -0.0400604 -0.2389496 0
-0.4899638 0.2992896 -0.1063037 0
0.8497210 0.2510175 -0.1541063 0
-0.5927808 0.4747849 0.0542162 0
-0.1873268 0.1969163 -0.1238542 0
0.6965029 0.4146599 -0.2139383 0
-0.0719923 -0.1213144 0.0222869 0
0.7763965 0.3199024 0.2398882 0
-0.7682773 0.4376032 0.1349239 0
0.3434884 0.1321795 0.2746603 0
0.5357844 0.1666934 -0.1252442 0
0.1702272 0.0352191 0.0203385 0
0.3827376 0.3376578 0.1823627 0
-0.8754470 0.2110686 0.0406716 0
0.2877761 0.1948843 -0.2837264 0
-0.4260909 0.0820402 0.2459925 0
-0.7535332 0.4427111 -0.1345170 0
0.0044458 0.3892608 0.0760352 0
-0.7255333 0.4900723 -0.0193169 0
-0.6635700 0.0873772 0.2642655 0
-0.1353408 0.1422223 -0.2459189 0
-0.1037466 -0.0970632 0.0505465 0
0.4087525 0.3975901 0.0347121 0
0.6782147 0.2049243 -0.3025678 0
-0.8215449 0.1784716 -0.1918073 0
-0.6557004 0.3876957 -0.2336207 0
-0.1895644 0.2954184 0.1217448 0
-0.4491707 0.2635358 0.2106557 0
0.2846073 -0.0651547 0.1262002 0
-0.5242931 0.2239902 -0.1333195 0
0.7682791 0.2113944 -0.2671623 0
0.1845774 0.1158138 0.0085243 0
0.7172426 0.3810209 0.2475366 0
0.6659288 0.4387137 -0.1855223 0
0.3289733 0.4009134 -0.0972323 0
0.6139505 0.4569203 0.1380450 0
-0.5255888 0.2902852 -0.0495557 0
0.3500474 0.3843801 0.1189724 0
0.0001860 0.0330985 -0.2928869 0
-0.3384465 0.4409121 -0.0199417 0
-0.4840709 -0.0536794 -0.0541898 0
-0.0899356 -0.1136687 -0.0027762 0
0.5280267 0.2570896 0.0340403 0
-0.1612342 0.0557874 0.1458860 0
-0.5089735 0.3205085 -0.1429060 0
-0.3254738 0.4204930 0.1025817 0
-0.6464903 0.1896643 -0.2855574 0
0.5363881 0.4325673 0.0346944 0
0.5049788 0.2272503 0.1301903 0
0.1825774 0.1317156 -0.0713782 0
-0.7695093 0.4353301 0.1371635 0
0.5482239 0.4018313 0.1478025 0
-0.8720833 0.2992280 0.0169569 0
0.0294139 -0.0581575 0.1953232 0
0.1823785 0.0055953 -0.0713114 0
0.8588266 0.2817535 0.0998856 0
-0.2047268 0.1181556 0.0184454 0
0.8710247 0.1805907 0.0415247 0
0.1648371 0.2482544 0.0271146 0
-0.8151139 0.3512255 -0.1624497 0
-0.6710629 0.4878658 0.0990528 0
-0.3986576 0.4266378 0.0429045 0
0.4301232 0.3912969 -0.0262471 0
-0.5506969 0.4416669 -0.0468746 0
-0.4778622 0.1465855 -0.0217012 0
-0.1045289 0.3374642 -0.1425828 0
0.5155305 0.1555798 0.1742378 0
0.0863671 0.3490494 -0.1092963 0
-0.1479484 0.0393216 -0.0313576 0
0.1780464 0.2785045 -0.0843018 0
-0.1386858 0.1652734 0.0541727 0
0.1730443 0.1098871 0.0708533 0
-0.4914442 0.2076029 0.1233354 0
-0.5281948 0.1930578 0.2005221 0
0.7317226 0.3821798 -0.2323579 0
0.0561827 0.3641950 -0.1236180 0
-0.7894530 0.1147073 0.2095084 0
-0.4299751 0.0236191 0.2182998 0
-0.3667917 0.4345971 -0.0558747 0
0.1487306 0.1839708 0.0073293 0
-0.5602378 0.4093589 0.1515426 0
-0.4765439 0.1497958 0.2048960 0
-0.0701324 -0.0497402 -0.2145196 0
0.0688223 -0.0438022 0.1792869 0
0.3015520 -0.1069187 -0.0420352 0
0.2316519 0.0555021 0.1874432 0
-0.2737938 0.4254295 -0.0253449 0
0.3590426 0.3885625 0.1087315 0
-0.4792984 0.3528040 -0.0956646 0
0.1253693 0.0032087 -0.1752007 0
0.7699941 0.2111399 0.2652231 0
0.0656320 0.3353158 -0.1708035 0
-0.4892927 0.1122552 -0.0305351 0
0.1439972 -0.0214879 0.0448615 0
-0.1433782 0.2501681 -0.0394958 0
0.4949514 0.2761297 0.1467209 0
0.3869114 0.1639851 -0.2957740 0
0.6164349 0.0730021 0.2314165 0
0.5111896 0.0022204 -0.0804298 0
-0.3555048 0.3249206 0.2284286 0
0.1847647 0.0953793 -0.0163396 0
0.3881663 0.4061642 0.0249310 0
0.5334031 0.1307172 -0.1974099 0
0.8543160 0.2163748 -0.1420447 0
0.5238464 0.1821237 0.2012783 0
0.8695600 0.1834756 -0.0703851 0
-0.8439042 0.2985848 0.1359115 0
-0.7400835 -0.0056162 0.1153853 0
-0.2796889 0.4248779 0.0407709 0
-0.1843381 0.2029689 -0.1300219 0
-0.1685692 0.2123687 0.1304621 0
-0.1742270 0.1197686 0.1491546 0
0.6941847 0.2017185 -0.3001844 0
-0.1642082 0.0578034 0.1401218 0
0.2196253 0.2692357 -0.1939975 0
0.4282985 0.3815464 0.0607584 0
0.6482251 0.4307248 0.2037314 0
-0.1523277 0.1307666 0.0994889 0
-0.2154187 0.0488537 0.1906270 0
0.5005550 0.3842156 -0.0463206 0
-0.3134734 0.0852102 0.2744465 0
0.0595386 0.3830045 0.0005892 0
-0.8534185 0.2780808 0.1196205 0
0.4863458 0.1358496 0.0798852 0
-0.6409972 -0.0100611 0.1380228 0
0.5758643 0.4249838 0.1556459 0
-0.3145054 -0.1312358 -0.0161620 0
-0.8230385 0.0877163 -0.1236777 0
-0.2661670 0.3953845 0.1106743 0
0.5604541 0.1218166 0.2223251 0
0.7626071 0.3824434 -0.2090921 0
0.8420501 0.0949236 0.0448219 0
0.0046763 -0.1211255 -0.1085234 0
0.3682957 0.2978232 -0.2499130 0
0.4843868 0.3416696 -0.0596866 0
0.1417280 0.1182700 0.1612234 0
-0.7949126 0.0492026 -0.1265741 0
-0.0341972 0.2856759 0.2379861 0
0.1262940 -0.0609669 -0.0056168 0
0.6588734 0.4419003 0.1891276 0
0.8476489 0.2706961 0.1374934 0
-0.4700829 0.3313784 0.1293146 0
0.2721394 -0.0862802 0.0570874 0
-0.3707004 -0.1309317 -0.0159150 0
0.7935179 0.3721425 -0.1834825 0
0.7766140 0.1493010 -0.2415161 0
0.2142649 0.2178573 -0.2166167 0
-0.1655817 0.1905016 0.1302733 0
-0.0437985 0.3956088 0.0209626 0
0.0210727 0.3955941 -0.0444003 0
0.3725449 0.1748950 0.2714022 0
0.6179172 0.2019129 -0.2930999 0
-0.0432818 0.0280331 -0.2864614 0
0.0758519 0.3656492 -0.0796794 0
0.7024037 0.1706489 -0.2913522 0
-0.1747800 0.1947150 -0.1774714 0
0.7927632 0.2245593 0.2407940 0
0.4208314 -0.0982220 -0.0133868 0
0.2944163 -0.1058101 -0.0067048 0
-0.2448618 -0.0521344 -0.1564075 0
-0.3300397 0.4141876 0.1184883 0
0.0524006 -0.0109403 -0.2488372 0
-0.7777154 0.1816304 0.2524434 0
0.3458827 -0.1144450 0.0115216 0
-0.2389603 0.0327321 -0.2254598 0
-0.3280412 0.0443409 0.2635914 0
0.2954464 0.2048107 -0.2847455 0
-0.6374670 0.4752685 -0.1056743 0
0.8621911 0.1341131 -0.0302483 0
-0.3212233 0.1637163 0.2842579 0
0.4078657 0.1804717 0.2572678 0
-0.0216317 0.1272146 -0.3143852 0
-0.2754235 0.4139272 -0.0874983 0
0.1652178 0.1932653 -0.1293162 0
-0.1241985 0.2919165 0.1492529 0
-0.6341946 0.0474565 0.2221583 0
-0.5522866 0.2015415 -0.2325416 0
-0.2544263 0.2441002 0.2376520 0
0.0653203 0.3724657 0.0548326 0
0.4998257 0.1156619 -0.2027588 0
0.0335494 0.3387372 -0.1924416 0
-0.6852143 0.4898496 0.0896800 0
-0.0187748 -0.1347936 -0.0415295 0
0.3369324 -0.1053176 0.0640986 0
-0.6051028 0.1189571 -0.2463431 0
-0.2194039 0.1803871 -0.2384512 0
0.0822111 0.2477709 -0.2447712 0
-0.2828139 0.0595188 0.2549923 0
-0.3771417 0.0813809 0.2715177 0
0.4407660 -0.0773097 -0.0851620 0
-0.7249137 -0.0286671 0.0495102 0
-0.5725956 0.3327803 -0.2272283 0
0.7118470 0.4555532 -0.1437635 0
0.6093587 0.0282178 0.1670080 0
-0.3923371 0.3426041 -0.2105110 0
-0.5351430 0.0420329 0.0734576 0
0.6927860 -0.0047711 0.1178964 0
-0.3620668 0.0762359 0.2737012 0
0.6758757 0.4932628 0.0074850 0
-0.5031232 0.3603892 -0.0807211 0
0.3451656 0.2415097 0.2571730 0
0.1402467 0.3048251 -0.0047846 0
-0.6454709 0.4970121 -0.0128122 0
0.1665521 0.2681568 -0.0125984 0
-0.8418191 0.3148797 -0.1362420 0
-0.0885069 0.2697702 0.2171223 0
0.4953788 0.3365372 -0.1216084 0
-0.2051728 0.1901648 -0.2219962 0
0.2661192 -0.0321606 -0.1876759 0
0.0466504 -0.1130997 -0.0970993 0
-0.2643947 0.1517202 -0.2729235 0
0.6367254 0.0030455 0.1346105 0
-0.5044143 0.3390339 0.1102884 0
0.0435493 0.1407751 0.2807920 0
0.3024970 -0.0672628 0.1376244 0
0.7153618 0.1044672 -0.2543983 0
0.1458369 -0.0265599 -0.0548035 0
-0.3252119 0.0280023 -0.2626953 0
0.0109561 0.0127627 -0.2810314 0
0.2202093 0.2123498 -0.2261871 0
0.3772617 0.4104020 0.0069060 0
0.1536016 0.1805772 0.1254285 0
-0.1938647 0.1851985 -0.1055382 0
-0.8318825 0.1213339 0.1375308 0
0.4949326 0.0523851 -0.1836831 0
-0.7302820 -0.0267121 -0.0332475 0
-0.1153921 -0.0650863 -0.1387596 0
0.7829996 0.4384696 -0.0870789 0
0.1399066 0.2001619 -0.1911547 0
-0.0149989 0.3998404 0.0164677 0
0.3062400 -0.0313603 0.1874584 0
0.4025939 -0.0777259 -0.1401424 0
-0.8748785 0.2266145 -0.0548452 0
0.1117368 0.1459906 -0.2485467 0
-0.3383627 -0.1130382 -0.1114361 0
-0.5201061 0.2954705 -0.1791009 0
-0.5450956 0.0512907 -0.1175293 0
0.1634362 0.0980547 -0.1200510 0
0.8676116 0.1743272 0.0544136 0
0.2344987 -0.0215902 0.1255698 0
-0.1489887 0.2248279 -0.1017147 0
-0.7885282 0.4150280 -0.1313975 0
-0.1514865 0.1005720 -0.2203591 0
-0.8179650 0.4225730 0.0050758 0
0.6191458 0.4855667 -0.0137750 0
-0.2301606 0.3665607 -0.1250517 0
0.1692385 0.2414352 -0.0277730 0
0.2824713 -0.0142252 0.1895473 0
-0.2880656 -0.0472097 0.1879649 0
-0.0561208 0.2593874 -0.2691413 0
-0.5268279 0.0815886 0.0938332 0
-0.4922805 0.0304917 0.1408802 0
-0.6098278 0.0049533 -0.1291049 0
0.4283523 0.1079003 0.2422816 0
0.8058029 0.0479036 -0.0724859 0
-0.5725315 0.0954256 -0.2064224 0
-0.5857111 0.0823927 0.2194001 0
0.6403834 0.4889481 0.0425704 0
-0.8109057 0.2296716 -0.2147539 0
-0.8265869 0.2289431 0.1895295 0
0.4940267 0.1352418 -0.1210491 0
0.1697903 0.1136746 0.0841893 0
-0.0611592 0.3583272 0.1332000 0
-0.1600617 0.0255945 0.1278478 0
0.5590766 0.1912072 0.2521014 0
-0.3126062 0.3636973 -0.1972024 0
0.7661147 0.0384169 -0.1393391 0
0.8028110 0.0435891 0.0640226 0
-0.1719980 0.1071156 -0.1829685 0
0.0440414 0.3095986 0.2005738 0
-0.0575419 0.3641811 -0.1453776 0
-0.1366407 0.1103201 0.0332583 0
-0.7727712 0.4626922 -0.0387254 0
-0.8562264 0.3393963 0.0535339 0
-0.2040723 -0.0491561 -0.0863886 0
0.6507307 0.0134398 0.1636327 0
-0.7527980 0.4488526 0.1364901 0
-0.2403468 -0.0874018 -0.0795176 0
0.4663991 0.1783302 -0.0490186 0
-0.1561060 0.0892801 0.0964304 0
0.8154751 0.0588687 0.0639769 0
-0.0031224 -0.1101660 0.1218765 0
0.2983661 -0.0329888 -0.2097635 0
-0.7814926 0.1317433 -0.2221677 0
0.6525962 0.1688716 -0.2938258 0
0.7829542 0.1750346 -0.2461138 0
-0.1288681 0.0083955 -0.2094781 0
-0.8544770 0.1145836 0.0514550 0
-0.1844400 0.0347176 0.0585407 0
-0.7782250 0.4593488 0.0438728 0
0.5449354 0.3990506 -0.1499410 0
-0.4263917 -0.1063113 -0.0479021 0
0.1863250 0.1004863 -0.1793347 0
-0.7731135 0.1133657 0.2286894 0
0.5275964 0.2140610 0.0801476 0
-0.5872387 0.0991360 -0.2221625 0
0.2596288 0.3792656 0.0470132 0
0.5689895 0.0068208 0.0155157 0
-0.5343050 0.1488348 0.1953358 0
-0.4889318 0.2449314 -0.1257164 0
-0.8191248 0.0420377 -0.0285736 0
-0.7557821 -0.0136107 0.0524938 0
0.8454114 0.2179026 -0.1642361 0
-0.0657032 0.3900967 -0.0180088 0
0.7393146 0.4605322 0.1106199 0
-0.3039548 0.4036036 0.1294208 0
0.5071054 -0.0168272 -0.0225551 0
-0.3219740 0.3914794 -0.1640868 0
0.1640833 0.1468603 0.1040240 0
-0.2742119 -0.0792414 -0.1459697 0
0.6249039 0.4038332 -0.2202849 0
-0.4008868 0.1048757 -0.2769617 0
0.4337867 -0.0881016 0.0229686 0
-0.6499769 0.2812546 -0.2840928 0
-0.7897438 0.3926920 0.1668835 0
0.5540643 0.2108444 -0.2532751 0
-0.7380298 0.2627096 -0.2739112 0
0.7457122 0.0330512 0.1584145 0
-0.0862574 0.3543098 0.1107469 0
-0.1334059 0.1273529 0.0230168 0
-0.5576779 0.3785708 -0.1773763 0
0.2517246 -0.0571666 -0.1305952 0
0.1636835 0.0291634 0.0483228 0
0.2622144 0.1969697 -0.2689928 0
-0.3122185 0.4096539 -0.1292883 0
0.0441564 0.3315567 -0.1958273 0
0.5716099 0.0094527 -0.0511995 0
-0.7736251 0.3143823 -0.2361073 0
-0.5060424 0.3445367 0.1092441 0
0.5336768 0.1359758 0.1943026 0
0.3536239 0.2451496 0.2555931 0
0.1057077 0.1733871 -0.2516664 0
0.6724946 0.0227284 -0.1737599 0
-0.7416382 0.0241800 -0.1579408 0
0.7669905 0.4622787 0.0294951 0
-0.8615465 0.1783756 -0.0995687 0
-0.2442840 0.4031225 -0.0597994 0
-0.5473430 0.3673175 0.1782154 0
-0.6949123 0.4642615 -0.1371622 0
0.1836297 -0.0051933 -0.0332590 0
-0.2467521 0.3503578 0.1562088 0
-0.6927402 0.0673588 0.2473584 0
0.3703457 -0.1122977 -0.0446927 0
0.8243559 0.0938446 0.1104570 0
-0.1893126 0.1594244 0.1790893 0
0.6119488 0.3061450 0.2866943 0
-0.2092789 -0.0139068 -0.1541232 0
-0.8004136 0.0219803 -0.0400137 0
-0.1511215 -0.0560726 -0.0043531 0
0.2442272 -0.0668079 -0.0902752 0
0.1556306 0.1764900 -0.1660174 0
-0.1786274 -0.0030944 -0.0545865 0
0.3327702 0.1481950 -0.3005274 0
-0.1393556 0.0162067 -0.1997812 0
-0.0548895 -0.0362691 -0.2373588 0
0.4503121 0.1149574 -0.2600663 0
-0.5417155 0.3954860 -0.1317898 0
-0.8202096 0.4023163 0.0805026 0
0.3642017 0.4077401 0.0436012 0
0.7951441 0.0945160 -0.1789076 0
0.1584066 0.1272440 -0.1668924 0
-0.5750138 0.1753311 -0.2482620 0
0.5264191 0.2327607 0.0699878 0
0.5250763 0.4233261 -0.0085860 0
0.8275400 0.2904060 0.1758928 0
-0.4965606 0.0929255 0.1657019 0
-0.7373243 0.3869545 0.2316267 0
0.2878574 -0.0425256 0.1628642 0
0.4951220 0.1274612 0.1005332 0
-0.5936093 0.1945745 -0.2654653 0
0.5179845 0.0301220 -0.1070484 0
0.2612204 0.3499116 -0.1544781 0
-0.4268972 0.0837540 -0.2589837 0
0.5792606 0.4477769 -0.1111387 0
0.1880010 0.0552889 0.1108173 0
0.8125804 0.0568888 0.0695210 0
-0.4509071 -0.0254257 -0.1740332 0
-0.1726530 -0.0127237 0.0278361 0
-0.1672451 0.1779115 0.1453998 0
0.3576470 0.0938693 -0.2947344 0
0.8753322 0.2377210 0.0429873 0
-0.2189778 0.3169976 0.1541157 0
-0.8370897 0.1280980 -0.1340776 0
-0.3765063 0.3014881 0.2394342 0
0.8794033 0.2475591 0.0093873 0
0.8780487 0.2221766 -0.0357921 0
-0.7431161 0.4807631 -0.0370472 0
0.4603705 -0.0104554 -0.1799221 0
0.0128442 0.1820233 0.2878670 0
-0.1469300 0.1557987 0.1909168 0
-0.1640751 0.0153901 -0.0793759 0
-0.5371853 0.2085496 0.0695813 0
-0.5994205 0.0820368 -0.2182652 0
0.2096579 0.0230344 0.1304706 0
0.2869888 0.3716694 -0.1424420 0
0.1795293 0.1575349 0.0393612 0
0.8686934 0.2855209 -0.0749662 0
-0.0156690 0.3811648 0.1050967 0
-0.8247932 0.1663908 0.1803360 0
-0.7590019 0.4719198 -0.0386217 0
-0.3500131 -0.0818381 0.1623383 0
0.1600894 -0.0017449 -0.0257951 0
-0.8163440 0.1099978 0.1618761 0
-0.2573108 0.2805089 -0.2363280 0
0.7111970 0.4340215 0.1902503 0
0.3799194 0.3376908 -0.2103945 0
0.1520741 0.2770372 -0.0617588 0
0.1733669 0.2280228 -0.0264998 0
0.1916560 -0.0186662 -0.0336244 0
-0.5017776 0.3385102 -0.0440301 0
0.8471071 0.2134949 -0.1596501 0
0.6581525 0.0616644 0.2346118 0
-0.4104545 -0.0527209 -0.1817820 0
0.0777768 -0.0793309 0.1122800 0
0.2968778 -0.0849751 -0.1256992 0
-0.0396701 0.1373912 -0.3115313 0
0.2287932 0.0317388 0.1691226 0
-0.0283209 -0.0713201 -0.2070218 0
-0.8039411 0.3005094 0.2126071 0
-0.1958948 0.1643336 -0.1081262 0
-0.1259390 0.2141230 -0.2391832 0
-0.7964950 0.0371829 0.1063721 0
0.2443575 0.1880887 0.2208494 0
0.3480160 0.2714295 0.2427195 0
0.1735531 0.1777184 -0.1575236 0
0.1847533 -0.0074175 -0.0311188 0
0.1920183 0.1059844 -0.1916080 0
0.7117372 0.0949634 0.2561013 0
-0.1173691 0.1301878 0.2352764 0
0.4767239 0.3218632 0.0517314 0
-0.8394713 0.3465180 -0.1129917 0
-0.0843445 0.3061616 -0.2123613 0
0.7523931 0.3851301 0.2181581 0
-0.8302347 0.3913461 -0.0672229 0
-0.5792549 0.4189332 0.1672702 0
-0.7975888 0.2843682 0.2270449 0
-0.7206982 -0.0206526 -0.0787366 0
0.0702369 0.0709227 0.2531539 0
-0.0888088 -0.0312730 0.1942095 0
0.8145375 0.0995331 -0.1513338 0
0.0894269 0.1127039 0.2420698 0
0.1493378 0.1870171 0.0094106 0
-0.5030023 0.1734576 -0.1906664 0
-0.1497664 0.2520395 -0.1778610 0
0.5325152 0.2517022 -0.0668343 0
-0.7973259 0.0682853 -0.1497833 0
-0.4506573 0.2493150 -0.2324826 0
0.7371367 0.0222026 -0.1422431 0
-0.5217037 0.2828748 0.0569710 0
0.7298442 0.2102574 0.2959395 0
0.0471559 0.3722903 0.0911350 0
0.1581675 0.0954607 0.0459515 0
-0.2008584 0.1700997 0.0328749 0
-0.5522199 0.1494902 -0.0419004 0
-0.1787875 0.3355405 0.0140689 0
-0.6617057 0.4544020 0.1758989 0
-0.5456515 0.3811502 -0.1571129 0
-0.0824795 0.1748788 -0.2897824 0
0.4768071 0.3547499 -0.0133224 0
0.7521428 0.4724036 0.0089161 0
-0.3356213 0.0229186 0.2543270 0
-0.0180441 0.1092213 0.2946102 0
-0.0908518 0.0531651 -0.2736887 0
-0.1180855 0.1532493 0.2333062 0
-0.5950426 0.2434184 0.2813087 0
0.6773623 0.4132837 0.2280365 0
-0.6326897 -0.0044015 0.1451511 0
-0.0316320 0.3990488 0.0046231 0
0.8597846 0.2313577 0.1086556 0
-0.2910908 0.4124040 0.1008573 0
-0.8574239 0.1194895 0.0442453 0
0.7395580 0.0755460 -0.2169548 0
-0.1195176 0.3041103 0.1421698 0
-0.4776942 0.2331256 -0.2108899 0
0.1674121 0.1206431 -0.1414995 0
-0.1424036 0.0577570 0.0060876 0
0.5382162 0.4199772 -0.0940612 0
0.0986415 0.3487403 -0.0732783 0
-0.6275538 -0.0067441 -0.1193517 0
0.0298179 -0.0114301 0.2392028 0
-0.5947190 0.4188821 -0.1729604 0
0.7310044 0.4810031 -0.0220320 0
-0.4907395 0.1218699 -0.2071058 0
0.1922482 0.3181727 -0.0064230 0
0.5430466 0.4124683 0.1189153 0
-0.5717911 0.0309329 -0.1304722 0
-0.0032671 -0.0792029 0.1787038 0
0.4729106 0.1367933 0.2006909 0
0.3525647 0.0556892 0.2567007 0
-0.5379097 0.0853212 -0.0903355 0
-0.6375269 0.0553721 -0.2142031 0
-0.2577490 0.3698144 -0.1563765 0
-0.0699321 -0.0999351 -0.1329433 0
-0.8586552 0.2981909 -0.0988586 0
0.7092055 0.1126380 0.2698254 0
0.6083556 0.4458536 -0.1502841 0
0.5413702 0.4401466 0.0112645 0
-0.3947560 0.4076917 -0.1185455 0
0.3261962 0.0282069 -0.2675448 0
0.3593727 0.3853433 0.1159188 0
-0.8659286 0.3167609 0.0349790 0
-0.7504533 -0.0196865 0.0264488 0
0.2027698 0.3081990 -0.1157931 0
-0.1728439 0.1485587 -0.1787964 0
0.8334918 0.0783170 -0.0490174 0
0.4917641 0.1389574 0.1028319 0
0.6380595 0.0274284 0.1842233 0
0.5254986 0.2822300 0.2054257 0
-0.6795440 0.4942770 0.0711299 0
0.8104166 0.1578659 -0.2062379 0
-0.5236393 0.0556552 -0.1155221 0
0.7458759 0.1794127 -0.2760740 0
-0.4656192 0.2124008 0.2111153 0
0.0660850 0.1317047 0.2654499 0
-0.7115973 0.4219939 -0.1947824 0
-0.8307695 0.3260449 -0.1529584 0
0.0185950 0.1043237 0.2899959 0
0.2437258 -0.0050548 -0.1944417 0
0.7400004 0.3060898 -0.2739916 0
0.8169299 0.1310309 -0.1784653 0
-0.5496721 0.0361126 -0.0980049 0
-0.0243219 -0.1347720 -0.0369136 0
-0.4988261 0.3729090 -0.0176525 0
0.5765823 0.2949122 -0.2639416 0
-0.5016903 0.2436459 0.1513922 0
-0.1900872 0.2479973 -0.1824636 0
0.5690126 0.0969207 0.2127189 0
-0.6265090 0.0013127 -0.1356018 0
0.1148220 0.3371831 -0.0450574 0
-0.3934715 0.4325783 0.0048811 0
0.2868088 0.0659021 0.2426736 0
-0.6470422 0.4579674 0.1656060 0
-0.2439256 0.2849207 -0.2237963 0
-0.1301665 0.1283706 -0.0063083 0
-0.6895342 -0.0251630 -0.0863603 0
-0.4584090 -0.0058647 0.1662256 0
0.2429719 0.3274687 0.1290441 0
-0.6351561 0.1042292 -0.2510543 0
-0.0414457 -0.0595831 -0.2180310 0
-0.6589890 -0.0267070 -0.0819046 0
-0.0966601 0.2904817 -0.2172795 0
-0.4032331 0.3737392 -0.1699592 0
-0.0666602 -0.0145225 0.2279186 0
-0.3138523 0.0519776 -0.2713941 0
-0.6408396 0.0922839 -0.2451170 0
0.4170460 0.2884611 -0.2381999 0
-0.0010004 -0.0541387 0.2100259 0
-0.2429756 0.0937917 0.2371299 0
0.3387449 0.2293475 -0.2874766 0
0.4625464 0.1895737 0.0176336 0
-0.5507278 0.1836534 -0.2273901 0
0.7131814 0.3154315 -0.2821226 0
0.0963099 0.0812809 0.2284503 0
-0.2044272 0.1776030 -0.0011756 0
-0.8109329 0.1216588 -0.1794340 0
0.3191161 0.3604446 -0.1815040 0
0.6210581 0.3256518 0.2832671 0
-0.1316508 0.1416949 -0.0442643 0
0.5071468 0.2473876 0.1120657 0
-0.4530673 -0.0635057 -0.1172015 0
0.6287807 -0.0118670 0.0789411 0
0.0074677 0.3317184 -0.2120933 0
-0.3188824 -0.0281031 -0.2254307 0
0.1164558 0.2108404 -0.2253119 0
0.3199245 0.3666365 0.1453842 0
0.2561798 -0.0722264 0.0684799 0
-0.0407839 0.1476958 0.2908745 0
0.0003623 0.3297054 0.1967962 0
-0.1423450 -0.0671335 -0.0294471 0
0.2716208 -0.0957281 -0.0079108 0
-0.5237951 0.4055294 0.0631205 0
0.5359288 0.1299510 -0.2004405 0
0.4358045 0.3627264 -0.1301577 0
-0.1333734 0.0519991 -0.2305937 0
-0.3091682 0.2529611 0.2637970 0
-0.1589000 0.0774653 -0.1290756 0
-0.3092570 0.3765179 -0.1810535 0
0.6975978 -0.0222670 -0.0001274 0
0.5148122 0.3053567 0.1771095 0
-0.5820277 0.1272329 0.2457645 0
0.1103472 0.0222454 0.1820229 0
-0.3803979 0.3630745 -0.1947714 0
0.4205615 -0.0742029 -0.1292475 0
0.0691761 0.3372957 0.1379542 0
0.3676386 0.2637531 -0.2715267 0
0.3819865 -0.0214124 -0.2283312 0
-0.8307751 0.3646927 0.1125210 0
0.0404336 0.1240816 -0.3043545 0
-0.1753627 0.1344932 0.1331578 0
0.0569328 0.1524116 -0.2955147 0
-0.5213543 0.2547382 -0.1197062 0
-0.5900568 0.2855911 0.2708558 0
0.1756674 0.0337556 0.0514862 0
0.1707710 0.1389840 0.0820922 0
-0.1411601 0.0782474 0.1938555 0
0.1346248 -0.0371125 -0.0848878 0
0.8248122 0.0656734 -0.0500982 0
-0.3429497 0.4083349 0.1314711 0
-0.2091758 0.1790919 -0.2280699 0
0.8640891 0.2272549 0.0937560 0
-0.4889999 0.0926426 0.1781179 0
0.7643615 0.2215560 0.2715634 0
-0.5394855 0.2566771 0.0032186 0
-0.2795046 0.0062102 0.2268269 0
-0.6530026 0.3835050 -0.2364885 0
-0.8416291 0.0785146 -0.0328448 0
0.6377537 0.4840599 0.0721269 0
0.0695379 0.3218283 0.1611992 0
-0.0824305 -0.1000537 -0.1155342 0
-0.8148608 0.0394615 -0.0438722 0
-0.2192889 0.3547690 0.1075436 0
0.5306417 0.2510785 -0.2280256 0
0.2595503 -0.0093600 0.1732181 0
0.8106219 0.3172992 -0.2024388 0
-0.4882148 0.3059092 -0.1465031 0
0.5422096 0.2301782 -0.0291597 0
0.5105302 0.3454050 0.1386863 0
-0.7436357 -0.0199297 0.0547373 0
-0.8257818 0.0707457 -0.0885615 0
-0.2711663 0.3973580 -0.1235555 0
0.4020978 0.2151372 -0.2818004 0
0.6237839 0.4763758 -0.0834684 0
0.8736842 0.1711520 -0.0003332 0
-0.6651655 0.0798579 0.2590024 0
-0.6261213 0.4751150 -0.0971108 0
-0.2507511 0.3588466 0.1505259 0
-0.7539472 -0.0181234 -0.0068591 0
-0.1073095 0.1801967 -0.2700980 0
-0.1376871 0.2792128 -0.1728323 0
-0.1510298 0.0371260 -0.0530453 0
0.2550717 0.0812093 0.2239499 0
0.2087786 0.0947076 -0.2143372 0
0.2537789 -0.0178305 0.1578698 0
0.5133191 0.4007196 -0.0590535 0
-0.8208515 0.4166508 0.0275072 0
-0.7038834 0.4970945 0.0156500 0
-0.4698905 0.1432040 -0.2339263 0
-0.2332424 0.3138008 0.1765157 0
-0.5195817 0.0742936 -0.0926177 0
-0.2330640 0.2222280 0.2253525 0
0.6432731 0.4845983 0.0745231 0
-0.7742759 0.4582537 0.0658005 0
0.5403495 0.1497736 0.2128292 0
0.8244038 0.0645353 -0.0475091 0
-0.1632729 0.3046887 0.0186816 0
-0.2419473 -0.0442761 -0.1632760 0
0.7671193 0.4001592 0.1853054 0
0.2545394 -0.0803379 0.0338251 0
0.5309722 0.1955741 -0.1311779 0
-0.6163362 0.4809980 -0.0652108 0
-0.3509660 0.3195722 0.2328354 0
0.2598936 0.2493407 0.2150893 0
0.2754867 0.0512458 -0.2601779 0
-0.1436358 0.2182086 0.0530459 0
-0.4584832 -0.0086043 -0.1815961 0
0.8181442 0.4052006 0.0672544 0
-0.8077383 0.1210810 -0.1838601 0
0.0656069 0.0785964 -0.2845149 0
0.5190400 0.1666767 0.1196213 0
0.5869306 0.1793089 0.2753865 0
0.3675551 -0.0841447 -0.1463517 0
-0.6079091 0.4329926 0.1796800 0
0.4068297 0.4003224 -0.0505525 0
-0.7969437 0.3457423 -0.1940534 0
-0.1090349 -0.0476749 0.1490352 0
0.0462106 -0.0289089 0.2151511 0
0.8097981 0.0692854 -0.1149212 0
-0.3764798 0.0101803 -0.2496498 0
-0.5518174 0.1873553 -0.0293727 0
0.3407133 -0.0934958 -0.1274385 0
-0.2006127 0.1188017 -0.0906858 0
0.0311699 0.3157049 -0.2229631 0
0.3825022 -0.0322530 0.1902434 0
0.1474804 0.0348800 -0.1548793 0
0.1802249 0.0727852 0.1035285 0
0.2741493 -0.0958224 -0.0410784 0
0.5534936 0.4463907 0.0477844 0
-0.7791708 0.2525119 0.2553225 0
0.1920473 0.2624083 0.1041715 0
0.7247120 0.1253746 0.2702489 0
0.7815468 0.2676651 0.2514708 0
0.8154055 0.0568783 -0.0643772 0
0.1476438 0.2314556 0.1106726 0
0.5660599 0.0394194 -0.1320555 0
0.2408023 0.0630183 0.2021904 0
-0.6222364 0.0238946 -0.1703873 0
-0.1500766 0.0615547 -0.2101337 0
-0.3590219 -0.1038101 0.1231556 0
0.3891281 -0.0524390 0.1631776 0
0.1491124 -0.0255183 -0.0100799 0
0.6136620 0.4439991 -0.1579741 0
0.5326282 0.3966271 -0.1299807 0
-0.1633068 0.0650588 -0.1325420 0
-0.1614467 0.0073431 0.1061419 0
-0.3711853 0.1143694 -0.2872513 0
-0.1361341 0.1475300 0.0429893 0
-0.5345834 0.0793914 0.0668268 0
-0.1391584 0.2490606 0.1639757 0
0.8515283 0.1811404 0.1198611 0
0.7394873 0.2423069 0.2913320 0
0.5449716 0.2193276 -0.0202613 0
-0.8009003 0.0449827 0.1112159 0
0.4703217 0.3447708 0.0644079 0
-0.6953909 0.0150126 0.1879991 0
-0.1055228 0.2253608 -0.2554504 0
-0.3943165 -0.1191307 0.0514959 0
-0.3392787 0.2905797 0.2513095 0
0.2679713 0.3567922 -0.1506473 0
-0.0458996 -0.1278974 -0.0633680 0
-0.6205089 0.2599624 0.2954649 0
0.6358608 0.1039542 -0.2582940 0
-0.5296203 0.1261763 0.1738236 0
-0.1638960 0.0126434 0.1051301 0
0.5081813 0.1987011 -0.1839420 0
0.7269165 0.4388761 -0.1653538 0
0.1601670 0.0501882 -0.1306794 0
-0.2278540 0.1809067 0.2281706 0
0.7183818 -0.0016456 -0.1004793 0
-0.4725101 0.1166769 0.2071172 0
-0.2539654 -0.1048729 0.0328730 0
0.1672303 0.0305051 -0.0736519 0
-0.7114566 -0.0351931 0.0197898 0
0.0211785 -0.0664142 -0.2092126 0
0.6750584 0.2199171 -0.3042586 0
0.3388499 0.0040976 -0.2538018 0
-0.3252951 -0.1275945 -0.0592489 0
-0.7402506 0.0118593 -0.1386585 0
-0.8538588 0.2081868 -0.1341887 0
-0.6407306 0.0583632 -0.2180764 0
-0.4633636 0.2154312 0.2130027 0
-0.0892414 0.3245456 0.1593763 0
0.8050815 0.3141390 -0.2119795 0
0.2760507 0.3963825 -0.0108003 0
0.1270510 0.0423858 0.1652043 0
0.3242815 0.4110119 0.0092788 0
0.7162449 0.4278401 0.1963843 0
0.8485165 0.2361478 -0.1582243 0
0.3273325 0.2958241 -0.2511393 0
-0.7934696 0.3142223 0.2215016 0
-0.7772907 0.1821450 0.2530142 0
0.1011854 0.0573611 0.2142553 0
0.7937320 0.3466701 -0.2059992 0
0.8104098 0.1150228 0.1674260 0
-0.2059538 0.0643054 0.1848753 0
-0.5951410 0.2692034 -0.2657753 0
0.2769121 -0.0939298 0.0346610 0
-0.0993136 -0.1072054 0.0044988 0
-0.1799523 0.1654375 0.1628013 0
-0.2605090 0.3439809 -0.1901412 0
-0.1932040 0.3209233 0.1004257 0
-0.8015021 0.0819640 0.1629813 0
-0.4722719 0.3765345 0.0287931 0
0.6940600 0.1718798 -0.2934857 0
0.1941521 0.1002133 0.1468303 0
-0.8406770 0.0759748 0.0307773 0
0.1857635 0.1143344 -0.0306297 0
-0.7281269 -0.0140849 0.1074577 0
0.4000222 0.0292504 -0.2595440 0
0.2894252 0.2003606 -0.2832922 0
-0.2598328 0.3730641 0.1415826 0
0.4007443 0.3061776 -0.2330402 0
-0.6041646 0.0396833 -0.1789941 0
0.3806221 -0.0488245 -0.1988597 0
0.5886055 0.2107296 0.2829395 0
-0.2020155 0.0887660 0.0213515 0
0.5161518 0.1743728 -0.1961239 0
-0.0564539 0.3930038 -0.0284200 0
-0.8618414 0.3044584 0.0730929 0
-0.8678374 0.2084701 -0.0880278 0
0.6059840 0.1596496 -0.2768691 0
-0.5022557 0.0416528 0.1289628 0
-0.6147045 -0.0068351 0.1231634 0
-0.0584922 0.3868287 0.0517239 0
-0.0311815 0.3575521 0.1533670 0
0.0995294 -0.0902654 -0.0256750 0
0.8750587 0.1932841 0.0270015 0
-0.4578232 0.3763357 -0.0960452 0
-0.1650045 0.2832379 0.0524982 0
-0.6263501 0.0205492 -0.1679451 0
0.2654889 0.2566596 0.2162359 0
0.3222637 0.0164084 0.2329847 0
-0.4725422 0.2148549 -0.0602897 0
-0.0549818 0.3643320 0.1261922 0
-0.0419044 -0.0569188 -0.2209903 0
-0.7906534 0.3679597 0.1905525 0
0.2312177 0.3448884 0.0760040 0
-0.6893468 0.1080828 -0.2580346 0
-0.0829855 0.3772424 0.0418501 0
-0.2238394 0.3908241 0.0203161 0
0.6634827 -0.0241937 -0.0122180 0
-0.2877862 0.2531684 -0.2648293 0
0.6857817 0.2978182 0.3034047 0
-0.2990815 -0.1021458 -0.1220522 0
-0.3420846 -0.1005346 0.1320033 0
0.2827215 -0.0949095 -0.0740421 0
0.7312286 0.4602900 0.1221425 0
0.4608359 0.2414176 0.0288790 0
0.2910965 0.3756291 -0.1379866 0
0.7940916 0.2348232 0.2393619 0
0.1044616 -0.0159142 0.1594633 0
0.8200567 0.0600609 0.0464910 0
-0.2407637 0.3121984 0.1866098 0
-0.1317997 0.1819506 -0.0370180 0
-0.4691046 0.3529394 -0.1194627 0
0.2633386 0.1258888 -0.2737539 0
0.3777762 0.2988482 0.2203123 0
-0.4837932 0.1816164 -0.2166942 0
0.5023667 0.3808946 0.0573745 0
0.2463689 0.1474672 0.2265177 0
-0.1328299 0.0067454 -0.2023163 0
-0.0321429 -0.1318189 -0.0555113 0
0.3452140 0.2161972 0.2659042 0
-0.0422026 -0.1151693 -0.1182913 0
-0.0660291 0.0270619 0.2548795 0
-0.1219454 0.2633473 -0.2128922 0
0.0083358 0.3992031 -0.0266239 0
0.7080897 0.2948877 0.2985442 0
0.4344643 0.1223952 -0.2728782 0
0.8561572 0.3358200 0.0564604 0
-0.1732342 0.0027671 0.0594138 0
0.8535874 0.3018334 0.1047337 0
-0.8757291 0.1926261 0.0280311 0
0.6845775 0.3941503 0.2469297 0
0.4147935 0.3503105 -0.1751830 0
-0.7208237 0.4716709 0.1224412 0
0.4158009 0.3656162 0.1187243 0
0.7992612 0.0860425 -0.1624945 0
0.7646469 0.4258624 -0.1496456 0
0.7070708 0.2331351 0.3076063 0
-0.7082082 0.2009607 0.3027042 0
-0.5943318 0.1400248 0.2625585 0
0.5396059 0.1785463 -0.2304192 0
-0.1482619 -0.0590353 -0.0353117 0
0.2724384 -0.0962754 -0.0158773 0
-0.2883947 -0.0361790 -0.2082047 0
-0.1213754 0.1527677 0.2292565 0
-0.0013319 0.1424723 0.2953416 0
-0.0535656 0.2372224 -0.2826415 0
0.0110451 0.2608089 0.2560982 0
0.6081856 0.1401929 0.2750921 0
0.0421926 0.3811964 -0.0899291 0
0.6266466 0.0570824 -0.2122573 0
-0.3780524 0.0505011 0.2611003 0
0.5713016 0.0309554 0.1233609 0
-0.4515162 0.1370747 -0.2505668 0
-0.8148246 0.3081274 0.1919765 0
0.2154450 0.3276669 -0.1121779 0
0.3641817 -0.0893909 -0.1357832 0
0.8042784 0.3224603 -0.2084294 0
-0.0876259 0.3767162 -0.0521811 0
0.7659370 0.4635583 0.0230046 0
-0.5966600 0.4560301 -0.1121611 0
0.8473934 0.2378863 -0.1608173 0
-0.1751611 0.2040623 0.1470933 0
-0.5123578 0.1646233 -0.1648797 0
-0.1309881 0.1345788 -0.0338709 0
0.5984403 0.0514182 -0.1883998 0
-0.6016160 0.1377674 -0.2535002 0
-0.2964676 0.4060869 -0.1278839 0
-0.5286101 0.4147662 0.0559408 0
0.1025193 -0.0869069 -0.0335251 0
-0.1342341 0.2425773 -0.2118261 0
-0.8013483 0.2179204 0.2292792 0
0.2839554 -0.0257099 -0.2091932 0
-0.2506038 -0.1053011 -0.0234851 0
-0.8600867 0.1167215 -0.0108301 0
-0.5424444 0.0593650 -0.1253425 0
0.0758334 0.1480980 0.2563154 0
-0.8668426 0.1846815 0.0733080 0
-0.5230106 0.4007109 -0.0716972 0
-0.3162286 0.0688446 -0.2777077 0
0.5451379 0.4164513 -0.1194140 0
-0.2618986 0.3621261 -0.1706326 0
0.4691044 0.2043381 -0.0871210 0
-0.1493431 0.1764958 -0.2208081 0
-0.1528315 0.2999897 -0.1014787 0
0.3712831 0.3392609 -0.2109754 0
-0.1873212 0.0670859 0.0778589 0
0.5090085 0.3956336 -0.0545635 0
0.3374721 -0.1125413 -0.0524989 0
0.5686999 0.4619181 -0.0086488 0
-0.2674418 -0.0630891 -0.1643305 0
-0.0727416 0.3129149 0.1910565 0
0.1581967 0.1896151 -0.1534179 0
0.0801146 0.2465944 -0.2474590 0
-0.8655557 0.1357179 -0.0206023 0
-0.5527908 0.1782454 -0.0246060 0
0.8318082 0.2800382 0.1710989 0
0.5288073 0.0474377 0.0401605 0
-0.3201289 0.3814196 -0.1778060 0
0.6022136 0.3631726 0.2502576 0
-0.1941424 0.1376319 -0.1216238 0
-0.0942749 0.2911853 -0.2189117 0
0.5423751 0.4333941 -0.0637710 0
-0.7012630 0.3375934 -0.2635511 0
0.6089705 0.4662504 -0.1014314 0
0.7843744 0.1549455 0.2334298 0
0.6183663 -0.0111637 0.0671368 0
0.1486176 0.1309823 -0.0653813 0
0.1061588 0.3458824 -0.0493271 0
0.6287687 0.1306313 0.2803585 0
-0.5028550 0.2308286 -0.1752649 0
0.1454410 0.2935656 -0.0449769 0
-0.7339519 0.4764678 0.0917579 0
-0.3652153 0.2764312 -0.2631978 0
-0.2057128 0.1383387 -0.0550127 0
0.0087392 -0.1134224 0.1103502 0
-0.1415226 0.1487840 -0.0998679 0
0.1279028 0.1228291 -0.2266872 0
-0.6246439 0.4466790 -0.1559271 0
0.4862546 -0.0435514 -0.0457674 0
-0.7113298 0.0551125 0.2302477 0
-0.5293639 0.2430051 -0.1050176 0
0.0136523 -0.0767174 0.1783124 0
-0.6924263 0.3293713 -0.2689907 0
0.5052875 -0.0104669 0.0303045 0
0.8275907 0.1007356 -0.1228414 0
-0.0268774 -0.1334614 -0.0478330 0
-0.5765585 0.0749209 -0.1928259 0
0.1906019 0.3078037 0.0270555 0
0.7236192 0.2168775 0.2999058 0
-0.5179290 0.0037790 0.0350843 0
-0.6421876 0.3919660 0.2448902 0
0.2289459 0.3132482 -0.1631246 0
0.2976816 0.0643904 -0.2765460 0
0.5797191 0.0923850 0.2203288 0
0.6199209 0.3260100 -0.2757119 0
-0.4095103 0.3614521 0.1704950 0
-0.4890052 0.1514884 0.0879372 0
-0.2459177 0.1524613 0.2468390 0
-0.8270057 0.3347088 0.1521743 0
0.7497131 0.4585074 -0.0958312 0
-0.5025700 0.1399180 0.1643552 0
0.0475657 0.3570432 0.1279709 0
-0.4288107 0.1955912 0.2505376 0
-0.0494303 -0.0014043 0.2470311 0
0.5751320 0.0136773 -0.0805504 0
0.1512473 0.0807282 -0.1739967 0
0.0038409 0.3359276 -0.2073233 0
0.6772706 0.4858952 0.0775827 0
0.5245835 0.1060977 0.0995090 0
0.2981132 0.0214398 -0.2552847 0
-0.1715121 0.0204020 0.0850155 0
-0.3253767 0.0060234 0.2438340 0
-0.2615673 -0.0295254 -0.1978457 0
0.1627920 0.2052940 -0.1146760 0
0.8314244 0.2559622 0.1777523 0
-0.3463509 0.3804386 0.1747886 0
0.5421696 0.0499972 -0.1075606 0
-0.4318146 -0.0550668 0.1466836 0
-0.2876244 0.2231181 0.2651043 0
-0.5349666 0.1032699 -0.1640632 0
0.1246534 -0.0608101 -0.0454942 0
0.6058655 0.0438111 -0.1833707 0
0.3683679 0.0170145 0.2348629 0
0.7491426 0.3139316 0.2685220 0
-0.5381181 0.4005437 0.1194711 0
-0.5604501 0.0062328 -0.0286365 0
0.5471706 0.0971404 -0.0438440 0
-0.1724015 0.0742505 -0.1715325 0
0.5278850 0.3970127 -0.1182790 0
0.5027270 0.2947165 -0.1149286 0
-0.4648242 0.1338843 0.2186492 0
0.5247677 0.4232863 0.0025106 0
-0.8157330 0.1625551 0.1950721 0
-0.5305864 0.1403476 0.1023488 0
-0.5388799 0.2574739 -0.0300530 0
0.2837827 0.3987528 -0.0403983 0
0.3609403 0.0920589 0.2678730 0
0.7939922 0.4426030 0.0138972 0
-0.0172827 0.3218018 0.2066748 0
-0.6407046 0.3411346 0.2783441 0
0.6052542 0.0396525 -0.1767258 0
0.2904736 0.2889374 0.2143915 0
0.3192621 0.3988236 0.0721913 0
-0.8447767 0.3650813 0.0612255 0
-0.4202382 0.2671824 0.2347705 0
-0.2069106 0.1043984 -0.0113579 0
0.5863594 0.0111138 -0.0948745 0
-0.7352011 0.3248676 -0.2574325 0
0.4471273 0.2554271 0.2020892 0
-0.5846801 0.3502300 -0.2272735 0
0.0765995 0.0629941 -0.2718961 0
0.7619070 0.4338075 -0.1384699 0
0.1603770 0.1346438 0.1160361 0
-0.1849201 0.1857019 0.0933589 0
-0.3874120 0.0772992 0.2668128 0
0.7752750 0.3901887 -0.1873975 0
0.8559542 0.1339656 -0.0745759 0
0.1379991 0.0164486 0.1214885 0
-0.2625421 0.3811310 0.1322275 0
0.4769881 0.2240593 -0.1226750 0
-0.8607715 0.3343773 -0.0385181 0
0.8217403 0.1332527 -0.1716148 0
-0.2441871 -0.1004448 -0.0294382 0
-0.1062604 0.0177435 -0.2428464 0
0.1611546 0.0451347 -0.0149175 0
0.8652980 0.2398666 0.0894209 0
-0.5982543 0.4487343 0.1431465 0
-0.0245975 0.0577326 0.2830295 0
0.2449984 0.1091944 0.2213205 0
0.6412779 0.4911298 0.0071866 0
-0.0942654 0.3634986 0.0699387 0
0.0040045 -0.1310357 -0.0664407 0
0.2358447 0.1998573 0.2088938 0
0.5413699 0.4165336 -0.1107091 0
0.1018540 0.2293064 0.2027204 0
0.5496532 0.4460908 0.0276943 0
0.3640500 0.3290647 -0.2233115 0
-0.4540665 0.3174440 -0.1856061 0
-0.1893565 0.3505585 0.0207556 0
-0.6778431 0.2266966 0.3099812 0
0.3607894 0.4129697 -0.0262061 0
0.0584984 -0.0391907 -0.2189538 0
-0.1170292 0.3527363 -0.0670719 0
-0.6572450 -0.0219668 0.1149161 0
0.4954045 0.3650427 -0.0758710 0
0.0725246 0.1166670 0.2593787 0
-0.5473404 0.4425999 0.0286733 0
0.6657888 0.3846306 0.2566616 0
-0.3557170 0.1407239 0.2850680 0
0.3947354 0.2184639 0.2553912 0
-0.3369188 0.4250392 -0.0993888 0
0.3754295 0.1456822 0.2720937 0
0.6432247 0.0268944 -0.1767481 0
-0.7565661 0.0016437 -0.0957031 0
-0.2226574 0.1781379 -0.2417769 0
-0.1945381 0.3610673 -0.0022858 0
0.8699102 0.3066385 0.0227929 0
-0.1113281 0.0407407 -0.2507161 0
0.6517740 0.2631728 0.3108336 0
-0.2810388 0.4148332 -0.0923837 0
-0.6733646 0.2191572 -0.2912329 0
0.3403981 -0.0786708 -0.1591952 0
0.0051961 -0.1297631 -0.0728900 0
-0.2450893 -0.0928085 -0.0731766 0
-0.2003342 0.2777522 -0.1796552 0
-0.3784733 0.1422777 0.2803253 0
0.6169704 0.1470647 -0.2765392 0
-0.6389270 0.1727091 -0.2803738 0
-0.7835139 0.0546152 0.1610745 0
0.4697659 0.3410980 -0.1128402 0
-0.5523371 0.1356365 0.0098845 0
0.1611855 0.1434442 0.1131869 0
-0.1937989 0.0327387 -0.0213536 0
-0.6228938 0.2220248 -0.2823083 0
0.7254179 0.2943869 -0.2848905 0
-0.5450339 0.0182780 0.0116904 0
-0.8181767 0.3272655 -0.1754175 0
-0.7395316 0.3320979 0.2661237 0
0.3617053 0.0501317 0.2535892 0
-0.5582718 0.4503081 -0.0390886 0
-0.2085550 0.3777294 -0.0109019 0
0.6187330 -0.0035034 0.1001435 0
0.5972322 0.0345045 -0.1616444 0
0.2861411 0.2027074 -0.2812660 0
-0.6336652 0.3681391 0.2598238 0
0.6256540 0.1446821 -0.2786375 0
0.6344171 0.2187598 0.3081148 0
0.5379209 0.1875598 -0.1109801 0
0.8423351 0.2470132 0.1553582 0
0.0397677 -0.0550432 -0.2141732 0
-0.1754004 0.1752714 -0.1820453 0
-0.6282468 0.4304432 0.1982266 0
-0.2385971 0.3322180 0.1660869 0
-0.4589498 0.3604851 -0.1257973 0
-0.1053710 0.1819429 -0.2713769 0
-0.7518173 0.4003730 -0.1940832 0
0.0814467 0.3279565 0.1351991 0
0.0148729 -0.1312205 0.0354797 0
0.4426318 0.2143131 0.2242532 0
0.4613639 0.3023219 -0.1856451 0
-0.5746077 0.0546946 -0.1689161 0
-0.8414449 0.3117787 -0.1393280 0
0.0843944 0.1037720 -0.2751879 0
-0.3613776 0.4367767 0.0407416 0
0.7399814 0.3297428 -0.2636870 0
0.0065224 0.1783864 -0.3091850 0
0.8376381 0.3090031 0.1443244 0
-0.0825767 -0.1173819 -0.0297769 0
-0.0551185 -0.1102741 -0.1216651 0
0.3516673 0.4125397 -0.0399254 0
0.1234243 0.0099801 -0.1853202 0
0.3600439 0.2902887 -0.2563899 0
0.5143551 0.2909681 -0.0779440 0
-0.5169428 0.2786385 0.0795193 0
0.0885810 0.2455550 0.2105962 0
-0.4477417 0.4017915 0.0144419 0
0.2372001 0.2330714 0.1989781 0
0.1297836 0.1394980 0.1850568 0
-0.4699615 0.2693191 -0.0224371 0
-0.5191351 0.0012197 -0.0454853 0
0.7927218 0.4429841 -0.0233256 0
-0.5314126 0.1174924 0.0956804 0
-0.7784042 0.4613293 -0.0160457 0
0.5048478 0.2531706 -0.1592579 0
-0.8146895 0.0517315 -0.0831177 0
0.0324569 0.1593604 -0.3059283 0
0.5234140 0.0577076 -0.1225442 0
-0.6705213 0.4691612 0.1492096 0
0.2333792 0.3672560 -0.0226966 0
-0.3635846 -0.0143040 0.2293036 0
0.2956004 0.1970287 -0.2865611 0
-0.2808957 -0.0458334 -0.1945757 0
0.1356558 -0.0471264 -0.0308641 0
0.7155353 0.2784316 0.2997453 0
-0.3848378 -0.1149360 0.0802284 0
-0.7454746 0.2735068 -0.2682286 0
-0.1845384 0.0195949 -0.0762577 0
0.1098503 0.1705626 0.2132880 0
0.5107002 -0.0106562 -0.0094146 0
0.5369578 0.0380246 -0.0517063 0
0.3985562 -0.0596680 0.1470193 0
0.3536713 0.1173195 0.2731554 0
-0.2048458 0.1103484 0.1978551 0
0.8082940 0.2107400 -0.2262466 0
-0.4036090 -0.0810528 0.1378878 0
-0.3773706 0.1308324 0.2799593 0
0.1736605 0.0476018 0.0621986 0
-0.8301958 0.3508661 -0.1322590 0
-0.3494450 0.0249149 -0.2619237 0
0.4333478 0.1354439 0.2417824 0
-0.2041746 0.3479041 0.0848236 0
-0.4901905 -0.0143426 0.0992878 0
0.6384444 0.2820800 0.3045254 0
-0.8122098 0.1362462 0.1881570 0
-0.4771279 0.1486250 0.0194927 0
-0.2907321 0.3724853 -0.1780193 0
-0.0564817 0.3516175 -0.1708250 0
-0.2476206 0.0170448 -0.2233614 0
0.6647129 0.0333278 -0.1904341 0
-0.5113772 0.2633026 -0.1740097 0
0.7834149 0.0422768 0.1159876 0
0.7670084 0.0372955 0.1366664 0
-0.1627990 -0.0157734 -0.1071173 0
0.1749659 0.2101678 0.0983826 0
0.6067240 0.4394014 -0.1609065 0
0.7079970 0.1888352 0.3023880 0
0.0436745 0.2085816 0.2677762 0
-0.7705163 0.0898117 0.2147894 0
-0.3005184 0.0159625 -0.2511380 0
0.6539946 -0.0234752 0.0241714 0
0.0642213 0.2815674 0.2104817 0
0.7644550 0.0220810 -0.1044296 0
-0.0854828 0.1102291 0.2658824 0
-0.4004957 0.3021954 -0.2379965 0
-0.0342177 0.2802494 0.2422057 0
-0.5380605 0.2880800 -0.2088676 0
0.2350186 0.3550899 -0.0965206 0
0.6590638 -0.0243601 0.0079555 0
-0.7658009 0.2153900 0.2691828 0
0.8507146 0.1099186 0.0357080 0
0.4942665 0.2434211 -0.1864590 0
0.8350077 0.1119084 -0.1184806 0
0.6470711 0.4017809 -0.2293224 0
0.7836062 0.0896064 0.1868538 0
0.2694560 0.1752385 -0.2772709 0
-0.2617863 0.1774876 -0.2704496 0
-0.8642130 0.1547939 -0.0681326 0
0.2072770 0.1430402 -0.2207710 0
-0.2776824 -0.0588938 -0.1776205 0
-0.2942176 0.3094427 -0.2379720 0
0.6284612 0.3989956 0.2344283 0
-0.5526108 0.3981634 -0.1476107 0
-0.1993741 0.1160963 -0.0967442 0
0.2111054 0.0985217 -0.2186802 0
-0.4834370 0.3220788 0.0461348 0
-0.1760701 0.0437074 -0.1421715 0
-0.5763521 -0.0084029 0.0148026 0
-0.0440971 0.3427502 0.1719159 0
-0.4100941 -0.1045092 0.0799632 0
-0.7595747 0.2345648 0.2750471 0
-0.0833012 0.2316276 0.2453131 0
0.0571385 -0.1090247 0.0703936 0
0.3416311 0.1896246 0.2717583 0
-0.8406983 0.3597894 -0.0908772 0
0.6399205 0.0755699 0.2445344 0
0.2018558 0.2612310 0.1271817 0
0.3624294 0.2677628 -0.2700391 0
-0.6652560 0.2921266 -0.2832022 0
-0.4672217 0.3460688 0.1150246 0
0.1381236 0.0887789 -0.2039568 0
0.4116570 0.2271494 -0.2737017 0
-0.0999190 0.2046756 0.2415641 0
0.6533869 0.3848624 0.2552231 0
0.3353757 0.2601993 -0.2740983 0
0.1539483 -0.0037160 0.0364571 0
0.6249653 0.0164653 0.1571600 0
-0.2220715 0.0443738 0.1968321 0
0.8078247 0.1222117 0.1784650 0
-0.1789282 0.2041797 -0.1463714 0
-0.2531222 -0.0609681 -0.1533822 0
0.4327635 0.2073831 0.2349290 0
0.2756610 0.3636891 -0.1466041 0
-0.0897250 0.2394719 -0.2613339 0
0.5309871 0.0397576 -0.0212175 0
-0.8312949 0.2422187 0.1801276 0
-0.5207552 0.2567917 -0.1915360 0
-0.7218277 0.0164810 0.1770896 0
0.3476318 -0.0623713 -0.1862408 0
-0.1161377 0.1054139 -0.2657972 0
0.2521403 -0.0820470 0.0125259 0
-0.7494404 0.3822707 0.2259770 0
-0.7775255 0.4593066 0.0476022 0
0.5888617 0.3279660 -0.2588530 0
0.5096480 0.2834120 0.0657031 0
0.7731544 0.1565708 -0.2480612 0
0.5009028 0.0253895 0.1036857 0
0.5298423 0.1702137 0.2065609 0
-0.7116886 0.4227997 0.2110066 0
0.3786939 0.0702121 -0.2849323 0
-0.1077592 0.0241633 -0.2453047 0
0.5491927 0.1034557 -0.0120292 0
0.3062960 0.1043698 0.2630684 0
0.6567357 0.2986164 0.3037355 0
0.5406905 0.2516948 0.2339714 0
0.3934210 0.3714463 -0.1559186 0
0.2140520 0.1921252 0.1821056 0
-0.7258980 0.3342997 0.2731707 0
0.5188068 0.0687841 0.0956722 0
0.0540130 0.2279269 0.2532259 0
0.6877643 0.2135227 0.3115385 0
0.6774705 0.1818231 0.3073569 0
-0.7053431 0.2791915 -0.2827117 0
-0.2711121 0.1169103 -0.2738028 0
-0.0519669 -0.0652661 0.1857910 0
0.6194884 -0.0172930 0.0116862 0
0.1228612 0.0503237 -0.2142216 0
-0.6451195 0.0240135 0.1987862 0
0.4448835 -0.0290916 -0.1768239 0
-0.5931566 0.3895913 0.2161965 0
-0.5755796 0.4488137 0.1057830 0
0.4335472 0.1092005 0.2384218 0
-0.6456581 -0.0316969 -0.0534296 0
-0.7717840 0.3909794 -0.1848941 0
-0.8175402 0.2843721 -0.1970252 0
-0.7227493 0.3163919 0.2825386 0
-0.5785670 0.4331409 -0.1334061 0
-0.4881848 0.3051596 0.1239277 0
0.1412192 -0.0374628 0.0049942 0
0.5115486 -0.0064582 0.0057383 0
0.2789656 0.0386382 0.2251323 0
0.1513990 0.1532930 0.0338704 0
-0.0072844 0.3652045 0.1425316 0
0.3159035 0.1258812 0.2694444 0
0.8151489 0.0750266 0.1040854 0
0.5905519 0.3377934 -0.2546710 0
-0.6592549 0.4656428 0.1549084 0
-0.6733363 0.0707819 -0.2336423 0
-0.5364169 0.2070056 0.0731454 0
-0.1358462 -0.0101396 -0.1813980 0
-0.5009409 0.3106002 -0.1304749 0
-0.1000306 0.3216113 0.1491567 0
0.5091146 0.3051988 0.0206004 0
-0.1374413 0.0792428 0.0056220 0
0.2285789 0.2124247 0.1963463 0
-0.4751926 0.3769287 -0.0200497 0
-0.2256117 0.2821263 -0.2084226 0
-0.0812892 0.3337161 0.1553015 0
0.4027869 0.0725813 0.2492359 0
-0.8542872 0.2126908 -0.1338050 0
0.1030102 -0.0793951 -0.0764878 0
0.5471438 0.1892565 0.0118192 0
-0.6268354 -0.0284577 -0.0461939 0
0.8044176 0.3440832 -0.1933795 0
0.7286519 0.0351789 0.1788997 0
-0.5687991 0.1076023 -0.2115947 0
-0.3021815 -0.1283464 -0.0205154 0
-0.3312876 -0.1100940 0.1110149 0
-0.5768904 0.2965689 -0.2463104 0
0.6851350 0.4751460 -0.1070735 0
-0.5477657 0.2025746 0.0238241 0
-0.7725884 0.2510762 -0.2532532 0
0.5450849 0.1967855 -0.2416812 0
0.1214824 0.2494761 0.1567931 0
0.5122427 0.2921582 0.1782447 0
-0.5343208 0.1221781 -0.1212044 0
0.0791108 0.0675103 0.2437125 0
-0.1985474 0.2111655 0.1854820 0
0.2463776 -0.0296591 0.1335434 0
-0.4773345 0.1485793 0.0213553 0
-0.3491562 0.4323071 0.0682268 0
0.1559738 0.0989710 0.0383958 0
0.7493483 0.2632826 0.2824512 0
0.4296981 -0.0931444 -0.0281677 0
-0.1759811 0.1246658 -0.1819591 0
-0.2084210 0.1747040 0.2059256 0
-0.4870548 0.1398737 0.0676964 0
-0.4795064 0.1506563 0.0416684 0
-0.4772615 0.0596007 -0.2050685 0
-0.7952033 0.2689751 0.2339324 0
0.8296841 0.1524880 0.1579109 0
-0.4455216 0.3668509 0.1214529 0
0.6907067 0.4373148 0.1938888 0
-0.7120420 0.4526392 -0.1514091 0
-0.1587688 0.3053893 0.0185347 0
-0.1981629 0.1720738 -0.0930580 0
0.7507274 0.1802992 -0.2733615 0
-0.1522388 0.2612802 0.0469669 0
0.1513426 0.1187535 0.0266188 0
-0.2579877 0.3540339 0.1644279 0
0.2958190 0.1930948 0.2586401 0
-0.7315685 0.0308768 0.1906288 0
-0.8023263 0.0839465 0.1636009 0
-0.7576343 0.3931333 0.2083692 0
0.4464120 0.1292008 0.2297980 0
0.4044402 0.0601470 0.2437158 0
-0.8198638 0.0498355 0.0604450 0
0.3639408 0.0712600 -0.2877511 0
0.2085093 0.0995419 0.1718201 0
-0.6356056 0.2411073 0.3034080 0
0.1136371 0.1572257 -0.2449915 0
0.3271043 0.3615538 -0.1822594 0
-0.5707555 0.1357130 -0.2298795 0
0.7998018 0.1309271 0.1983809 0
-0.2313477 -0.0558785 0.1160296 0
0.3947023 0.3844715 0.0995811 0
-0.3525477 0.0147593 0.2495986 0
-0.1912576 0.2167844 0.1723501 0
0.4333760 -0.0913873 -0.0169039 0
-0.6319004 0.0744394 0.2460830 0
0.7510113 0.0022410 0.0656614 0
0.8301740 0.0769970 0.0538039 0
-0.0603677 -0.1015740 -0.1389185 0
-0.4720553 0.1783179 -0.0280822 0
-0.4918136 0.1874310 0.1801199 0
-0.1017359 0.0232363 -0.2504562 0
-0.7679864 0.3485504 0.2330345 0
-0.2652850 0.0167469 0.2237601 0
0.8220834 0.3466912 -0.1609668 0
0.4606492 -0.0550263 0.0686522 0
-0.1602100 0.2227986 0.1055471 0
0.0896489 0.0237936 -0.2418645 0
-0.4970224 -0.0295981 0.0504760 0
0.4982328 0.1731577 0.1463395 0
-0.7482898 -0.0214800 0.0019633 0
-0.5446488 0.1795899 -0.2193908 0
-0.4779886 0.3160346 -0.0138164 0
0.6532452 0.1310674 0.2872296 0
0.6114598 0.3613226 -0.2515485 0
0.3618413 0.0388672 -0.2744707 0
0.2521948 0.0266156 0.1944989 0
0.3901569 0.1250242 0.2663293 0
-0.4392604 0.4051585 0.0359328 0
-0.1342180 0.1170266 -0.0528005 0
-0.3575523 0.0928849 -0.2854221 0
-0.5040106 -0.0295409 -0.0326144 0
-0.7402343 0.1831444 0.2844395 0
0.4694327 0.0369338 -0.2103435 0
0.2636848 -0.0328790 0.1518503 0
0.5405098 0.1825841 0.0502464 0
-0.5521320 0.2332279 -0.2344268 0
-0.7789750 0.1576872 0.2439514 0
-0.1655777 0.2875515 0.0389118 0
0.4248278 -0.0947456 0.0114646 0
-0.1361918 0.2254070 -0.0147999 0
0.6504841 -0.0104623 -0.0927015 0
0.5654277 0.1639327 0.2504611 0
-0.0216778 0.3784826 -0.1303375 0
-0.1759640 0.0237448 0.1011622 0
0.0331381 0.0204389 0.2578133 0
0.0543002 0.3313242 -0.1881824 0
-0.4234779 0.2674747 -0.2447590 0
0.6721921 0.1182197 0.2812085 0
0.0572855 0.0749171 -0.2887506 0
-0.0860196 -0.0855323 -0.1452176 0
-0.4821295 0.3111170 0.0547333 0
0.4046198 0.0817472 -0.2803497 0
-0.2382598 -0.0825763 0.0741778 0
-0.0110472 0.1785679 -0.3103246 0
-0.8209388 0.3494565 0.1529877 0
-0.8772404 0.2650143 -0.0147982 0
0.5882038 0.4531361 0.1146131 0
0.1989482 0.1321339 0.1621736 0
-0.3870713 -0.0637213 -0.1824274 0
0.3307729 -0.0488189 0.1763495 0
-0.1126690 0.0093531 0.2007217 0
0.1427803 0.1577338 -0.1993231 0
0.0797156 0.1674418 -0.2780242 0
-0.0670744 0.3865975 0.0325649 0
0.0189081 0.3312485 0.1896151 0
-0.7710749 0.4325445 0.1396586 0
-0.2964180 -0.1271573 0.0033451 0
-0.5986248 0.4711912 0.0858112 0
-0.8624131 0.1243618 0.0182366 0
0.3521685 -0.0978146 0.0903071 0
-0.8070560 0.0777995 -0.1445954 0
-0.1371780 0.1189029 0.0406878 0
-0.3518258 0.3209416 -0.2384922 0
-0.5434802 0.4172813 0.1018903 0
0.6044602 0.1493628 -0.2719154 0
-0.8470566 0.3200950 -0.1181581 0
0.4815778 0.2176889 -0.1357652 0
0.5964586 0.2302046 0.2899264 0
0.4791661 0.1825604 0.1896869 0
-0.0165229 0.3323438 0.1940882 0
-0.0001878 -0.0870337 -0.1853365 0
0.2862775 0.4000440 0.0087630 0
-0.4078731 0.4007306 0.1110451 0
-0.3216044 0.4233212 0.0936297 0
-0.1406995 0.2362904 -0.0461711 0
0.8310827 0.3032500 0.1625820 0
0.0654225 0.2604711 0.2255036 0
-0.3633329 0.2147394 -0.2846878 0
-0.6646478 0.3878898 0.2530319 0
0.1459452 0.1560167 -0.0434216 0
0.5340181 0.2432997 0.0255242 0
0.3660975 0.0501846 -0.2793034 0
0.7531539 0.3509982 0.2452034 0
-0.0319070 -0.1297711 -0.0689300 0
-0.8337765 0.2089480 0.1742205 0
-0.4319383 -0.1005949 -0.0595696 0
0.8157609 0.2741943 0.2026701 0
-0.2778316 0.3204555 -0.2225802 0
0.0943517 0.1453972 0.2369092 0
-0.2833426 0.0843184 0.2629915 0
-0.5244494 0.0441949 -0.0183118 0
0.0072766 0.0305740 0.2715960 0
0.2516597 -0.0743174 -0.0840290 0
0.2350694 -0.0702752 -0.0065022 0
0.0384425 0.0316671 0.2607671 0
0.7130992 0.1998754 -0.2952438 0
-0.1905122 0.0351528 0.0271166 0
0.1781753 0.1564525 -0.0937386 0
-0.7090623 0.1538999 0.2918158 0
-0.3392406 0.0776452 -0.2824625 0
-0.0099001 0.0693706 -0.3064449 0
-0.1540944 0.3094693 -0.0675611 0
0.6357684 0.4123680 -0.2148388 0
0.2562627 0.3849418 -0.0095440 0
-0.5250922 0.1841164 0.1143749 0
0.7414525 0.0166097 0.1297474 0
0.4074138 -0.0472231 0.1581731 0
-0.1602358 0.0438303 0.0753230 0
-0.6182650 -0.0281768 -0.0283986 0
-0.0002227 0.0547597 0.2824808 0
0.6423280 0.0985830 -0.2559913 0
0.8514765 0.3392077 0.0725106 0
0.0894887 -0.0993154 -0.0132076 0
0.0502767 0.2094510 -0.2863897 0
-0.4900486 0.3189600 0.1035882 0
-0.1938856 0.1523470 0.0731937 0
0.7653435 0.3014603 -0.2588722 0
-0.3573384 0.1949359 0.2821789 0
0.4691859 0.2816588 -0.1951072 0
0.5240375 0.0648341 -0.0926768 0
0.0660908 -0.1115840 -0.0583980 0
-0.7253049 0.4578525 -0.1333668 0
-0.2743051 0.1080184 0.2631685 0
-0.1690990 -0.0148181 -0.0816572 0
-0.7228575 0.3866136 -0.2248574 0
0.8199703 0.3529079 0.1487838 0
0.6794744 0.0373503 0.2048800 0
0.7214701 0.2641162 0.2995772 0
-0.8212091 0.0639449 -0.0894437 0
0.2525662 0.1579991 0.2323352 0
-0.0923670 0.0420076 -0.2678961 0
0.2356031 0.0652090 -0.2349460 0
-0.4174381 -0.0917583 -0.1133457 0
-0.4057770 0.0452441 0.2464807 0
-0.3093952 0.0843698 -0.2807740 0
-0.5169082 0.4003592 0.0447075 0
0.1204241 0.2990043 -0.1366141 0
-0.3856453 -0.0623750 0.1764365 0
-0.1105953 0.3465650 0.0809597 0
-0.5495082 0.0947479 -0.0126401 0
0.7352250 0.4700279 -0.0796607 0
0.5119641 0.1520768 -0.1769712 0
0.1636175 0.0098920 -0.0441456 0
0.5147639 0.1351442 0.1587139 0
0.6770645 0.0757979 0.2490071 0
0.1266140 0.1482717 0.1900824 0
-0.1947641 -0.0197817 -0.1181170 0
0.6631989 0.1097734 0.2757848 0
-0.8688685 0.1629597 0.0448618 0
-0.6084135 0.2702010 -0.2728092 0
0.3077594 0.0094822 -0.2510441 0
0.5162123 0.2456062 0.0901942 0
0.8750308 0.2597569 0.0386893 0
-0.2949136 0.4069754 0.1165225 0
-0.6559336 -0.0216483 -0.0970191 0
0.1216604 -0.0406966 -0.1222760 0
0.5157043 0.0571050 0.0109425 0
-0.4739971 0.2852473 0.0364393 0
0.6374252 0.0611125 0.2289934 0
-0.0230639 0.3389310 -0.2036000 0
-0.6955353 0.4722464 0.1380074 0
-0.2914029 0.3508510 -0.2027101 0
-0.1907108 0.3552866 -0.0208854 0
0.4040911 0.0305916 0.2295168 0
0.0104492 0.3976150 0.0245414 0
-0.7841591 0.4575332 -0.0033998 0
0.6192937 0.4277082 -0.1879495 0
-0.5336871 0.2677633 0.0229036 0
0.5627748 0.2209779 -0.2622006 0
0.1217520 0.2124999 -0.2167224 0
0.4300895 -0.0670508 0.1008223 0
-0.6853309 -0.0363254 -0.0374877 0
0.4717905 0.3257734 -0.0040316 0
0.8502170 0.3488290 -0.0760216 0
0.0142299 0.3345243 0.1871445 0
-0.2052078 0.1017485 0.0064695 0
-0.1779239 0.1780487 -0.1859709 0
-0.1644962 0.1153561 0.1577701 0
-0.2839845 0.2812570 0.2409680 0
0.2040348 0.2192963 0.1569843 0
-0.5905788 0.4620303 0.0998386 0
0.7537566 0.4182596 0.1772601 0
-0.3015125 0.4360085 0.0064404 0
-0.1742104 0.1097286 0.1342335 0
0.7619962 0.4650834 0.0332148 0
0.5445745 0.0857872 0.0045543 0
0.2310577 0.3647662 -0.0301994 0
-0.0066128 0.2195232 -0.2982559 0
-0.1713006 0.2873290 -0.0281667 0
-0.1582461 0.2839330 0.0394535 0
0.2457335 -0.0609273 0.0759396 0
0.8640943 0.1529549 0.0467410 0
-0.4651227 0.3598025 -0.1152459 0
0.4285488 0.0209631 0.2063502 0
-0.3341247 0.4388407 -0.0405892 0
0.5378491 0.2409269 -0.0503995 0
0.5760695 0.0133111 -0.0814055 0
0.4890229 0.3375088 0.0124124 0
-0.0119222 0.2461294 0.2671699 0
0.0015456 0.3390190 0.1844492 0
-0.3216542 -0.1017415 -0.1334613 0
-0.1489905 0.2742754 -0.0017776 0
0.7718573 0.4604011 -0.0071112 0
-0.0045191 0.4003963 0.0061041 0
-0.1500538 0.2552751 -0.0748802 0
0.3221079 0.1276507 -0.2979965 0
0.2845344 -0.0998499 -0.0490939 0
0.8609205 0.3256340 0.0487413 0
-0.3239003 0.1855569 -0.2900003 0
