# .PCD v0.7 - synthetic VGP smoke-test fixture
VERSION 0.7
FIELDS x y z rgb
SIZE 4 4 4 4
TYPE F F F F
COUNT 1 1 1 1
WIDTH 2048
HEIGHT 1
VIEWPOINT 0 0 0 1 0 0 0
POINTS 2048
DATA ascii
0.3742651 0.2190968 0.2500957 0
-0.0078791 0.0859402 -0.2973416 0
-0.4310629 0.0818302 -0.2250947 0
-0.8446641 0.1321846 -0.1107493 0
-0.1853112 0.1685908 -0.0886638 0
0.7179913 0.3104845 0.2469813 0
-0.0789914 0.3551528 0.0859726 0
0.3638380 0.3065208 0.1929732 0
-0.1787840 0.2289961 -0.0598978 0
0.1675555 0.0838612 0.1029504 0
-0.2458011 0.0818256 0.2503077 0
0.0343661 0.1853565 0.2711608 0
-0.7956023 0.2634838 -0.2216263 0
-0.2341402 -0.0823984 0.0524180 0
-0.1431212 0.1130603 -0.2049231 0
-0.3198111 0.4174628 -0.0751237 0
0.4480099 0.3045765 0.1204248 0
0.4775300 -0.0428600 -0.1029807 0
0.0543977 0.2807838 -0.2456079 0
0.4974280 0.0792748 -0.1193435 0
0.1861738 0.1697083 -0.1056965 0
-0.1595908 0.0415541 0.0792497 0
0.5088974 0.1390160 -0.1916746 0
-0.5883905 0.3599789 0.2331256 0
-0.5000361 0.0665211 -0.0506982 0
-0.1632864 0.0983440 0.1485490 0
-0.7026223 0.0826292 -0.2286996 0
-0.3042659 0.4127774 -0.0829749 0
-0.3351217 0.4131724 -0.0889351 0
-0.1456567 0.0614495 -0.0785872 0
-0.8599264 0.2363186 -0.1170457 0
-0.3704948 0.4244684 0.0476510 0
0.5625544 -0.0194883 -0.0432993 0
0.7170533 0.3512457 -0.2640899 0
0.0170541 0.3819473 0.0830941 0
-0.2884367 -0.0202742 -0.1955238 0
-0.4576607 0.1670066 0.0107264 0
-0.6419159 -0.0376982 -0.0307102 0
-0.8416287 0.3956393 -0.0012133 0
0.7419231 -0.0014549 0.0988809 0
0.1134193 -0.0519214 -0.0968235 0
0.8253751 0.0663588 -0.0574204 0
0.1501013 0.2475676 -0.0391147 0
0.3635875 0.1858190 -0.3161108 0
0.0058174 0.1574827 0.2799161 0
-0.5731798 0.0208979 0.1288656 0
-0.2180609 0.3808881 0.0605746 0
-0.3274245 0.2937514 -0.2319662 0
-0.6433444 -0.0398881 0.0016301 0
0.3353850 0.3351878 0.1623404 0
0.5299647 0.1527828 -0.1310190 0
0.5029887 0.0656151 -0.1851494 0
-0.0396050 0.2977211 0.2092321 0
0.0724827 0.3174601 0.1672323 0
-0.2747625 -0.1057194 -0.0225088 0
-0.1901131 0.1453217 -0.0630616 0
0.1881259 0.0723288 -0.0486018 0
-0.0126423 0.2085297 -0.2945348 0
0.2533716 0.3672305 -0.0746777 0
-0.4911208 0.3911231 0.0412285 0
0.4170252 0.2799043 0.1861746 0
0.0406652 -0.0515462 0.1644156 0
-0.2137509 0.1190235 0.2297041 0
-0.4501733 -0.0588435 0.0790021 0
-0.0210738 0.1898755 0.2727080 0
-0.2532343 0.0308190 0.2333308 0
0.4198593 -0.0459303 -0.2029658 0
-0.5110055 0.3778363 0.1226600 0
-0.5477123 0.4630732 -0.0553832 0
0.2329612 0.3151841 -0.1785596 0
-0.1458996 0.2810448 -0.0279610 0
0.0982206 0.3526745 0.0594347 0
0.2677430 0.1009302 0.2493364 0
0.8421744 0.1609932 -0.1326393 0
0.4729280 0.0641123 -0.2356591 0
0.1539997 -0.0139299 -0.0437111 0
0.2159014 -0.0418271 0.0951713 0
0.7676248 0.0911135 -0.2228525 0
-0.7739642 0.1315524 -0.2175473 0
0.1796006 -0.0191949 0.0384471 0
0.8143091 0.3991944 -0.0585582 0
-0.5289145 0.0221858 -0.0134569 0
0.4104060 0.3363209 -0.1784165 0
0.6848665 0.0166055 -0.2077394 0
-0.4668162 0.0684150 -0.1859568 0
0.3455954 0.0724377 -0.3157695 0
-0.8765773 0.2800339 0.0117700 0
0.3924522 0.0669092 0.2484282 0
-0.5463400 0.0064733 -0.0239952 0
-0.0957338 -0.0705672 0.0356604 0
-0.8725103 0.2848662 0.0358339 0
0.4801331 0.1415416 0.1711791 0
0.7763597 0.2977564 -0.2451210 0
-0.1204342 0.1376821 -0.2402505 0
0.5025815 0.2734694 0.0318974 0
0.7836332 0.2985043 0.1895558 0
0.4867238 -0.0297582 0.0371150 0
-0.1096132 -0.0507413 -0.0986417 0
0.1320604 0.2719496 0.1317609 0
-0.3569330 0.4028744 -0.1087150 0
0.8386579 0.3357985 0.0382948 0
-0.7592932 0.0166367 0.1177374 0
-0.4505911 -0.0110227 -0.1464379 0
-0.6066748 0.1159568 -0.2415684 0
0.3642561 -0.0406310 -0.2420766 0
-0.3267399 0.1919729 0.2906175 0
-0.5290886 0.2487196 0.0352002 0
0.7972684 0.3798611 0.1068630 0
0.5180811 0.0691347 0.1078893 0
0.7115681 0.0469487 0.1945083 0
0.7978512 0.2488328 -0.2322675 0
-0.2011341 0.3595459 -0.0630916 0
-0.3083910 0.0216258 0.2542260 0
-0.7612607 0.0326267 0.1415678 0
0.6714084 0.0893314 0.2408535 0
-0.7639516 -0.0058541 0.0432076 0
-0.7955152 0.3078184 -0.2114109 0
-0.3336613 0.1135198 -0.2661166 0
-0.8449953 0.1350534 0.0965093 0
-0.2717688 -0.0142466 -0.1933996 0
-0.2780540 0.3127819 -0.2082226 0
-0.4719903 0.1240999 0.2045652 0
0.6280953 -0.0389317 -0.0954032 0
0.6768115 0.0798999 -0.2671684 0
0.2369415 0.0640610 -0.2753148 0
0.8500550 0.3181470 -0.0561542 0
0.2129489 -0.0460784 0.0808094 0
0.5772952 0.0297917 -0.1919064 0
0.7122666 -0.0297231 0.0679587 0
0.6001492 -0.0406695 -0.0291748 0
0.4286782 0.3597454 0.0273610 0
0.0327893 -0.1004468 0.0531266 0
0.6019917 0.1247586 0.2444976 0
0.6041656 0.2649224 0.2624560 0
-0.7101071 -0.0284127 0.0633424 0
0.1338394 0.1047926 0.1819594 0
0.7189871 0.2880597 -0.2900624 0
0.5835289 0.4800797 -0.0217117 0
-0.6345601 0.4954725 -0.0943720 0
0.1953578 -0.0543192 -0.0147697 0
0.1325816 0.3172257 0.0570093 0
0.5165952 0.0716090 -0.1572245 0
0.2116136 0.0424116 -0.2397332 0
0.1555095 0.1269145 -0.1928509 0
-0.5605800 0.0697506 0.1755583 0
0.4580272 0.3420702 -0.0540123 0
0.7044413 -0.0436654 0.0102382 0
-0.1736776 0.0807749 0.1615117 0
0.2080544 -0.0609789 -0.0901520 0
0.7060297 -0.0311847 -0.1058007 0
0.6534225 0.1028837 -0.2819973 0
-0.6801171 0.4909908 -0.1115188 0
0.6294225 -0.0344844 -0.1116061 0
0.0544629 0.1868933 0.2622081 0
0.2187121 0.3273357 -0.1293016 0
0.4603869 -0.0651074 0.0272194 0
-0.1359729 0.1363249 -0.0915651 0
-0.7239041 -0.0161965 0.0896466 0
-0.1070751 0.1258567 -0.2543222 0
0.4033911 0.3699001 0.0459425 0
-0.1604134 0.2649494 0.0467097 0
-0.4986540 -0.0068900 0.0431072 0
0.4512346 0.2339790 -0.2463551 0
-0.1398834 0.1030355 -0.2078947 0
-0.4152850 0.0911472 -0.2382980 0
0.6515768 0.0890644 0.2413610 0
0.4761686 -0.0380567 0.0537492 0
-0.1346844 -0.0233874 -0.0934957 0
0.5911190 -0.0268373 -0.0941488 0
0.0007777 0.3725877 0.1120994 0
-0.5808598 0.0386795 0.1636792 0
-0.4680221 0.3031986 -0.1436091 0
0.1261365 0.2651855 0.1496246 0
-0.4618658 0.2643201 -0.0856987 0
-0.3609822 -0.0883883 0.1326947 0
0.5345365 0.3738140 0.1433750 0
0.4863995 0.0191929 0.1130561 0
0.6697460 0.2252257 -0.3113850 0
-0.3355362 -0.0895673 -0.1132156 0
-0.6159236 0.4796788 -0.1201603 0
0.6996271 0.0172510 0.1687226 0
-0.3748178 0.1124836 -0.2601564 0
0.6054383 0.1289142 -0.2835280 0
0.1405614 0.2786669 -0.1473607 0
-0.8638864 0.1438523 -0.0479917 0
0.0557896 0.1045329 0.2624844 0
0.1921216 0.2848795 -0.1514970 0
-0.1096142 -0.0254569 -0.1526908 0
-0.3699456 -0.1121408 -0.0191153 0
-0.8058925 0.0423806 0.0709309 0
0.1068614 -0.0593522 0.0574722 0
-0.7473684 0.2400279 0.2608916 0
-0.7886539 0.3488164 -0.1999369 0
-0.3729174 0.0866467 -0.2549375 0
-0.4732676 0.3015516 -0.1073866 0
-0.6185518 0.4639575 0.1547090 0
0.5844468 0.1058443 0.2239940 0
-0.6678023 0.4576664 0.1770933 0
0.0424658 0.0117433 0.2288499 0
-0.3148510 0.2544252 0.2733512 0
0.7863241 0.2303483 -0.2479356 0
0.6347389 0.4556562 -0.1714350 0
0.8124298 0.4053920 -0.0077491 0
-0.6681642 0.3911948 0.2407391 0
-0.1383012 0.1380353 0.0968625 0
-0.3512591 0.0242825 0.2567190 0
-0.2060471 0.0758657 0.2086572 0
-0.5416632 0.4433503 0.0913392 0
-0.1462247 0.0712380 0.1378464 0
0.1015291 0.1431493 -0.2645911 0
-0.1374171 0.0668338 0.0496122 0
0.6744965 -0.0497758 -0.0455048 0
-0.8189083 0.3721024 0.1287449 0
0.7640910 0.1652503 -0.2622248 0
-0.0497672 0.2609655 0.2320103 0
0.0528639 -0.0441032 -0.1945487 0
-0.7480457 0.3240486 -0.2441826 0
-0.1337138 -0.0326201 -0.0667102 0
0.8543588 0.1411033 -0.0432836 0
0.2475971 0.3677671 -0.0251708 0
0.4515742 0.2272059 -0.2499215 0
-0.3871522 0.1069862 0.2760108 0
-0.6580335 0.2503494 0.2880456 0
-0.6294662 0.3153713 0.2718084 0
0.2059661 -0.0604050 -0.0834249 0
-0.1134005 0.0075897 0.1509424 0
-0.8794528 0.2548237 0.0046166 0
0.4712056 0.1524700 -0.1167719 0
-0.1235754 -0.0133577 -0.1445810 0
-0.3046802 0.3084797 0.2426390 0
-0.3309259 0.1598438 -0.2695753 0
0.5114133 0.0714531 -0.1687804 0
-0.1884147 0.1907124 -0.0443236 0
0.4839137 0.3025246 -0.1047620 0
0.4926194 0.0812542 0.1400506 0
0.6509058 0.4113834 0.1991653 0
-0.1820677 -0.0129125 -0.0840784 0
-0.4546862 0.3647285 0.0863306 0
0.0960712 0.1409818 -0.2692391 0
-0.1530650 0.2817998 -0.0891558 0
0.3770816 -0.1095961 0.0521935 0
0.4146331 0.2956496 -0.2301426 0
-0.8785197 0.2300857 0.0165641 0
-0.1023812 0.1337195 -0.2595163 0
-0.2403619 0.4005984 0.0483548 0
-0.2190409 0.0193940 -0.1800046 0
-0.2148883 0.1250057 -0.2201264 0
-0.3942551 0.3420942 -0.1788359 0
0.4889905 0.2573578 0.1254385 0
0.6567453 0.0057370 -0.1974030 0
-0.5326061 0.0673334 0.0077700 0
-0.1521182 0.1913873 0.1311163 0
-0.1281473 0.0330862 0.1481612 0
-0.7721675 0.4738339 0.0426435 0
0.0519912 0.1983835 -0.2883568 0
-0.6497926 0.3752198 0.2498729 0
-0.0199465 0.0003701 -0.2520966 0
-0.4560112 0.3021260 0.0005112 0
0.6880046 0.2073987 0.2745818 0
-0.3473535 0.2604425 0.2712564 0
0.4918028 0.1113551 -0.1440513 0
-0.1093451 -0.0558984 0.0463941 0
-0.1555046 0.1295079 0.1361671 0
-0.7276468 -0.0198816 0.0720816 0
0.7378178 0.0800094 0.2026625 0
0.2265805 0.2912500 -0.2028450 0
0.6641880 -0.0452491 0.0479775 0
-0.4746921 0.1693347 0.2030085 0
-0.0058784 -0.0194409 -0.2367446 0
0.1410949 0.1692956 0.1721684 0
0.2784433 0.3656038 0.0751122 0
0.2188586 -0.0086393 0.1447560 0
-0.3613040 0.4105970 0.1113051 0
-0.6519759 0.3753499 0.2500704 0
-0.7663310 0.2186869 -0.2475442 0
-0.5132067 0.1623431 -0.1344883 0
0.4481722 0.2513503 0.1752003 0
-0.4293194 0.1423296 0.2532168 0
-0.2063863 -0.0639211 -0.0017440 0
0.4901343 0.2850066 -0.1249237 0
-0.4725936 0.3206412 -0.0906422 0
-0.8678823 0.2660325 0.0666930 0
-0.8771191 0.2067067 0.0181039 0
0.4890175 0.3258294 0.0900748 0
0.2982741 -0.1147477 0.0307334 0
0.5590925 0.3182087 -0.2549123 0
-0.1917673 0.3368388 0.0983533 0
-0.3562653 0.3880772 -0.1365058 0
0.1947680 -0.0339811 -0.1249855 0
0.3399458 -0.1226845 -0.0560152 0
-0.6568952 0.3816620 -0.2400961 0
0.5694515 0.4719622 -0.0236628 0
0.5855854 0.0588693 0.1917502 0
-0.4675664 0.2350457 -0.1094795 0
-0.4992223 0.3767221 -0.1083073 0
0.1913523 0.1996193 -0.0446577 0
0.0744967 0.3736869 -0.0679392 0
-0.3205237 0.0042223 0.2452189 0
-0.3473442 0.0457373 0.2681979 0
-0.1228440 0.1963746 0.0053328 0
-0.8215955 0.1256368 0.1433663 0
-0.1237992 0.0923568 -0.2283237 0
0.5149232 0.0551675 -0.1295423 0
-0.7963524 0.1173476 0.1791686 0
-0.2085060 0.0285552 0.1860511 0
0.6167694 -0.0172174 -0.1474050 0
-0.1785649 -0.0293466 0.0324849 0
0.3208237 0.3701839 0.0939180 0
0.6738973 0.2542734 0.2761022 0
0.5386071 0.2504066 0.2095818 0
-0.4764208 0.2043442 -0.1294363 0
-0.5784267 0.2293264 -0.2576205 0
-0.5114235 0.2151195 -0.1259572 0
-0.0551068 0.3589184 -0.1399004 0
-0.7453809 0.0165530 0.1358699 0
0.4216949 -0.0548005 -0.1881463 0
-0.3462874 0.3333606 0.2261876 0
-0.5800685 0.2035462 0.2568417 0
-0.1302798 0.2753491 -0.1639882 0
-0.7278341 0.2530430 0.2721455 0
0.4665716 0.3234046 -0.0437123 0
-0.6533899 0.2979605 0.2810919 0
-0.3458115 -0.1138614 -0.0346865 0
-0.4050943 -0.0246629 -0.1763271 0
0.3451965 0.0656045 0.2623287 0
0.8603449 0.1773237 -0.0509422 0
-0.3845949 0.4172430 -0.0441407 0
-0.8201874 0.1012645 0.1254532 0
-0.1248374 0.2983699 -0.1440167 0
0.1946389 0.1169601 -0.0518067 0
-0.5828688 0.0812986 -0.2064642 0
0.4914148 0.0889601 0.1450016 0
-0.8747542 0.2771795 0.0279491 0
-0.3860058 0.0005111 -0.2085562 0
0.7196276 0.1275598 -0.2790535 0
-0.3191368 -0.1175896 0.0179409 0
-0.2565173 0.0709485 -0.2358836 0
-0.5437060 0.1721728 0.0124856 0
-0.4660379 0.2840348 0.0740502 0
0.6996075 0.2221398 -0.3058324 0
0.5288453 0.1731642 -0.1277876 0
0.5240365 0.1196993 0.1629798 0
-0.1045748 0.1162348 0.2188784 0
0.3037248 0.3497401 0.1315169 0
-0.0584797 0.3322225 -0.1850032 0
0.6073471 0.2942546 0.2572043 0
-0.6328028 0.3210986 -0.2651820 0
-0.1864605 0.0781316 -0.0194050 0
-0.2752253 0.3339189 -0.1893529 0
-0.1030334 0.1872107 0.2174046 0
-0.2649304 -0.1026022 0.0351143 0
0.1340064 0.1654653 -0.0812444 0
0.6771898 -0.0247230 -0.1416436 0
-0.5912291 0.0662928 -0.1995586 0
-0.5323943 0.0184197 0.0098658 0
0.3809757 -0.0273096 -0.2499920 0
0.4992681 0.0667314 -0.1027529 0
-0.4892236 0.0098439 -0.1028783 0
0.0837202 -0.0471018 -0.1623633 0
0.4101810 -0.0866466 -0.1383823 0
0.5115032 0.4170865 -0.0275752 0
-0.7614511 0.2321487 -0.2515498 0
-0.4653742 0.1927776 0.2127694 0
0.6623961 0.0718685 -0.2630492 0
0.1793396 0.1756237 -0.1298401 0
-0.7831879 0.0850613 -0.1770338 0
0.4731258 0.0485157 -0.2274697 0
0.7888151 0.3941083 0.1061529 0
-0.0688832 0.2207797 -0.2700577 0
0.1254894 0.3277679 0.0523945 0
-0.1903852 0.1325815 0.0110754 0
-0.2598602 0.1837127 0.2699600 0
0.4970928 0.3670640 0.0658923 0
0.0548110 0.1814642 -0.2909935 0
-0.0783824 0.0273270 0.2114930 0
-0.0414561 0.0678838 -0.2843103 0
-0.6138187 0.4279790 -0.1927013 0
-0.3183159 -0.0979156 -0.0926806 0
0.0891054 -0.0425976 -0.1630998 0
-0.7563755 -0.0084187 -0.0550164 0
-0.7733287 0.3266934 0.2221058 0
0.5173599 0.2383577 0.1814687 0
0.4859269 0.0798316 -0.0707432 0
0.4589003 0.2530351 -0.2240084 0
0.7295485 0.0506205 0.1850127 0
0.2041999 0.0919480 0.1836785 0
-0.6335607 0.0212032 -0.1718881 0
0.1811786 0.1248253 -0.2239491 0
0.1830457 0.1179489 0.0670487 0
-0.3322718 -0.1131531 0.0653815 0
-0.5090303 0.3830492 -0.1236301 0
0.4265126 0.1963637 -0.2852772 0
-0.7648631 0.2794241 0.2436515 0
-0.2375192 0.0306742 0.2201141 0
-0.3724116 -0.0325783 -0.1852469 0
-0.0664025 -0.0366425 0.1616891 0
0.4144428 -0.0324679 0.1674707 0
0.7505428 0.4166396 -0.1800826 0
0.8078645 0.1928362 0.1646663 0
-0.3902076 0.3025577 0.2344670 0
-0.3815323 0.3520856 -0.1748721 0
-0.4226081 -0.0594529 -0.1141208 0
0.7753401 0.4120681 -0.1511870 0
-0.8650026 0.3073798 -0.0725584 0
0.1528210 0.1343765 0.0870175 0
0.7944229 0.4208517 -0.0824660 0
0.7741973 -0.0037765 -0.0063889 0
0.7290911 0.2248327 0.2561377 0
-0.3272817 0.1248975 0.2911031 0
-0.6071288 0.0206663 -0.1588446 0
-0.0942776 0.0372401 -0.2356977 0
0.1885284 0.0698779 -0.0347772 0
0.4914965 0.3613672 -0.1091032 0
0.1251214 0.3398592 -0.0080201 0
0.4507646 0.2417057 0.1785729 0
0.4394167 0.1746426 0.2195384 0
0.5648596 0.1288408 -0.2597777 0
0.8618105 0.1936896 -0.0538501 0
0.0198084 0.2777160 -0.2592457 0
0.5663996 0.3822596 -0.2189347 0
-0.3992180 0.2268120 0.2648542 0
-0.1557642 0.1362503 -0.1844027 0
0.5082080 0.0348517 -0.0071065 0
-0.0032725 -0.0167616 -0.2394775 0
0.4608576 0.1801144 0.0321025 0
0.4548756 0.0887626 0.2009677 0
-0.1592703 -0.0015833 0.0037362 0
0.1284449 -0.0450381 0.0258592 0
0.0635499 0.3465222 0.1324988 0
0.4990234 -0.0207486 -0.0731202 0
-0.0725854 0.3767257 0.0023274 0
0.4997535 0.1975734 -0.1947824 0
-0.7689792 0.1738096 0.2352944 0
-0.3592668 -0.0814968 -0.1240859 0
0.4639428 0.1412007 0.1949670 0
0.6046613 0.1755991 -0.2971717 0
-0.1632312 0.2400938 0.1364359 0
0.1777346 0.0804533 -0.2081696 0
-0.2460651 0.2691449 0.2349721 0
0.1421286 0.3175172 -0.0463965 0
-0.5519202 0.2002457 -0.2362977 0
0.7660619 0.4105363 -0.1684016 0
0.1483137 0.1310754 0.0732742 0
-0.6618387 0.0170474 -0.1713801 0
-0.2964250 0.4203953 0.0734596 0
-0.5088944 0.4279699 0.0069210 0
0.2624011 0.3511246 0.0922529 0
0.6663564 0.2248834 0.2787845 0
-0.6693895 -0.0410826 -0.0066681 0
0.3506191 0.2497675 -0.2924167 0
-0.7531403 0.4762984 -0.0834848 0
0.3049877 0.3138478 0.1836201 0
-0.4179693 -0.0365449 0.1703655 0
-0.3843265 0.1529969 0.2820125 0
-0.1339356 0.0983261 0.1726855 0
-0.3086348 0.1761294 -0.2671177 0
-0.0765375 0.3478253 -0.1385868 0
-0.3181351 -0.0389283 0.2083497 0
-0.4817888 0.3821242 -0.0083707 0
-0.7393733 0.2558968 0.2654247 0
0.4810341 -0.0491938 -0.0094425 0
-0.5314029 0.1034579 0.1658725 0
0.0001994 0.1218411 -0.3042555 0
0.8350498 0.1160566 -0.1163716 0
0.1169509 0.3414159 -0.0731810 0
-0.0388224 0.3842321 0.0523946 0
-0.0189920 0.2757829 0.2346548 0
-0.3202400 0.4113318 -0.0925549 0
0.7751756 0.2779614 0.2071196 0
-0.6078212 0.2946105 -0.2652028 0
-0.1826994 0.1804853 -0.0961207 0
-0.1884973 0.1395012 -0.0752297 0
-0.2812952 0.2718120 0.2556940 0
-0.5698778 0.0169336 0.1169850 0
0.5349838 0.0937479 0.0205799 0
0.3777880 0.3873887 -0.0253927 0
-0.1107648 0.2512200 0.1783750 0
-0.6014450 0.3337121 -0.2504723 0
0.1354143 0.1498663 0.0200192 0
-0.8229072 0.2553391 0.1764341 0
-0.4772794 0.1363709 -0.1923358 0
-0.6655557 0.1785192 -0.2755311 0
0.6802085 0.1927832 0.2750684 0
0.7373776 -0.0057012 0.0965912 0
0.5063332 0.2367258 0.0751943 0
0.3025644 -0.1199105 -0.0047202 0
0.0865205 0.0379944 -0.2469721 0
0.2400755 -0.0236486 0.1576374 0
0.3337566 0.2878838 -0.2661113 0
0.4894367 -0.0237261 -0.1110637 0
-0.2913443 -0.0863879 0.1299536 0
-0.2830329 -0.0243498 0.2110102 0
-0.0537089 0.2781117 -0.2457523 0
-0.2913616 0.2655267 0.2627418 0
0.1539950 0.1359258 0.1495605 0
0.4696504 0.2424090 -0.1357609 0
0.5540167 0.2103793 -0.2712500 0
0.1541398 0.1808597 -0.1582209 0
-0.2979418 0.4275294 0.0219801 0
-0.5458260 0.4521571 0.0808438 0
-0.5021490 0.1055348 -0.1480333 0
0.2014911 0.1036722 -0.2502139 0
-0.5222340 0.2608480 -0.0524386 0
-0.7055659 0.5063420 0.0496370 0
0.6476352 0.4648709 0.1246000 0
0.7316085 0.3138154 -0.2748931 0
-0.5043529 0.0672069 -0.0717591 0
0.2497082 -0.0946120 -0.0859727 0
-0.2494028 0.0134973 0.2192917 0
0.4148011 -0.0576707 -0.1908340 0
0.5067723 0.0512779 -0.1666270 0
-0.6046256 0.1725682 0.2657945 0
0.1622434 0.0918804 -0.1694113 0
0.0322608 0.3688061 -0.1380449 0
-0.1768691 0.2226336 0.0354438 0
-0.7021976 -0.0309600 0.0615003 0
0.5710226 0.0799929 -0.2357750 0
0.4871882 0.2125565 0.1248124 0
0.2219450 0.0383738 0.1856977 0
-0.8382201 0.1142018 -0.1094397 0
-0.3648469 0.2942998 0.2504184 0
-0.1761317 0.0405827 -0.0254885 0
0.1574915 0.0897494 -0.1789113 0
0.1212277 -0.0344218 -0.1209978 0
-0.8776698 0.1989476 0.0067758 0
-0.1329355 0.2137530 -0.0628088 0
0.5907071 0.1828474 0.2550668 0
0.1114492 -0.0028918 -0.1868904 0
-0.1022573 -0.0299747 0.1225885 0
0.2362951 0.2575914 -0.2453841 0
0.5705047 0.4217312 -0.1785278 0
0.8068757 0.1366021 0.1470060 0
0.2255798 -0.0596629 -0.1420713 0
0.4614931 0.0017975 -0.2083913 0
0.3542407 0.3031067 -0.2505687 0
0.5311325 0.4331252 -0.0768461 0
-0.4535414 0.2606519 0.0260986 0
-0.6176385 -0.0076378 0.1221545 0
0.4239029 -0.0978996 0.0040357 0
0.1039196 0.2067609 0.2157313 0
0.1991496 0.0504850 0.1598204 0
-0.4914480 0.3112386 -0.1467908 0
-0.1527821 0.2840181 0.0632433 0
0.3230929 -0.0438876 0.1899254 0
-0.1200593 0.2942384 0.1205892 0
0.5651631 0.0125842 -0.1523412 0
-0.0201742 0.1513603 0.2778051 0
-0.3740225 -0.0636125 0.1692123 0
0.2811581 -0.0311673 -0.2411735 0
0.5255206 0.4271975 0.0296342 0
0.0019001 0.3224690 0.1945989 0
0.5793250 0.2772253 -0.2833542 0
0.5976278 0.2183103 0.2624839 0
-0.2950889 -0.1091448 -0.0400130 0
0.2435759 0.2985986 0.1545764 0
0.1353810 0.1626923 0.0150239 0
0.2237653 0.2137183 -0.2594751 0
0.0712643 0.2258935 0.2391778 0
0.4294375 0.1794654 -0.2878009 0
-0.8373197 0.1453553 0.1239456 0
0.2770402 0.3815720 -0.0385415 0
0.1419247 0.1144531 0.0485256 0
-0.4517020 0.2027126 -0.0017605 0
-0.5014714 0.0005308 0.0498506 0
-0.7025989 -0.0307222 0.0621568 0
0.6358677 0.0380393 0.1993631 0
-0.4877348 0.1244461 0.1807719 0
0.7847493 0.2262243 -0.2498024 0
0.0574568 0.3520607 -0.1561602 0
-0.0760974 0.2731712 0.2034802 0
-0.2262642 -0.0059783 0.1802527 0
-0.5397140 0.2403758 0.2220204 0
-0.3658080 -0.0335412 -0.1864472 0
-0.4418623 -0.0610324 -0.0795490 0
-0.7402609 0.4364636 -0.1687131 0
-0.0257480 0.3334327 -0.2013632 0
0.6744772 0.4952648 -0.0564743 0
0.4389022 -0.0873285 0.0084385 0
0.7478489 0.1516198 0.2306451 0
-0.2451176 0.0897528 -0.2353295 0
-0.1423513 0.2154012 -0.1907698 0
-0.4155134 0.3228145 -0.1831532 0
0.4119963 0.3331585 -0.1823115 0
-0.0405395 -0.1009642 0.0313976 0
0.1436688 0.1146482 -0.1343314 0
-0.0784626 0.0841307 -0.2702725 0
-0.3846171 0.0910421 -0.2525019 0
-0.2867118 0.1558716 -0.2629936 0
-0.4121962 0.3622519 -0.1417696 0
-0.3788098 0.3805067 0.1609216 0
0.1728885 -0.0050880 0.0430472 0
-0.5222045 0.2462596 -0.0725441 0
-0.1825291 0.0610823 -0.0134104 0
0.0950679 0.3252338 -0.1611861 0
0.6558484 0.4595945 0.1353385 0
0.1354722 0.1889787 -0.0657815 0
0.5768971 -0.0029227 -0.1382816 0
0.7725640 0.2189044 -0.2623130 0
0.1790174 -0.0196540 -0.1048486 0
-0.0768573 0.2480489 -0.2512504 0
-0.0140703 0.2813336 0.2316193 0
0.2052481 0.0204631 -0.2164257 0
0.7817797 0.4359518 -0.0793096 0
0.3962317 0.3699050 -0.1126846 0
0.7377572 0.1723038 -0.2834518 0
-0.6019781 0.4284992 0.1893502 0
0.3851213 0.3557416 -0.1626349 0
0.2439612 -0.0036326 -0.2406900 0
0.1982685 0.2341170 -0.2166731 0
0.7821423 0.3741185 0.1422578 0
-0.5263348 0.0496689 0.0227163 0
0.7333453 0.3721077 0.2024066 0
0.6695597 0.2496156 0.2771569 0
-0.6167839 0.4509694 -0.1674565 0
0.3738978 0.1078546 0.2654991 0
0.6862111 0.1028863 -0.2790217 0
-0.0087763 -0.0324522 0.1979511 0
-0.7275086 0.1339177 0.2515857 0
-0.3627931 0.3777499 -0.1502788 0
-0.1029432 -0.0306566 0.1202642 0
0.6465496 0.2066021 -0.3108527 0
0.1824794 0.1338406 -0.1244497 0
0.6398850 0.4727564 -0.1388246 0
-0.4947940 -0.0052335 -0.0598208 0
0.3501599 -0.0828141 0.1350690 0
0.0343740 0.3921725 -0.0384186 0
-0.4591884 0.2093990 -0.0740214 0
-0.6305606 0.1753321 0.2766402 0
-0.1366753 -0.0287986 -0.0661901 0
-0.0323791 -0.0205265 0.2037865 0
0.2289212 0.3275570 0.0885465 0
-0.2467041 0.1583222 0.2625863 0
-0.1837343 0.2139268 -0.0487144 0
-0.5266899 0.1238061 0.0924942 0
0.2687271 -0.1067383 0.0163625 0
-0.2111094 0.3804123 -0.0148989 0
0.1831336 0.1938873 0.1433698 0
-0.6349102 0.3534369 0.2585080 0
-0.5672518 0.0865807 0.1973564 0
0.3496880 -0.0978503 0.1040318 0
0.3747349 0.1277322 -0.3195077 0
-0.3339749 0.3994915 -0.1198161 0
-0.1208841 0.1429220 0.0048684 0
-0.2911031 0.1637321 -0.2641204 0
0.2863915 0.2388168 -0.2895331 0
0.5499550 0.2903650 0.2138873 0
0.1043680 -0.0419028 0.1062720 0
0.4432116 0.3374125 -0.1276736 0
-0.2574358 0.3993596 0.0938791 0
0.2123694 0.0431524 -0.2410658 0
-0.4950071 0.1473019 -0.1450902 0
0.8626304 0.2150698 -0.0570432 0
-0.1328348 0.0095196 -0.1569844 0
0.6974055 0.0005809 -0.1806868 0
0.5100324 0.2236765 0.1701931 0
-0.3925441 0.4057384 0.0966138 0
0.1649963 0.0114983 0.0228082 0
-0.0075623 0.3139932 -0.2283248 0
-0.4182956 0.0860903 0.2520613 0
-0.4864154 0.3417951 -0.0243693 0
0.1980128 0.3063049 -0.1257906 0
0.1311037 0.1352691 -0.0046616 0
-0.1100139 0.1313180 -0.2517212 0
0.1979886 0.0284429 -0.2118763 0
-0.3221675 0.3218079 0.2360657 0
0.0179567 0.2747678 -0.2616377 0
0.5827543 0.4747593 -0.0702758 0
0.3087487 0.1788378 0.2655030 0
0.7603543 0.2282745 -0.2730721 0
-0.7179194 0.2643742 -0.2717026 0
-0.0311234 -0.0967381 0.0665982 0
0.7787538 0.0191859 0.0692786 0
0.1213171 0.0818894 0.1941280 0
0.0276162 0.2797005 -0.2562418 0
0.4343435 -0.0930951 -0.0398834 0
-0.7643006 0.3934995 0.1909004 0
0.4610744 0.2129318 0.0444917 0
0.0423460 -0.0937537 0.0708114 0
-0.2988526 0.4250971 0.0509813 0
0.2274169 0.3541394 -0.0265051 0
0.4550357 0.1837844 -0.0504833 0
0.3030004 0.2441209 -0.2920788 0
-0.4235384 0.2953008 0.2151787 0
-0.5235335 0.1365531 0.1759336 0
0.1646105 0.2469249 0.0747214 0
-0.2775412 0.3633382 0.1796820 0
-0.4206787 0.1197282 -0.2411514 0
-0.1817949 0.1851083 0.0463728 0
0.3065495 -0.0747945 0.1438860 0
0.1697023 0.2814343 0.0080388 0
-0.6466323 0.1118526 0.2566387 0
-0.5287667 0.3989183 -0.1420575 0
-0.6085980 0.4245530 -0.1936508 0
0.3063019 0.1800905 0.2645992 0
-0.3965496 -0.1047412 0.0257223 0
0.5861552 0.2937680 -0.2828622 0
-0.3249779 -0.1121297 -0.0462171 0
-0.5950252 0.2380726 -0.2663562 0
-0.4436416 0.0404772 0.2091004 0
-0.2613508 0.2676770 0.2467657 0
0.2491852 0.2076579 0.2248153 0
0.1104014 -0.0625140 -0.0666776 0
0.5334173 0.1635025 0.1959867 0
0.2236024 0.1556257 0.2122007 0
-0.0889980 0.0651632 0.2215693 0
0.1403763 -0.0208412 0.0543000 0
-0.5214270 0.2751653 -0.0245203 0
-0.6565488 0.4412239 -0.1901079 0
-0.7837685 0.1162065 0.1948354 0
-0.7544905 0.0171125 -0.1250523 0
0.2207777 0.3478235 -0.0104407 0
-0.3017991 0.1372453 -0.2659548 0
0.1842207 0.2001390 0.1426994 0
-0.2408890 0.3170777 -0.1816487 0
-0.1817070 0.3105505 -0.1077017 0
-0.6365497 0.4890834 -0.1114673 0
0.4667553 0.1246216 -0.0509548 0
-0.1591633 0.1953296 0.1172162 0
-0.3246371 -0.1179977 0.0088880 0
-0.2478776 -0.0893492 0.0626421 0
-0.1843857 0.2316834 -0.1743032 0
0.6987991 0.2482500 -0.3048349 0
0.3372789 -0.1238615 -0.0372300 0
-0.6253916 0.2310939 -0.2769462 0
0.2545406 0.0654651 0.2309357 0
-0.3174969 -0.0180301 0.2278805 0
-0.0423678 0.2609411 -0.2630218 0
-0.2518514 0.4096226 -0.0130235 0
-0.4083525 0.4130257 0.0062400 0
0.7985924 0.4240574 -0.0044686 0
-0.0627895 -0.0456522 -0.1817208 0
-0.5365447 0.3674153 -0.1822380 0
0.3532648 -0.0647462 0.1632042 0
-0.0741052 0.1246759 0.2500043 0
-0.5319926 0.0401033 -0.0940747 0
-0.0305513 0.2856760 0.2236001 0
0.6131086 0.0286502 0.1804955 0
0.6601996 0.2900065 0.2702843 0
0.1347144 0.1336731 -0.0962875 0
-0.0992742 -0.0398228 0.1114424 0
0.1330654 -0.0143318 0.0907444 0
0.2418818 0.1128878 -0.2908264 0
0.0401196 0.2623135 0.2381947 0
-0.3772293 0.2086549 -0.2579925 0
-0.7972456 0.3190752 -0.2052498 0
0.0900933 -0.0687747 0.0720712 0
0.1496203 0.1451624 0.0768587 0
-0.4446072 -0.0742330 0.0359715 0
-0.6262691 0.1615971 0.2717153 0
0.3928275 0.1278372 0.2588778 0
-0.6951857 0.4373797 -0.1905172 0
-0.1486706 0.2751385 -0.1188259 0
-0.7146741 -0.0329437 0.0234521 0
-0.3934571 -0.0828724 -0.0998263 0
-0.1529127 0.1475101 0.1425838 0
-0.5456129 0.1693320 -0.2234953 0
0.2283596 0.0733557 0.2087976 0
-0.7631605 0.1821886 -0.2441532 0
0.5226591 0.0744574 0.0598647 0
-0.5111548 0.2875848 -0.0570770 0
0.0963566 0.2606207 -0.2301993 0
-0.8356937 0.2366051 0.1545942 0
0.1225830 0.1763791 0.2001455 0
-0.6705135 -0.0174206 -0.1120579 0
-0.6234919 0.4737677 -0.1360757 0
0.1434388 0.2808974 -0.1372608 0
0.7905008 0.3706251 0.1310981 0
0.3504220 0.0391830 0.2515109 0
0.4866441 -0.0423714 -0.0122440 0
0.5708891 0.0250999 0.1395491 0
-0.8610589 0.1448393 -0.0658892 0
-0.5726661 0.2587621 -0.2532723 0
0.7257966 0.0347840 0.1716800 0
0.1397805 0.2535138 0.1336842 0
-0.7489430 0.4625730 0.1223703 0
0.0970728 0.2702816 -0.2221074 0
-0.5261978 0.1633936 -0.2009831 0
-0.5043112 0.3157288 -0.0086093 0
-0.4864043 0.2319034 -0.1553278 0
0.1904740 -0.0298341 -0.1213077 0
0.5238441 0.0192373 -0.0660044 0
-0.4244005 0.0355540 -0.2092472 0
0.3314096 0.1261138 0.2731922 0
-0.5796806 -0.0033811 -0.0852418 0
-0.1740841 0.1415609 -0.1745857 0
-0.0434139 0.3840176 0.0460675 0
-0.2522975 0.1640949 -0.2486212 0
-0.7818094 0.2227638 0.2308975 0
0.2164000 -0.0212446 -0.1904309 0
-0.0103670 -0.0842557 0.1152726 0
0.5299081 0.1902797 -0.2453755 0
0.5192609 0.1768484 0.0801774 0
0.4784048 0.3130051 0.0276646 0
-0.3638307 0.0309477 0.2575457 0
0.0707316 0.0498661 -0.2645927 0
0.8118886 0.4056448 -0.0038546 0
-0.0418341 0.3271256 0.1759299 0
0.4732431 0.0550985 -0.2308819 0
-0.4868767 0.0279993 0.1338463 0
0.4758339 0.2899264 -0.1357708 0
0.4133705 0.3281945 0.1324263 0
-0.6997230 0.0767569 0.2309217 0
0.4558325 0.1754711 -0.0041629 0
-0.1719713 0.2535284 -0.0480901 0
0.3707659 -0.0014756 0.2227841 0
-0.8315290 0.3540154 0.1178286 0
-0.0654631 -0.0943533 -0.0240012 0
-0.0949426 0.2593782 -0.2281191 0
0.5127076 0.0576397 0.0781048 0
-0.0595571 -0.0520022 0.1459710 0
-0.1832752 0.0736455 0.1749567 0
0.1708546 0.2336400 0.0678216 0
-0.4950214 0.1918720 -0.1650401 0
0.5219366 0.2161759 0.1888413 0
0.3757193 0.3077048 0.1871487 0
0.1305378 0.3004605 0.0976490 0
0.2752884 -0.1003519 0.0601254 0
-0.5100494 0.0578103 0.0603861 0
0.6683625 -0.0303825 0.0973182 0
0.6530480 0.2193576 0.2789496 0
0.2433335 0.3051524 -0.2055004 0
-0.5095195 0.0480031 0.0252636 0
-0.1468683 0.1876824 -0.1944757 0
0.8172646 0.0946662 -0.1444968 0
-0.8784922 0.2465801 0.0162954 0
0.3210572 0.0037419 -0.2828372 0
0.7508305 -0.0222517 -0.0062303 0
0.4507855 0.3400536 -0.0996566 0
-0.4108193 0.2886117 0.2300735 0
-0.1805255 0.2279688 -0.0450203 0
-0.5406398 0.2118035 0.2216759 0
0.6007444 0.0159429 -0.1925644 0
0.7554535 -0.0171135 0.0129075 0
-0.3509749 0.3984378 -0.1195384 0
-0.7609445 0.1595531 -0.2392819 0
-0.3127325 0.3702790 -0.1632291 0
-0.3867850 0.4220949 0.0058668 0
0.6214875 -0.0449997 -0.0568282 0
-0.1154116 0.3129343 -0.1396477 0
0.4541529 0.1960357 -0.0534162 0
0.1393560 -0.0301750 -0.0701291 0
0.0311515 -0.0796115 0.1194388 0
-0.4325749 0.3926364 -0.0432193 0
0.1840505 0.2109445 -0.2083924 0
0.5636882 0.4499959 0.0756722 0
0.7181864 0.3957371 -0.2301505 0
0.5469759 0.0264838 0.1049898 0
-0.6939788 0.2804881 -0.2757627 0
0.3711972 -0.0965481 0.0978117 0
-0.0268112 -0.0376458 -0.2129813 0
0.0388265 -0.0524787 -0.1903086 0
-0.4417104 0.1981505 -0.2253903 0
0.1509596 0.0378336 -0.1579500 0
0.0486078 0.3418011 -0.1805499 0
0.2641886 0.1340082 0.2496504 0
-0.1485609 -0.0096406 -0.0712033 0
-0.4327590 0.1080392 -0.2309178 0
0.4646685 0.3126929 0.0029003 0
0.4304087 -0.0711828 -0.1460256 0
0.7192004 -0.0354801 0.0307052 0
0.2476814 0.3381679 0.0993384 0
0.1351435 0.1539822 0.0173320 0
0.3785467 -0.0720733 0.1420581 0
-0.1067855 0.3372643 -0.1060389 0
0.2073107 0.0166861 -0.2162769 0
-0.5255178 0.2331875 -0.2136620 0
0.1496540 0.2178605 -0.1132725 0
-0.0411677 0.3740958 0.0874935 0
-0.1385051 0.2235459 -0.0785311 0
-0.1753806 0.2453376 0.0001710 0
0.2478545 -0.0945635 0.0227356 0
0.1961194 0.1220968 -0.0366825 0
-0.6445400 0.3590342 -0.2515685 0
0.7006479 0.0563414 0.2087809 0
-0.0411414 0.1303477 -0.2976184 0
0.1542898 0.3005957 -0.0381151 0
-0.1881107 0.0962191 0.0036898 0
-0.4470855 0.0105681 0.1841539 0
-0.2556673 0.3695057 -0.1340826 0
0.8419048 0.2485142 -0.1485453 0
-0.6324267 0.4223949 0.2107183 0
0.2931537 0.2507483 -0.2852792 0
-0.1402237 0.2721757 0.0077695 0
0.8402503 0.1744541 0.0866787 0
0.0713916 0.0859343 0.2481513 0
-0.4585685 0.2493643 0.0557755 0
0.1496550 0.2455799 -0.0464848 0
-0.6560234 0.4098486 0.2264947 0
0.5837392 0.4661338 0.0689866 0
0.5901237 0.1378563 -0.2798989 0
0.5935773 0.4644216 0.0889067 0
0.8589633 0.1600566 -0.0290264 0
-0.4686334 0.0242319 -0.1555948 0
-0.5097001 0.3027647 0.0303780 0
-0.4782442 0.0113001 -0.1277245 0
0.7582321 0.1072084 0.2006514 0
-0.1701363 0.0757442 0.1523055 0
-0.2768144 0.3068438 -0.2119801 0
-0.7512897 -0.0124017 0.0520289 0
0.1659519 0.0530015 -0.1332439 0
0.4992575 0.2512221 0.0793042 0
-0.6109870 0.4245210 -0.1948582 0
-0.1104117 -0.0107800 0.1352139 0
-0.4880618 0.1291352 0.1809919 0
-0.8169919 0.0936811 -0.1349852 0
0.5160681 0.4211396 -0.0478913 0
0.3764363 0.3451402 0.1356860 0
0.1320571 -0.0397562 -0.0686011 0
-0.5216869 0.2796546 0.0096520 0
0.3439425 0.3695332 0.0973400 0
0.0812632 -0.0113716 -0.2119800 0
0.3764877 0.3262599 -0.2172321 0
-0.1349599 0.3154528 0.0341167 0
0.7542896 0.2049415 0.2354683 0
0.1838646 0.0549553 -0.0462182 0
0.3517540 -0.0747728 -0.1999804 0
-0.6167921 0.2817231 -0.2708233 0
-0.5302050 0.2501009 -0.0181220 0
-0.2557870 0.3958407 0.1010738 0
0.6086833 0.4906830 -0.0191793 0
-0.0662877 -0.0751792 0.0905395 0
-0.1630435 0.1028412 -0.1480809 0
0.0353360 0.1869883 0.2705116 0
0.6007523 0.0247876 0.1681232 0
0.4800046 0.3162113 -0.1281920 0
-0.6303371 0.1356443 0.2639069 0
0.8214578 0.3915569 -0.0278612 0
0.6637345 -0.0269634 0.1064082 0
-0.6999434 0.0833195 0.2355316 0
0.3360268 0.3804950 -0.1161351 0
-0.0380657 0.0925131 0.2663137 0
-0.6730325 0.1691603 -0.2730924 0
-0.7231634 0.0303205 -0.1714243 0
-0.2515452 0.1150418 0.2625391 0
0.4893030 0.1346797 0.1017442 0
-0.8000768 0.0459417 -0.1011220 0
-0.2197670 0.0911172 -0.2169389 0
0.5159524 0.3678498 -0.1644796 0
-0.0261032 0.2548617 0.2461629 0
-0.6513252 0.3506357 0.2629059 0
0.6308613 0.4223084 0.1834226 0
0.2963372 -0.0007871 0.2211523 0
-0.4582164 0.1806302 0.0325663 0
-0.3927522 -0.0739677 -0.1185889 0
0.1880680 0.0657370 -0.0195917 0
0.7695211 0.4022026 0.1310349 0
-0.7593396 0.0238553 -0.1307602 0
-0.2203960 0.3265907 -0.1518079 0
0.5315896 0.0686907 -0.1807806 0
-0.7550024 0.4712676 -0.0939094 0
0.1985770 -0.0545323 -0.0729765 0
0.7579169 0.0755107 0.1787915 0
-0.3706624 -0.0948185 -0.0897524 0
0.7598492 0.0824182 -0.2243609 0
0.1698507 0.0329137 0.0863485 0
0.4774750 0.2655852 0.1152225 0
-0.2960051 0.1371498 0.2870004 0
-0.1238328 -0.0143903 0.1027098 0
-0.2581606 0.0254619 0.2337323 0
0.7391083 0.0737858 0.1968174 0
-0.8726422 0.3092197 0.0015601 0
-0.1383600 0.2724034 0.1072758 0
-0.1339798 0.1396442 0.0825863 0
0.2439594 0.1998239 -0.2825090 0
-0.8326858 0.4076163 -0.0326872 0
-0.6322383 0.0364393 0.1953497 0
0.8168744 0.1595856 0.1382504 0
-0.4194530 0.0569711 0.2404411 0
-0.2085811 0.3530266 0.1082315 0
-0.0061674 0.1238416 0.2792439 0
-0.0055828 -0.1100555 -0.0153968 0
-0.4118577 0.3156421 0.2100395 0
-0.7407862 0.0008552 0.1114805 0
0.3319755 -0.1122212 -0.1149414 0
0.6428241 0.4935868 0.0356371 0
-0.4694752 0.2717144 -0.1673433 0
-0.4152263 0.3489711 0.1741150 0
-0.0559767 -0.0975811 -0.0399676 0
0.3112036 0.0869429 0.2655116 0
-0.0189332 0.2957000 0.2188568 0
0.2586338 -0.1033048 0.0049306 0
0.0765478 0.2470797 -0.2551933 0
0.4854690 0.0007708 -0.1647968 0
0.8201929 0.3534500 0.0812623 0
-0.8051704 0.1924454 0.1988477 0
0.6629651 0.2277049 0.2789513 0
-0.2080043 0.3489207 -0.1027166 0
0.5548528 0.0007741 0.0667056 0
0.0844845 0.3415909 -0.1465539 0
0.1588664 0.2199791 -0.1630650 0
-0.8004839 0.0236494 -0.0319924 0
0.5994703 0.3966137 -0.2301692 0
-0.3892513 -0.0373058 0.1934641 0
0.0474221 0.2819720 0.2208856 0
0.1497461 -0.0036863 -0.1018794 0
0.2182657 0.2951389 0.1227212 0
-0.2205721 -0.0290436 -0.1331117 0
0.7100736 0.1900906 -0.3001210 0
-0.7437389 0.1992901 0.2605328 0
0.0187816 0.1968849 0.2724117 0
-0.6769891 0.0525736 -0.2096929 0
0.5825354 0.4686554 -0.0959357 0
0.2833050 0.3200782 0.1649376 0
-0.7746336 0.0251821 0.1085899 0
0.6266875 0.4863330 0.0578688 0
0.0312161 0.3843431 0.0657120 0
0.2820265 0.3407777 -0.1874099 0
-0.6496007 0.3934488 -0.2316719 0
-0.0832753 -0.0830539 -0.0439623 0
-0.6598177 0.2353433 -0.2818106 0
-0.7835702 0.4662666 0.0316973 0
-0.1216512 0.0266708 -0.1944726 0
-0.3956862 0.0740927 0.2630052 0
0.4402511 -0.0348206 -0.1950633 0
-0.2140702 0.2221545 0.2234515 0
-0.1289968 0.1255524 -0.2283870 0
-0.3067859 -0.0823329 0.1459619 0
0.3790993 0.2263731 0.2451020 0
0.5028028 0.3324340 -0.1721883 0
-0.0147171 0.0969108 0.2740839 0
0.6483469 0.4695421 -0.1479521 0
-0.7721214 0.0518714 0.1528932 0
-0.6762100 0.0997760 0.2509349 0
0.1577491 0.0479042 -0.1510878 0
0.4835581 0.3683374 -0.0444146 0
0.1362028 0.1412915 0.0256319 0
0.2025956 0.0374655 0.1576361 0
0.6472019 0.2698333 0.2743169 0
-0.0609218 0.0240258 0.2238468 0
-0.5861298 0.1421173 0.2448501 0
0.2457953 0.0694815 0.2249041 0
0.0230774 0.3891719 0.0504472 0
0.2402489 -0.0945703 -0.0219315 0
0.8125093 0.4032660 -0.0517973 0
-0.2818759 0.0446089 0.2575049 0
0.6052216 0.4457157 -0.1733665 0
-0.4242792 0.0404134 -0.2120527 0
0.5098248 0.0650998 -0.1325705 0
0.4167880 0.2074960 0.2304127 0
-0.2217572 -0.0293402 -0.1343130 0
0.0953890 0.2518423 0.2032288 0
-0.1686886 0.1631229 0.1692053 0
-0.8023480 0.4285894 -0.0946679 0
-0.6382987 -0.0354849 -0.0426422 0
0.5406709 0.0502022 -0.1731571 0
0.2149089 0.3088135 0.0958317 0
0.0448665 0.1936833 -0.2922170 0
-0.5226649 0.1595991 0.1093885 0
0.0677591 0.1880857 -0.2833918 0
-0.1477213 0.1918246 -0.1213070 0
-0.5564730 0.3746310 -0.1984568 0
-0.8273835 0.3246658 0.1472439 0
-0.1194661 0.3194771 -0.1172085 0
0.4705661 0.1968587 -0.2419369 0
0.6124312 0.4778854 0.0736077 0
0.6081783 0.1616686 0.2601278 0
0.0050598 0.1251818 -0.3045402 0
0.8369051 0.3022562 0.0800264 0
0.0237779 0.3948798 -0.0007534 0
-0.5027059 -0.0052923 -0.0095615 0
0.3146482 0.1784515 -0.3186998 0
-0.2603382 -0.0581972 -0.1353699 0
0.8495657 0.2508087 0.0632877 0
-0.0877290 -0.0805250 -0.0399254 0
-0.3387090 0.4235222 0.0780321 0
-0.4334956 -0.0511270 0.1296349 0
-0.1245044 0.0620185 -0.2145730 0
0.4262815 0.0827659 -0.2885297 0
0.5670255 0.3942425 -0.2079811 0
-0.2639135 -0.0891210 -0.0754362 0
0.5610445 0.4614561 0.0286130 0
0.4950212 0.0560241 -0.0422427 0
-0.7694215 0.0127604 0.0919013 0
-0.6827815 0.3035841 0.2789983 0
-0.4346922 0.0753869 0.2345922 0
-0.4747458 0.3419889 -0.0744561 0
-0.7848683 0.4679392 -0.0038956 0
0.8294820 0.3656174 0.0259455 0
-0.3104236 0.1171035 0.2882016 0
0.2103557 0.2783747 -0.1949038 0
0.4970288 0.2878870 -0.0902536 0
-0.5356006 0.1378426 0.1935862 0
0.5485979 0.2535796 -0.2648402 0
0.2251012 0.2198746 0.1950002 0
-0.7134198 0.2425144 -0.2745200 0
-0.2164497 -0.0567312 0.0897617 0
0.1627505 0.0997103 -0.1845552 0
0.5183382 0.2347980 -0.2336494 0
-0.3383506 0.3830645 -0.1474132 0
0.5832133 0.1517100 0.2426009 0
0.5268977 0.0426183 0.0043173 0
0.3287204 0.3562893 0.1268014 0
-0.1856347 0.3525892 0.0296464 0
0.4378331 -0.0362568 0.1356205 0
0.8556544 0.1865620 0.0340146 0
-0.3156240 0.1156989 0.2888102 0
-0.1643985 0.0110499 -0.0729487 0
-0.8415055 0.3924057 -0.0307830 0
0.5292683 0.0325374 -0.1232955 0
0.5441300 0.4416026 0.0498901 0
-0.7099842 0.2880452 -0.2706403 0
-0.5943139 0.3991068 -0.2086869 0
-0.6099657 -0.0274218 -0.0474860 0
-0.0907500 -0.0448907 -0.1506578 0
0.4907930 0.3434673 -0.1323051 0
0.5157723 0.2366903 -0.1178484 0
0.1923673 0.1612562 -0.0755857 0
0.2530011 0.1684301 0.2386188 0
0.4935527 0.1441758 -0.2205315 0
0.1901574 0.1401913 0.0400856 0
0.5060115 0.0182746 -0.1333860 0
0.4558675 0.2780669 0.1406512 0
-0.1738555 0.3382590 0.0171786 0
0.0346651 0.3381177 0.1672368 0
0.5905876 0.4535529 -0.1465966 0
-0.2599628 -0.0704622 -0.1142161 0
0.4892387 0.3668313 0.0358009 0
-0.2200742 0.2985750 0.1905141 0
-0.5048509 0.0718303 -0.0835389 0
0.4392173 -0.0242747 0.1485374 0
0.3942840 0.3763703 -0.0881837 0
-0.7468101 0.3944913 0.2063767 0
-0.6783372 0.0929001 0.2465658 0
0.1367544 0.1855309 0.0061554 0
0.7461377 -0.0228653 -0.0568427 0
-0.4746998 0.1078819 -0.0061376 0
-0.2390832 0.0723271 0.2416204 0
0.7037445 0.2527516 -0.3028256 0
0.0319506 -0.0635673 -0.1758592 0
0.3199731 -0.0014419 -0.2790737 0
0.7036276 -0.0358963 0.0571132 0
-0.3681996 0.2025121 -0.2615243 0
0.6694196 0.0732405 0.2306666 0
-0.6463513 0.2787294 0.2839415 0
0.6367108 -0.0501169 -0.0010010 0
0.5045047 -0.0022752 0.0293290 0
-0.5192424 0.2433775 0.0859683 0
-0.8082246 0.4205318 -0.0960521 0
0.0444877 0.3905273 -0.0054705 0
-0.4134678 0.1707534 0.2653911 0
-0.8013796 0.0272104 0.0402370 0
-0.6324872 0.0729294 -0.2229860 0
0.6842833 0.1257659 0.2566843 0
0.4982314 0.3364518 0.1050141 0
0.6559467 0.0295386 -0.2262403 0
-0.5097401 0.3885779 0.1073013 0
0.3983782 0.1862050 -0.3046816 0
-0.0562609 0.3846050 0.0010825 0
0.7188232 0.3945706 0.1946138 0
-0.7101455 0.2593603 0.2794595 0
0.5116678 0.0419049 0.0418156 0
-0.1954422 -0.0499058 -0.0253882 0
0.4750129 0.3086370 -0.1191692 0
0.0558003 -0.0284028 -0.2124356 0
0.2570161 -0.1043036 -0.0348287 0
-0.3530121 0.1362616 -0.2674817 0
-0.0432074 -0.0869807 -0.1144123 0
0.3846028 0.2490804 -0.2844158 0
0.3505990 0.1155629 -0.3232764 0
0.4533107 0.1966401 0.1978199 0
-0.0461877 -0.0852832 0.0892652 0
0.7310795 0.1955110 0.2531983 0
-0.0025646 0.3859238 -0.0964259 0
0.8594165 0.2832579 -0.0126396 0
0.4197536 0.3272197 -0.1840751 0
-0.3800546 0.3092532 -0.2134433 0
0.0401322 0.3744408 -0.1179659 0
-0.6904711 0.3815714 0.2441476 0
-0.3852142 -0.0759845 0.1418098 0
-0.7926701 0.0954294 0.1682317 0
-0.1491102 0.1040377 0.1452398 0
-0.5267220 0.0515847 -0.0183719 0
-0.3819156 0.3375089 0.2109067 0
0.5295486 0.1713677 0.0471948 0
0.8257318 0.2432825 0.1312574 0
-0.1368656 0.0662500 -0.1978049 0
0.0928225 0.0562354 0.2181180 0
0.1458568 0.0781611 -0.1248925 0
0.4550887 0.3108381 -0.1611829 0
-0.1753051 -0.0277302 0.0075137 0
0.0371069 -0.0644580 0.1459092 0
-0.0924056 0.3198108 0.1336565 0
0.1810611 0.2996833 0.0094896 0
0.5261904 0.2038498 -0.1155316 0
-0.6521856 0.3824112 0.2457951 0
0.2429665 0.1890011 0.2254315 0
-0.6804363 0.2171735 0.2868953 0
0.7573277 -0.0181461 -0.0172932 0
-0.5044761 0.2802655 -0.0923086 0
0.1425047 0.1038227 0.0475103 0
-0.8200266 0.3745092 0.1239954 0
0.0097293 0.3943414 -0.0502163 0
-0.4329489 0.0277167 -0.1977243 0
0.0144976 0.2653014 -0.2684171 0
0.3080971 0.3746222 0.0754160 0
0.3819947 0.0886505 -0.3126194 0
0.4971017 0.3458434 0.0930058 0
-0.3585216 -0.0076206 0.2340211 0
-0.5684314 0.0206767 0.1217304 0
-0.1079470 0.0338301 0.1814688 0
-0.5206448 0.2482023 -0.2077006 0
0.0689274 -0.0093426 0.1943452 0
-0.6515000 -0.0183701 0.1151643 0
0.1859494 0.1693862 -0.1068069 0
0.6173426 0.4481980 -0.1766535 0
-0.1114477 -0.0254232 0.1122454 0
0.1945374 0.2553906 -0.1930332 0
-0.6362572 0.4252094 0.2092531 0
-0.5668144 0.3624509 0.2140165 0
0.3792157 -0.1175699 -0.0023232 0
-0.4199125 0.2431334 -0.2286098 0
-0.1233855 0.2615625 -0.1901511 0
-0.1653495 0.1433433 -0.1607606 0
-0.1827020 0.1906559 0.1896880 0
-0.8132192 0.4008733 -0.1170391 0
0.2216143 0.2544496 -0.2324262 0
0.3569289 0.3801365 -0.1125018 0
-0.5687317 0.0845744 0.1972605 0
-0.0173416 -0.0805233 -0.1469440 0
-0.5116280 0.0548572 0.0589114 0
0.7848537 0.3912564 0.1180257 0
0.1903463 0.1139775 -0.0831771 0
-0.8159440 0.0560189 0.0704138 0
0.4466169 0.1164284 -0.2781858 0
-0.8035057 0.0278520 0.0320587 0
0.5483967 0.2412451 0.2218758 0
-0.1161187 -0.0569265 -0.0408827 0
-0.7142937 0.0066583 -0.1428017 0
-0.5157554 0.2869036 -0.0327711 0
-0.1356535 0.1732068 0.0885051 0
-0.2021077 0.0086839 -0.1503941 0
-0.3111634 0.2220677 0.2831269 0
-0.4751267 0.2864610 -0.1479223 0
0.4579463 0.0960071 0.1988173 0
0.2005286 0.2646039 -0.1940764 0
-0.1792956 0.2396809 -0.1631378 0
-0.3481410 0.0516394 -0.2474199 0
-0.1169065 0.2327028 0.1810337 0
0.7209150 0.0693420 -0.2442436 0
0.2486912 -0.0755216 -0.1460624 0
-0.4715864 0.0124698 0.1487687 0
-0.1485241 0.2903768 0.0238242 0
-0.4710286 0.0703063 -0.1816484 0
0.4139150 0.3698809 0.0198143 0
0.5379099 0.0845793 -0.2050230 0
0.7886778 0.4130890 -0.1211001 0
-0.4899000 -0.0269818 0.0084533 0
-0.4971618 0.3278651 -0.0097212 0
0.7751672 0.2041823 0.2133570 0
0.5646251 0.3798424 -0.2194423 0
0.1949226 0.1628823 -0.0537279 0
0.7719694 -0.0056564 -0.0047964 0
-0.7324471 0.4132534 -0.1984646 0
-0.5386630 0.2061041 -0.0263828 0
0.4462374 0.0903988 0.2114776 0
-0.1063019 0.3056704 0.1311805 0
0.3429560 0.0518622 -0.3089827 0
-0.4233053 0.0702204 0.2427419 0
0.5996239 0.3484860 -0.2659441 0
0.1873845 -0.0396533 -0.0786296 0
0.4835760 0.1601933 0.1635778 0
-0.2169378 0.3406400 0.1431694 0
0.1567592 0.1497895 -0.1912641 0
-0.0584057 0.3830810 -0.0383811 0
0.4309376 0.3403492 -0.1437034 0
0.8100622 0.2686757 -0.2105511 0
0.5675789 0.2589710 0.2385528 0
-0.5826543 -0.0053331 0.0861380 0
0.6112189 0.2175725 0.2691301 0
0.7228372 -0.0380193 -0.0241755 0
-0.3384596 0.3646244 0.1953586 0
-0.1235363 0.2067081 -0.2241422 0
0.2314034 0.0742481 0.2123885 0
-0.1157519 0.3325688 0.0564438 0
0.3022668 0.2671055 0.2249952 0
-0.5375434 0.2219799 -0.0070982 0
-0.7863410 0.4324168 0.1160015 0
0.4916996 -0.0321413 -0.0723864 0
0.7249891 -0.0281179 0.0528394 0
-0.5399334 0.1359079 -0.0396918 0
0.4860827 0.0872616 -0.2254318 0
0.5771570 0.4239904 -0.1823528 0
-0.8349393 0.1806047 0.1464358 0
0.2386384 -0.0324818 0.1455648 0
0.4819381 0.1060405 0.0500663 0
0.0737361 0.2866238 -0.2287577 0
0.8114406 0.3717268 -0.1340752 0
0.4033067 0.1172279 -0.3080758 0
-0.0761521 -0.0849152 -0.0623369 0
-0.3540984 0.0712510 -0.2541193 0
0.4380549 -0.0598437 -0.1577630 0
-0.4900977 0.0943389 0.0615236 0
-0.8544405 0.1100194 0.0210703 0
-0.7631537 0.4843701 -0.0079986 0
-0.7093065 -0.0219358 -0.0831627 0
0.5647519 0.0468303 -0.1996921 0
-0.0663761 0.3310691 0.1503510 0
0.5962907 0.1456100 0.2491936 0
0.5345050 0.2084545 -0.2526220 0
0.8226639 0.2263909 -0.1949808 0
-0.0433298 0.0648738 0.2553430 0
0.5375947 0.2700767 -0.2511005 0
0.0552612 0.2244572 -0.2781895 0
0.8127418 0.3039528 0.1388544 0
-0.1134427 0.3450487 -0.0482440 0
-0.6096495 0.0185811 0.1616225 0
-0.8655484 0.3365943 -0.0092650 0
-0.0715772 0.1440556 0.2528250 0
0.5380869 0.1942211 -0.0339188 0
-0.4157061 0.4069932 0.0409798 0
-0.8567866 0.3272733 0.0691348 0
0.0584129 0.0799359 0.2549103 0
-0.1935177 0.0076642 -0.1362175 0
-0.5116553 0.2010107 -0.1931253 0
-0.2750282 -0.1070186 0.0319759 0
0.8303409 0.0713262 -0.0181007 0
-0.4770336 0.0141272 0.1402520 0
-0.3728445 0.1006750 0.2804084 0
0.5534480 0.3882526 -0.1996606 0
-0.7188655 0.3869031 -0.2261210 0
-0.5086551 0.0421042 -0.0909491 0
-0.8116022 0.3824513 0.1330387 0
-0.8474588 0.2426109 0.1297259 0
0.2100271 -0.0645438 0.0198811 0
-0.7055346 0.1812904 0.2761212 0
0.8059193 0.4135212 0.0012401 0
0.0995215 -0.0166617 0.1523594 0
0.6116183 0.4419396 -0.1833002 0
0.0312144 0.3345484 -0.1994910 0
0.6890143 0.2202370 0.2747875 0
-0.4706818 0.2498613 0.1866496 0
0.0274185 0.0582903 -0.2857890 0
0.7728662 0.0759409 -0.2043683 0
-0.2808326 0.3848860 0.1504409 0
0.6648955 -0.0487446 0.0277493 0
0.7617100 0.3785290 0.1677861 0
-0.5314324 0.0701946 0.0293195 0
0.4112450 0.3686426 -0.0901838 0
0.0454265 -0.1007116 -0.0587475 0
0.0427715 -0.0657601 -0.1666383 0
0.4963271 0.1587778 -0.2140012 0
-0.4489358 0.3821426 0.0454006 0
-0.1160830 -0.0521376 -0.0703726 0
-0.3505439 0.2934974 -0.2310009 0
-0.1454968 0.1150835 0.1552968 0
0.0810187 -0.0692274 0.0891379 0
-0.6775135 -0.0405772 -0.0090722 0
-0.1663501 0.2331169 0.0687465 0
0.5279980 0.3315920 -0.2143582 0
0.8014001 0.1055582 0.1370775 0
0.0587093 -0.0156895 -0.2243065 0
0.5023948 0.0996057 0.1256925 0
0.5779999 -0.0291359 -0.0441336 0
-0.0305440 0.3526676 0.1438759 0
-0.1027132 0.3551011 -0.0448793 0
-0.4767438 0.0111885 -0.1303345 0
0.2723196 0.0050612 -0.2676678 0
0.2387462 0.3419791 0.0750006 0
0.6626766 0.4801642 0.0899377 0
-0.1518964 0.0767029 0.1280223 0
-0.4002120 0.2487658 0.2569136 0
0.0608933 -0.0195710 0.1905167 0
0.4897178 0.2784275 0.1206726 0
-0.4626750 0.2524296 -0.1871194 0
-0.5037192 0.1382022 0.1534391 0
0.1600440 -0.0044394 -0.0375280 0
-0.1855751 0.0825869 -0.0517517 0
0.4781211 0.3285742 -0.1074947 0
-0.3338060 0.4312967 0.0044998 0
-0.3274597 0.2404405 -0.2561083 0
-0.5432239 0.4098902 0.1461684 0
-0.0003576 0.2536995 -0.2759793 0
0.1396100 0.1529569 -0.1182510 0
-0.2741394 0.3246534 -0.1969984 0
0.6235622 -0.0043181 -0.1750543 0
-0.2128218 -0.0700935 0.0148377 0
-0.6457405 -0.0381281 -0.0312504 0
-0.5557260 0.0201449 -0.1012498 0
-0.8384994 0.0847695 -0.0602677 0
0.1199766 0.0358724 -0.2104128 0
0.0594828 0.0796012 -0.2826146 0
-0.5264608 0.2278490 0.0727599 0
-0.0649233 0.0288019 -0.2536161 0
-0.0393880 0.1695894 0.2701797 0
0.1039165 0.3559911 0.0240068 0
0.2726414 0.1390474 0.2549286 0
-0.1253374 -0.0015097 0.1178756 0
0.6761517 0.3329128 -0.2862275 0
-0.2236125 0.0497682 -0.2034976 0
-0.4516711 0.3744865 -0.0535006 0
-0.4416420 -0.0524452 -0.0989821 0
0.8299450 0.0767593 0.0113194 0
-0.0641187 0.1076809 0.2551703 0
-0.5907680 0.3409179 0.2441615 0
0.7159998 0.1839715 0.2607670 0
-0.6325158 0.1037837 -0.2433614 0
-0.1753317 -0.0253553 -0.0189903 0
-0.7841167 0.2298972 -0.2340243 0
-0.1696468 0.3013654 0.0951855 0
0.4272675 -0.0527314 0.1263263 0
0.1723194 0.2500210 -0.0861513 0
-0.0931574 0.1256699 0.2326924 0
0.4784622 0.3179381 0.0077703 0
0.7038165 0.4152089 -0.2179734 0
0.2203585 0.3072276 0.1089694 0
-0.3868580 0.0488230 0.2575686 0
0.3879113 -0.0929925 -0.1468916 0
-0.2852982 0.3636205 -0.1623975 0
-0.5330706 0.2054558 0.2118743 0
0.8025121 0.0306840 0.0129547 0
-0.3900753 -0.0767552 -0.1154931 0
0.3465496 0.2867877 0.2152031 0
0.8067881 0.0404690 0.0273577 0
0.4887256 0.0699829 -0.0556630 0
0.4642715 0.1915250 0.0528164 0
-0.2776765 0.4220724 0.0092117 0
-0.1611173 0.2778171 0.0094345 0
0.2636905 0.0880876 0.2441830 0
-0.4772856 0.3506828 -0.0724568 0
-0.5185741 0.2250438 0.1945515 0
0.6663159 0.4767540 0.0985198 0
-0.2281808 0.3840718 0.0796399 0
-0.5358754 0.1845897 0.2112263 0
0.3849833 0.3460457 0.1284579 0
0.1681088 0.0206041 -0.1411315 0
0.5794927 0.0175165 -0.1772523 0
0.4145060 0.3706455 -0.0688100 0
-0.1670823 0.0821255 0.0902315 0
0.6963698 0.3451564 -0.2756585 0
0.1513456 0.3056055 -0.0351376 0
0.7415876 0.2088984 0.2466597 0
-0.2903247 0.2685179 0.2609899 0
-0.6254596 0.0045918 0.1499493 0
0.3416468 -0.1102607 0.0704546 0
0.2969972 -0.0622976 -0.2112639 0
-0.6129327 0.0383320 -0.1840855 0
-0.0532005 -0.0874539 0.0731882 0
-0.4557661 0.1760480 0.0087488 0
-0.1711782 0.1435737 0.0958393 0
0.2654944 0.3441983 0.1111142 0
0.0588166 0.2886471 0.2084989 0
0.1725775 0.1753604 0.0999776 0
-0.5612073 0.1589424 -0.2332851 0
-0.6705468 0.4329216 -0.1991062 0
-0.3985826 0.2398839 -0.2415128 0
0.1912536 0.2063490 -0.0193533 0
0.1582205 0.0771536 -0.1640956 0
0.1301026 0.3158786 -0.1081339 0
0.5851789 0.2092518 0.2544471 0
-0.1792553 0.1835022 0.0584869 0
-0.3602928 0.3295047 0.2265551 0
-0.4566409 0.2910317 0.1806829 0
0.4645064 0.3155952 -0.0455304 0
0.3109449 0.0725720 0.2618313 0
-0.2600898 0.3006467 0.2267722 0
-0.1837537 0.2456196 -0.1668212 0
-0.5120446 0.4263910 0.0385419 0
-0.4936984 0.4027658 -0.0254531 0
-0.3365455 -0.1181384 0.0110508 0
0.5086065 0.1735810 -0.1860584 0
-0.7185116 0.2853193 -0.2684540 0
0.8642021 0.2359266 -0.0315359 0
-0.2237931 0.0889440 -0.2196944 0
-0.8755494 0.2148068 -0.0498214 0
0.3415173 -0.1165642 -0.0967890 0
0.4614966 0.2973800 -0.0603770 0
0.6103730 -0.0203116 0.1010791 0
-0.4780371 0.0796694 0.1830464 0
-0.4756426 0.2879655 -0.1211690 0
-0.3055974 0.3197293 0.2347188 0
0.4573511 0.1181295 -0.2679153 0
-0.4266359 0.3186051 -0.1778590 0
-0.1423203 0.1465674 -0.1120568 0
0.1752687 0.0729627 0.1268497 0
0.5875385 0.1825393 -0.2906227 0
0.7278013 0.3840121 0.1973019 0
-0.4980468 0.2437624 -0.1762067 0
0.8568604 0.2935559 -0.0057518 0
-0.7001690 0.0398721 -0.1925426 0
0.2946656 -0.1173149 0.0045278 0
0.2520546 0.3541439 0.0677129 0
-0.6844987 0.4337267 0.2031050 0
0.6637595 0.2271285 -0.3117233 0
-0.1854529 0.1169900 0.0363039 0
-0.3774669 0.2060190 0.2800895 0
0.6375062 0.1412429 -0.2968780 0
0.1916467 0.0840266 -0.0315610 0
-0.0185307 0.0161309 0.2386064 0
-0.5871187 0.4053470 -0.1989150 0
-0.4200844 -0.0439384 0.1584876 0
0.7753952 0.2569179 -0.2569328 0
0.1959281 0.3178049 0.0176413 0
0.0745758 0.2176312 -0.2704943 0
0.0355666 0.1037388 -0.2973819 0
-0.0129832 0.3404267 0.1698532 0
-0.6610426 -0.0358295 -0.0527505 0
0.6230574 -0.0226890 0.1053308 0
0.1173790 0.3085759 -0.1517633 0
-0.2650161 -0.1037805 0.0182620 0
0.4313129 0.0660061 -0.2795814 0
-0.1275783 0.2546878 0.1480745 0
0.1770385 0.0135729 -0.1568171 0
-0.1434225 0.0839664 -0.0914014 0
-0.0328623 0.3401474 -0.1891091 0
0.7928013 0.2141692 -0.2401959 0
-0.3203556 -0.0143612 0.2313056 0
-0.8274477 0.1755371 0.1589568 0
0.5837433 0.4691968 0.0589031 0
-0.0741079 0.3002493 0.1809268 0
0.7686303 0.3518373 0.1805121 0
-0.4600212 -0.0182676 0.1344635 0
-0.0883735 0.1737266 -0.2694838 0
0.6259150 0.4245747 -0.2127428 0
0.1984519 -0.0422195 -0.1161982 0
0.1888874 0.1167607 0.0412145 0
-0.0859741 0.0390005 -0.2443612 0
-0.1035835 0.3060389 0.1353532 0
0.1869671 0.2661744 0.0963254 0
-0.1271590 0.1715010 0.0545678 0
-0.1487728 0.1434725 -0.1981669 0
-0.0538136 0.1151128 -0.2911184 0
-0.7737436 0.2767271 0.2360009 0
-0.0471436 0.3664421 0.1024349 0
0.2885096 -0.1168752 -0.0151116 0
0.1408280 0.1986181 -0.0926128 0
0.2071469 0.0643772 -0.2452819 0
0.5339206 0.0791345 0.1483339 0
-0.5875493 0.3125111 0.2526984 0
0.1708134 0.1024545 -0.2022209 0
-0.1848314 0.1837091 -0.0823238 0
0.7483988 -0.0218299 -0.0537723 0
0.2581559 -0.0538262 -0.1969245 0
0.3526809 -0.1059630 -0.1330825 0
0.4753882 0.1561690 0.1773331 0
-0.4301107 -0.0279585 -0.1512829 0
0.7231534 0.1541358 0.2498966 0
0.4632358 0.2190652 0.1749658 0
0.3809243 0.1103160 0.2631539 0
0.4215545 0.2482373 0.2060972 0
-0.0941839 -0.0470878 0.1072440 0
-0.4234517 0.2839303 -0.2062192 0
0.1623861 0.0914036 -0.1809733 0
-0.1774573 0.1838225 -0.1781065 0
0.4359000 0.0128600 -0.2472614 0
-0.2100104 0.2938641 -0.1699035 0
0.4747069 0.1417640 0.0624917 0
-0.3567249 0.4279434 0.0417179 0
0.1443157 0.3166952 -0.0245792 0
-0.7586148 -0.0055295 -0.0611379 0
-0.6219218 0.4863165 -0.1097758 0
-0.0127004 0.3891130 0.0546251 0
0.3250071 0.1285462 -0.3242506 0
0.5077940 0.3363933 0.1267956 0
-0.7309927 0.1953314 -0.2647591 0
0.1835747 0.1533066 -0.1203064 0
-0.6228924 0.0836740 -0.2280572 0
0.2173440 0.1000596 -0.2674719 0
0.5716770 0.3879639 -0.2184339 0
0.8339401 0.3081729 -0.1419592 0
-0.3240044 -0.1067212 -0.0679365 0
-0.1238875 0.1064154 0.1910405 0
-0.2675709 0.3975578 0.1127792 0
-0.4597320 0.1282309 -0.2111191 0
-0.5051252 0.3927701 -0.1009090 0
0.3913735 0.1233964 -0.3137831 0
0.1699185 -0.0151819 -0.0700278 0
0.0838733 -0.0220718 -0.1976512 0
0.0814983 0.2413535 -0.2548507 0
-0.7848385 0.1894341 0.2231106 0
-0.8794787 0.2175542 0.0008110 0
-0.1524769 0.0276586 0.0591871 0
-0.8239498 0.0634292 0.0589922 0
0.2309883 -0.0426969 0.1207899 0
-0.8484093 0.3571903 0.0649307 0
0.5864944 0.4298463 0.1454375 0
0.5850230 -0.0190577 0.0723972 0
0.1526654 0.0326728 0.0251104 0
0.2835940 0.3102592 0.1770536 0
-0.4240680 0.0377766 0.2270286 0
-0.8646148 0.2272304 0.0822943 0
-0.0739025 0.3679450 0.0549952 0
0.6009948 0.0042454 -0.1756089 0
-0.3625050 -0.0599527 0.1794725 0
0.0416636 0.0686008 0.2594383 0
-0.0077580 0.1024371 0.2761392 0
0.5059389 0.3079177 0.1417103 0
0.1910365 0.2066545 -0.0258790 0
-0.7139653 0.2031824 -0.2722391 0
-0.3310567 0.0305614 -0.2382559 0
0.7328836 0.4800043 -0.0159758 0
0.5743042 0.2627363 0.2435582 0
-0.1245528 0.2095044 0.0068433 0
-0.6134945 0.4787715 -0.1202874 0
-0.7364488 0.2071653 0.2661502 0
-0.5248721 0.3601764 -0.1722967 0
0.4762926 0.1206424 -0.1032839 0
-0.1707340 0.0074940 0.0919628 0
0.4384739 -0.0851562 -0.0825801 0
-0.7570786 0.3162136 0.2407285 0
-0.1687081 0.1711165 0.1687568 0
0.4604806 0.2409469 -0.2310513 0
-0.7994365 0.0467194 -0.1040265 0
0.0162775 0.2862368 -0.2532859 0
0.1915623 0.3168249 -0.0040760 0
-0.5894014 0.1058038 0.2291452 0
-0.5197607 0.1908007 0.1128309 0
0.0599509 0.2789297 0.2157062 0
0.3832411 -0.0360196 0.1867714 0
-0.2439348 -0.0836034 0.0757426 0
-0.7033248 0.2707274 -0.2751983 0
0.4562180 0.3029990 0.1083053 0
0.3922158 -0.0287861 0.1889429 0
0.4234683 0.3669676 -0.0587725 0
0.3568101 -0.1055181 -0.1329451 0
0.0983275 -0.0502215 0.1014080 0
0.2593469 -0.0454323 0.1528900 0
0.5385362 0.4475322 -0.0101117 0
-0.0917778 -0.0477175 -0.1437469 0
-0.3347545 0.4026968 -0.1133937 0
0.1667594 0.2666071 -0.1045784 0
-0.0324898 0.1828184 -0.2969905 0
-0.1639383 0.2365644 0.1399780 0
0.6693243 0.3374299 0.2519334 0
0.6644930 0.4507426 0.1499336 0
0.4557181 0.2358412 0.1757950 0
0.5093265 0.0393056 -0.0714162 0
-0.1926760 0.1390259 -0.0301440 0
0.1746220 0.0518819 -0.1869691 0
-0.4190962 0.3736051 0.1342250 0
-0.3418224 -0.1179172 0.0121954 0
0.5248961 0.1216833 -0.2141554 0
0.6486384 0.2129442 0.2784835 0
-0.4155554 0.0334967 -0.2141916 0
-0.4179706 -0.0407323 0.1650993 0
-0.1516349 0.2681488 0.0750485 0
0.5646946 0.1478657 -0.2671867 0
-0.8468143 0.1709154 0.1159044 0
0.1833741 -0.0399054 -0.0216697 0
-0.5922728 0.2044719 0.2650298 0
0.3363033 0.2911562 0.2119707 0
0.5379868 0.2253791 0.2105509 0
-0.2133474 0.2987074 0.1818469 0
0.0457992 -0.0086100 -0.2376759 0
0.1481610 0.1331302 -0.1516725 0
-0.1606706 0.0732319 0.1035711 0
-0.4059181 0.2820937 -0.2186712 0
-0.8085601 0.1244406 0.1654519 0
-0.1125275 -0.0604838 0.0057101 0
0.5029663 0.0013921 -0.1156603 0
-0.5944643 0.3666176 0.2334808 0
-0.7708877 0.4768922 -0.0309997 0
-0.1762384 0.1919575 0.1790105 0
0.7102646 -0.0184523 0.1012316 0
-0.7128835 0.0015416 0.1396725 0
0.8103169 0.2268997 0.1629359 0
0.0807211 0.1709180 0.2471534 0
-0.0237714 -0.0827889 -0.1392176 0
0.4191718 -0.0760477 -0.1517822 0
0.1635426 0.1617470 -0.1881615 0
-0.5460325 0.4573521 -0.0703671 0
-0.6963293 0.1272663 0.2612888 0
0.2698612 0.3681222 0.0540208 0
-0.5181626 0.0282588 -0.0189916 0
-0.6481566 -0.0004305 -0.1437896 0
0.8313586 0.3725579 -0.0324880 0
0.2117130 0.3408083 -0.0261325 0
0.4676043 0.1291871 0.0146691 0
-0.1582230 0.2970938 -0.0586914 0
0.3600792 0.3804394 0.0578200 0
0.4914967 0.2815509 0.0571713 0
-0.5125434 0.2367821 0.1112752 0
0.0639905 -0.0812691 0.0834909 0
-0.5669587 0.3431121 0.2245827 0
0.5012785 0.1022390 -0.2033085 0
-0.0343331 0.2431464 -0.2759356 0
0.0360420 0.2774402 0.2295161 0
-0.6777497 0.5048047 -0.0724001 0
0.2957363 0.0976837 -0.3159128 0
-0.6201934 0.2786112 0.2772339 0
-0.5506404 0.4675977 -0.0463795 0
-0.3744439 0.4072236 -0.0891692 0
0.6814444 0.4159817 -0.2248477 0
-0.3455045 0.1249413 0.2905062 0
-0.6021613 0.4187054 0.1993293 0
-0.3117356 0.3601107 0.1984393 0
-0.1881551 -0.0128137 -0.0995237 0
0.1720351 0.1374840 0.1061141 0
-0.4483582 0.3732873 0.0804636 0
-0.0530208 0.3073137 0.1916283 0
0.2884175 0.0179077 -0.2836174 0
-0.5137821 0.0614852 -0.0901567 0
0.1455263 0.2255583 0.1425742 0
-0.2320573 0.2794858 0.2167162 0
0.1734701 0.1061921 0.1339791 0
-0.1165099 0.0177702 0.1555249 0
-0.2730097 0.0400300 0.2509217 0
-0.1396570 0.1160406 -0.0973834 0
-0.4828840 0.3339026 -0.0670080 0
0.1200346 0.3171330 0.0935978 0
0.4522130 0.2373685 -0.0113871 0
0.7260293 0.0427023 0.1800278 0
-0.7995945 0.3059983 -0.2075675 0
-0.1262365 -0.0176048 -0.1313514 0
0.8470297 0.3248808 0.0111267 0
-0.5300348 0.3603933 -0.1791220 0
0.7138446 0.3255916 0.2430859 0
0.3054630 0.3371791 0.1531392 0
0.1913496 0.1872860 0.0158348 0
-0.3024117 0.3195290 -0.2112993 0
-0.5760071 0.2671938 0.2542671 0
0.3934401 0.0519155 0.2424213 0
-0.3827530 0.3103073 0.2329197 0
0.8165962 0.3023673 0.1317305 0
0.6674877 -0.0423476 -0.0927209 0
0.7964127 0.3974568 0.0830968 0
-0.5359434 0.0922883 -0.0289316 0
0.0404248 0.3509361 -0.1701183 0
0.5477552 0.4476204 0.0408763 0
-0.2702956 0.3618217 -0.1562275 0
0.0734865 0.0950288 0.2489928 0
0.7545177 0.0064121 -0.1350891 0
-0.4640720 0.2810531 0.0681490 0
0.5847987 0.0043710 -0.1616287 0
-0.2212377 0.2269249 -0.2167013 0
-0.4570110 0.3046933 0.0088307 0
0.5232013 0.3814689 -0.1623073 0
0.2192331 -0.0485604 0.0897521 0
0.3288015 -0.1229099 -0.0516410 0
0.5434505 0.4233401 -0.1362212 0
0.7159465 0.1528078 -0.2897528 0
0.3223249 0.3221452 0.1784491 0
0.7260560 0.4735408 -0.0923477 0
0.1368796 0.0899801 0.1725708 0
0.1009218 0.1204232 -0.2637540 0
-0.1802657 0.0825792 0.0393697 0
-0.5283939 0.2592042 0.0162171 0
-0.4615508 0.3183984 0.1477721 0
0.7106872 0.4530015 0.1257300 0
-0.1721898 0.0521214 -0.0916946 0
0.4173820 -0.0942349 -0.1019258 0
0.2859006 -0.1112612 0.0301283 0
0.4564430 0.2542061 0.0141476 0
-0.6874841 0.5133421 -0.0125673 0
-0.3754049 -0.0291513 0.2094334 0
0.5032227 0.0634139 -0.1833399 0
0.8007044 0.2993783 0.1631877 0
0.0714012 -0.0121951 0.1894040 0
0.5329515 0.1111860 -0.1174401 0
-0.0528097 0.1971687 0.2582593 0
-0.1642163 0.0137189 0.0036461 0
0.0447150 -0.0180928 0.2024113 0
0.6299489 0.1861287 -0.3063698 0
0.5314646 0.1167575 0.0462294 0
-0.6764349 -0.0275445 -0.0839615 0
0.3571680 0.1491776 0.2710007 0
0.4833650 0.2772099 -0.1630689 0
-0.1556867 0.2813389 0.0787110 0
-0.8131531 0.0488889 0.0629510 0
0.2047328 -0.0526645 -0.1070572 0
-0.4896528 0.0763577 -0.0076293 0
-0.5567215 0.0037506 0.0547653 0
0.7977076 0.4096247 0.0547914 0
0.5210692 0.0453862 0.0797605 0
-0.4669943 0.2081729 -0.1037181 0
0.5037680 0.1344346 -0.2023375 0
0.3796180 -0.0116590 -0.2644594 0
-0.7416217 0.4688165 -0.1174127 0
-0.6606243 0.5148844 0.0177832 0
-0.0258424 0.0968914 -0.2972945 0
-0.6144253 0.1292378 0.2553731 0
-0.5016106 0.0267183 -0.0926647 0
0.1232838 0.0056790 0.1393251 0
-0.7698730 0.0728327 0.1780007 0
-0.0099141 -0.0600630 -0.1864638 0
0.5663090 0.2494752 -0.2796120 0
0.4079018 0.2490452 0.2167193 0
-0.7635368 0.3924648 0.1925515 0
0.2906424 0.3338512 -0.2037742 0
-0.6022924 0.2255946 0.2724341 0
-0.6560130 0.3370940 0.2691401 0
-0.5669649 0.3208985 -0.2354943 0
0.8572341 0.2324151 0.0347594 0
0.4463517 0.2805994 -0.2143667 0
-0.6455961 0.2477534 0.2868496 0
-0.7899769 0.1646745 0.2104211 0
-0.3098307 0.3120972 0.2413291 0
-0.8413586 0.1723223 -0.1457689 0
-0.4620548 -0.0483774 0.0733120 0
-0.0498918 -0.0074407 -0.2346405 0
-0.3419492 -0.0934673 -0.1041921 0
-0.3445516 0.1673463 0.2922656 0
0.1803623 0.1774726 0.1439194 0
-0.0767205 0.3719864 0.0252975 0
-0.7149431 0.3139580 0.2671268 0
-0.0721021 0.1205433 0.2511610 0
0.4129656 -0.0960146 0.0479275 0
0.1861336 0.2933388 0.0497578 0
0.4009942 -0.1101907 -0.0032482 0
-0.4063978 -0.0546410 -0.1389170 0
-0.4663255 0.3165521 0.0514573 0
0.6285813 -0.0011650 0.1485729 0
0.1732431 0.2602283 0.0094430 0
-0.3609294 0.2591588 0.2692450 0
0.5875426 0.4795397 0.0188449 0
0.6300071 0.1647724 -0.3022902 0
-0.2867695 0.3998258 0.1261620 0
-0.6965193 0.4633690 -0.1572380 0
-0.4645740 0.3706348 0.0196490 0
0.5359126 0.1171770 -0.1050854 0
0.4638522 0.2387142 -0.2282787 0
-0.8465158 0.2832166 -0.1420364 0
0.5056764 0.2525393 0.0576207 0
-0.8642858 0.1879877 -0.0912408 0
-0.5621441 0.1358166 0.2224262 0
0.0783975 -0.0453010 -0.1714248 0
-0.0784078 0.0655007 0.2318361 0
-0.8272784 0.0936448 0.1003177 0
0.4419022 0.2021982 0.2089912 0
0.0866755 0.2068816 0.2335537 0
-0.4719281 0.2564460 0.1011891 0
-0.5678675 0.2674262 0.2477619 0
0.8380077 0.0909877 -0.0028218 0
-0.1850205 0.1787716 -0.1891005 0
0.1951595 0.1449225 0.0095581 0
-0.3966616 -0.0218035 0.2044132 0
-0.5605551 0.3959981 0.1831138 0
-0.5457214 0.4444822 -0.1019520 0
-0.7903308 0.4627739 -0.0098207 0
0.6234898 0.0915882 0.2371318 0
-0.1522684 0.0374184 0.0739952 0
-0.2272354 -0.0789446 0.0429238 0
-0.0173116 -0.1089791 -0.0089251 0
0.8109707 0.1170827 0.1265251 0
0.2689903 -0.0769865 0.1124336 0
-0.2767916 -0.0539265 0.1742490 0
0.0704636 -0.0048572 -0.2269799 0
0.0798486 0.3623062 0.0719434 0
0.7064126 0.2893250 0.2597250 0
-0.1645096 0.0918523 -0.1465319 0
-0.3106429 0.3322836 -0.2026644 0
-0.7929866 0.1377984 0.1954475 0
0.1591304 0.0574365 0.0771118 0
-0.1945092 0.2802328 -0.1603215 0
-0.6272151 0.4915314 -0.1005297 0
0.3143221 0.1636868 -0.3211250 0
0.7893125 0.2848510 0.1864081 0
-0.0483164 0.3351526 -0.1880250 0
0.0455089 0.1200118 0.2698205 0
-0.1478356 0.1074633 0.1158305 0
0.8259676 0.1012158 0.0732960 0
-0.7048929 0.2638046 -0.2756009 0
0.1873346 0.0105869 -0.1767241 0
-0.5406429 0.1689810 -0.0373786 0
0.7909394 0.4041542 0.0854819 0
-0.2633749 0.1825353 0.2721789 0
-0.3131593 0.0776601 0.2796875 0
-0.3105940 -0.1055828 0.0905140 0
-0.0470061 0.1038199 -0.2921832 0
-0.4055250 -0.0617336 0.1478669 0
0.7429461 0.4703410 -0.0645807 0
0.5251274 0.0506738 0.0271811 0
0.5164898 0.0793535 -0.1597610 0
0.4576859 0.2193338 -0.0880367 0
0.4749497 0.1175767 -0.0926275 0
0.5982280 0.4825416 0.0317055 0
-0.7200822 0.0849983 0.2282369 0
0.2877520 -0.1160095 -0.0034499 0
-0.5428994 0.2270266 0.2254016 0
-0.5757675 0.4494965 0.1381182 0
0.4432575 0.3404714 0.0581592 0
0.7271979 0.1626345 -0.2871126 0
-0.8136855 0.2420873 -0.2026481 0
0.5920961 0.4479462 -0.1588757 0
0.1301127 0.1354445 -0.0586257 0
-0.0299229 -0.0996813 -0.0809549 0
-0.8207551 0.1748679 -0.1827135 0
-0.3111698 -0.1167960 0.0149373 0
0.6508474 0.4570593 -0.1722561 0
-0.0099297 0.2534876 -0.2754970 0
0.0660392 0.3347691 0.1495986 0
0.8573036 0.1722129 0.0151944 0
-0.8403955 0.3938598 0.0239290 0
0.5218173 0.4052373 0.0744608 0
0.3618031 0.3861514 0.0291120 0
0.5119900 0.1883531 0.0956100 0
0.1765785 0.0748297 0.1304398 0
0.3583508 -0.1142020 -0.1010892 0
-0.3704964 -0.1133585 0.0244999 0
-0.8478196 0.1033283 -0.0580954 0
0.7835234 0.2177644 0.2037536 0
0.4524142 0.1979657 -0.0220113 0
0.6060781 0.1782201 -0.2982131 0
-0.0765258 0.3537583 0.0940059 0
-0.1730633 0.1350027 -0.1411940 0
0.3404875 0.3899376 -0.0680443 0
-0.5339059 0.3554525 -0.1873453 0
-0.2473112 0.3176382 -0.1862763 0
0.3895779 0.2994558 0.1884335 0
-0.6788919 -0.0406153 0.0114230 0
0.6088583 0.4781404 -0.1034763 0
0.5365527 0.3379906 -0.2212124 0
0.7681429 0.2521521 0.2203208 0
0.5009790 0.1942008 -0.2056862 0
0.1552386 0.1505767 -0.1941419 0
-0.3136146 -0.0124848 0.2318147 0
0.7233155 0.0507283 0.1900719 0
0.8480248 0.1995782 -0.1298147 0
-0.3125514 0.0950257 -0.2611843 0
-0.8205550 0.2989976 0.1707892 0
0.5179532 0.0223529 -0.0031699 0
0.5275054 0.0440013 -0.0766718 0
0.7697175 0.3589210 0.1738932 0
0.8058087 0.0922806 -0.1676804 0
-0.2095786 0.2799588 0.1907108 0
-0.8514785 0.1374062 0.0786606 0
0.1959955 -0.0452757 -0.0985854 0
-0.1259500 0.1063564 -0.0247661 0
-0.0112766 0.1705363 0.2778313 0
0.6575069 0.0191107 -0.2145459 0
0.1343797 0.0715998 0.1693666 0
0.5340767 0.4177440 -0.1274089 0
-0.8193609 0.2370526 0.1830308 0
0.4453103 0.1241025 -0.2799290 0
-0.8131075 0.0496224 -0.0733465 0
0.4138705 0.0397789 0.2234929 0
-0.5681825 0.4663153 -0.0947112 0
-0.2283060 0.3398661 -0.1458896 0
-0.7310324 0.0372607 -0.1749455 0
-0.6536775 0.4476603 -0.1824470 0
0.5295320 0.0421709 -0.0180199 0
0.6111566 -0.0252573 0.0894924 0
-0.4452739 -0.0307057 0.1426130 0
-0.6171993 -0.0305710 -0.0428485 0
0.2833835 0.3455064 -0.1799880 0
0.1205436 0.1250022 -0.2444481 0
-0.1927587 0.1324836 -0.0229839 0
0.4172159 0.3163460 0.1456539 0
0.3499474 0.0408510 0.2523319 0
0.4825813 0.1299610 -0.1357674 0
0.3441342 0.0203311 0.2424891 0
-0.7935127 0.4595044 0.0120718 0
0.0335107 0.1185118 0.2741589 0
-0.1669497 0.2698031 -0.0134334 0
0.2670097 0.0441649 -0.2875645 0
0.5051538 0.0514187 0.0960308 0
0.0852753 0.0296558 -0.2427418 0
-0.1509067 0.0436660 -0.1531879 0
-0.2658679 0.0799097 -0.2435843 0
0.4614345 0.2556180 -0.2185496 0
0.3427138 0.1949857 -0.3162463 0
0.3431777 0.1147555 0.2723855 0
0.0521687 -0.0239787 0.1919570 0
0.3261844 0.1360968 0.2729801 0
0.6463288 0.2124694 0.2782444 0
-0.1308600 -0.0380205 -0.0582433 0
-0.4322774 0.2724615 0.2210952 0
0.4859523 0.2660876 -0.1731946 0
-0.1351969 0.2531928 -0.0162636 0
0.6380593 0.3646936 0.2351728 0
0.2577405 0.2795416 -0.2455138 0
0.8064006 0.3992022 -0.0982487 0
0.8099338 0.3447689 0.1164222 0
-0.2934080 0.4253943 0.0378912 0
0.2011282 0.3246873 0.0144739 0
-0.1604221 0.2823340 -0.0330905 0
-0.3898681 0.3575486 0.1849913 0
0.8549711 0.1727309 -0.0875918 0
0.0769971 -0.0854256 -0.0708052 0
-0.5156772 0.0414224 0.0334725 0
-0.4691346 0.3156850 -0.1282508 0
-0.7833462 0.4506163 0.0867316 0
-0.1939037 0.1592356 0.2088050 0
-0.2777335 0.3532608 -0.1708814 0
0.4747389 0.2706902 0.0836644 0
0.0205121 -0.0463802 -0.2048905 0
0.3126649 0.3885548 0.0140242 0
-0.3653828 0.3431095 0.2127022 0
0.1307509 -0.0474908 -0.0198877 0
0.5100341 0.2056479 0.0910863 0
0.2367374 0.3568478 0.0159067 0
0.5361274 0.0035465 0.0084456 0
0.0453442 -0.0623817 -0.1710668 0
-0.0295013 -0.0578991 -0.1842580 0
-0.7935905 0.3314192 0.1969995 0
-0.7952155 0.4225452 -0.1205911 0
0.1587556 0.2668230 -0.0450824 0
-0.1364819 0.1107361 -0.2151653 0
0.7544314 0.0930089 0.1957710 0
-0.2208067 -0.0689138 0.0651784 0
-0.4990601 0.1175125 -0.1303870 0
0.5714192 0.4311075 -0.1654846 0
0.4843277 -0.0435136 -0.0003107 0
-0.8356452 0.2914962 0.1456676 0
-0.4922589 0.0989617 -0.0905193 0
0.4134652 0.2338701 -0.2782593 0
0.5805442 -0.0311602 -0.0365973 0
-0.4233894 0.1683356 -0.2419855 0
0.2021045 0.2782825 0.1144286 0
0.7622140 0.2811043 -0.2639522 0
0.1909168 0.1261297 0.0338665 0
-0.2500376 0.4027461 -0.0490063 0
0.6381926 0.4852559 0.0698686 0
-0.0136124 0.0037506 0.2307191 0
0.4640534 0.1308458 -0.0372649 0
0.3932597 0.0498178 0.2416562 0
-0.7090166 0.3781278 0.2404675 0
-0.6043170 -0.0175868 -0.0790874 0
-0.2298703 0.3954803 -0.0166861 0
-0.7248042 0.0035396 0.1339718 0
0.6581088 0.0143213 -0.2087103 0
-0.3854002 -0.0516491 0.1788731 0
-0.1138245 0.0376861 0.1756111 0
-0.1531462 0.2787587 -0.0957577 0
0.4299718 0.1266015 0.2326315 0
-0.4292363 0.3636633 0.1370997 0
0.5251258 0.2219017 -0.0971424 0
0.1526201 -0.0141929 0.0138599 0
0.7425354 0.2360973 0.2460050 0
0.4106776 0.3357657 0.1228329 0
-0.0584168 0.1170638 0.2603093 0
-0.4852050 -0.0150853 0.0791020 0
0.5668169 0.0031690 -0.1365291 0
0.7816529 0.4299561 0.0545889 0
-0.1483639 0.2902080 -0.0148783 0
-0.1432418 0.1531812 -0.1148911 0
0.5596254 0.4208618 -0.1665389 0
0.6490815 0.2492158 0.2774233 0
-0.5256444 0.3930713 0.1353815 0
0.5311394 0.1940841 -0.1019172 0
0.5495163 0.3125526 -0.2488245 0
0.1497706 0.1535660 0.1579140 0
0.8220494 0.1270473 -0.1634903 0
-0.6260585 0.0128228 -0.1576005 0
-0.5971522 -0.0110374 0.0926877 0
-0.0432675 -0.0819379 -0.1284207 0
0.8025609 0.1954188 0.1740386 0
0.6146086 0.3889685 -0.2440894 0
-0.8441440 0.3283775 -0.1235934 0
0.5414463 0.0964201 -0.0239090 0
-0.1655246 0.3132412 -0.0540212 0
0.4758961 0.2014680 -0.1536907 0
0.5112379 -0.0025640 -0.0131539 0
0.3346974 0.0568630 -0.3110169 0
0.1151863 0.0239771 0.1699396 0
-0.7526011 0.1864684 0.2520042 0
0.4498857 0.3069838 -0.1762685 0
-0.7439160 0.0156326 0.1359910 0
-0.1248885 0.1122871 -0.0221012 0
