# .PCD v0.7 - synthetic VGP smoke-test fixture
VERSION 0.7
FIELDS x y z rgb
SIZE 4 4 4 4
TYPE F F F F
COUNT 1 1 1 1
WIDTH 30
HEIGHT 1
VIEWPOINT 0 0 0 1 0 0 0
POINTS 30
DATA ascii
-0.0438618 0.2929667 0.2286189 0
0.0472788 -0.1045192 0.1005934 0
0.1640833 0.1468603 0.1040240 0
-0.1642082 0.0578034 0.1401218 0
0.0292647 0.0706173 0.2795937 0
-0.1760411 0.2186731 0.1003021 0
-0.0591650 -0.0419686 0.2081782 0
0.0953442 0.2324184 0.2098281 0
0.1267709 0.0148214 0.1460210 0
-0.1237747 0.1681473 0.2239206 0
0.0040457 0.1817459 0.2896556 0
-0.0861637 0.0669467 0.2565620 0
0.1195311 0.2877924 0.1205884 0
-0.1149923 -0.0594125 0.1205054 0
0.1180650 0.1029559 0.2025798 0
-0.1179014 0.2915723 0.1603298 0
0.0370143 -0.0202819 0.2285335 0
-0.0393640 -0.1076615 0.1200292 0
0.0692856 0.1420033 0.2625510 0
0.0136523 -0.0767174 0.1783124 0
-0.1668540 0.1602037 0.1508476 0
-0.0693879 0.1557747 0.2770559 0
-0.1250547 0.0050157 0.1797567 0
-0.0831708 0.2251050 0.2485004 0
0.1505535 0.0812951 0.1323935 0
0.0267990 0.2851975 0.2333220 0
0.0996472 -0.0577732 0.1111578 0
-0.1435230 0.0951090 0.1943485 0
0.0755225 0.0364299 0.2348476 0
-0.1563334 -0.0085996 0.1006676 0
