# .PCD v0.7 - synthetic VGP smoke-test fixture
VERSION 0.7
FIELDS x y z rgb
SIZE 4 4 4 4
TYPE F F F F
COUNT 1 1 1 1
WIDTH 2048
HEIGHT 1
VIEWPOINT 0 0 0 1 0 0 0
POINTS 2048
DATA ascii
0.8548701 0.1696012 0.0271736 0
-0.0933492 -0.0584310 -0.1171144 0
0.4129723 -0.1037996 -0.0614149 0
-0.7803562 0.4700737 -0.0263263 0
-0.0394811 0.1779189 -0.2957316 0
0.8369051 0.3022562 0.0800264 0
0.8571599 0.2210640 -0.0953927 0
0.4304756 0.1607136 -0.2904523 0
-0.3925441 0.4057384 0.0966138 0
0.6344863 0.0659066 0.2231192 0
0.5531263 0.3875417 0.1573140 0
-0.7650054 0.1462587 0.2296441 0
-0.1265517 0.3229599 -0.0854411 0
-0.5883647 0.4968815 -0.0049952 0
0.1723704 0.2543377 -0.1451137 0
-0.2964395 -0.0142267 0.2257763 0
0.5663687 0.4598357 0.0521091 0
-0.7262447 0.4442734 0.1723952 0
0.2571133 0.2637492 0.2006407 0
0.6299379 -0.0023708 -0.1807330 0
0.8244867 0.3847168 -0.0046002 0
0.1116636 -0.0569141 -0.0856363 0
0.4246448 -0.0563475 0.1240487 0
0.8283585 0.3294274 0.0833062 0
0.1615335 0.2861730 -0.0494398 0
0.2766096 0.1907855 -0.3045347 0
-0.5035725 0.1789332 0.1532385 0
-0.2818759 0.0446089 0.2575049 0
0.5519803 0.3638523 -0.2201969 0
0.8187952 0.3945147 -0.0032485 0
0.7989964 0.0679911 0.1044492 0
0.1955437 0.2771762 -0.1702046 0
-0.0164167 -0.1047746 0.0410829 0
0.6858604 0.4815423 0.0775794 0
-0.3636532 0.3360288 0.2198819 0
0.6192349 0.3162499 0.2546656 0
0.0186569 0.3897970 -0.0754123 0
0.5218173 0.4052373 0.0744608 0
0.5706547 0.0774762 -0.2335541 0
0.4372242 0.1826651 0.2199049 0
-0.4150256 0.3561303 0.1653734 0
-0.2738651 0.4045593 0.1021699 0
-0.8478196 0.1033283 -0.0580954 0
0.3222250 -0.0411993 -0.2442341 0
-0.3196246 0.2613377 0.2711543 0
0.4333333 0.1697724 -0.2868642 0
-0.5684783 0.4557052 -0.1179376 0
0.5687827 0.4524176 -0.1191529 0
0.1974392 0.3124561 -0.1081674 0
-0.1452383 0.1138368 -0.2014295 0
0.5404322 0.2357492 -0.2588954 0
0.5295900 0.2210045 -0.0045654 0
-0.0792812 0.3574302 0.0790437 0
-0.5249786 0.3494186 -0.1798627 0
-0.3522924 0.4004185 -0.1152873 0
0.3024735 0.3129871 0.1836376 0
-0.0412838 0.3692835 0.1008971 0
0.4753922 0.1973881 -0.1514846 0
-0.7266047 0.2359497 -0.2699447 0
0.1346934 0.1503324 -0.0936688 0
-0.1210385 0.3382902 -0.0404046 0
0.3974370 -0.0701120 0.1312798 0
-0.6563049 0.1376069 0.2694421 0
-0.7914797 0.3978357 0.1521634 0
-0.4356118 0.1203630 -0.2310617 0
0.0838733 -0.0220718 -0.1976512 0
-0.2090328 0.0542438 -0.1915783 0
0.6568693 0.1430661 -0.2990175 0
-0.3887994 0.2930314 -0.2206718 0
0.4870040 0.2126805 -0.2101955 0
-0.7079121 0.0288865 0.1824409 0
0.2692654 0.3303761 -0.1946528 0
0.5233006 0.4211058 0.0411073 0
-0.8794787 0.2175542 0.0008110 0
0.4335734 -0.0239818 -0.2160421 0
0.5525509 0.3542779 0.1849634 0
0.0364701 0.3476118 0.1517158 0
-0.0236159 0.3613190 -0.1564706 0
0.5111380 0.2001576 0.0915318 0
-0.4504083 0.2431177 -0.0123691 0
-0.7588586 0.0997588 0.2106337 0
-0.6047162 -0.0244500 0.0568161 0
0.3717175 0.1574795 0.2665851 0
0.4923971 0.2796468 0.0577589 0
0.1009218 0.1204232 -0.2637540 0
-0.1527821 0.2840181 0.0632433 0
-0.8281201 0.3877551 0.0878576 0
0.5259992 0.0118348 -0.0134705 0
-0.6801878 -0.0329162 -0.0632189 0
-0.2586503 0.3822052 -0.1156114 0
-0.0839012 0.0441691 -0.2490885 0
0.8214045 0.3511888 -0.1344119 0
0.4122693 -0.0944821 0.0550691 0
0.5005539 0.2165619 -0.2074000 0
0.7951601 0.3725339 -0.1688507 0
0.4033911 0.3699001 0.0459425 0
-0.1032044 0.0815615 -0.2484621 0
0.4567873 0.1887389 -0.0714727 0
-0.6646270 0.2628866 0.2873312 0
-0.5425453 0.4051273 0.1505108 0
-0.6069646 0.3316975 0.2573043 0
-0.2803512 0.2708167 0.2557457 0
0.2684377 0.2922376 0.1854685 0
-0.4842352 0.0684457 -0.1622884 0
-0.4323587 0.3716885 0.1179834 0
-0.7205744 0.3922017 -0.2216601 0
0.7772359 0.0518443 0.1274330 0
0.5808481 0.2084243 -0.2899632 0
-0.5249739 0.1815210 0.1962934 0
-0.5196767 0.0421502 0.0546788 0
0.7681304 0.3128139 -0.2472995 0
0.7648422 0.1900683 -0.2668286 0
0.8606371 0.1868254 -0.0594614 0
-0.3852741 -0.0633101 -0.1416032 0
-0.6099340 0.0046888 0.1399344 0
-0.1912577 0.3582209 0.0371082 0
0.4897275 0.1966169 0.1418648 0
-0.0761862 0.0457396 -0.2558934 0
-0.3713871 0.3952003 -0.1178216 0
0.2376249 0.0068613 0.1831053 0
0.5131524 0.2240869 -0.1426488 0
-0.5729799 0.2175207 0.2530197 0
-0.5529001 0.4665153 -0.0590798 0
-0.4648131 0.3083901 0.0526274 0
0.2778415 0.0955830 0.2544027 0
-0.8355271 0.1090788 0.0967476 0
0.6582818 0.0313370 -0.2281576 0
0.3817169 0.2552694 0.2283737 0
0.4039636 0.2000445 0.2421797 0
0.5022202 0.1347385 0.1319129 0
-0.5136781 0.0435619 0.0312077 0
0.5995242 -0.0195784 -0.1274157 0
-0.4886145 0.1033305 0.0708918 0
-0.1952718 0.3312791 -0.1066371 0
-0.1851092 0.0772977 0.0008840 0
-0.6942562 0.3368887 -0.2600512 0
0.3620195 -0.1188920 -0.0722626 0
0.6482415 0.1892585 -0.3092500 0
-0.1542686 0.0367251 -0.1371783 0
-0.8101686 0.3999394 -0.1246717 0
0.7307372 0.0176554 0.1455246 0
-0.4753107 0.2096198 0.1090918 0
-0.8356532 0.2113234 0.1527127 0
-0.7390865 0.2594641 0.2653120 0
0.5032960 0.2789507 -0.0846439 0
-0.2411513 0.4030824 -0.0164698 0
-0.4496308 0.2768451 -0.1875485 0
0.3250378 0.1806833 0.2680027 0
0.5944662 0.1056293 -0.2675155 0
-0.8446874 0.0892121 0.0258494 0
0.2258746 0.2840857 0.1477858 0
-0.4900680 0.2967764 -0.1507015 0
-0.6454312 0.0207641 -0.1743460 0
-0.5970764 0.4871686 0.0863520 0
-0.3148585 0.4293447 -0.0135029 0
0.4942378 0.0713458 -0.2055199 0
0.6123199 0.2290374 -0.3044539 0
-0.3208122 -0.0309467 0.2166865 0
-0.0397241 0.3818307 -0.0884709 0
-0.6733605 0.4874088 0.1272464 0
0.7249548 0.1839275 -0.2927413 0
0.5072676 0.0256672 -0.1394221 0
0.0659486 -0.0961455 -0.0032778 0
0.7751302 0.1802792 -0.2554496 0
-0.8689945 0.2967301 0.0450303 0
0.1398436 0.2125979 -0.0127241 0
-0.8137310 0.3577526 0.1509470 0
0.6637663 0.4721962 -0.1425804 0
-0.1074940 0.0574319 -0.2335332 0
0.1790174 -0.0196540 -0.1048486 0
-0.2715314 0.3289979 -0.1919106 0
0.1614840 0.2772737 0.0361172 0
-0.0586962 0.0893708 -0.2836643 0
0.8398863 0.1303145 -0.1150636 0
0.4756927 0.1677255 -0.1416423 0
-0.0835672 -0.0109279 -0.2061138 0
0.6154216 0.2829018 -0.2983384 0
0.4694475 0.1473570 0.0467236 0
-0.2095786 0.2799588 0.1907108 0
0.0157805 0.3736883 -0.1325274 0
0.3186287 -0.1203860 0.0173524 0
-0.8246862 0.0531675 -0.0281306 0
0.6135257 0.1752676 -0.3002539 0
-0.5681031 -0.0095202 0.0285441 0
-0.5861298 0.1421173 0.2448501 0
0.4634093 -0.0553876 0.0490648 0
0.3920025 0.3829896 -0.0352585 0
0.2935231 -0.0662904 0.1507690 0
0.4373146 -0.0892904 0.0024173 0
-0.4452739 -0.0307057 0.1426130 0
-0.0692543 0.3776389 0.0131118 0
-0.1560913 -0.0014053 -0.0510140 0
0.5013866 0.1709103 0.1465238 0
-0.7297599 0.4047002 -0.2074695 0
0.0863164 0.3555636 0.0790819 0
0.5861911 0.0207327 0.1505285 0
0.7884864 0.4329297 -0.0604669 0
0.3794312 -0.1036375 -0.1242833 0
-0.1384494 0.0469024 -0.1824066 0
0.0206304 0.3180190 -0.2226762 0
0.4818342 0.0957282 0.0325769 0
-0.1852679 0.0741412 -0.0309608 0
0.0180901 -0.0167307 -0.2384025 0
-0.1358140 0.1103502 -0.0818040 0
-0.0577272 0.3456921 -0.1639020 0
0.3113050 0.2348175 -0.2988095 0
0.2716113 0.3435944 -0.1740387 0
-0.6913666 0.3872226 0.2402846 0
-0.0538136 0.1151128 -0.2911184 0
-0.1744160 0.0484296 -0.0725029 0
0.4765773 -0.0400093 0.0475947 0
-0.4647405 0.1427560 -0.0344032 0
-0.5125434 0.2367821 0.1112752 0
-0.3927783 -0.0790644 0.1291811 0
0.7157976 0.1262994 0.2442717 0
0.2412275 0.1794821 0.2262586 0
0.4505093 -0.0428113 0.1056548 0
0.1866746 0.1964581 0.0357325 0
-0.3552501 0.0004682 0.2407900 0
-0.5332702 0.0564446 0.1189187 0
0.5719017 0.4527272 -0.1237043 0
0.3239095 0.0734080 -0.3157980 0
0.5464712 0.2953641 0.2082798 0
-0.5534196 0.1894538 0.2317056 0
-0.4727212 0.3569195 0.0195555 0
-0.7556146 0.3452880 0.2300221 0
0.4949666 0.1368207 0.1171509 0
-0.1458184 0.1917447 -0.1950160 0
-0.2335027 0.1576333 -0.2370823 0
0.3214902 -0.1129081 0.0583954 0
0.4988402 0.2598367 0.0693199 0
-0.6011713 0.0511165 -0.1913192 0
-0.1634076 0.2200612 -0.1396473 0
0.5920911 0.3049073 0.2453228 0
-0.7970594 0.1331947 0.1876632 0
0.5504588 0.4378423 0.0769967 0
-0.5286160 0.2331087 -0.0591480 0
-0.8181092 0.4269219 0.0359137 0
-0.5136125 0.2871116 -0.0457368 0
0.5817252 -0.0292391 -0.0599994 0
0.8402712 0.3390256 -0.0796968 0
0.4984915 0.3966033 -0.0415416 0
-0.1503814 0.2990041 -0.0437645 0
0.4249810 0.0627289 -0.2831048 0
-0.0094185 -0.1014176 -0.0871541 0
0.6920742 0.2703029 -0.3034490 0
0.6640406 0.4849820 -0.1080481 0
0.5163814 0.0322392 -0.0809393 0
-0.5509983 0.1137663 -0.2028763 0
-0.2520437 0.0707029 -0.2332922 0
0.1340208 0.1354833 -0.0920269 0
0.4774105 0.1677130 -0.2415596 0
0.6636819 0.3958313 -0.2465612 0
-0.1934708 0.3599410 -0.0304392 0
-0.8250721 0.2383319 0.1737290 0
-0.7799003 0.2438211 0.2332034 0
0.4461637 0.3105304 -0.1764954 0
0.4211455 0.3538298 -0.1251194 0
0.4729280 0.0641123 -0.2356591 0
-0.4204507 0.3114655 -0.1890346 0
-0.3629039 0.4109256 0.1095030 0
0.0335684 -0.0314559 -0.2194085 0
-0.4859778 0.2341684 0.1696969 0
0.5901237 0.1378563 -0.2798989 0
0.6937078 0.4922372 -0.0544288 0
-0.7015796 0.4921942 0.1052211 0
0.4286238 0.3156734 -0.1919479 0
-0.2974634 0.1671870 0.2879287 0
-0.7169585 0.0185901 -0.1594698 0
-0.4490328 0.0083375 0.1797433 0
0.2251470 0.1445060 -0.2779178 0
0.4562560 0.2173465 0.0206417 0
0.5693887 0.3431433 0.2100238 0
-0.3274245 0.2937514 -0.2319662 0
-0.2298068 0.3579606 -0.1227926 0
0.2598356 0.0185135 -0.2692586 0
-0.3569330 0.4028744 -0.1087150 0
0.0041956 0.2672004 -0.2678441 0
-0.1330411 -0.0118160 -0.1244414 0
0.3721068 0.2538723 0.2331427 0
0.0215127 -0.1089482 -0.0197637 0
0.2581559 -0.0538262 -0.1969245 0
0.5054723 0.2641076 0.0391805 0
-0.2601342 0.2128928 -0.2463893 0
0.3883307 0.1476606 -0.3148135 0
0.4119564 -0.1002915 -0.0874877 0
-0.5495939 0.2207869 -0.2367288 0
0.2675403 0.0921668 -0.3036069 0
0.7533993 -0.0180608 0.0167909 0
0.6332722 0.4732488 0.1019213 0
-0.1399028 0.1455630 -0.1051862 0
-0.4984459 0.1839769 0.1540873 0
0.7827808 0.2073024 -0.2513503 0
-0.7231634 0.0303205 -0.1714243 0
0.6272197 0.4427887 -0.1893033 0
0.4170252 0.2799043 0.1861746 0
-0.8660035 0.2222786 0.0769177 0
0.8318824 0.2967874 0.0982309 0
-0.7701031 0.2524945 -0.2449989 0
0.6525906 0.2766710 0.2733632 0
-0.3767743 0.3423136 0.2088384 0
0.5803903 -0.0257031 -0.0757505 0
-0.1607599 0.2773503 -0.0571313 0
-0.7645807 0.2325984 0.2476000 0
0.6223728 0.4409749 0.1560861 0
0.2857289 0.1436691 -0.3155321 0
0.1840312 -0.0103599 0.0706011 0
0.2864192 -0.0975816 -0.1362067 0
-0.4475378 0.2450655 -0.2062675 0
-0.5273142 0.0962233 -0.0790259 0
-0.3642904 0.3441556 0.2120569 0
0.4774750 0.2655852 0.1152225 0
0.2978636 0.1213069 0.2663924 0
-0.1525881 0.2889298 0.0283596 0
-0.3401977 0.0013123 -0.2201358 0
-0.7963032 0.4424083 -0.0785176 0
0.3038328 0.0765151 0.2610303 0
0.5500894 0.0184112 -0.1391784 0
0.4432575 0.3404714 0.0581592 0
0.7384170 0.4769392 -0.0234143 0
0.7983143 0.1501641 -0.2186718 0
-0.8495864 0.3450361 0.0760780 0
0.3099388 -0.0727628 -0.2004575 0
-0.5094439 0.1909623 -0.1877890 0
-0.3867850 0.4220949 0.0058668 0
-0.6968778 0.4835905 -0.1219544 0
-0.3365287 -0.0940868 -0.1033560 0
-0.2808326 0.3848860 0.1504409 0
-0.5360836 0.0901578 -0.0237762 0
-0.4651619 0.0804224 -0.1930359 0
-0.8298143 0.2833557 -0.1735817 0
-0.4904574 0.3385758 -0.1265956 0
0.8093508 0.4058474 -0.0627689 0
-0.7240165 -0.0218359 -0.0663929 0
-0.4516711 0.3744865 -0.0535006 0
0.4260631 0.3550591 0.0535070 0
-0.1875893 0.1585184 -0.0789551 0
-0.7033591 0.0521022 0.2091242 0
-0.7026223 0.0826292 -0.2286996 0
0.7616273 0.0048696 0.0766423 0
-0.4409553 0.2457248 0.2253362 0
-0.6788640 0.4908431 0.1186547 0
-0.1078398 -0.0592875 -0.0740251 0
0.4603658 0.0706614 -0.2538647 0
0.1043496 0.3054847 -0.1771619 0
-0.4329980 -0.0836719 -0.0157451 0
0.7324829 0.3322276 0.2279603 0
0.4234179 0.2012811 0.2271863 0
0.2384115 0.1625434 -0.2873220 0
-0.3293323 0.2998607 0.2517859 0
-0.5021573 0.2433598 -0.1827492 0
-0.4853069 0.3864904 0.0193873 0
-0.1690440 0.2292851 -0.1119561 0
0.3487106 0.2244577 -0.3053816 0
-0.0581771 -0.0958714 0.0198934 0
0.5498263 0.0534922 0.1466591 0
0.7435371 0.1363350 0.2289059 0
-0.3175536 -0.0128062 0.2321994 0
-0.4550509 0.2045459 -0.0481400 0
-0.6414460 0.1943592 0.2829641 0
-0.3411303 0.2484296 -0.2531695 0
0.2112851 0.3404060 -0.0265475 0
0.4137454 -0.0549048 -0.1960644 0
0.1511511 0.0927014 -0.1516930 0
-0.1816289 0.0852628 -0.0850174 0
0.5830392 0.2218866 -0.2916697 0
0.5164353 0.0660186 0.1001273 0
0.8126266 0.1273327 -0.1832438 0
0.3787311 0.0689089 -0.3085124 0
0.4724528 0.2765253 -0.1328185 0
0.6019917 0.1247586 0.2444976 0
0.6468453 0.3582497 -0.2734646 0
-0.5280551 0.0941772 -0.1607159 0
0.6306974 0.4211080 -0.2182069 0
0.3930705 -0.0329733 0.1840893 0
-0.3857266 0.4135927 0.0794826 0
-0.5244964 0.2127666 0.0898895 0
0.7018311 0.1933430 0.2686876 0
-0.1853112 0.1685908 -0.0886638 0
0.6871656 0.2761377 0.2697711 0
-0.7984294 0.3106647 -0.2072122 0
0.3403531 0.2019917 0.2629149 0
-0.3445106 0.3999655 0.1412709 0
0.6394385 0.1238182 0.2574734 0
0.7478115 -0.0243933 -0.0289943 0
0.3989979 0.1316910 0.2555740 0
0.7389775 0.2980199 0.2371036 0
-0.5235335 0.1365531 0.1759336 0
0.7878380 0.0367560 0.0827510 0
-0.1427008 0.2156129 -0.0979672 0
-0.4972068 0.0634055 -0.0083350 0
-0.7212706 0.3802759 0.2334800 0
0.3011986 -0.0334679 -0.2474254 0
0.5386071 0.2504066 0.2095818 0
0.6472019 0.2698333 0.2743169 0
-0.0062112 -0.1100062 -0.0168181 0
0.5394216 0.1615048 -0.0782867 0
0.4532558 0.0624827 0.1943118 0
0.4683226 -0.0563772 0.0283646 0
-0.8097839 0.4306554 0.0602836 0
-0.4375901 0.0173608 0.2006908 0
-0.7258434 0.5005524 -0.0400566 0
0.2368756 0.3387912 0.0791492 0
-0.5491869 0.0111539 -0.0612084 0
0.4807571 0.3162552 -0.0671948 0
0.2137349 0.2140246 -0.2485997 0
-0.7589589 0.0401135 0.1547434 0
0.6791953 0.1573701 0.2684485 0
0.7211491 0.0833014 0.2176857 0
-0.4604166 0.1831842 0.2203785 0
-0.2528620 -0.0981102 0.0117151 0
-0.3181351 -0.0389283 0.2083497 0
0.4105681 0.3735292 0.0056033 0
0.1984519 -0.0422195 -0.1161982 0
0.1086389 0.2241431 -0.2394620 0
0.3078540 0.3202729 -0.2291230 0
-0.7080358 0.0391710 -0.1890055 0
0.4283031 -0.0505595 -0.1871926 0
0.0705202 0.3475514 -0.1521255 0
0.5295320 0.0421709 -0.0180199 0
-0.1536706 0.2882352 -0.0674341 0
-0.2666880 0.0463964 -0.2307805 0
-0.3798540 0.2851997 0.2502377 0
0.1645503 0.0068865 -0.0533905 0
-0.3752438 -0.1042937 -0.0557551 0
-0.7756383 0.3477528 -0.2133092 0
0.2949357 0.0492867 -0.3017439 0
-0.3104420 0.2659808 -0.2447084 0
-0.0524668 0.3836478 0.0278479 0
-0.5188010 0.2562847 0.0745796 0
0.8193505 0.1035107 0.0950402 0
-0.2355176 0.0623918 0.2345648 0
0.1134884 0.3227453 0.0978807 0
-0.0912978 0.2766561 -0.2181615 0
-0.4249207 0.0889785 0.2476618 0
0.0736347 -0.0794938 0.0726764 0
0.1765610 0.2349114 0.0422043 0
0.1889545 0.1277303 -0.2360634 0
0.0708034 0.0280175 -0.2521826 0
-0.5436656 0.3435524 -0.2052528 0
0.1340525 0.1756084 -0.0024732 0
-0.7324187 0.4117543 -0.1998461 0
0.3913687 0.3773817 -0.0883949 0
-0.4833241 0.3485240 -0.0058199 0
-0.2519468 0.0372851 -0.2180965 0
-0.0064730 0.0815648 -0.2962248 0
0.6383064 0.4345823 0.1706541 0
-0.8018808 0.1637041 0.1949384 0
-0.6599987 0.4878675 0.1266208 0
-0.4324302 -0.0165439 0.1768675 0
0.5685195 0.4546614 -0.1126931 0
0.1091899 0.3542562 -0.0357683 0
0.4553714 0.1249795 -0.2704225 0
0.1823926 0.2996625 0.0169525 0
-0.0420287 0.1832722 -0.2939128 0
0.1916103 -0.0289531 -0.1267602 0
0.5428678 0.1230921 -0.0514121 0
-0.4982752 0.4076388 -0.0394462 0
0.0642954 -0.0735855 -0.1322664 0
0.5508152 0.2617236 0.2218530 0
0.7244592 0.4245196 0.1575960 0
0.8328676 0.3572866 0.0271514 0
0.3685929 0.3647276 0.1002946 0
-0.1320681 0.1760678 -0.0775477 0
-0.7003406 0.5105813 -0.0199047 0
-0.7713834 0.1188280 -0.2129480 0
0.8298404 0.2409642 -0.1795192 0
0.2748854 0.3592012 0.0884341 0
-0.7547227 0.0525100 0.1741196 0
0.2341684 0.0728550 -0.2760952 0
0.5503604 0.4419286 0.0664524 0
0.6653642 0.4449587 0.1586114 0
-0.5140307 0.1555006 0.1318563 0
-0.5669649 0.3208985 -0.2354943 0
-0.1477213 0.1918246 -0.1213070 0
0.8268397 0.0646554 -0.0151877 0
-0.3601591 0.3995820 0.1372062 0
-0.3782284 -0.0598480 0.1722445 0
0.6596400 0.4848086 0.0762112 0
0.4577649 -0.0289720 -0.1776545 0
-0.7413880 0.4580998 0.1391987 0
0.6964607 0.3927519 0.2085846 0
-0.2278407 -0.0790666 -0.0290624 0
0.5709512 0.3689038 0.1941728 0
0.5351263 0.3104528 -0.2346485 0
0.5099064 0.2733867 -0.0114934 0
-0.1001703 -0.0719307 -0.0326578 0
-0.4509568 -0.0682721 0.0387834 0
-0.0544640 -0.0264502 -0.2127535 0
0.2246834 0.3507266 -0.0069381 0
-0.4758449 0.1704139 0.2012985 0
-0.6654254 -0.0412233 -0.0038166 0
0.1098155 -0.0667128 -0.0423820 0
-0.2817323 0.2805592 0.2514088 0
-0.0568163 0.3684464 -0.1133801 0
0.8568604 0.2935559 -0.0057518 0
0.6083578 -0.0009855 0.1372213 0
-0.2874898 -0.1096959 0.0458689 0
0.6352870 -0.0302835 -0.1266528 0
0.3346974 0.0568630 -0.3110169 0
0.2486551 -0.0480644 0.1374425 0
0.1816112 0.1743491 -0.1222993 0
0.4277951 -0.0751029 -0.1410517 0
-0.5084305 0.4276290 -0.0015569 0
-0.1567334 0.0026524 -0.0631783 0
-0.1212869 0.0095768 -0.1786619 0
-0.7499679 0.4891426 -0.0399497 0
0.7543432 0.3423857 0.2030464 0
0.5643061 0.4681733 -0.0332955 0
-0.1474016 0.1349379 -0.1235437 0
-0.7702968 0.3392084 -0.2222222 0
-0.0441445 0.3219449 -0.2080845 0
0.0055456 -0.0458023 -0.2075251 0
0.0846273 -0.0141738 -0.2059007 0
0.5579002 0.3508024 0.1935198 0
-0.4781515 0.2335262 -0.1764764 0
0.2704239 0.0089499 0.2138420 0
-0.4633467 0.2849072 0.0633313 0
-0.0739512 0.3316531 -0.1715068 0
0.6597729 0.0397198 0.2037699 0
-0.4020362 0.4007379 0.0979682 0
-0.7565972 0.0025149 -0.0907126 0
-0.6560130 0.3370940 0.2691401 0
0.1520511 -0.0174318 -0.0409808 0
0.2928180 0.1946839 -0.3096278 0
0.5011835 0.0674447 0.1158070 0
0.1751089 0.2491097 0.0252109 0
-0.7444499 0.0092312 0.1239316 0
-0.0536132 -0.0528985 -0.1780470 0
0.4642025 0.1334883 0.1947524 0
0.5208591 0.1178538 0.0828233 0
-0.1794010 -0.0248583 -0.0462207 0
0.6110088 0.0908685 -0.2665043 0
-0.5681825 0.4663153 -0.0947112 0
0.4955817 -0.0311386 -0.0352240 0
-0.0280875 -0.0513150 -0.1946384 0
-0.5416275 0.2016464 -0.2274143 0
0.2831738 0.1899251 -0.3075119 0
0.5748884 -0.0281812 -0.0043321 0
-0.6765825 0.5139496 0.0267450 0
0.5379922 -0.0006220 -0.0220874 0
-0.4084314 0.1587650 -0.2508025 0
-0.0528321 -0.0998211 -0.0042834 0
0.5622228 0.4594945 0.0416391 0
0.2759547 0.2213019 0.2385953 0
-0.7590238 0.4862483 -0.0200198 0
0.1680231 0.2757938 -0.0048771 0
-0.5820825 0.2173502 -0.2590485 0
0.6342177 0.0191443 0.1783204 0
-0.5843672 0.3566609 0.2320243 0
-0.7735004 0.1159718 0.2063397 0
-0.1696428 0.2361565 -0.1007492 0
-0.8047184 0.0254643 0.0006796 0
-0.8700246 0.2306194 -0.0823447 0
0.3742651 0.2190968 0.2500957 0
-0.0447897 0.3876658 -0.0441236 0
0.1943101 0.1763143 -0.0483250 0
-0.6239599 0.3838296 -0.2327656 0
-0.5768832 0.4172262 0.1801885 0
-0.5723786 0.2135084 -0.2529305 0
0.6955747 0.0918604 -0.2703975 0
0.1406762 0.2197320 -0.0365499 0
0.3694891 0.1620788 0.2667428 0
0.1293362 0.2982862 0.1040279 0
-0.1371723 0.2499902 -0.0410765 0
-0.1881301 0.0245674 -0.1437548 0
-0.4599171 0.1791450 0.0408100 0
0.3532648 -0.0647462 0.1632042 0
0.8367087 0.1011049 -0.0859443 0
0.4468242 0.3277424 -0.1436304 0
-0.3967797 0.1556785 0.2760210 0
0.7801639 0.2022470 -0.2536893 0
0.7805646 0.4263259 0.0671905 0
0.3703352 0.0298455 -0.2948186 0
-0.0334925 0.2431618 -0.2761870 0
-0.3479327 0.4104115 -0.0940754 0
-0.6399688 0.5086898 -0.0487661 0
-0.4762175 0.2148389 0.1124789 0
-0.2144340 0.3609298 0.1054028 0
-0.1838826 0.0874854 -0.1760123 0
-0.2459851 0.3849793 0.1123182 0
0.4702277 -0.0610582 -0.0048140 0
-0.4455106 0.0165885 -0.1779943 0
-0.6366337 0.5035464 0.0755735 0
0.1513514 0.1092940 -0.1580181 0
0.4599102 0.2673680 0.1450672 0
0.3931714 0.2921190 0.1934166 0
-0.4511421 0.2203401 0.2233916 0
0.2696350 -0.1045547 -0.0869188 0
0.6644212 0.3420888 -0.2828198 0
0.0051222 0.3765886 -0.1265456 0
0.0779691 0.3692819 0.0501843 0
-0.1845460 0.1031329 -0.0843667 0
-0.1872038 0.0820165 -0.0208721 0
0.4093265 -0.0265648 -0.2347465 0
-0.1915542 0.1261067 -0.0428967 0
0.0716173 -0.0909703 -0.0539842 0
0.7549115 0.0632981 -0.2129356 0
-0.6764349 -0.0275445 -0.0839615 0
-0.8172817 0.3708699 0.1332245 0
-0.4670295 0.2930723 -0.1544277 0
0.0662085 -0.0857426 0.0648339 0
-0.7348493 0.1530127 -0.2523354 0
-0.5639867 0.2952961 0.2392220 0
0.2464902 0.1254944 -0.2950815 0
0.0176614 0.3639390 0.1293625 0
-0.2681676 -0.1014239 0.0544826 0
0.5169072 0.2022942 -0.1501977 0
-0.3575958 -0.0743154 -0.1370323 0
0.3288015 -0.1229099 -0.0516410 0
0.7663741 0.2781478 -0.2610589 0
0.5651631 0.0125842 -0.1523412 0
0.1636863 0.0856280 -0.1630635 0
-0.7148480 -0.0187488 -0.0876971 0
0.8045955 0.3435172 -0.1800120 0
-0.4592669 0.3747068 -0.0174927 0
0.7413536 0.2612277 0.2442292 0
-0.6349516 0.0211001 -0.1721843 0
0.5482407 -0.0037164 0.0311930 0
0.5685945 -0.0242084 -0.0033462 0
-0.1295840 0.0824550 -0.0172470 0
-0.7880645 0.2114909 0.2231498 0
-0.7540907 0.0961104 -0.2124087 0
0.2189917 0.3317671 -0.1181678 0
-0.3191368 -0.1175896 0.0179409 0
0.4099286 0.1629419 0.2467025 0
-0.6990741 -0.0372104 -0.0150733 0
0.5156181 0.0941395 -0.1793511 0
0.1294015 0.2707923 -0.1786821 0
-0.3576446 0.3240445 -0.2087884 0
-0.1236726 0.1287897 -0.0269889 0
-0.4830460 0.2636971 0.1584248 0
0.5847987 0.0043710 -0.1616287 0
0.5168719 0.0686818 0.0750753 0
-0.3860432 0.4214640 0.0326007 0
-0.2867695 0.3998258 0.1261620 0
0.2116993 0.3337483 0.0243476 0
0.6510092 0.4473004 0.1551634 0
-0.0388678 -0.0559154 -0.1828742 0
-0.7213637 0.0007018 -0.1275161 0
0.1754318 -0.0017318 -0.1299000 0
-0.3570531 0.2044767 -0.2633454 0
0.4865697 -0.0295565 -0.1068105 0
-0.1060751 -0.0359670 -0.1410555 0
-0.8183581 0.2576883 0.1834907 0
-0.3588595 0.0045349 -0.2199325 0
0.6714084 0.0893314 0.2408535 0
-0.2236125 0.0497682 -0.2034976 0
-0.3955598 0.3101343 -0.2059498 0
0.0910698 -0.0810177 0.0109346 0
0.3989890 0.3189274 -0.2143287 0
0.4950384 0.1832795 0.1372275 0
0.4626535 0.3124479 -0.0220764 0
-0.5323428 0.2324813 -0.0384485 0
-0.7870904 0.0079203 0.0002138 0
-0.6349102 0.3534369 0.2585080 0
0.6459765 0.3947030 -0.2470177 0
0.2304055 0.3086592 0.1236958 0
0.1301016 0.3280874 0.0318212 0
0.6198860 0.0313577 0.1868642 0
-0.7961658 0.3501476 0.1835184 0
-0.4770767 0.2898165 -0.1418088 0
-0.5323685 0.1221935 0.0714043 0
0.0036661 -0.0237589 -0.2327911 0
-0.2570831 0.0861423 0.2596389 0
0.4857985 0.0722404 -0.0333753 0
0.6670699 0.0953429 -0.2776740 0
0.7491955 0.3674062 0.1913607 0
0.7783133 0.2680734 0.2056302 0
0.4026782 0.0858421 -0.3034693 0
0.6473368 0.1598109 0.2705917 0
0.5067626 0.0761550 0.0894830 0
0.6718415 0.1092545 -0.2845805 0
-0.5829899 0.1105208 -0.2262560 0
0.1050362 0.1159664 -0.2594131 0
-0.3406005 0.2787126 -0.2400571 0
0.5297186 0.1531196 0.1874709 0
0.4888824 0.0250649 0.1131022 0
0.1892164 -0.0215953 0.0660692 0
-0.1319870 0.2919117 -0.1378645 0
-0.2717387 0.0202268 0.2391443 0
0.3363858 0.2812111 0.2203468 0
-0.0738679 0.3520539 -0.1328901 0
0.1518102 0.0242392 -0.1410126 0
0.3302351 -0.0139244 -0.2704999 0
-0.5129442 0.2391278 -0.1084497 0
-0.7756651 0.0689200 -0.1702650 0
0.2832659 0.3837390 -0.0389460 0
-0.1451015 0.2846316 0.0135855 0
0.5875385 0.1825393 -0.2906227 0
-0.0240119 0.3916285 -0.0550759 0
-0.4868122 0.3910977 -0.0193032 0
0.0322608 0.3688061 -0.1380449 0
0.1200346 0.3171330 0.0935978 0
0.0473972 0.2628221 -0.2615783 0
-0.7935127 0.4595044 0.0120718 0
-0.6744776 -0.0323739 -0.0672635 0
0.0548624 0.3353355 0.1586442 0
0.3392951 0.3864061 -0.0906086 0
0.5434505 0.4233401 -0.1362212 0
0.4119046 0.3352692 0.1222994 0
-0.5626771 0.0067591 -0.0817601 0
0.3104744 -0.1121286 -0.1074018 0
0.5001155 0.1011360 0.1309664 0
-0.4848359 0.0966674 -0.0560467 0
-0.1584218 0.2826946 0.0116978 0
0.5019822 0.1437282 0.1306869 0
-0.2981820 0.0771251 -0.2537278 0
0.7940498 0.3505241 0.1431496 0
0.1708082 0.2530778 0.0407020 0
-0.1509925 0.2980388 -0.0003295 0
0.4742797 0.0638054 0.1652328 0
0.4294955 0.2163271 -0.2754730 0
0.0845453 0.2542298 -0.2449445 0
-0.3582520 -0.0799119 0.1502305 0
0.1916467 0.0840266 -0.0315610 0
-0.5527111 0.0478178 -0.1435128 0
-0.5658098 0.0707004 0.1823546 0
0.5215327 0.0805419 -0.1766166 0
-0.1386956 -0.0190266 0.0481873 0
0.5860085 -0.0093942 0.0986282 0
-0.4895136 -0.0135212 -0.0604807 0
-0.8026074 0.4411046 0.0558252 0
0.4847746 0.1136136 0.0699200 0
0.3347550 -0.1113169 -0.1184077 0
-0.3821896 0.3224842 -0.2025543 0
-0.2275511 0.2870948 0.2072896 0
0.5051063 0.0914193 0.1171813 0
-0.0739025 0.3679450 0.0549952 0
-0.1897247 0.1798506 -0.0457569 0
-0.2388015 0.3244811 0.1893260 0
-0.5268697 0.1038857 0.1591365 0
-0.3697763 0.1074094 0.2827677 0
-0.4886681 0.2853742 -0.1247816 0
0.5406709 0.0502022 -0.1731571 0
0.5869016 0.4748703 -0.0802836 0
0.5894771 0.0719763 0.2056189 0
0.5064948 0.0623283 -0.1185486 0
-0.1304187 0.1208827 -0.0648212 0
0.6420305 0.4393640 0.1651464 0
-0.4790202 0.1841125 0.1110627 0
0.3670627 -0.0819312 -0.1832633 0
-0.4381469 0.1200422 0.2429024 0
-0.3669097 0.2059286 -0.2611933 0
0.4001898 -0.0609586 0.1435090 0
-0.1456835 -0.0143660 -0.0709889 0
-0.4875353 0.0800910 -0.0037540 0
-0.2197670 0.0911172 -0.2169389 0
-0.6120685 0.4688328 -0.1379614 0
-0.4806882 0.1429101 -0.1885473 0
-0.5300285 0.1123141 -0.0783867 0
0.3721159 0.3781750 -0.1096284 0
-0.0257480 0.3334327 -0.2013632 0
0.1655953 0.2816694 -0.0102353 0
-0.4141684 0.3626218 0.1574320 0
-0.5440670 0.1488929 -0.2145039 0
0.1301127 0.1354445 -0.0586257 0
-0.1810737 0.0761454 0.0280244 0
-0.1887919 0.1823307 0.0066538 0
-0.1325540 0.3090332 -0.1029793 0
0.0192827 0.0950436 -0.2988360 0
-0.5471111 0.1438623 0.2104149 0
-0.3860151 -0.0899110 0.1112850 0
0.4731258 0.0485157 -0.2274697 0
0.8425906 0.3203781 -0.0990689 0
0.7450706 0.4657117 0.0421208 0
0.4829240 0.3390824 0.0560863 0
0.3569289 0.3801365 -0.1125018 0
-0.5319311 0.3044624 -0.2097350 0
0.2455486 0.2492908 0.2002089 0
0.8159474 0.0457512 -0.0200537 0
0.7064126 0.2893250 0.2597250 0
-0.4615518 0.2467913 -0.1911369 0
0.8436971 0.2868486 -0.1268276 0
0.4889452 -0.0333848 -0.0838763 0
-0.2401907 -0.0527937 0.1399025 0
0.6721259 0.4978315 -0.0281458 0
0.1630115 0.0357831 -0.1441212 0
0.3531512 -0.1158552 0.0448326 0
-0.2762579 0.0554403 -0.2390106 0
-0.8155252 0.2912448 0.1813242 0
-0.6485353 0.4985111 -0.0917536 0
0.8580609 0.1957112 0.0256549 0
-0.3803673 0.0429759 -0.2363490 0
0.0708167 0.3466123 0.1241029 0
-0.7338254 0.0640460 0.2033477 0
-0.3102094 0.2611157 -0.2467915 0
-0.2467041 0.1583222 0.2625863 0
0.6410801 -0.0473648 -0.0645125 0
-0.2626939 0.0485775 -0.2298412 0
0.5419976 0.1685297 -0.0271966 0
0.6308851 0.2303933 -0.3091910 0
-0.0900219 0.3556971 0.0594365 0
0.2986322 0.1869015 0.2606646 0
0.8113693 0.3949454 0.0392326 0
-0.4687446 0.3570473 -0.0530478 0
-0.3928892 0.1291220 0.2765789 0
-0.4966141 0.3009776 0.1466102 0
-0.5116553 0.2010107 -0.1931253 0
0.1469505 0.2363342 -0.0125178 0
0.2424112 0.0901445 -0.2874292 0
0.8007829 0.4140436 -0.0778706 0
-0.6767920 0.3495348 -0.2570704 0
0.7192287 0.1869037 -0.2959060 0
-0.6706995 0.0383725 0.2029631 0
0.5205361 0.2214822 -0.1192839 0
0.4766465 0.2230705 -0.1576729 0
-0.5139033 0.0181958 -0.0181341 0
-0.4542428 0.1847312 -0.0136355 0
0.4009942 -0.1101907 -0.0032482 0
-0.2303739 -0.0707978 0.0851973 0
-0.4529867 0.0761873 -0.2043261 0
-0.7048966 0.5097024 0.0231852 0
-0.6260585 0.0128228 -0.1576005 0
-0.1091464 0.1842473 -0.2482985 0
0.4923598 0.3877153 -0.0192518 0
-0.4654601 -0.0417777 0.0803733 0
-0.0649233 0.0288019 -0.2536161 0
-0.8442191 0.1323684 0.0962968 0
-0.7249397 0.1934002 0.2704329 0
-0.8206700 0.3484787 0.1450435 0
0.7489443 0.4686286 0.0110898 0
0.6466435 0.3385574 0.2513545 0
-0.1232347 0.1778693 -0.0271660 0
-0.8724864 0.2915146 -0.0464054 0
-0.8230246 0.1556936 0.1586223 0
-0.6214838 -0.0127479 0.1136704 0
-0.5033498 0.1219922 0.1515023 0
-0.4943407 0.4059978 -0.0055451 0
-0.2264377 0.0241597 0.2047822 0
0.0528851 0.2954960 -0.2338506 0
0.6060411 0.4691015 -0.1268914 0
0.1553285 -0.0014041 0.0401467 0
-0.4816650 0.2697760 -0.1506543 0
-0.7687413 0.4745477 -0.0527584 0
0.6086833 0.4906830 -0.0191793 0
0.7488763 0.3985307 -0.2037509 0
-0.1472823 0.2891707 -0.0053952 0
0.2941478 -0.1097679 -0.1026332 0
0.6417789 0.0700011 -0.2606822 0
-0.6167888 0.5081958 0.0046231 0
-0.2218507 -0.0734221 0.0496161 0
-0.6272547 0.5041153 0.0646774 0
0.5197836 0.0867722 0.0763933 0
-0.3331777 0.2041460 0.2888396 0
0.3856574 0.0817513 -0.3097640 0
-0.3757294 -0.0788404 0.1433391 0
-0.0354592 -0.0291560 -0.2196188 0
-0.4873131 0.1886935 0.1814813 0
0.5785743 0.4198268 -0.1893435 0
-0.2766086 0.1361971 0.2795705 0
-0.2305035 0.2183937 0.2412268 0
-0.8647026 0.2408494 -0.1023014 0
0.0033080 -0.1020678 -0.0863194 0
0.5386236 0.0023220 -0.0594033 0
0.4781539 -0.0412712 -0.1054274 0
-0.3340650 0.4181001 0.0981596 0
-0.3706624 -0.0948185 -0.0897524 0
0.4351976 0.0329413 -0.2610183 0
0.1778687 0.2447912 0.0170146 0
0.5776249 0.1535049 0.2389633 0
-0.3186462 -0.0470385 0.1996096 0
0.5491765 0.2348818 0.2231503 0
-0.3605238 0.2736669 -0.2400240 0
-0.1969279 0.3520379 -0.0704547 0
0.2955817 -0.0646736 0.1543259 0
-0.2990310 -0.0810458 -0.1224089 0
-0.3540984 0.0712510 -0.2541193 0
0.0240665 -0.0807147 -0.1457115 0
0.5527821 0.0318433 -0.1660034 0
-0.1522020 0.2866236 0.0558715 0
0.3007889 0.1802601 -0.3154963 0
-0.3258769 -0.0036458 0.2400978 0
0.1145338 0.0061937 -0.1922437 0
0.8160756 0.3176630 -0.1776608 0
0.2840015 0.3054208 0.1827065 0
0.1934486 0.2763151 0.0985211 0
0.6356859 -0.0502888 -0.0233359 0
-0.0515138 0.1783802 -0.2910589 0
0.6744965 -0.0497758 -0.0455048 0
0.8370990 0.3576396 -0.0018291 0
0.1329858 0.1016370 -0.0029244 0
-0.4686233 0.2928009 -0.1523545 0
0.4972403 -0.0091459 0.0445525 0
0.8014266 0.0593587 -0.1360191 0
0.3291402 0.0340637 -0.3011549 0
0.2612035 0.0082265 0.2065095 0
-0.7956023 0.2634838 -0.2216263 0
-0.7024454 0.2005676 -0.2750522 0
0.6980283 0.4603572 0.1212956 0
-0.7138470 -0.0331288 -0.0194140 0
-0.1913013 0.1371859 -0.1971937 0
-0.8197064 0.4066703 0.0813851 0
0.3335042 -0.0764103 -0.1987011 0
-0.5268967 0.0928033 0.0766981 0
-0.5240046 0.3746538 0.1505608 0
-0.3201211 0.4230008 -0.0553277 0
0.4613717 0.2938282 0.1119657 0
-0.7253340 -0.0241646 -0.0542271 0
0.3505846 0.1286019 0.2724674 0
0.5964882 0.1600827 -0.2901261 0
0.5131311 0.3379228 -0.1872774 0
-0.7390401 0.0636072 0.1991081 0
-0.2943817 0.0275962 0.2537094 0
-0.4281806 0.3159982 -0.1788057 0
0.6155878 -0.0395822 -0.0795954 0
-0.2695305 0.2354803 0.2644997 0
-0.5063241 0.2715957 0.0991879 0
-0.5197607 0.1908007 0.1128309 0
0.2557815 0.3440151 0.0990122 0
-0.4660379 0.2840348 0.0740502 0
0.1405786 -0.0323035 0.0132378 0
0.2967730 0.3188523 -0.2269954 0
-0.6850299 0.2000652 0.2844390 0
0.5154765 0.1413181 0.0989036 0
-0.5958791 0.2249288 0.2689294 0
0.8409685 0.1706686 0.0828072 0
-0.2219385 -0.0507520 0.1144971 0
0.3122980 0.3858863 0.0320354 0
0.4033971 -0.0666755 -0.1868675 0
0.1522693 0.0248015 -0.1405009 0
-0.5500226 0.1777662 0.2254802 0
0.1509731 -0.0121490 0.0314674 0
0.6375062 0.1412429 -0.2968780 0
-0.5344442 0.0869222 -0.0326900 0
-0.7676280 0.3666252 -0.2092109 0
-0.8594514 0.2289097 0.0986037 0
0.7348304 0.3976390 -0.2170785 0
0.2522529 0.2814611 -0.2395007 0
0.4665072 0.2871738 0.1111102 0
-0.1831968 0.2128435 -0.0568001 0
0.6847105 0.3747956 -0.2601948 0
-0.1955154 0.3077247 0.1460499 0
-0.7707340 0.1098214 0.2055042 0
0.8508879 0.2820940 0.0428412 0
0.4557532 0.2771307 -0.0131721 0
0.1697003 0.2625137 0.0515660 0
-0.5993447 0.0345789 0.1750900 0
0.4242804 0.3303126 -0.1735466 0
-0.3602138 0.4287064 0.0241833 0
-0.2061081 -0.0325837 -0.1045180 0
0.1787671 0.2918082 0.0240854 0
-0.1672518 0.2672710 -0.0373005 0
0.6736706 0.1858010 0.2752412 0
-0.3381789 -0.1148858 -0.0310809 0
0.4990266 -0.0131895 -0.0985687 0
0.1950191 0.1820041 -0.0106179 0
0.6505389 0.2196367 0.2788124 0
-0.8416287 0.3956393 -0.0012133 0
-0.0317750 0.0828015 -0.2922742 0
-0.3185320 -0.0144684 0.2309881 0
-0.6999434 0.0833195 0.2355316 0
-0.2440379 0.2426312 0.2450380 0
0.6607099 0.4183341 -0.2249707 0
-0.8194039 0.2732447 0.1795157 0
-0.2071181 0.3236772 -0.1373234 0
-0.1235754 -0.0133577 -0.1445810 0
-0.3701322 -0.0041661 -0.2108344 0
-0.5057757 0.0982040 0.1131468 0
-0.5154411 0.4360078 -0.0159706 0
-0.3383506 0.3830645 -0.1474132 0
-0.5962731 -0.0093299 0.0961521 0
-0.7957252 0.1166983 -0.1866320 0
0.4844676 -0.0168068 -0.1408615 0
0.2484735 0.0033314 0.1916573 0
-0.2702956 0.3618217 -0.1562275 0
0.2258059 0.3179763 0.1009950 0
0.7808818 0.0966144 0.1649234 0
0.4188905 0.1424494 0.2419315 0
0.3084022 0.1390622 0.2698879 0
-0.4992299 0.2908224 0.1553135 0
0.7570389 0.3061053 -0.2600927 0
-0.6752104 0.0098695 0.1675342 0
-0.6334525 0.2319843 0.2845386 0
0.0562285 0.1873029 -0.2892247 0
0.6708401 0.3965368 0.2124406 0
-0.2764675 0.3250842 -0.1977556 0
-0.5745915 0.2885571 -0.2499864 0
0.1985770 -0.0545323 -0.0729765 0
-0.4061557 0.1072702 0.2657249 0
-0.3639248 0.4131933 0.1024763 0
-0.4643370 0.1406395 0.2165970 0
0.6325324 0.2674326 -0.3057501 0
0.5750883 0.0538397 -0.2166929 0
-0.2539884 0.3521018 0.1747657 0
0.1111435 0.3113901 0.1220953 0
-0.7661355 0.4160640 -0.1689436 0
-0.8601799 0.2586749 0.0947391 0
-0.3075701 0.2146099 0.2842140 0
-0.7621174 0.3484057 -0.2240982 0
-0.6909091 -0.0385646 -0.0171173 0
-0.7545992 0.4472502 -0.1408820 0
0.1872261 -0.0185426 -0.1349995 0
-0.3403671 0.0914126 0.2847879 0
-0.1266657 -0.0382504 -0.0792076 0
0.4069964 0.0788628 -0.2994795 0
-0.6426653 0.0104616 -0.1596827 0
0.8478369 0.3252844 0.0044523 0
-0.5523831 0.2172441 -0.2387735 0
0.1044961 0.0831551 -0.2520693 0
0.0089783 -0.1000228 0.0693314 0
-0.5302050 0.2501009 -0.0181220 0
0.1887839 0.3146051 -0.0130186 0
-0.5786530 0.2227774 -0.2574640 0
-0.5071530 0.1487371 -0.1468556 0
-0.1449329 0.0983292 -0.1049308 0
0.4117729 -0.0611148 -0.1883327 0
0.7303416 0.0305651 -0.2003102 0
-0.1073229 0.2389029 -0.2282045 0
-0.1785649 -0.0293466 0.0324849 0
-0.3252439 0.0736223 0.2797413 0
-0.5041795 0.4111178 0.0496646 0
-0.5592973 0.4681143 -0.0713306 0
-0.7407114 -0.0218012 0.0297054 0
0.8551094 0.1817969 -0.0933345 0
-0.4822115 -0.0373694 0.0032888 0
0.1451115 0.0534453 0.0185169 0
-0.8249919 0.0511942 -0.0038689 0
0.2892501 -0.0931249 -0.1503003 0
0.7734235 0.4113335 -0.1556764 0
0.3658523 0.0952613 -0.3182641 0
-0.6511722 0.5135778 0.0290095 0
0.3864967 0.3742014 0.0561885 0
0.2603017 0.2420946 -0.2743873 0
-0.5168592 0.0596631 0.0845400 0
0.6403258 0.3378855 -0.2838787 0
-0.1134606 0.3472340 -0.0092508 0
-0.5400312 0.1090274 -0.0137584 0
0.3613629 0.3899062 -0.0491662 0
0.3770816 -0.1095961 0.0521935 0
0.8037838 0.1228225 0.1447346 0
-0.1513678 0.2671161 -0.1229454 0
0.6176401 0.4872399 0.0435461 0
0.5475070 0.0257057 0.1046626 0
0.2752884 -0.1003519 0.0601254 0
0.1829485 0.1880238 -0.1104101 0
-0.1366615 0.0515008 0.0107155 0
0.6501049 0.4727498 0.1082310 0
0.8302802 0.2689814 0.1149121 0
0.0489910 0.3754382 0.0794314 0
-0.5846840 0.3923876 -0.2079324 0
-0.4186375 0.3261982 -0.1776217 0
0.3351404 -0.1105249 0.0698636 0
-0.4861559 0.3399880 0.0987082 0
-0.4991550 0.3725525 -0.1134144 0
-0.4259077 -0.0454344 0.1493214 0
0.8553522 0.1430884 -0.0335700 0
-0.7530683 0.4375246 0.1567172 0
0.4613250 -0.0391615 0.0902555 0
0.3788037 0.0792638 0.2583084 0
-0.3066816 0.4283588 -0.0122916 0
-0.4386568 0.0889429 0.2353006 0
0.0553515 0.1873117 -0.2896045 0
-0.2848597 -0.0261205 0.2102585 0
-0.2411865 0.1708475 0.2579839 0
-0.3213688 -0.1127786 0.0652817 0
-0.7562176 0.1840388 -0.2491995 0
-0.5109175 0.4293112 -0.0232617 0
0.6683625 -0.0303825 0.0973182 0
-0.6711811 0.2082365 0.2868902 0
-0.7142994 0.0613618 0.2126598 0
0.1611973 0.2592505 0.0220042 0
-0.3435478 0.4277967 0.0545085 0
0.2886075 -0.0827875 -0.1725215 0
0.5404588 0.3831892 0.1433492 0
-0.4739113 0.1481121 -0.0903261 0
-0.7831814 0.1117055 -0.1973994 0
-0.6299491 0.5051802 -0.0570337 0
0.7976944 0.0885100 -0.1791870 0
0.1830447 0.2652396 -0.1584660 0
0.3511544 -0.1157508 -0.0978070 0
-0.3334753 0.2713959 -0.2438710 0
-0.0762001 -0.0759163 -0.1010159 0
-0.8133115 0.3405245 -0.1738457 0
0.4287798 0.0554258 0.2179000 0
0.7247375 0.4352979 -0.1791331 0
0.2114951 -0.0355942 -0.1612876 0
-0.4034760 0.2170581 -0.2459220 0
-0.5287163 0.2590024 0.0017555 0
-0.3487470 0.4209968 -0.0617523 0
0.7486799 0.2849528 -0.2735831 0
-0.2579580 -0.0948340 0.0634759 0
-0.3956186 0.1635965 -0.2566513 0
-0.5248722 0.3315085 0.1810651 0
-0.1451077 0.2491774 -0.1606136 0
-0.6775135 -0.0405772 -0.0090722 0
-0.4756426 0.2879655 -0.1211690 0
0.1641816 0.0021640 0.0205197 0
0.8534308 0.3080047 -0.0480605 0
0.1651430 0.1574197 -0.1729948 0
-0.1851112 0.1915432 0.0238701 0
-0.0377977 0.2412988 -0.2757307 0
-0.4671600 -0.0174755 0.1216347 0
0.3921154 0.3757143 -0.0952803 0
0.6019751 -0.0412861 -0.0310213 0
-0.4698122 -0.0142238 0.1207314 0
0.4225919 0.0888581 0.2340281 0
-0.5422899 0.1763316 -0.0190753 0
-0.4530829 0.0034097 0.1697607 0
-0.7661356 0.4667569 -0.0856046 0
-0.7228392 0.4925168 0.0837840 0
-0.1550021 0.1264849 -0.1850761 0
-0.3044868 -0.0857227 0.1385152 0
-0.1250402 0.1100133 -0.0205039 0
-0.8515314 0.1881640 -0.1294186 0
0.0378823 0.0333867 -0.2709205 0
-0.1883929 0.1387109 -0.0758714 0
-0.5357090 0.4410507 0.0817274 0
-0.2667914 -0.0870187 -0.0849992 0
0.1618863 0.1965035 -0.1693372 0
0.8067881 0.0404690 0.0273577 0
0.5211142 0.1322137 0.0833245 0
-0.6886357 -0.0335845 0.0618429 0
0.6459892 0.4741030 0.1042929 0
-0.3196756 0.0367549 0.2642162 0
0.5144994 0.0623254 0.0779074 0
-0.1956791 -0.0527804 0.0185802 0
-0.7128835 0.0015416 0.1396725 0
0.7942905 0.3952738 0.0920046 0
-0.4914480 0.3112386 -0.1467908 0
-0.7322040 -0.0266348 -0.0169119 0
-0.8174661 0.2791611 -0.1930952 0
-0.1204342 0.1376821 -0.2402505 0
-0.8659081 0.2116958 0.0751501 0
-0.5040059 0.1064115 0.1177104 0
0.5259818 0.0779811 -0.1280534 0
0.3690851 0.3757906 -0.1207073 0
-0.2756604 0.3558077 -0.1668281 0
-0.0872012 -0.0692583 0.0669461 0
-0.3634588 -0.0611435 -0.1548267 0
0.6797167 0.1792046 0.2731588 0
0.6954200 0.0080791 0.1586486 0
0.0525935 0.3738783 -0.1073446 0
-0.4864154 0.3417951 -0.0243693 0
-0.6515000 -0.0183701 0.1151643 0
0.2368406 0.2177451 0.2089765 0
-0.2317354 -0.0825554 -0.0248405 0
-0.4491860 0.3188147 0.1664933 0
0.6832477 0.0146923 0.1724273 0
-0.2728984 -0.0735888 -0.1200761 0
0.6204253 0.0468701 -0.2366965 0
-0.4646947 0.1702776 0.0562003 0
-0.4773363 -0.0298304 0.0720013 0
0.6049998 0.0467185 -0.2299539 0
-0.7440727 -0.0213286 0.0155785 0
0.1207298 0.1864196 -0.2397612 0
0.0635499 0.3465222 0.1324988 0
0.2494367 0.3520785 0.0687371 0
0.0732476 0.3743533 -0.0678668 0
-0.2492367 0.2033765 0.2599683 0
0.2466274 0.1979383 -0.2850972 0
0.1661210 0.2107220 -0.1511478 0
0.4825813 0.1299610 -0.1357674 0
0.7849166 0.1745316 -0.2436777 0
-0.3954812 -0.0328815 0.1940743 0
0.5723657 -0.0232531 -0.0637154 0
0.1826410 0.1756418 -0.1179182 0
0.1935689 0.2909943 -0.1447341 0
0.2746039 0.3116844 0.1691422 0
0.3865637 0.0954370 0.2585365 0
0.5370946 0.4070944 0.1070374 0
-0.6956781 -0.0151927 -0.1102425 0
-0.2747625 -0.1057194 -0.0225088 0
-0.5021034 0.0811801 0.0804731 0
0.8186392 0.3229874 -0.1685372 0
-0.1828939 0.1705087 0.0484584 0
0.1496550 0.2455799 -0.0464848 0
0.5215899 0.4219545 -0.0777569 0
-0.1383091 0.2642169 -0.1600847 0
0.3748192 -0.1055006 -0.1221750 0
0.6836940 0.3724088 0.2286988 0
-0.5804373 0.2522635 -0.2584291 0
0.2737554 0.3768996 0.0201171 0
0.2171109 0.3198844 -0.1428623 0
0.2508163 0.1766776 0.2352885 0
-0.4137920 0.4102179 0.0134293 0
0.2597046 0.2551969 0.2088415 0
-0.7349278 -0.0087817 -0.0931308 0
-0.6206552 0.4352058 0.1930678 0
0.5646766 0.4518482 0.0728312 0
0.7849307 0.0982401 -0.2071037 0
-0.1462224 0.1197228 -0.2007937 0
0.4595005 0.2065948 -0.2513439 0
-0.6026981 0.1450732 -0.2528801 0
0.3465496 0.2867877 0.2152031 0
0.1435123 0.2142852 0.0106271 0
0.2149955 -0.0335451 0.1069245 0
0.2720740 0.3795577 -0.0405260 0
0.1953578 -0.0543192 -0.0147697 0
-0.4625962 0.2207715 -0.0913029 0
-0.3653828 0.3431095 0.2127022 0
-0.0194758 -0.1057025 0.0319161 0
-0.6769845 0.3630782 -0.2504528 0
0.7911037 0.4219235 0.0454165 0
0.4313129 0.0660061 -0.2795814 0
0.5023131 -0.0199057 -0.0445052 0
-0.6698606 0.0519351 0.2162559 0
0.5009790 0.1942008 -0.2056862 0
-0.3464085 0.3635494 0.1957229 0
0.0545894 -0.0926399 0.0580787 0
0.5786834 0.3449084 -0.2559475 0
-0.1906887 0.1169581 -0.1934319 0
-0.6234919 0.4737677 -0.1360757 0
-0.8744286 0.2829459 0.0255179 0
-0.5271134 0.1113292 0.1652630 0
0.8014001 0.1055582 0.1370775 0
-0.5352338 0.2130196 -0.0444927 0
-0.2807047 0.4218832 -0.0143300 0
-0.2953322 -0.0847318 0.1358759 0
0.3427138 0.1949857 -0.3162463 0
0.3793400 0.2541768 0.2301130 0
-0.1793944 0.1892916 0.0546259 0
-0.5400341 0.3806164 -0.1760921 0
0.3119600 0.2227276 0.2525690 0
-0.8536609 0.1172343 -0.0571332 0
0.7455985 0.2938553 -0.2731317 0
0.2741426 -0.0389286 -0.2286654 0
-0.7379830 -0.0173405 0.0629409 0
0.1370306 0.1828618 -0.2192687 0
-0.8526036 0.2952310 0.1044861 0
0.2870619 -0.0983853 0.0810680 0
0.6062759 0.0886447 0.2278341 0
0.4535323 0.1322700 0.2082309 0
0.0651473 0.3684425 0.0792598 0
-0.0190101 -0.0276470 -0.2264338 0
-0.1998652 0.3051035 0.1561926 0
0.3857386 -0.0163043 -0.2580386 0
0.4688668 0.3092290 -0.0910159 0
0.1083514 0.0900032 -0.2504520 0
0.1395943 -0.0350689 0.0045281 0
0.5406765 0.1655346 -0.0629571 0
0.3159854 0.2005740 -0.3132573 0
0.7312573 0.2040805 0.2539184 0
0.3386673 0.3770952 0.0763338 0
0.6600711 0.0656457 -0.2585779 0
0.5095824 0.2515016 0.0449400 0
0.1099427 0.3422814 -0.0945242 0
0.2617835 0.3535359 0.0854964 0
0.3269707 -0.1155135 -0.1007458 0
-0.7148911 0.5067366 -0.0201687 0
-0.1253435 0.1044932 -0.0145339 0
-0.5343692 0.2119660 0.0502143 0
-0.2086152 0.3665066 -0.0654173 0
-0.3512591 0.0242825 0.2567190 0
0.8464459 0.2546414 0.0732114 0
0.6712123 0.2757863 -0.3058466 0
0.1895444 0.1436875 0.0431998 0
0.2944749 -0.1100486 0.0489715 0
0.5226851 0.2062133 0.1893208 0
-0.3951915 0.4122736 0.0692290 0
-0.8713560 0.1593801 0.0047609 0
0.5340375 0.0561158 -0.0333547 0
-0.3367961 0.3651070 0.1948837 0
-0.8083278 0.4010811 -0.1267732 0
0.5113826 0.1125657 -0.1842930 0
-0.7083261 0.0495614 0.2046217 0
0.7429461 0.4703410 -0.0645807 0
0.6782111 0.4655788 -0.1538828 0
-0.4379354 0.2871062 -0.1922687 0
-0.7133812 0.4634942 0.1542545 0
-0.8360078 0.3537170 0.1071508 0
0.3294140 0.1112034 0.2720398 0
-0.3744439 0.4072236 -0.0891692 0
-0.0460354 0.2280732 -0.2787446 0
0.3860894 0.1234764 0.2619826 0
-0.6064572 0.1984604 -0.2682562 0
0.7264541 0.4491801 -0.1542762 0
-0.7826710 0.4411928 0.1077637 0
0.5249223 0.3635632 -0.1848752 0
0.5583244 0.4624798 -0.0494129 0
-0.8227603 0.1783953 0.1682076 0
0.5414463 0.0964201 -0.0239090 0
-0.0061901 0.3699140 0.1178163 0
-0.8075143 0.2727288 0.1973510 0
0.0654731 0.3437782 0.1353847 0
0.3792422 0.1952123 -0.3096723 0
-0.5535430 0.3072344 -0.2296919 0
-0.6716222 0.1774361 0.2817842 0
-0.7727122 0.0966467 0.1944590 0
0.7208591 0.2680175 0.2571326 0
-0.2512893 0.0523650 -0.2252646 0
-0.4412822 0.3632775 -0.1041486 0
-0.3891785 0.1641647 -0.2591668 0
0.6479074 0.0218197 0.1843229 0
0.6298012 -0.0486341 -0.0382422 0
-0.5401489 0.3485604 -0.1987473 0
0.5192943 0.0238787 -0.0619709 0
-0.6088861 0.4613094 -0.1481854 0
0.5820839 0.1415732 0.2383773 0
0.8618105 0.1936896 -0.0538501 0
-0.0516001 0.0135922 -0.2508425 0
0.1455451 0.3069086 0.0324671 0
0.0608490 0.2217923 -0.2766133 0
-0.0684092 0.3635969 0.0812774 0
0.2773388 0.0338109 -0.2877730 0
-0.2692827 -0.0038518 0.2208106 0
-0.4332033 0.3060988 0.1976054 0
0.5738088 0.0003992 -0.1410124 0
0.5994579 -0.0315612 -0.0901545 0
-0.6264305 0.3990057 -0.2228652 0
-0.3708114 0.2617896 0.2652598 0
-0.7374514 0.3826573 -0.2199074 0
-0.1635836 0.2152829 -0.1428272 0
0.3804950 0.3654517 0.0899218 0
0.6734935 0.4974031 -0.0344573 0
-0.5696214 -0.0004826 0.0747029 0
0.6115148 -0.0138248 0.1161638 0
-0.4256620 -0.0087661 -0.1756543 0
0.2746567 -0.0297715 -0.2389291 0
0.6754633 0.1483071 -0.2995891 0
0.4761277 0.1417101 -0.1254780 0
0.4742012 -0.0522240 -0.0834860 0
0.3147362 -0.0993984 0.0975951 0
0.7760710 0.1534318 0.2013654 0
-0.4932307 0.3921511 -0.0608874 0
0.0311680 0.3429967 -0.1873164 0
0.5476343 0.4483652 0.0375459 0
0.8483117 0.2919118 -0.1051550 0
0.2491852 0.2076579 0.2248153 0
0.5082578 0.3692371 -0.1462792 0
-0.3789330 -0.0761193 0.1461704 0
-0.5667365 0.0468550 0.1580282 0
-0.7860380 0.2857203 -0.2270700 0
0.3603760 0.1579700 -0.3214869 0
-0.4418919 0.0239409 -0.1870639 0
0.0869133 0.3309886 -0.1625770 0
-0.8726422 0.3092197 0.0015601 0
-0.7874358 0.0600387 -0.1452904 0
0.2342480 0.0517728 0.2067216 0
-0.5819730 -0.0047142 -0.0852666 0
0.6991647 0.0174881 0.1692673 0
0.0963543 0.3092048 -0.1828315 0
0.5144343 0.2301779 0.1773207 0
0.6991244 0.0190434 0.1712379 0
-0.4971809 0.1142200 0.1618370 0
0.4672918 -0.0486216 -0.1204624 0
0.3980281 0.3449300 0.1194434 0
0.2191599 0.2422877 -0.2384751 0
0.3097858 0.0526475 0.2548303 0
-0.0989664 0.2465914 -0.2326020 0
-0.5968564 0.0617113 -0.1989195 0
-0.6255718 -0.0264815 -0.0721648 0
0.2255798 -0.0596629 -0.1420713 0
0.4166101 0.0169090 0.2082106 0
-0.3391066 0.3599491 -0.1772761 0
0.1319330 0.1161032 -0.0725587 0
0.7561423 0.1184785 -0.2508561 0
0.5172185 0.0109539 -0.0101778 0
-0.4943844 0.1949675 0.1493580 0
0.6717895 0.1373201 -0.2963850 0
-0.0333733 0.2047507 -0.2914850 0
-0.7651241 0.2188381 -0.2484070 0
0.2383004 0.1897778 -0.2813213 0
0.1292869 0.1349369 -0.0451224 0
0.7312409 0.3252872 -0.2701462 0
0.3536990 0.3837855 0.0473766 0
-0.4884209 0.2508186 0.1420623 0
-0.0023308 0.3907911 -0.0746668 0
0.2879196 0.2527040 -0.2821553 0
-0.6689263 0.4209117 -0.2106771 0
-0.8073703 0.4404712 -0.0435838 0
0.4215545 0.2482373 0.2060972 0
-0.3702927 0.2034016 0.2830474 0
-0.5971522 -0.0110374 0.0926877 0
0.3400933 0.2903006 0.2126497 0
0.3050895 0.2999429 -0.2506918 0
0.1861336 0.2933388 0.0497578 0
-0.3473535 0.2604425 0.2712564 0
0.5263160 0.2260312 0.1952389 0
0.4683609 0.2427536 0.1523414 0
0.7363416 -0.0111318 -0.1234568 0
-0.5670418 0.1010545 0.2075963 0
0.1998050 0.1683488 -0.2474069 0
0.1671980 0.2699377 0.0230862 0
-0.5288229 0.1480788 0.0901380 0
-0.0567161 0.3334096 0.1562428 0
0.2263236 0.2661748 -0.2281172 0
0.4962164 0.2978426 -0.0164444 0
-0.8310971 0.2686649 0.1603288 0
0.6928681 0.0591935 0.2144030 0
-0.3706539 0.1418340 -0.2645443 0
0.4828286 0.0082981 -0.1792815 0
-0.4734581 0.3483958 -0.0577363 0
0.3736012 0.0679452 -0.3097101 0
0.4886725 0.3799701 -0.0100481 0
-0.3498623 0.3699309 0.1872862 0
-0.4956404 0.3954552 0.0518717 0
0.8219740 0.2084639 0.1398800 0
-0.6522629 -0.0407622 0.0090628 0
-0.5272795 0.2073259 0.0831875 0
-0.2775577 0.2980616 0.2390822 0
0.6623961 0.0718685 -0.2630492 0
0.4613611 0.2504208 0.0419635 0
-0.7578118 0.3352924 -0.2334213 0
0.4970288 0.2878870 -0.0902536 0
0.2112088 0.2871318 0.1206836 0
0.1960178 0.3178994 0.0177046 0
0.4731103 0.1179426 0.1814027 0
0.1140172 0.0348873 -0.2173486 0
-0.5887017 -0.0230970 -0.0036148 0
0.4997535 0.1975734 -0.1947824 0
-0.2479433 0.1998371 0.2596860 0
-0.4217893 -0.0892403 -0.0292322 0
0.0682996 0.0484858 -0.2653648 0
0.1488686 -0.0163524 -0.0707364 0
0.5167118 0.2410228 -0.2310003 0
-0.2897991 -0.0550993 0.1804662 0
0.8257895 0.1862529 0.1278904 0
-0.6171283 0.0460042 0.1989073 0
-0.2175066 -0.0434905 0.1195307 0
0.1805922 0.2258168 -0.0836456 0
0.7799416 0.3492103 0.1669499 0
0.1475924 0.3121698 -0.0223181 0
-0.3538832 -0.1121885 0.0623953 0
-0.0893777 0.3227150 -0.1669479 0
0.2085422 0.2564821 -0.2140844 0
0.7232206 -0.0357645 0.0163988 0
-0.6320832 0.3666619 0.2509589 0
0.2599803 0.0705894 0.2368162 0
0.2048786 0.3082201 -0.1396201 0
0.4164679 0.1047661 -0.2994447 0
0.7326252 0.3987804 0.1797016 0
0.4886254 -0.0359846 -0.0747921 0
0.3267799 0.3907142 -0.0589625 0
0.8464340 0.1885598 0.0721614 0
-0.6535305 0.4412090 0.1964087 0
-0.7468656 0.0072589 0.1169791 0
-0.0551068 0.3589184 -0.1399004 0
0.5709012 0.4638740 -0.0880116 0
0.2314034 0.0742481 0.2123885 0
0.0400985 0.3917841 -0.0080348 0
0.1529538 0.0730981 -0.1463447 0
-0.2302285 0.3850285 -0.0660864 0
-0.2883600 0.1998321 -0.2598859 0
-0.0913281 0.3042090 -0.1898517 0
-0.5687317 0.0845744 0.1972605 0
-0.7185038 0.4614164 -0.1497001 0
-0.4955579 0.4043592 -0.0339017 0
0.0325630 0.1846126 -0.2977635 0
-0.4944070 0.3107397 -0.1528957 0
0.2657628 0.3422128 0.1152891 0
-0.5030195 0.3189833 0.0018173 0
0.1577141 0.1209428 -0.1876809 0
-0.5617053 0.2988945 -0.2386260 0
-0.2493560 0.1440850 -0.2467873 0
-0.7082947 0.1495991 0.2663333 0
-0.1706505 0.0280769 -0.1135628 0
-0.4470855 0.0105681 0.1841539 0
-0.3724116 -0.0325783 -0.1852469 0
-0.6908786 0.0134369 0.1691694 0
-0.2563621 0.1587394 0.2692183 0
-0.4640720 0.2810531 0.0681490 0
0.5227931 0.0599171 -0.1545923 0
-0.1942420 0.3461335 0.0865016 0
-0.0273185 0.1114324 -0.2996096 0
-0.5691387 0.0155787 0.1132133 0
0.6938589 0.4732515 -0.1293824 0
0.4902360 0.1127350 -0.2247304 0
-0.1716024 0.2581887 -0.0250048 0
-0.4660833 -0.0562905 0.0030863 0
-0.6294172 0.1488959 0.2686247 0
0.6613191 0.1181823 0.2566426 0
-0.5457214 0.4444822 -0.1019520 0
-0.4179706 -0.0407323 0.1650993 0
-0.3499718 0.4183709 -0.0705749 0
0.6729289 0.4979410 -0.0118994 0
-0.7093128 0.5091571 0.0119431 0
0.1447974 0.2334963 -0.0308008 0
0.0809275 0.3531570 0.0955038 0
0.3041890 -0.1205522 -0.0102747 0
-0.3851624 0.4175141 -0.0418244 0
0.2700438 -0.1104606 -0.0317310 0
0.7172957 0.2091939 -0.2990627 0
-0.7222241 0.4939800 -0.0755852 0
-0.4523004 0.1230383 0.2288288 0
0.7691786 0.3329173 0.1918485 0
-0.1254308 0.3248346 0.0449047 0
-0.5343432 0.0445817 0.1020726 0
-0.4528124 0.3799517 0.0376361 0
-0.3413888 0.0085953 0.2484131 0
-0.7403160 0.2089588 -0.2622847 0
0.3858789 0.2763247 0.2113730 0
-0.1556111 0.0552491 -0.1034383 0
0.1652067 0.2761470 -0.0659284 0
-0.0007778 -0.0774802 -0.1564413 0
-0.4488991 -0.0243356 -0.1326808 0
0.0340916 0.3860677 0.0553377 0
-0.6911597 0.3898182 -0.2325116 0
0.4595400 0.2884960 0.0040968 0
0.7042916 -0.0397006 -0.0734274 0
0.5083084 0.2716987 0.0068481 0
-0.3411415 0.4092839 -0.0982057 0
-0.5116280 0.0548572 0.0589114 0
-0.6154581 0.3890406 0.2309028 0
0.5275906 0.0124665 -0.0518126 0
0.4244570 -0.0196135 0.1710656 0
0.3423178 -0.1110513 -0.1189760 0
-0.1481509 0.2910236 -0.0067282 0
0.7065723 -0.0197070 0.1018048 0
-0.5600338 0.1109612 0.2069664 0
-0.6848217 -0.0366258 -0.0416797 0
0.4554901 0.3110365 -0.1600997 0
0.2510018 0.3338060 -0.1704177 0
-0.8373529 0.2207464 -0.1663896 0
-0.0453862 0.3478486 0.1426196 0
0.5406391 0.4466721 0.0142240 0
-0.4047581 0.3072532 -0.2029819 0
0.7835103 0.0049497 -0.0101750 0
-0.0740244 0.3746088 -0.0470259 0
-0.4892834 0.3842568 0.0488694 0
0.2934365 -0.0223149 0.2022908 0
0.3804191 0.2104939 -0.3042996 0
0.0726629 0.2259455 -0.2682945 0
0.7376206 0.2939349 0.2394640 0
0.5302410 0.2277626 0.2005822 0
-0.4052318 0.0543702 0.2496151 0
0.8591288 0.2034690 0.0224718 0
-0.3514261 0.0053886 -0.2218022 0
0.0997603 0.3531390 0.0532295 0
0.5946620 0.0639070 0.2029610 0
-0.4088757 0.4027073 -0.0612292 0
-0.1770595 0.2140212 -0.1703167 0
-0.0098267 0.0105118 -0.2613257 0
-0.4607822 0.3417460 -0.1070193 0
-0.2833506 -0.1067164 0.0572357 0
-0.4313267 0.1430040 0.2515361 0
-0.4944855 -0.0199055 0.0020238 0
-0.4756006 -0.0436550 0.0298523 0
0.3826571 0.3321472 -0.2059768 0
-0.3734972 0.4176036 -0.0572172 0
0.2577405 0.2795416 -0.2455138 0
-0.1546814 0.1138217 -0.1350039 0
0.6441250 0.1498060 0.2674627 0
0.0545308 -0.1003162 -0.0335366 0
0.1823833 0.1271662 -0.2260207 0
-0.3970940 0.1386978 0.2752272 0
0.0237779 0.3948798 -0.0007534 0
0.1673050 0.2830915 -0.0456173 0
-0.1252435 0.1792178 -0.0423626 0
-0.4686334 0.0242319 -0.1555948 0
0.2222468 -0.0711700 0.0402462 0
0.2252896 -0.0591290 -0.1426859 0
-0.2780596 -0.1032180 -0.0447650 0
-0.5434440 0.0356342 -0.1095859 0
-0.4219927 0.0730452 0.2448599 0
-0.1655246 0.3132412 -0.0540212 0
-0.5287667 0.3989183 -0.1420575 0
-0.1810372 0.3209601 0.0972920 0
0.5835128 0.4747324 0.0351959 0
-0.3462874 0.3333606 0.2261876 0
0.7482118 0.1811342 0.2377784 0
0.5397900 0.1849226 -0.0292630 0
0.7609579 0.4598856 0.0108555 0
-0.3067262 -0.0334047 0.2115609 0
-0.2443155 0.0173606 0.2176498 0
0.5438691 0.4470746 -0.0709288 0
-0.5450768 0.4239390 0.1312518 0
-0.6590682 0.3417298 -0.2608123 0
0.0594828 0.0796012 -0.2826146 0
0.8259676 0.1012158 0.0732960 0
-0.4066209 0.1929706 -0.2490806 0
0.7062360 0.3245761 0.2473580 0
-0.1641910 0.3099590 0.0610839 0
-0.7915609 0.3756655 0.1721552 0
0.6186998 0.4049161 -0.2312487 0
-0.1752276 -0.0273940 0.0015070 0
-0.3947857 0.4055738 0.0941025 0
-0.4947940 -0.0052335 -0.0598208 0
-0.8683472 0.2523414 -0.0879987 0
0.0148174 0.0158242 -0.2649403 0
0.3618031 0.3861514 0.0291120 0
-0.3342678 -0.0442362 0.2037459 0
0.2981330 -0.0924539 -0.1580165 0
0.7549692 0.2544109 -0.2752258 0
-0.7901350 0.1106311 -0.1891037 0
0.1967951 0.3176492 -0.0882492 0
0.6528500 -0.0262205 -0.1409689 0
-0.7437631 0.4497654 -0.1479639 0
0.1727232 0.0893561 -0.2021044 0
0.8099338 0.3447689 0.1164222 0
-0.5654313 0.1059853 -0.2108425 0
0.2770978 0.1965742 -0.3030941 0
0.1098319 0.3512116 -0.0564591 0
0.5799727 0.2289171 0.2511227 0
0.8236355 0.0629160 -0.0565072 0
0.4613583 0.0177077 0.1571716 0
0.3244873 -0.0820743 -0.1882188 0
-0.2193671 -0.0578535 -0.0800288 0
0.1629963 0.0079648 0.0278827 0
0.1082351 -0.0345897 -0.1476545 0
0.0779547 -0.0427135 -0.1759055 0
0.6387625 -0.0298889 0.0959295 0
-0.1914220 0.3524319 0.0607162 0
0.3097745 -0.0810649 -0.1863925 0
-0.5034153 -0.0053377 0.0084335 0
0.5808222 0.2135221 -0.2902137 0
0.5973336 0.3950732 0.1941309 0
0.8057631 0.3521719 -0.1699736 0
-0.1749580 0.0891271 -0.1185654 0
-0.5303442 0.0781781 -0.1481183 0
-0.6154610 0.5039791 0.0479906 0
-0.3145600 0.1547944 0.2917985 0
-0.1403464 0.2323536 -0.0781775 0
-0.2559873 0.0179246 0.2274219 0
0.8531135 0.2445771 0.0510555 0
-0.5100996 0.2622770 0.1804366 0
0.0990334 -0.0725668 0.0297601 0
0.0683641 -0.0368956 -0.1930658 0
0.2319144 0.1424144 0.2222048 0
0.0500170 0.2940238 -0.2366140 0
-0.3322718 -0.1131531 0.0653815 0
0.7192849 -0.0251591 -0.1087270 0
0.5014118 0.2894646 -0.0491574 0
0.8026457 0.0509805 -0.1181152 0
0.4043716 -0.0839789 0.0966962 0
0.4802781 0.2960147 -0.1321478 0
-0.0874998 -0.0402569 -0.1632322 0
-0.6362638 0.2636599 0.2839416 0
0.6582668 0.4642043 -0.1595569 0
-0.6113405 -0.0166890 -0.0898685 0
0.2251012 0.2198746 0.1950002 0
-0.3849213 -0.0596769 0.1683253 0
0.1775327 0.2207752 0.0552619 0
-0.3365455 -0.1181384 0.0110508 0
0.7212711 0.0537362 -0.2308881 0
-0.5027059 -0.0052923 -0.0095615 0
-0.2101481 0.3800375 -0.0099947 0
0.2362951 0.2575914 -0.2453841 0
-0.3490495 -0.0971475 -0.0939332 0
-0.6008455 0.0399612 0.1824990 0
-0.6248136 0.1752067 0.2748516 0
-0.5369116 0.1518589 0.0587863 0
-0.6831520 -0.0086065 -0.1286475 0
0.4945086 0.3399994 -0.1463769 0
0.1959955 -0.0452757 -0.0985854 0
-0.2236274 -0.0480929 -0.1081626 0
-0.6768202 -0.0071403 0.1392632 0
-0.4472167 -0.0719066 -0.0218445 0
-0.5235260 0.3354742 0.1769913 0
0.4562366 0.1742205 -0.0507433 0
0.1862081 0.2151711 0.0166214 0
-0.5651066 0.0806521 0.1903689 0
-0.2639135 -0.0891210 -0.0754362 0
0.3956468 -0.0185592 -0.2511470 0
-0.8487654 0.2510944 0.1261048 0
0.5217630 0.1384505 0.0813218 0
0.6319854 0.4580212 0.1329628 0
-0.8132192 0.4008733 -0.1170391 0
0.4028622 0.1609441 0.2515970 0
0.2164741 0.2028893 0.1918603 0
-0.6495676 0.3054633 0.2788278 0
-0.3359906 0.1742522 -0.2689781 0
-0.8778782 0.2170228 -0.0311351 0
0.0241685 0.3896944 0.0467541 0
0.6237361 0.2686741 0.2697110 0
-0.6022187 -0.0229010 -0.0555330 0
0.1829558 -0.0110842 0.0662046 0
-0.1546876 0.0468513 -0.1466270 0
-0.7597748 0.3440554 0.2270763 0
-0.5314029 0.1034579 0.1658725 0
-0.2783385 -0.1090018 0.0176451 0
-0.2712278 0.3995232 -0.0917264 0
0.7396789 0.1184220 0.2242482 0
-0.6935183 0.0838051 0.2377473 0
-0.8020875 0.3245313 0.1888220 0
-0.8137543 0.3789099 0.1324252 0
-0.8695183 0.1537425 -0.0183043 0
0.3246420 0.3189677 -0.2341012 0
-0.7618802 0.4355929 0.1489048 0
0.1977380 0.2312704 -0.2178376 0
0.1835274 0.2175656 0.0298971 0
-0.0580873 -0.0890379 0.0589202 0
-0.8165321 0.3790206 0.1267004 0
0.2832470 0.1198779 0.2601996 0
0.6014663 0.4688497 -0.1228608 0
-0.1754547 0.1506384 -0.1771498 0
-0.3400324 -0.1083389 0.0856610 0
0.1290704 0.1626044 -0.2339407 0
-0.4626750 0.2524296 -0.1871194 0
-0.7607955 0.4709042 -0.0846483 0
0.8519496 0.3160990 -0.0393796 0
-0.5282660 0.0817514 0.0620264 0
-0.5323582 0.4472071 -0.0596188 0
-0.3311565 -0.0703349 0.1703850 0
0.5694941 0.3171625 -0.2635976 0
0.1313696 0.1071890 -0.0117170 0
0.7037445 0.2527516 -0.3028256 0
-0.2791795 0.2638840 -0.2374610 0
-0.7202551 0.1299772 -0.2495652 0
-0.7972456 0.3190752 -0.2052498 0
-0.4219317 0.1138615 0.2558486 0
-0.4177180 -0.0165544 0.1923577 0
-0.6533899 0.2979605 0.2810919 0
-0.2183360 0.3361301 0.1511698 0
0.0204754 0.3422186 0.1664853 0
-0.4111008 0.2087349 0.2619106 0
0.1820886 0.2347561 0.0092983 0
-0.1686874 0.2923656 -0.1003650 0
0.3609767 0.1930428 -0.3147530 0
0.1746220 0.0518819 -0.1869691 0
0.0544045 -0.0988499 0.0228457 0
-0.3434582 0.3591112 0.2012337 0
0.7707470 0.4522960 -0.0477211 0
0.3480228 0.0402300 0.2522817 0
-0.5506404 0.4675977 -0.0463795 0
0.6825274 0.4793524 0.0860909 0
0.5828874 0.0856103 0.2103828 0
-0.4908826 0.2134996 0.1691622 0
0.6920878 0.0010159 -0.1837631 0
0.1316667 0.1080815 -0.0643395 0
0.7333699 0.2030073 -0.2906828 0
0.6725179 0.1215536 -0.2901508 0
0.0659512 0.1677167 -0.2878104 0
0.5044589 0.0475731 -0.0750651 0
0.4958851 0.2363676 0.1034159 0
0.4639279 0.1900954 -0.2525102 0
0.4236062 0.3615642 -0.0918318 0
-0.2516530 -0.0732676 0.1174161 0
-0.6592760 0.0283545 -0.1852795 0
-0.5392630 0.2094899 -0.0138036 0
0.5311394 0.1940841 -0.1019172 0
0.3245333 -0.0899151 0.1218496 0
0.3247991 0.3406046 -0.2048588 0
-0.5379505 0.1920681 0.0446450 0
0.8039183 0.1655261 0.1646703 0
-0.4546508 -0.0474976 -0.0835723 0
0.2161239 -0.0758741 -0.0183411 0
0.1913496 0.1872860 0.0158348 0
-0.7062804 0.2289370 0.2816269 0
0.2160018 -0.0516052 0.0764612 0
-0.2080443 0.2735763 0.1928253 0
0.5884210 0.1206161 0.2343052 0
0.8230951 0.3616372 0.0606671 0
-0.5276642 0.2598949 -0.0134502 0
0.5261904 0.2038498 -0.1155316 0
-0.4237363 0.1085183 -0.2372297 0
-0.6334360 0.3156249 -0.2670502 0
-0.6155469 0.2373149 0.2787376 0
-0.3897650 -0.0277848 0.2030931 0
0.4101162 -0.0764033 -0.1622368 0
-0.1893788 0.1798726 0.0041327 0
0.0756520 0.3551271 -0.1293363 0
0.7678709 0.0235219 0.1023957 0
-0.5319926 0.0401033 -0.0940747 0
-0.4841839 0.3092727 0.1130719 0
-0.8453741 0.3115297 0.1150569 0
0.0656263 0.0098422 -0.2426207 0
0.1945350 0.1067351 -0.0404409 0
-0.4691346 0.3156850 -0.1282508 0
0.5485827 0.0348826 -0.1642711 0
0.6906876 -0.0448009 0.0309487 0
-0.5010225 0.1396077 -0.1517607 0
0.6119291 0.2857712 0.2616096 0
0.5883426 0.2229885 -0.2945124 0
-0.1157519 0.3325688 0.0564438 0
-0.5132766 0.3167180 0.1700826 0
-0.1566662 0.2427381 0.0907216 0
-0.5073168 0.0849041 0.1294844 0
-0.0715092 -0.0911454 -0.0276615 0
0.8175381 0.3025225 -0.1839716 0
-0.4787076 0.0463931 0.1639828 0
0.1844525 -0.0051958 -0.1499589 0
-0.4927713 0.1770040 0.1403356 0
-0.2963873 0.0969075 -0.2586985 0
0.6985552 0.3746452 -0.2563766 0
-0.6677083 0.4706751 -0.1515414 0
0.5916706 -0.0092267 0.1061667 0
0.0972645 0.2922724 -0.2015682 0
-0.3870381 0.3850039 -0.1267806 0
-0.0015708 0.3867849 -0.0931471 0
-0.1388938 0.2822991 0.0925970 0
0.1607808 0.0052114 -0.0812430 0
0.1567592 0.1497895 -0.1912641 0
-0.4695424 0.3478796 -0.0310530 0
0.6440729 0.3917672 0.2163189 0
-0.4815818 0.3815154 -0.0104024 0
0.6782486 0.2226045 0.2772750 0
0.8611858 0.1831241 -0.0491440 0
0.0694337 0.3722786 0.0577353 0
-0.0509132 0.0677009 -0.2804281 0
0.3130597 0.3909059 -0.0197053 0
0.8321687 0.0999874 -0.1046894 0
0.6772804 0.1598736 0.2694545 0
0.6647776 0.4936011 0.0392880 0
-0.0972916 -0.0669407 0.0462162 0
0.4395398 -0.0563442 0.1015390 0
0.4694079 0.1346993 0.0328860 0
0.7689635 -0.0014491 0.0369206 0
-0.4950071 0.1473019 -0.1450902 0
-0.3586506 -0.0767520 0.1555724 0
0.7381823 0.0554555 0.1819221 0
-0.8235021 0.0772158 -0.0983158 0
-0.7405212 0.4911650 0.0579973 0
-0.3412657 0.1984483 -0.2660664 0
-0.7333234 0.2742255 -0.2644165 0
-0.0540948 0.3352239 0.1558305 0
-0.1231061 -0.0444816 0.0330530 0
-0.4284406 0.2444408 -0.2222782 0
-0.1669497 0.2698031 -0.0134334 0
-0.2488838 -0.0929993 -0.0277278 0
0.7379860 -0.0016643 0.1042904 0
0.1869671 0.2661744 0.0963254 0
-0.5070183 0.2123385 -0.1884375 0
0.1441208 -0.0291713 -0.0407312 0
-0.8219311 0.3698299 0.1245871 0
-0.5048509 0.0718303 -0.0835389 0
0.0354790 -0.0937191 0.0778512 0
-0.2063863 -0.0639211 -0.0017440 0
0.7343025 0.0108123 -0.1693733 0
-0.0050870 -0.1090909 -0.0384457 0
-0.4896573 0.2355967 -0.1616680 0
0.4871882 0.2125565 0.1248124 0
-0.5456151 0.3240314 0.2113266 0
0.7046930 0.1734879 -0.2992310 0
0.4639226 0.2262569 -0.2361301 0
0.4935527 0.1441758 -0.2205315 0
0.3436420 0.3097592 -0.2449042 0
0.4151340 0.1739008 0.2411385 0
0.4725971 0.2677301 -0.1374406 0
0.7415982 0.0481759 -0.2105622 0
0.5616934 0.0642736 -0.2142636 0
0.1825218 0.2948899 -0.1012413 0
-0.4297629 -0.0500308 -0.1210962 0
-0.6827343 0.2320804 0.2872729 0
0.8389170 0.0904790 -0.0147229 0
-0.3029534 0.0297750 0.2574905 0
0.0413295 -0.0252188 -0.2233004 0
0.5601629 0.4251176 0.1194397 0
0.5600687 0.2355728 -0.2761534 0
0.5023948 0.0996057 0.1256925 0
0.0916010 -0.0737974 0.0505479 0
0.2647403 0.0339634 0.2249595 0
0.1712864 0.0307118 0.0332872 0
0.8101956 0.3659223 0.0934064 0
0.6208523 0.4930025 0.0094954 0
-0.3988566 0.2622240 0.2520843 0
0.6082076 0.2377255 -0.3027035 0
0.6641094 0.4322353 -0.2086927 0
0.3274089 0.3887880 0.0237965 0
0.1488460 0.0241838 -0.0386282 0
0.7087024 0.4498935 -0.1679180 0
0.8463939 0.2351538 0.0772652 0
0.7036351 0.0481560 0.2000901 0
-0.6309553 0.3649357 0.2515638 0
0.5908411 0.2926571 -0.2856860 0
-0.2044634 0.1651591 -0.2123540 0
0.5183451 0.2215794 -0.1276892 0
-0.5938926 0.4850486 0.0879018 0
-0.4468660 -0.0728362 -0.0169602 0
0.4541529 0.1960357 -0.0534162 0
-0.4479394 0.1238079 0.2336686 0
-0.6951267 -0.0372567 0.0301929 0
0.3591364 0.2547160 0.2363873 0
0.7909394 0.4041542 0.0854819 0
-0.3414008 0.1070087 -0.2647195 0
-0.7255079 0.3377846 -0.2501368 0
-0.3776099 0.2773127 0.2554113 0
0.8600059 0.1657756 -0.0262265 0
-0.7806200 0.2110410 -0.2356824 0
-0.4183320 -0.0871928 0.0678859 0
0.1060296 0.3209328 0.1162839 0
-0.2893251 0.2001704 0.2819153 0
-0.2225792 0.0492082 0.2156092 0
-0.8051704 0.1924454 0.1988477 0
0.4992830 0.1606180 -0.1929794 0
0.4477190 0.0899580 -0.2727550 0
-0.1294016 -0.0326231 0.0472504 0
0.4879012 0.0786735 -0.0792582 0
-0.0475077 -0.0999221 -0.0485068 0
0.0445659 0.3378522 -0.1889098 0
-0.4198705 -0.0136116 0.1931226 0
0.2355096 0.0842023 -0.2805708 0
0.5873098 -0.0347406 -0.0014702 0
0.5178146 0.0111401 -0.0522097 0
0.5986037 -0.0403247 -0.0177558 0
0.1811290 0.0114122 -0.1641162 0
0.1453985 0.1897263 -0.1235442 0
0.5028028 0.3324340 -0.1721883 0
0.4683403 0.3309450 -0.0114120 0
-0.5402672 0.1523197 0.0412665 0
-0.6484525 -0.0404786 0.0016294 0
-0.5943139 0.3991068 -0.2086869 0
-0.3475462 -0.0287325 0.2182805 0
0.3063382 -0.0332224 -0.2492355 0
-0.7335515 -0.0256678 0.0250086 0
-0.3987553 -0.0104223 -0.1935043 0
-0.4580731 -0.0268578 -0.1146363 0
-0.3788069 0.0751704 -0.2497766 0
-0.8602132 0.1801866 0.0822163 0
-0.1134427 0.3450487 -0.0482440 0
0.3132429 0.2484892 -0.2918703 0
-0.8464005 0.2745910 0.1274663 0
0.7751672 0.2041823 0.2133570 0
-0.7157695 0.2237511 -0.2735063 0
0.5013156 0.1144321 -0.1692507 0
-0.4738985 0.3136607 -0.1221554 0
-0.1531462 0.2787587 -0.0957577 0
-0.7092528 0.2059965 0.2789124 0
-0.5371452 0.4478352 -0.0733509 0
0.6894341 0.4495659 -0.1787519 0
-0.4240680 0.0377766 0.2270286 0
-0.7254094 -0.0297062 -0.0116547 0
0.4855803 0.2004649 -0.1770947 0
-0.7905763 0.4083346 0.1420025 0
0.7290911 0.2248327 0.2561377 0
0.3370860 0.3097443 0.1938493 0
-0.4378660 -0.0366561 0.1455300 0
0.6663468 -0.0265494 0.1070426 0
0.5429149 0.4469958 0.0242361 0
0.8607449 0.2260339 -0.0737789 0
0.6949615 0.4927171 0.0135370 0
0.7877939 0.2306813 0.1979966 0
0.6636679 0.4940565 -0.0697489 0
-0.5693586 -0.0122396 0.0021442 0
-0.1944003 -0.0118032 -0.1141442 0
0.7174473 -0.0014291 -0.1644197 0
-0.4598890 0.1560321 -0.0167973 0
-0.5557740 0.3130310 0.2262784 0
0.6616272 0.4855112 0.0737709 0
-0.1501442 0.0187246 0.0223263 0
0.4263196 0.3561714 0.0489866 0
-0.2545170 -0.0070518 -0.1892364 0
0.6590152 0.4945865 -0.0671660 0
0.4550506 -0.0774262 -0.0356769 0
-0.8219317 0.0490331 -0.0268378 0
0.4777497 0.0043028 -0.1846167 0
0.7435153 -0.0267859 -0.0344484 0
0.4123371 0.0031833 -0.2589573 0
0.3556725 0.2073737 -0.3111869 0
0.0408279 0.3403679 0.1607064 0
0.8514332 0.3184139 -0.0100224 0
0.8419570 0.1482833 0.0660445 0
0.0031915 0.3838346 -0.1043690 0
-0.7456817 0.3314579 -0.2427003 0
0.1533223 0.2367246 -0.1017451 0
-0.1971610 0.0693849 -0.1855705 0
0.4089561 -0.0956444 0.0572473 0
0.1866527 0.1366339 -0.2327794 0
0.5996537 0.3638487 0.2203074 0
-0.7719505 0.4566407 -0.0994090 0
0.7143521 -0.0166946 -0.1366950 0
-0.5561794 0.4756781 -0.0224474 0
0.1489682 0.1130450 -0.2024509 0
-0.5300348 0.3603933 -0.1791220 0
0.3911699 0.1323547 0.2598120 0
0.7046739 0.0219526 -0.2065370 0
0.7508305 -0.0222517 -0.0062303 0
-0.7106837 -0.0302238 -0.0484652 0
0.2179835 0.2915711 0.1268699 0
-0.5670605 0.1441200 -0.2320512 0
-0.4568809 0.2241387 0.0479058 0
0.3007398 0.3887163 -0.0208124 0
0.4706416 0.2629967 0.0734691 0
0.3902212 0.3736103 0.0532929 0
-0.6808022 -0.0174276 -0.1103599 0
-0.2204302 0.3444058 -0.1299637 0
0.1771856 0.1009810 -0.1329176 0
0.1921216 0.2848795 -0.1514970 0
0.7709804 0.4403481 -0.1001128 0
-0.1170563 -0.0453779 0.0544505 0
-0.7015761 0.3114471 0.2726752 0
0.5220565 0.2361229 0.0138297 0
-0.7852688 0.3080285 0.2162924 0
0.8100873 0.3724714 0.0850690 0
-0.4695052 0.3647935 0.0242281 0
-0.4250557 0.2946689 -0.1980178 0
0.2714088 0.3619087 0.0766464 0
-0.4499671 0.0829972 -0.2097409 0
-0.7825145 0.2808002 0.2263835 0
-0.3989660 0.1511307 -0.2552550 0
-0.2532343 0.0308190 0.2333308 0
0.0419757 0.3902743 -0.0389343 0
0.1973399 0.0790875 -0.2383449 0
-0.6647587 0.2439903 0.2884785 0
-0.5923228 0.4976529 -0.0228989 0
0.2583020 0.3689792 0.0237271 0
0.0055854 -0.0852933 -0.1391097 0
-0.5437673 0.2443001 0.2264570 0
-0.1127155 0.3015442 -0.1627126 0
-0.7895416 0.0136708 -0.0376339 0
-0.2726380 -0.0939301 -0.0723484 0
-0.6057802 0.0141261 0.1521771 0
-0.6766642 -0.0340997 -0.0593002 0
-0.1013998 -0.0711648 -0.0029529 0
-0.8243366 0.0689666 0.0698035 0
0.4794008 0.2077231 -0.2249172 0
-0.3365324 -0.0086467 0.2364473 0
-0.2681550 0.0418770 0.2491397 0
-0.2963738 0.3988542 -0.1121688 0
0.7399921 0.4241543 -0.1811547 0
0.4758955 0.2654770 -0.1481415 0
0.8144061 0.2814862 -0.1992367 0
0.4856437 0.1647376 -0.1664493 0
0.7714275 0.4310079 0.0795253 0
0.4612340 0.0992935 -0.2610589 0
0.5686220 0.1583710 -0.2734256 0
-0.3106429 0.3322836 -0.2026644 0
-0.1394921 0.2697416 0.0135118 0
-0.2949232 0.2478077 -0.2489563 0
-0.3395923 -0.0054264 0.2387251 0
-0.5686416 0.4814487 -0.0439717 0
0.2341777 0.3388928 0.0733906 0
0.0595197 0.3599740 -0.1374831 0
-0.2882850 0.1834551 -0.2620704 0
-0.6717001 0.4781889 0.1453298 0
0.3494690 0.3182249 0.1833192 0
-0.5094254 0.4071025 0.0778140 0
0.0457992 -0.0086100 -0.2376759 0
0.7763597 0.2977564 -0.2451210 0
-0.6011176 0.1122152 -0.2371139 0
0.0015137 0.3577090 0.1435522 0
0.8383824 0.3416922 -0.0848690 0
-0.1637540 0.1879333 -0.1578364 0
0.0918629 0.3250833 0.1330063 0
-0.4732885 0.3625523 -0.0062387 0
-0.5014464 0.0554393 0.1245421 0
-0.7374095 0.2528860 0.2668238 0
0.8402513 0.2797767 0.0832298 0
0.3714341 0.0679218 0.2577255 0
-0.4594629 -0.0469087 0.0848947 0
-0.4563813 0.2387327 -0.0654604 0
0.1811537 0.2982919 0.0152148 0
-0.3638307 0.0309477 0.2575457 0
-0.4745209 0.3329956 0.0679737 0
0.4752519 -0.0000898 -0.1842966 0
-0.2541024 0.2728480 0.2392088 0
0.2266413 0.0111428 -0.2357446 0
-0.7244844 -0.0256754 -0.0482518 0
0.4832091 0.3655734 0.0038515 0
-0.8179556 0.4127554 0.0750270 0
0.5111507 0.1730599 -0.2169524 0
-0.1774246 0.2188391 0.0374288 0
-0.1233855 0.2615625 -0.1901511 0
-0.2787925 0.3587388 -0.1650727 0
-0.4722354 -0.0207885 -0.0960902 0
-0.4899577 0.0191191 -0.1127324 0
-0.1564682 0.2823497 -0.0696943 0
0.6592559 0.2702529 0.2747694 0
-0.4697099 0.3196938 0.0628166 0
-0.6734805 0.4596872 -0.1673717 0
-0.7725841 0.4185312 0.1565462 0
-0.4859899 0.2796399 -0.1484212 0
-0.6987649 0.3870633 -0.2326703 0
0.1622252 0.0392099 -0.1454703 0
0.1004568 0.3212943 0.1255004 0
0.4779575 0.1328888 0.0662069 0
-0.4795881 0.3426768 -0.0920672 0
-0.4454058 0.3718871 -0.0777383 0
