# .PCD v0.7 - synthetic VGP smoke-test fixture
VERSION 0.7
FIELDS x y z rgb
SIZE 4 4 4 4
TYPE F F F F
COUNT 1 1 1 1
WIDTH 2048
HEIGHT 1
VIEWPOINT 0 0 0 1 0 0 0
POINTS 2048
DATA ascii
-0.0015340 0.3325738 0.1934573 0
0.2141315 0.1861261 -0.2260079 0
0.7783364 0.0157472 -0.0388072 0
-0.7935721 0.0117943 -0.0160767 0
-0.5537516 0.1812603 -0.2300544 0
-0.5433219 0.3695330 -0.1656490 0
0.4464120 0.1292008 0.2297980 0
0.2340912 0.0778458 0.2003793 0
0.4535116 0.2107186 0.2144554 0
-0.3351120 -0.0721716 -0.1822654 0
0.7711308 0.0275385 0.1067837 0
-0.1892549 0.0585234 -0.1086964 0
-0.4197870 0.4073179 -0.0891975 0
-0.8165852 0.1763188 0.1985693 0
-0.5695221 0.4516549 -0.0732596 0
0.6164831 0.3611075 0.2605687 0
-0.4160157 0.3586949 -0.1794407 0
0.0084425 0.0347956 -0.2926024 0
-0.1457426 0.0361488 -0.2034930 0
0.0513804 -0.0931776 -0.1452728 0
0.6739442 0.3372232 0.2885557 0
-0.3315884 -0.1218881 -0.0849132 0
-0.5076512 0.3779303 -0.0633339 0
-0.5926644 0.0216563 0.1547742 0
-0.5512178 0.0137752 0.0301016 0
-0.3716527 0.3310972 -0.2275723 0
0.6244414 0.1393030 0.2829863 0
-0.7824832 0.3595202 -0.2012158 0
-0.1959568 0.1090257 -0.1110604 0
0.4440724 0.1770399 -0.2659264 0
0.6930174 0.2928076 -0.2948390 0
-0.3618095 -0.1288413 0.0429507 0
-0.5152341 0.2311318 0.1214325 0
-0.8463078 0.0863188 -0.0259422 0
0.2206644 -0.0545040 0.0097683 0
-0.2615314 -0.1110594 -0.0321115 0
-0.6624556 0.0620720 0.2442613 0
0.4877459 0.0594201 -0.1995518 0
0.1885593 0.0883282 -0.1789133 0
-0.1532108 0.0573923 -0.2027729 0
-0.4651630 0.2988340 0.1689407 0
0.3396403 -0.0244825 0.2041396 0
0.3636196 0.0996248 0.2692377 0
0.4987577 0.0287748 0.1121459 0
0.2939146 -0.0968097 -0.0859353 0
-0.5641850 0.1451769 -0.2281118 0
0.5825918 0.4509818 0.1108501 0
0.4857548 0.2429976 -0.1481292 0
0.7988276 0.0345694 -0.0462926 0
-0.5301534 0.0829098 -0.1163339 0
0.1266322 0.3115291 0.0552592 0
-0.5516455 0.1451153 -0.0466746 0
-0.8096353 0.0465521 -0.0866107 0
0.5190750 0.3265936 -0.1829999 0
-0.0419044 -0.0569188 -0.2209903 0
-0.8600867 0.1167215 -0.0108301 0
0.3768828 -0.1128325 -0.0168389 0
-0.5139474 0.0817188 -0.0879065 0
0.8146499 0.4217817 -0.0035688 0
-0.5440075 0.0358662 -0.0821403 0
0.3936974 0.0546167 0.2466306 0
0.0377533 0.1131084 -0.3047840 0
-0.2603679 0.2989005 -0.2273066 0
-0.5750138 0.1753311 -0.2482620 0
-0.2590085 0.0786642 -0.2590095 0
0.2833752 0.3752947 0.1011517 0
-0.3846336 0.3287541 0.2172545 0
-0.4776942 0.2331256 -0.2108899 0
0.1816175 0.0030295 -0.0578253 0
-0.4741912 0.1208083 0.2055923 0
-0.5496721 0.0361126 -0.0980049 0
-0.3206145 0.3632231 0.1926188 0
0.5466335 0.4148998 0.1221986 0
-0.7397268 0.4689112 0.1070212 0
0.5502871 0.1670422 0.0023231 0
-0.4736509 0.3773133 -0.0327417 0
-0.0475620 0.1539061 -0.3085008 0
0.7610076 0.0566998 -0.1757975 0
-0.7355044 -0.0149325 0.0943153 0
-0.4939765 0.1767843 0.1206762 0
0.3231462 0.1435374 -0.2990812 0
-0.4709219 -0.0602263 -0.0834752 0
-0.4030975 0.2667826 -0.2560436 0
-0.6538852 -0.0385613 -0.0061211 0
-0.4867857 0.0426448 0.1590798 0
-0.7022051 0.0570573 0.2356032 0
-0.4911448 0.3581446 -0.0089604 0
0.7698464 0.0723644 -0.1863823 0
0.1503170 0.1688679 -0.0764745 0
-0.4010283 0.2146540 0.2646133 0
0.6766047 0.1170983 0.2803040 0
0.6707494 0.1032116 -0.2622502 0
0.0881662 0.3496739 -0.1031219 0
-0.4177575 0.3838998 0.1313068 0
0.5771191 0.4594634 0.0700971 0
0.5234332 0.4176486 0.0365061 0
0.3952055 0.2347405 -0.2777763 0
0.1537697 0.1567479 -0.1760191 0
-0.1374703 0.3370556 -0.0322207 0
0.5522413 0.1367113 0.2217114 0
0.4459874 0.3812764 -0.0246031 0
0.0567914 -0.0169066 -0.2411395 0
0.7375931 0.1145718 -0.2507299 0
-0.3994607 0.1262033 -0.2805214 0
0.8752362 0.2831801 -0.0263063 0
0.3594717 -0.1138023 -0.0409245 0
0.6180711 0.2314890 -0.2956512 0
-0.4723707 0.2889749 0.0180939 0
-0.3039904 0.4143336 0.1068460 0
0.2001186 -0.0265148 -0.0619550 0
-0.5352904 0.4273680 -0.0342903 0
-0.3138523 0.0519776 -0.2713941 0
-0.3677605 -0.1282896 0.0406030 0
-0.3250813 0.2174734 0.2778164 0
0.1815325 0.0957036 -0.0649518 0
-0.3828103 0.4358807 -0.0112547 0
-0.7320691 0.0757315 0.2374205 0
0.2513084 0.3646459 0.0742239 0
-0.1139609 0.3566973 0.0321079 0
-0.5096803 0.3571127 0.1051935 0
-0.6775773 0.4985988 -0.0225643 0
-0.4181887 0.2915038 -0.2351128 0
-0.5372455 0.3991759 -0.1165637 0
0.5157936 0.2923262 -0.0658986 0
-0.1600951 0.0671449 -0.1254706 0
-0.2797200 -0.1023783 0.0946514 0
0.2728032 0.3646069 0.1104761 0
-0.3122215 0.0737602 -0.2784567 0
-0.3174483 0.0437020 0.2615528 0
0.0585809 0.0904312 -0.2915288 0
-0.2188472 -0.0808652 -0.0041031 0
0.8049175 0.0878024 0.1482017 0
-0.5279344 0.2273726 -0.1212735 0
0.8708510 0.2695580 0.0571512 0
-0.4969473 0.1873488 -0.1402693 0
0.8286951 0.3848678 -0.0883874 0
0.1856112 0.1475890 -0.1862430 0
-0.5821308 0.0637161 -0.1871852 0
0.7182500 0.4422857 -0.1653159 0
-0.6459162 0.3364367 -0.2643123 0
-0.5406194 0.0371535 0.0794919 0
-0.4598982 0.3142655 0.1633742 0
0.5534462 0.4275649 0.1104513 0
-0.2243188 -0.0358354 -0.1509265 0
0.7228844 0.4837655 -0.0232260 0
0.7183825 0.4096307 0.2184569 0
0.1795293 0.1575349 0.0393612 0
0.2595799 -0.0888902 -0.0135833 0
-0.5100198 0.0613314 0.1250166 0
-0.6998523 0.2861217 0.3002391 0
-0.8426582 0.0761573 0.0121610 0
-0.7070460 0.3331553 -0.2642792 0
-0.6410348 0.4130715 -0.2069237 0
0.7064687 0.0822084 0.2476716 0
-0.3288255 -0.1326145 0.0174108 0
0.6730632 0.0708739 -0.2353612 0
-0.7919852 0.2060233 -0.2352089 0
0.4901549 0.2173221 0.1627659 0
-0.1161377 0.1054139 -0.2657972 0
-0.4680229 0.2298875 0.0237142 0
-0.5371359 0.0680002 0.1302077 0
0.4753653 0.2880352 -0.0997698 0
-0.7956675 0.3286914 -0.2064555 0
0.5063484 0.3134443 -0.0480890 0
-0.7164619 0.2033172 -0.2832708 0
-0.5317459 0.2526372 -0.0860042 0
-0.8178199 0.4202587 -0.0254043 0
-0.2797360 0.1845617 0.2683076 0
0.5874223 0.1566452 -0.2651916 0
-0.5297038 0.0595046 -0.0990954 0
0.6483279 0.3239586 0.2929749 0
-0.7345035 0.0038677 0.1439497 0
-0.4890234 0.3080004 0.0885339 0
-0.1951538 0.1750343 -0.1061782 0
-0.7997367 0.1619272 0.2195661 0
-0.4589498 0.3604851 -0.1257973 0
0.2383682 0.3702925 0.0061613 0
-0.4270683 0.3177300 0.1978729 0
0.4402075 0.0095395 -0.2208161 0
0.2547675 0.3652296 -0.1134453 0
0.1738139 0.2851385 -0.0210846 0
-0.6045943 0.4613463 0.1242154 0
0.4983333 0.2382634 -0.1827211 0
-0.5323277 0.0516768 0.0490702 0
-0.4592336 0.0116540 -0.1974915 0
-0.2637682 0.1772252 0.2594182 0
-0.3166071 0.1229518 0.2818796 0
0.2628767 0.3103894 0.1740654 0
0.7285445 0.2002174 -0.2895137 0
0.8376381 0.3090031 0.1443244 0
0.5408535 0.0639575 -0.0059544 0
0.0523117 0.1470491 -0.2984514 0
0.8065919 0.0537939 0.0821286 0
-0.1323842 -0.0661666 -0.0927953 0
-0.2545854 -0.1057156 0.0300031 0
-0.8333377 0.0762537 0.0716773 0
-0.5992100 -0.0221075 0.0135724 0
-0.5393345 0.0516693 0.0068548 0
0.6328357 0.0061196 0.1397631 0
0.5249850 0.1485556 -0.1968036 0
-0.2072380 0.1488385 -0.0051217 0
-0.2172071 0.3861813 0.0055804 0
-0.0353364 0.0253303 -0.2871003 0
-0.3057310 -0.0615463 0.1811623 0
0.4704350 0.1315805 0.2034669 0
0.5380804 0.2230416 -0.0818789 0
-0.4578966 0.3544356 -0.1373091 0
0.1709905 0.1980539 -0.1023836 0
0.7523242 0.1972619 0.2787787 0
0.5179828 0.2255487 -0.2110723 0
0.4101024 0.3661099 -0.1531966 0
-0.5152747 0.1398262 0.1395233 0
0.5403495 0.1497736 0.2128292 0
0.7749397 0.1056341 0.2134139 0
0.0896489 0.0237936 -0.2418645 0
-0.4772030 0.1665963 0.0479335 0
0.8161974 0.3931370 -0.1104750 0
0.4678678 -0.0139826 -0.1647895 0
-0.0796458 0.2161828 -0.2792268 0
-0.5784527 0.2173634 0.2674756 0
-0.3357289 0.2655089 0.2632826 0
0.0660908 -0.1115840 -0.0583980 0
-0.1942834 0.0847154 -0.1997593 0
0.5191088 0.4125290 0.0347293 0
-0.8542872 0.2126908 -0.1338050 0
-0.8062051 0.1852480 0.2174212 0
-0.4288135 0.3645483 0.1476110 0
0.4037334 0.3947919 0.0577096 0
-0.3512997 0.1288018 0.2847046 0
0.1998317 0.3290242 -0.0341317 0
0.2475808 -0.0799454 -0.0330524 0
0.5044875 -0.0196142 -0.0381399 0
-0.0611592 0.3583272 0.1332000 0
-0.0562050 0.3439282 0.1627064 0
0.3476318 -0.0623713 -0.1862408 0
-0.0316320 0.3990488 0.0046231 0
0.8298295 0.3791288 -0.0968059 0
0.8080400 0.2674018 -0.2249248 0
-0.1425029 0.1121867 -0.2355646 0
0.0297073 0.3950410 -0.0005777 0
0.3545963 0.0634323 -0.2857053 0
0.2135343 0.3348732 0.0482643 0
0.4665882 0.2150399 -0.0789924 0
0.8298404 0.3980291 0.0321076 0
0.8533665 0.1132026 -0.0374724 0
0.7036440 0.4723392 0.1148338 0
-0.7169034 0.4939960 0.0036967 0
-0.5463455 0.0829248 0.0090358 0
0.1203162 0.3029534 -0.1299301 0
0.4497233 0.3629467 -0.1044409 0
0.5480527 0.1036530 -0.0004059 0
-0.6094797 0.1753113 0.2848418 0
0.5036046 0.2636572 -0.1840954 0
0.3497753 0.1060694 0.2715132 0
0.0226326 -0.1263638 0.0547285 0
-0.6224756 0.4830147 -0.0661391 0
0.1844309 0.0972334 -0.0325111 0
0.8703821 0.3004856 -0.0440889 0
0.4894509 0.3701635 0.0047075 0
-0.3116973 -0.0804595 0.1589126 0
0.1755810 0.0302276 -0.0934128 0
0.4789064 0.2558743 -0.1268092 0
-0.4527412 0.3468817 -0.1554415 0
-0.5338682 0.3125829 -0.1929067 0
-0.4192836 0.1198909 0.2585734 0
0.2644213 0.0839028 -0.2658728 0
0.4133626 0.1335559 -0.2858881 0
-0.4290124 0.3843619 -0.1290077 0
-0.7262816 0.0057436 -0.1393633 0
0.7396246 0.4758177 0.0437975 0
-0.5451798 0.3709216 -0.1671661 0
0.8033235 0.2376831 0.2267823 0
-0.7783899 0.0437710 -0.1454479 0
0.6860585 -0.0130415 0.0926225 0
0.2310396 0.3542062 -0.0876080 0
-0.1744023 0.2773393 -0.0520687 0
-0.5470243 0.2235908 0.0046403 0
0.4909698 0.1389644 -0.1158082 0
0.0803745 0.3686563 -0.0438264 0
0.6014442 -0.0028812 0.0754635 0
0.0040045 -0.1310357 -0.0664407 0
0.0471559 0.3722903 0.0911350 0
0.0789367 0.2876404 -0.2164318 0
0.4208314 -0.0982220 -0.0133868 0
0.4849193 -0.0122950 -0.1353093 0
0.5567316 0.4532623 0.0120440 0
0.4265436 0.3929440 0.0017263 0
0.5732213 0.4602844 -0.0514438 0
0.6911423 0.0238613 0.1816082 0
-0.7664638 0.0821691 0.2129573 0
-0.5264747 0.0119086 -0.0027808 0
-0.5015044 -0.0355349 -0.0131041 0
-0.4380457 0.4076302 -0.0393956 0
0.0126318 -0.1336239 0.0163747 0
-0.2071123 0.1991366 -0.2225303 0
0.3288497 0.3693120 0.1441140 0
-0.5359788 0.2587637 0.0256421 0
0.6715920 0.2818992 -0.2995875 0
-0.1425205 0.2295505 -0.0686683 0
-0.4126042 0.3987549 0.1095951 0
0.2515787 0.1925712 0.2271682 0
-0.0860196 -0.0855323 -0.1452176 0
0.5987641 0.4405088 0.1566134 0
-0.6228938 0.2220248 -0.2823083 0
-0.7937295 0.3309374 0.2125740 0
0.2808081 -0.0550401 0.1391742 0
0.5198700 0.2628786 0.0597455 0
-0.0104755 0.2255626 -0.2958714 0
-0.3420846 -0.1005346 0.1320033 0
0.5397483 0.0817901 -0.1582919 0
0.4435449 0.0620358 0.2152051 0
0.3647887 -0.0329128 -0.2209923 0
0.7531328 -0.0032303 0.0018032 0
0.8154133 0.4165385 0.0382323 0
0.8196482 0.2303162 -0.2121623 0
-0.5956138 0.4006933 0.2076630 0
-0.5440633 0.1396960 0.0568634 0
0.6027480 0.0763596 0.2255483 0
0.5370698 0.1668067 -0.1208273 0
-0.1384369 -0.0559891 -0.1011636 0
0.3762857 0.1676367 0.2711966 0
-0.6930297 0.3706450 0.2641177 0
0.1523221 0.2181355 -0.0334802 0
-0.1462921 0.1201355 -0.1115161 0
-0.3861025 0.1836913 0.2763626 0
0.4710554 0.2940944 0.0570258 0
-0.7111852 0.4937300 -0.0253017 0
0.3534259 0.1674616 0.2745697 0
-0.6253761 0.2016821 -0.2816188 0
0.3447851 0.1430033 0.2752276 0
-0.0328971 0.0636829 -0.3028027 0
-0.4687837 0.2576812 -0.0215962 0
-0.4971640 0.1648099 0.1739078 0
0.2709688 0.0064115 0.1978919 0
-0.4251214 -0.0836971 -0.1207001 0
-0.4318146 -0.0550668 0.1466836 0
-0.4147735 0.3650141 -0.1727160 0
0.1265561 0.2212825 -0.2042195 0
-0.8325077 0.1865990 0.1721134 0
-0.6347700 0.1311576 0.2821189 0
-0.5451458 0.2214131 -0.0513891 0
0.5070762 0.3981257 0.0211902 0
0.8000689 0.1693525 0.2187702 0
0.5978574 0.1447924 0.2706052 0
-0.3003400 -0.0727322 -0.1726233 0
0.1802867 0.2567199 -0.1258555 0
0.6574817 -0.0240188 -0.0091543 0
-0.5136350 0.0080702 0.0622952 0
0.3199580 0.4058001 -0.0702158 0
-0.6627489 -0.0305267 -0.0685734 0
-0.5300456 0.1575101 0.1044591 0
-0.3934715 0.4325783 0.0048811 0
-0.3255226 -0.0809430 -0.1692203 0
-0.0614061 -0.0380423 -0.2323464 0
-0.5263678 0.1495093 0.1142097 0
-0.0471338 0.3718718 -0.1354164 0
0.4876676 -0.0388557 -0.0621402 0
0.5927311 0.0319086 0.1565990 0
0.4474865 0.3073833 -0.1968981 0
0.1122689 0.3115125 -0.1341039 0
0.0540920 0.3794359 -0.0746658 0
-0.2441531 -0.0909678 -0.0771983 0
-0.8209388 0.3494565 0.1529877 0
0.2016162 0.2617941 0.1262231 0
0.2176356 -0.0082574 0.1117174 0
0.6299568 -0.0190832 -0.0234490 0
0.6845643 0.2628463 0.3111563 0
-0.0584922 0.3868287 0.0517239 0
0.3658943 0.0741940 -0.2884866 0
-0.6725885 0.3684118 0.2676511 0
-0.3519051 0.2488070 0.2694715 0
0.5278850 0.3970127 -0.1182790 0
0.3159035 0.1258812 0.2694444 0
0.6139505 0.4569203 0.1380450 0
-0.2695693 -0.0941191 -0.1124024 0
-0.8061131 0.4023243 -0.1178126 0
0.2524369 0.3806898 -0.0443028 0
0.8196295 0.1097793 -0.1530921 0
0.6087633 0.2830652 0.2918051 0
-0.4614728 -0.0766301 0.0448230 0
-0.2679968 -0.0935775 0.1006854 0
0.5364668 0.0348152 -0.0282342 0
0.4632714 0.2033696 0.0359604 0
0.6233027 0.0186055 0.1602375 0
-0.3243539 -0.0313723 0.2167144 0
-0.0797853 0.3485160 -0.1556290 0
0.0867735 0.3405848 0.1015031 0
-0.2023576 0.1577948 -0.2217276 0
0.4653069 0.1822525 0.0307997 0
-0.7915877 0.2837683 0.2350252 0
-0.2459177 0.1524613 0.2468390 0
0.8340748 0.3412654 -0.1399941 0
0.1435342 0.2922629 -0.0662057 0
0.1090997 0.0055531 -0.2049481 0
0.2505037 -0.0707930 0.0593435 0
-0.6293150 0.4939836 0.0034915 0
-0.7629158 0.0938763 0.2260929 0
-0.1335948 -0.0729190 -0.0615618 0
0.7239147 0.2686138 0.2976795 0
-0.5091382 0.3264064 0.0199731 0
0.0292430 -0.0401103 -0.2355643 0
-0.8590853 0.1125461 0.0075599 0
0.4027869 0.0725813 0.2492359 0
0.4249241 0.1986438 0.2431448 0
0.4434367 0.3358433 -0.1670358 0
-0.4359704 -0.0952739 0.0570136 0
0.4764034 -0.0540899 -0.0498131 0
0.5146695 0.2154487 0.1146731 0
0.2149862 0.3245398 -0.1174329 0
-0.4080736 0.2239694 -0.2690892 0
0.1579856 0.2546926 0.0437000 0
-0.4752212 0.1719749 0.0415229 0
0.6005427 -0.0100681 -0.0147934 0
0.1756674 0.0337556 0.0514862 0
-0.4244792 0.0024253 0.2095472 0
0.0455106 -0.1253941 -0.0107504 0
0.3875515 -0.0251719 0.1953339 0
-0.5031178 0.0768596 0.1475670 0
0.0915041 -0.0900413 0.0480463 0
0.7043864 0.1302144 -0.2739798 0
-0.0440513 -0.1139659 0.1004511 0
0.5310994 0.2648765 -0.0048888 0
-0.2145077 0.2781619 -0.1984171 0
-0.1951249 0.3422664 -0.0921506 0
0.7326164 -0.0124460 -0.0075625 0
-0.6068548 -0.0014704 -0.1119552 0
-0.6488830 0.1537446 -0.2770617 0
0.0482644 -0.0472888 -0.2176818 0
-0.4959937 0.2115745 -0.1439754 0
-0.5408774 0.4150766 0.0993807 0
0.5093558 0.1926376 0.1355885 0
-0.4039132 0.3159029 -0.2269133 0
0.5055527 0.3751763 0.0835301 0
0.7273791 0.2742629 0.2948544 0
0.5148949 0.4038062 -0.0555961 0
-0.8077383 0.1210810 -0.1838601 0
0.8442068 0.0932947 -0.0328298 0
-0.6948708 0.2890301 -0.2825057 0
-0.7811336 0.0442503 -0.1421162 0
0.7168359 0.4792211 0.0754881 0
-0.8776724 0.1950160 -0.0048907 0
-0.1557380 0.0584162 -0.1987336 0
-0.2934190 0.3918919 0.1431805 0
-0.6370398 0.2813797 -0.2812822 0
-0.8433811 0.1033155 0.0823201 0
0.3725833 0.1833631 0.2703340 0
-0.0658309 -0.0883087 -0.1616885 0
-0.4600722 0.0449653 0.1987502 0
-0.5458742 0.0245048 0.0580319 0
-0.1384083 0.0151182 -0.2004483 0
0.4546971 -0.0367755 0.1169019 0
0.3557892 0.1082406 0.2716628 0
-0.3539533 0.2956967 -0.2545584 0
-0.4774032 0.1569367 0.0369907 0
0.4481891 0.3393126 0.1207960 0
-0.1790592 0.1445922 -0.1680120 0
0.0758519 0.3656492 -0.0796794 0
0.7727423 0.2332856 0.2638860 0
0.3263821 0.4081905 0.0361686 0
-0.1253242 -0.0851634 -0.0366496 0
0.7742449 0.2906057 0.2538670 0
-0.6646478 0.3878898 0.2530319 0
-0.6793298 0.0853775 0.2631383 0
-0.2266970 -0.0504887 -0.1335882 0
0.7326660 0.0092926 -0.1169413 0
0.3719876 0.1036699 0.2685790 0
0.5214195 0.1356092 0.1143347 0
-0.2873988 0.2567355 -0.2632778 0
0.4405655 0.3839878 0.0070114 0
0.7190382 -0.0098167 0.0753258 0
0.5720018 0.4025987 -0.1827054 0
0.5805511 0.3584326 -0.2339875 0
0.5430384 0.2161048 0.0108008 0
-0.0849661 0.0356235 -0.2702584 0
0.1557613 0.1483711 -0.1065594 0
0.3195912 0.3793972 -0.1490378 0
-0.7249978 0.4695312 0.1237700 0
-0.5052223 0.3221105 0.1279579 0
0.5052542 0.2862539 0.0754474 0
0.0299796 -0.0931394 -0.1635109 0
0.5192380 0.3695304 -0.1415659 0
-0.7285118 0.3204552 0.2779731 0
0.5280267 0.2570896 0.0340403 0
-0.2109237 0.1313455 -0.2302743 0
-0.3802277 -0.1050324 -0.1182943 0
-0.2252052 -0.0637147 0.0895383 0
-0.1053236 -0.1032332 -0.0014446 0
0.7392260 0.0206984 -0.1369193 0
0.2708180 0.0892382 0.2395671 0
-0.1931938 -0.0489188 0.0183572 0
-0.2547389 0.0951219 -0.2607308 0
0.7769882 0.4168742 0.1467147 0
-0.0485101 -0.1180700 0.0836357 0
-0.1672531 0.2538382 0.0925283 0
0.2976792 0.0798203 -0.2818508 0
0.6239197 0.4860537 -0.0264645 0
-0.4974351 0.0218517 0.1232712 0
-0.5319678 0.1607435 -0.1962454 0
-0.2338654 -0.0150303 0.1695219 0
0.5331736 0.2272904 -0.2319091 0
-0.4878908 0.2563883 -0.1204231 0
-0.2898203 0.4108641 -0.1121860 0
-0.6994866 0.4978381 -0.0001729 0
-0.1907246 0.0521187 0.0500971 0
0.0109054 0.0771282 -0.3065624 0
-0.6199690 0.2268112 0.2970873 0
0.0900104 -0.0930916 -0.0680800 0
0.8137155 0.0812214 -0.1269367 0
-0.4733562 0.2642707 0.1803528 0
-0.5339237 0.2442532 0.0553259 0
-0.6227259 -0.0253057 0.0722836 0
-0.5078526 0.3436274 -0.1192904 0
0.1146388 0.3039353 0.1081636 0
-0.4597219 0.0959544 -0.2368942 0
0.0302060 0.0491457 -0.2929905 0
0.3463271 -0.1084634 -0.0786669 0
0.0208732 0.3711517 -0.1403008 0
-0.4017116 -0.1201436 0.0277210 0
-0.8251427 0.1327985 -0.1631093 0
-0.7725777 0.4372872 0.1280825 0
0.3273609 -0.1131554 -0.0359040 0
0.7821214 0.0784227 0.1764476 0
-0.8289405 0.2638690 0.1815775 0
-0.0876259 0.3767162 -0.0521811 0
0.3685682 0.2201675 0.2629340 0
-0.4420660 -0.0830414 -0.0944839 0
-0.3189871 0.4395967 0.0062414 0
-0.6498965 0.2171848 -0.2892257 0
-0.1108236 0.1872920 -0.2650555 0
-0.6246439 0.4466790 -0.1559271 0
0.8124538 0.4222144 -0.0300252 0
0.8761110 0.2525167 -0.0511423 0
0.3820297 0.2535762 0.2465745 0
-0.2232807 0.1536334 -0.2436080 0
0.5137795 0.0099013 -0.0868787 0
-0.5690876 0.2673080 -0.2471898 0
-0.8659286 0.3167609 0.0349790 0
-0.0802732 -0.1164667 0.0283705 0
0.3724238 0.4118963 -0.0114679 0
0.2578246 0.3767019 0.0520955 0
0.4841944 0.0040707 0.1172442 0
0.0757363 -0.1085196 -0.0327743 0
0.6539946 -0.0234752 0.0241714 0
-0.3268322 0.0061158 0.2441017 0
0.2509312 0.3005181 -0.2050182 0
0.1535117 0.1218393 0.0390387 0
0.5858174 0.3638600 0.2366164 0
-0.0923670 0.0420076 -0.2678961 0
-0.5243174 0.2409338 0.1975180 0
0.3083861 0.1622240 0.2677396 0
0.4385406 0.3518887 0.1144414 0
-0.4598479 0.2153286 -0.2358013 0
0.2754961 0.1033960 0.2463193 0
-0.7012630 0.3375934 -0.2635511 0
-0.6288489 0.3817540 -0.2310646 0
-0.2718518 0.2738095 0.2375494 0
-0.0401356 -0.1113117 -0.1302638 0
-0.3426466 0.1764702 -0.2918962 0
0.5390251 0.0873951 0.1587592 0
-0.8705729 0.1836074 0.0544841 0
0.7570714 0.2382170 0.2783459 0
-0.4992990 0.2535986 -0.1694244 0
-0.4894026 0.2716481 0.1117684 0
-0.2964676 0.4060869 -0.1278839 0
0.7333947 0.0824982 0.2329979 0
0.7483406 0.3035451 -0.2700474 0
0.7504673 0.2167262 -0.2801496 0
0.5863594 0.0111138 -0.0948745 0
0.8098359 0.2641228 0.2144409 0
0.2228540 0.0623589 -0.2193737 0
0.5312633 0.1754066 -0.2188294 0
0.5516688 0.0580201 0.1400170 0
0.4557850 0.3314673 0.1205995 0
-0.2536153 0.1288564 -0.2655208 0
-0.7321389 0.3909781 -0.2164673 0
0.1929104 -0.0095420 -0.0819265 0
0.8323406 0.2262611 -0.1912241 0
0.4683570 -0.0360185 0.0918691 0
0.6631989 0.1097734 0.2757848 0
-0.5211743 0.1551675 -0.1765543 0
0.6233414 0.3154576 -0.2815385 0
0.7619070 0.4338075 -0.1384699 0
-0.8384988 0.1326408 0.1303963 0
0.6197547 0.0318186 0.1811979 0
0.6683301 -0.0234740 -0.0250585 0
-0.5331358 0.0306929 -0.0236639 0
0.7403389 0.2703594 -0.2835023 0
-0.0825767 -0.1173819 -0.0297769 0
0.5106173 0.0202731 0.0705121 0
0.0329106 0.1847823 -0.3013132 0
-0.3653999 -0.0160332 0.2276258 0
-0.5349935 0.1947273 -0.1161276 0
0.2909823 0.2620819 0.2315087 0
0.2764650 0.0548234 0.2313319 0
0.5454293 0.0757106 -0.1594919 0
0.3767073 -0.1050923 -0.0821613 0
0.6555572 0.3409269 0.2858277 0
0.8268833 0.0795461 -0.0848410 0
-0.7835139 0.0546152 0.1610745 0
-0.6767394 -0.0194950 -0.1057689 0
0.8623079 0.2930432 -0.0981001 0
0.5813624 0.2358991 0.2785542 0
0.2796828 0.0446273 0.2287492 0
0.6575892 0.4924791 0.0245008 0
-0.2138231 0.3695271 -0.0824665 0
-0.2478797 0.3983808 0.0725850 0
-0.6546426 0.0152551 -0.1711086 0
-0.2453472 -0.0405918 0.1571388 0
0.0607340 -0.1143947 -0.0596106 0
0.5451510 0.1197261 0.0302394 0
-0.1361918 0.2254070 -0.0147999 0
-0.3667159 0.3530411 -0.2092883 0
-0.4973118 0.1627250 -0.1295694 0
-0.3180110 -0.0342098 -0.2200468 0
-0.4354571 0.4115390 0.0052658 0
0.7227504 -0.0161538 0.0028406 0
-0.1575189 0.2623477 0.1108129 0
-0.1758391 0.2772672 -0.0361092 0
0.8404475 0.3308690 0.1198395 0
-0.2969904 0.4304298 0.0457558 0
-0.8307751 0.3646927 0.1125210 0
-0.8215402 0.4174982 -0.0042792 0
-0.7932605 0.2156712 0.2397316 0
0.3827042 0.3106175 0.2091395 0
0.7567688 0.0133662 -0.0929946 0
0.3210956 0.3623579 -0.1792949 0
-0.5093971 0.3182144 0.0429169 0
0.8320279 0.3011324 0.1616601 0
-0.7299461 -0.0018940 0.1365070 0
0.0728073 0.3149297 -0.1923573 0
-0.2330340 0.0403655 -0.2242963 0
-0.6553359 0.4768130 -0.1102940 0
-0.0531263 0.3866813 -0.0820780 0
-0.4661954 0.3662257 0.0814201 0
0.4595060 0.2049223 0.0020602 0
-0.5577450 0.4485651 0.0540226 0
-0.8755127 0.2762844 -0.0212878 0
0.6408201 -0.0064548 -0.1015587 0
0.6724223 0.4417804 0.1899530 0
0.2361738 0.0442252 -0.2246811 0
0.0317294 0.3868248 -0.0815656 0
-0.4311122 0.3125697 -0.2116957 0
0.0913831 0.3375569 0.0982278 0
0.5456643 0.1758056 -0.0801961 0
0.4181750 0.3189532 -0.2110001 0
0.8423351 0.2470132 0.1553582 0
-0.5184491 0.0976068 -0.1247734 0
0.1423824 0.2877334 0.0479630 0
0.3762709 -0.1077851 0.0428519 0
-0.8505874 0.2019231 -0.1413200 0
0.6518139 0.0287933 0.1909266 0
0.4175893 0.1204554 0.2518039 0
0.2837012 -0.0570200 0.1388865 0
-0.0058816 0.3946796 -0.0742577 0
-0.2914517 -0.0930820 0.1264867 0
-0.6302802 0.2456508 0.3011802 0
0.1071687 0.1488388 -0.2537543 0
-0.5595192 0.2666917 -0.2385432 0
-0.5831211 0.2189299 0.2717728 0
-0.7549377 0.3626328 0.2362806 0
-0.2089321 -0.0264146 0.1175941 0
0.7028494 -0.0187106 0.0473290 0
0.2709740 0.3936554 -0.0226133 0
0.5881250 0.3672673 -0.2329851 0
0.2049921 0.0201593 -0.1618002 0
0.5118259 0.0263247 0.0748771 0
0.5160983 0.2732969 -0.2033170 0
0.0021765 0.1204472 -0.3139731 0
-0.4071455 0.0530830 0.2489285 0
-0.3348349 -0.1174945 0.0925394 0
0.6949021 0.4768697 -0.0973976 0
0.8360130 0.1564415 0.1460918 0
-0.5063189 0.3290631 0.0284856 0
-0.1991413 0.1890482 -0.0725854 0
0.5228124 0.1114305 -0.1631640 0
0.2038894 0.3226946 0.0451515 0
0.2408023 0.0630183 0.2021904 0
-0.1980976 0.1379477 -0.2159832 0
0.3749822 0.3497304 0.1706287 0
-0.6716349 0.4481702 0.1867433 0
0.6747175 0.3124580 -0.2903517 0
-0.6041646 0.0396833 -0.1789941 0
0.1808517 0.0993764 0.0279190 0
-0.1916311 0.2392470 -0.0096998 0
0.1926020 -0.0138539 0.0240320 0
0.7248794 -0.0153708 -0.0031947 0
0.6929202 0.0339450 -0.1883091 0
0.3586568 0.4033464 -0.0917019 0
-0.8526742 0.3083562 -0.1110491 0
-0.7105822 0.4785369 0.1126634 0
0.1477943 0.1299005 -0.0581114 0
0.4894199 0.0141096 -0.1605206 0
-0.2231763 0.3063022 0.1697195 0
-0.6832850 0.3015735 -0.2803638 0
0.4342459 0.3098486 0.1745497 0
0.4920332 0.0951279 0.0147268 0
-0.0844368 0.3429948 0.1361200 0
-0.3738562 0.1448509 -0.2893317 0
-0.8281538 0.3916265 -0.0750860 0
0.3803178 -0.0463489 0.1750759 0
-0.5343050 0.1488348 0.1953358 0
0.0593865 0.1203887 -0.2947092 0
0.2745692 0.0612557 0.2327353 0
0.2946917 0.1018865 -0.2863333 0
0.5144117 0.2536780 -0.1358631 0
-0.5822254 0.3749808 0.2180605 0
0.7215559 0.3370076 0.2754655 0
-0.8410117 0.1076794 -0.1007848 0
0.4201066 0.3127086 0.1849818 0
0.3520049 0.0994907 0.2701890 0
-0.7185055 0.1555571 -0.2721606 0
0.5623477 0.4038937 0.1683156 0
-0.5487767 0.1272799 -0.0621988 0
-0.5332603 0.0727355 0.0666017 0
-0.4383308 0.2866961 0.2089802 0
0.4200741 -0.0080603 -0.2217116 0
0.6110367 0.3115216 -0.2782691 0
-0.0242134 0.0072279 -0.2790533 0
0.6141139 0.4821349 0.0426986 0
-0.7017549 0.3698576 0.2624715 0
0.3659654 -0.1097478 0.0408006 0
-0.1390179 0.2938759 0.1163112 0
-0.8184623 0.3054253 0.1868828 0
-0.4802531 0.1673710 0.0648262 0
-0.6456581 -0.0316969 -0.0534296 0
0.1539123 0.0886185 -0.0674599 0
-0.4485390 0.2170887 -0.2452901 0
-0.3805138 0.3007809 -0.2464593 0
0.2729451 0.3893705 0.0385348 0
0.8269622 0.0766668 -0.0770210 0
-0.0161048 -0.1340054 0.0312487 0
-0.0287013 0.1229957 -0.3134506 0
0.4649210 0.1859078 -0.0474686 0
0.5596795 0.1823339 0.2504536 0
-0.5003625 0.2183723 0.1576610 0
0.5154085 0.2416218 0.0957846 0
0.1547189 0.0927924 -0.1699789 0
-0.3252119 0.0280023 -0.2626953 0
0.5874729 0.4122967 0.1889014 0
-0.7209916 0.2230398 0.2994840 0
0.1551414 -0.0097242 -0.0470385 0
-0.1570285 0.0118423 -0.0026450 0
-0.8270571 0.0508063 0.0172212 0
-0.2843225 -0.1187045 0.0440907 0
-0.5426509 0.0475278 0.1093136 0
-0.4444636 0.4023362 0.0295238 0
-0.7737802 0.0942067 -0.2054110 0
-0.4046055 0.3804021 0.1496972 0
0.2219218 -0.0381019 0.0709025 0
0.2947513 0.0910206 -0.2838567 0
0.5912706 0.3583515 -0.2419574 0
-0.1754004 0.1752714 -0.1820453 0
0.5105302 0.3454050 0.1386863 0
-0.8163576 0.1156409 0.1665119 0
0.5295285 0.2427154 0.2186915 0
-0.5357778 0.0367987 -0.0059409 0
-0.3443828 0.2931326 -0.2565305 0
0.6532452 0.1310674 0.2872296 0
0.4603705 -0.0104554 -0.1799221 0
-0.4882148 0.3059092 -0.1465031 0
-0.1983273 0.2020855 -0.0602811 0
0.8787422 0.2573891 -0.0169295 0
-0.6194321 -0.0301897 -0.0106134 0
-0.2221735 0.2958136 0.1765895 0
-0.1408445 -0.0295189 -0.1468996 0
0.3636412 -0.1043542 -0.0927549 0
-0.2696973 0.3997867 -0.1167361 0
0.8067783 0.2192980 -0.2292071 0
-0.4949771 -0.0353847 -0.0661506 0
0.2945020 -0.0888474 -0.1131300 0
0.4197992 0.3305998 -0.1970796 0
-0.6603921 0.0716660 0.2521195 0
0.3899529 0.1583921 0.2674525 0
-0.0942346 -0.0200594 -0.2253406 0
-0.7474550 0.4729661 -0.0654724 0
-0.6586800 0.0928480 -0.2489414 0
-0.1862895 0.2523164 0.0010914 0
0.3219296 0.3805369 -0.1476897 0
0.4909803 0.2530890 -0.1853586 0
-0.5947190 0.4188821 -0.1729604 0
0.7992612 0.0860425 -0.1624945 0
-0.5525249 0.1607160 -0.0382392 0
0.3854956 0.1844779 -0.2939864 0
-0.8603411 0.2773081 -0.1062556 0
0.0675556 0.0428377 -0.2708573 0
-0.2691855 0.0740044 0.2519034 0
-0.4010207 0.4265672 -0.0469284 0
0.2909054 0.2293051 -0.2754620 0
-0.5378487 0.2267511 -0.0867775 0
0.7080687 0.3384029 -0.2729866 0
0.7111070 0.2780486 0.3016272 0
0.4480132 0.0889678 -0.2560105 0
0.5704369 0.4611119 -0.0333652 0
-0.1324561 0.2944466 -0.1634753 0
-0.1838301 0.3087281 0.0928387 0
-0.4782798 0.1618858 -0.0553673 0
0.5833507 0.3146501 -0.2613769 0
-0.0891534 -0.0067785 -0.2409252 0
-0.5752138 0.4676449 -0.0028386 0
-0.2782902 -0.1008669 -0.1065748 0
-0.1957285 0.3500855 -0.0752350 0
-0.4769796 -0.0183922 -0.1440638 0
0.1218783 0.3226403 0.0415337 0
-0.0691746 -0.1243611 -0.0155869 0
0.3715806 -0.0989313 0.0813026 0
0.8021703 0.4331888 -0.0308668 0
-0.1528315 0.2999897 -0.1014787 0
0.8499971 0.1232587 -0.0834314 0
0.1357391 0.2922032 -0.1035809 0
0.0640351 0.1887875 -0.2847675 0
0.3012313 -0.0515013 0.1605569 0
-0.5511492 0.1340667 -0.0474681 0
-0.6807240 0.0583750 -0.2226663 0
-0.1296674 0.3299147 0.0715560 0
-0.6640850 0.4536889 0.1774353 0
-0.4943626 -0.0343127 -0.0719227 0
-0.8302872 0.1533023 -0.1661248 0
-0.6093941 0.3377264 -0.2504625 0
0.3302754 -0.0814121 -0.1520857 0
0.6367254 0.0030455 0.1346105 0
-0.3150279 0.0918837 -0.2836723 0
0.4846327 0.3417245 0.0188599 0
0.3738912 0.2279035 0.2593077 0
0.8703933 0.2461802 -0.0870498 0
0.7915577 0.0242186 -0.0172867 0
-0.2478554 0.4044985 -0.0646569 0
-0.0500576 -0.1054822 -0.1382249 0
-0.6282629 0.4816440 0.0954189 0
-0.2711121 0.1169103 -0.2738028 0
0.7130992 0.1998754 -0.2952438 0
0.5767208 0.0064520 -0.0525165 0
-0.7627445 0.4672353 -0.0514062 0
-0.4838559 0.2723239 -0.1823326 0
-0.2614360 0.3710440 -0.1582773 0
-0.8163295 0.2850532 -0.1985854 0
0.2839554 -0.0257099 -0.2091932 0
-0.3517933 0.2453622 -0.2773905 0
-0.4815906 0.3568228 -0.0788842 0
-0.4844973 0.0054292 -0.1571332 0
-0.2451543 -0.0458533 0.1505750 0
0.0105539 -0.1206926 -0.1073494 0
-0.5072495 0.0004528 -0.0987681 0
0.0823528 0.3515362 0.0842497 0
-0.2614328 0.2675087 -0.2456424 0
0.6528882 0.4189947 -0.2111529 0
0.5660504 0.4074713 -0.1690271 0
0.5902842 0.4653627 0.0784262 0
-0.3015125 0.4360085 0.0064404 0
-0.4622296 -0.0817422 0.0135019 0
-0.6467960 0.0441876 0.2235346 0
0.4702603 0.3113690 -0.1621233 0
-0.5136164 0.1497062 -0.1733398 0
-0.7523283 0.3157816 -0.2515592 0
-0.5068011 -0.0043278 0.0661976 0
-0.5316244 0.4074052 -0.0855682 0
0.4574545 0.3466764 -0.1272823 0
0.4854827 0.3450887 -0.0143970 0
0.1815626 0.1975752 0.1203898 0
-0.0555872 0.3883925 -0.0696982 0
0.8610384 0.1529632 0.0626547 0
0.2975132 0.3251443 -0.2158715 0
0.4360474 0.3693129 0.0816484 0
0.1155728 -0.0212497 -0.1666207 0
0.1797281 0.1628736 -0.0818203 0
-0.1348805 0.3348367 -0.0664180 0
-0.7348721 0.0242148 0.1785708 0
0.3823437 0.2564376 -0.2722428 0
-0.2194039 0.1803871 -0.2384512 0
-0.1329331 0.3418602 0.0055746 0
0.8632179 0.3089415 0.0605943 0
0.8509145 0.2610747 -0.1491359 0
0.4123254 0.2210725 -0.2754461 0
-0.3347557 0.4411443 -0.0117442 0
0.4766901 0.3199608 -0.1379832 0
-0.0952314 0.3294325 -0.1703192 0
0.6409153 0.1708833 0.3010098 0
0.7229701 0.0301264 -0.1685675 0
-0.1384027 0.0778557 -0.0375740 0
0.5146832 0.0057375 -0.0718195 0
-0.3064217 0.2473118 0.2650325 0
-0.7401414 0.1267804 -0.2509313 0
-0.5725315 0.0954256 -0.2064224 0
0.4292313 -0.0015096 0.1886364 0
0.3430921 0.0518945 0.2550385 0
0.1929228 -0.0093285 -0.0825634 0
0.1263644 -0.0174121 -0.1487273 0
-0.1575780 0.2956999 -0.0235029 0
-0.4779005 0.2591937 -0.1985184 0
0.3474593 0.0461468 -0.2786381 0
-0.1826178 -0.0104699 0.0755905 0
0.5388109 0.3754852 -0.1709414 0
-0.0264865 0.0105138 -0.2806937 0
-0.5752100 -0.0006670 0.0658482 0
0.2485863 -0.0800069 0.0076012 0
-0.5238005 0.2483238 0.0875671 0
-0.4884563 0.3073568 0.1210242 0
-0.5159076 0.0554240 -0.0061492 0
0.8406330 0.3197505 -0.1439390 0
0.6120957 -0.0147329 -0.0099591 0
0.5537561 0.0793068 0.1739226 0
0.5366240 0.3745535 -0.1684675 0
-0.5172731 0.1756748 -0.1648050 0
0.4711300 -0.0148076 0.1193681 0
0.3653265 -0.0218057 -0.2318237 0
0.7523851 0.2572735 -0.2784166 0
0.4380939 0.0928788 0.2309339 0
-0.6313438 0.0189009 0.1851535 0
0.8496057 0.1002402 0.0044278 0
0.1077983 0.3390392 -0.0756731 0
0.7590325 0.1714640 -0.2650705 0
0.4947876 0.0052835 -0.1385040 0
-0.1189833 0.3408405 -0.1038624 0
-0.1129381 0.3603612 0.0128672 0
-0.4872214 0.2460121 -0.1927005 0
-0.3554340 -0.0218838 0.2250133 0
0.1851514 0.1641283 -0.0078718 0
0.2910126 0.3479494 0.1559379 0
-0.5927384 0.1888405 -0.2639315 0
-0.4415772 0.3185506 -0.1976965 0
-0.4804161 -0.0441543 0.0741313 0
-0.7264595 -0.0050238 -0.1169095 0
-0.6461139 0.4378724 -0.1787744 0
0.6676343 -0.0179702 -0.0652750 0
0.7280950 -0.0060714 0.0776384 0
0.5369844 0.3815448 0.1546681 0
-0.1331075 0.3027779 0.1166925 0
0.0360473 0.3912105 0.0254858 0
0.3113631 0.0446064 -0.2726510 0
0.1983682 0.0374366 0.1201420 0
-0.6444885 0.2223115 0.3062367 0
-0.1676445 0.2722685 0.0898247 0
-0.2407153 0.1660808 0.2419673 0
0.2114315 0.3406707 -0.0571210 0
0.3598598 0.4086121 -0.0671147 0
0.2530727 0.2073412 -0.2597758 0
-0.7519568 0.4611299 -0.0959778 0
0.7993578 0.1234921 0.1936417 0
0.4863458 0.1358496 0.0798852 0
-0.5641798 0.3115270 0.2368835 0
-0.0938402 0.2249579 -0.2655712 0
-0.5548652 0.0301230 0.1036049 0
0.5116907 0.1245248 0.1350338 0
-0.1698624 -0.0105042 -0.0433903 0
-0.5916610 0.2651281 -0.2643139 0
-0.1024456 -0.0954477 -0.0878434 0
0.6274689 0.0332180 0.1882004 0
-0.1788733 0.3285123 -0.0633977 0
0.8439522 0.2573781 -0.1663952 0
-0.7227392 0.4455793 -0.1569928 0
-0.1373969 0.2299825 -0.0223982 0
0.7278530 0.4678287 -0.0981245 0
-0.8515260 0.1978338 0.1303561 0
-0.5342534 0.4258528 0.0407219 0
-0.5711910 -0.0017236 -0.0335326 0
-0.8750553 0.1900242 0.0310638 0
-0.6847551 0.4459278 -0.1707034 0
-0.1971094 0.1669605 0.0544385 0
0.0694152 0.2702123 -0.2403673 0
-0.4858229 0.3324992 0.0419686 0
-0.7610520 0.0610264 -0.1873010 0
0.7868706 0.3208856 -0.2304471 0
0.1865719 0.2935222 -0.0896523 0
0.6527945 0.0159495 -0.1600304 0
-0.7749494 0.3175454 0.2422356 0
-0.4888197 0.3151245 0.0810088 0
-0.5305701 0.0458891 -0.0636351 0
-0.7102432 0.4933565 -0.0305919 0
0.8609436 0.2431725 -0.1237745 0
0.5463405 0.1524370 -0.0823680 0
-0.8215671 0.2086464 0.1971593 0
-0.3509660 0.3195722 0.2328354 0
0.8523173 0.1669883 0.1088596 0
0.5432215 0.0869231 0.0157256 0
0.1799803 0.1346108 0.0416516 0
-0.5439698 0.2372283 -0.0311870 0
0.7545714 0.3813859 0.2196241 0
-0.0026608 0.1784816 -0.3100882 0
-0.2812040 0.3013628 0.2278075 0
-0.7079173 0.3743321 0.2573087 0
0.1963721 0.0095414 0.0850530 0
0.4040911 0.0305916 0.2295168 0
-0.6980426 0.2403939 -0.2890576 0
-0.8715206 0.1613145 -0.0242200 0
-0.7974526 0.1784092 0.2279780 0
0.1945560 0.2379860 0.1289798 0
-0.4890052 0.1514884 0.0879372 0
0.4068777 -0.0910066 0.0725256 0
0.2876457 0.4015373 -0.0076945 0
-0.6592549 0.4656428 0.1549084 0
0.5809289 0.0019413 -0.0393762 0
-0.1440008 0.1711276 -0.1075935 0
0.8206998 0.2063165 -0.2080090 0
-0.3448176 0.2804859 0.2565302 0
-0.6977744 0.1279394 0.2848552 0
-0.8312154 0.1843610 0.1740852 0
-0.4818497 0.3419060 0.0890228 0
0.2537469 0.3793795 -0.0599026 0
-0.4373530 0.2835278 -0.2263969 0
-0.5561241 0.0159126 -0.0584245 0
-0.4988443 0.2888905 -0.1381725 0
-0.0892025 -0.0867084 -0.1382722 0
0.1471780 0.1498380 -0.0574800 0
0.5127894 0.3914501 0.0751831 0
0.1545887 0.2753687 -0.0466117 0
-0.2343096 0.1946868 -0.2496317 0
-0.8489919 0.2866955 0.1283943 0
0.2442272 -0.0668079 -0.0902752 0
-0.5123634 0.1456378 -0.1544556 0
-0.1376302 0.2089009 -0.0611559 0
-0.2307726 0.3856767 -0.0837097 0
0.4767238 0.1558745 -0.2370877 0
-0.2911123 -0.1203162 0.0491408 0
-0.7255918 0.4874597 -0.0405136 0
0.4784270 0.1490634 -0.0799601 0
-0.2045515 0.0906854 0.0023581 0
0.2333268 0.3162685 -0.1659988 0
0.5119808 0.2765858 -0.1956523 0
-0.8310251 0.2919807 0.1687029 0
-0.4310588 0.3107890 0.1995763 0
0.4205934 0.3900371 -0.0748973 0
-0.2136827 -0.0707381 -0.0512964 0
0.3501434 0.0485040 -0.2797041 0
-0.2052078 0.1017485 0.0064695 0
-0.7715452 0.3135482 -0.2382397 0
-0.5300027 0.1636614 -0.1369706 0
-0.4720553 0.1783179 -0.0280822 0
-0.8562990 0.1635085 0.1005922 0
0.1164558 0.2108404 -0.2253119 0
-0.4145319 0.3888847 0.1263843 0
-0.1493866 0.2468902 -0.0826782 0
-0.5285136 0.2907225 -0.0052319 0
-0.5184863 0.2453152 -0.1347789 0
0.5298227 0.0917512 -0.1289725 0
0.6851006 0.1717003 0.3037419 0
0.8303423 0.0831429 -0.0802341 0
-0.7713991 0.4661894 -0.0198610 0
-0.7221048 -0.0142136 0.1140178 0
0.2521948 0.0266156 0.1944989 0
-0.8025115 0.1346135 0.2029099 0
-0.8419873 0.2589388 0.1550985 0
0.2633526 0.0953156 0.2352800 0
-0.4615346 0.1245856 0.2214587 0
-0.6105152 0.4862818 -0.0182021 0
0.6504927 0.4923965 0.0041888 0
-0.5415026 0.3776896 0.1574313 0
-0.1073095 0.1801967 -0.2700980 0
-0.6483087 0.4714186 0.1388882 0
0.0639605 0.3657048 0.0825782 0
0.5237319 0.4190218 -0.0357853 0
-0.8279326 0.4042167 -0.0357172 0
0.3398497 0.1288617 -0.3002818 0
-0.5373955 0.1001474 -0.1022064 0
0.3271702 0.1577934 0.2731634 0
-0.0522015 -0.1223252 0.0627129 0
-0.1612307 -0.0382742 0.0123310 0
0.2333873 -0.0564784 -0.0928859 0
0.1301828 0.3198149 -0.0261388 0
0.5315769 0.1221109 -0.1879676 0
-0.5202183 0.0446450 -0.1154302 0
0.2175902 0.0549654 0.1672536 0
0.1791471 0.1470678 -0.1733414 0
-0.2919191 0.3098028 0.2280016 0
0.5378944 0.1222146 -0.1155243 0
0.1383521 0.2946852 -0.0867569 0
-0.3645319 0.1909733 -0.2886832 0
-0.2350524 0.2730429 0.2065333 0
0.7909359 0.2966791 -0.2368403 0
0.8652980 0.2398666 0.0894209 0
0.0339636 0.3191303 -0.2177024 0
0.7111755 0.4877399 -0.0137604 0
-0.6823415 0.3636665 0.2703014 0
-0.0342446 0.1018185 -0.3107482 0
-0.6212876 -0.0028871 -0.1229973 0
-0.3395133 0.3635446 -0.2013651 0
0.1350058 0.1930430 -0.2035651 0
0.4747506 0.0665293 -0.2207597 0
0.2041514 0.0741495 -0.1993926 0
-0.5122479 0.2297072 0.1751980 0
0.6334618 0.0704233 0.2372421 0
-0.5127479 0.3238232 -0.0170728 0
0.8189833 0.3496732 0.1540932 0
0.1716184 0.2350939 -0.0124668 0
-0.1551282 -0.0380872 0.0491139 0
0.7669905 0.4622787 0.0294951 0
-0.4299702 0.3893415 -0.1179247 0
-0.6051295 0.3184636 -0.2570983 0
-0.1082205 0.3269354 0.1276662 0
-0.2357732 -0.0694454 0.0995987 0
0.3491608 0.4064995 0.0539195 0
0.3993907 0.1708759 0.2626619 0
0.1532206 0.1538213 0.0425813 0
0.6529407 0.0087670 -0.1456057 0
-0.3665096 0.0981828 -0.2853325 0
0.6440035 0.4915494 0.0076819 0
0.0046763 -0.1211255 -0.1085234 0
0.2170900 0.2312520 0.1727756 0
-0.2742119 -0.0792414 -0.1459697 0
0.7834149 0.0422768 0.1159876 0
0.6569427 0.3695148 -0.2588010 0
0.5402895 0.1966133 0.0439687 0
-0.8438330 0.2907717 -0.1458873 0
-0.0235795 0.2555893 -0.2800493 0
0.1662056 0.1406403 -0.1445886 0
0.8416829 0.1361817 -0.1293096 0
0.5163608 0.0893349 0.1102980 0
-0.2701518 0.4054218 0.0933057 0
0.5229352 0.1207326 0.1081096 0
-0.2691037 0.2666222 -0.2505094 0
-0.8460669 0.0975680 0.0603683 0
0.3702011 0.1046967 0.2691398 0
-0.1857625 0.2116259 0.0724078 0
0.7100051 0.4725164 -0.1013385 0
0.2211711 0.3051892 -0.1605056 0
0.5299625 0.1142845 -0.1785008 0
0.3187591 0.2610731 -0.2708991 0
0.8383007 0.2228861 0.1645726 0
-0.7626730 0.1969913 0.2699553 0
0.5686999 0.4619181 -0.0086488 0
-0.0952609 0.2479543 -0.2519963 0
0.8179272 0.2836586 -0.2067061 0
-0.6742955 0.0652505 0.2476458 0
-0.5596349 0.3177929 -0.2222196 0
0.5076427 0.0306589 -0.1387012 0
-0.3125635 0.0477372 -0.2694679 0
0.3872847 0.2314690 -0.2815402 0
-0.1016774 0.3689344 -0.0412167 0
0.0718455 0.3490317 0.1112196 0
0.5934083 0.2892351 0.2803478 0
0.4266917 0.3377652 -0.1823298 0
-0.8350753 0.3388915 -0.1326387 0
0.6376612 0.3218444 -0.2830070 0
0.3242645 0.4118256 -0.0162252 0
-0.8034173 0.1432948 -0.2031348 0
0.2775079 0.3805538 -0.1101924 0
-0.6098278 0.0049533 -0.1291049 0
0.3602091 -0.0126682 0.2144128 0
0.0570215 0.1125856 -0.2955210 0
0.5194278 0.2103971 0.1053810 0
-0.5703967 0.1288147 0.2345821 0
0.1595258 0.0814987 0.0406946 0
-0.6155549 0.4254548 0.1961943 0
0.1539882 0.2796064 -0.0047317 0
-0.6913473 0.0146683 -0.1702953 0
0.3985640 0.2072406 0.2567953 0
0.3215036 -0.1082465 -0.0676885 0
-0.5310164 0.3312474 0.1782097 0
-0.4757572 0.1992299 0.0637205 0
-0.6225008 -0.0262317 -0.0507755 0
-0.1991034 -0.0511249 0.0419003 0
-0.4757015 0.2273237 -0.0789406 0
0.4083880 0.2283170 0.2452785 0
0.4603217 0.2680958 -0.0142160 0
0.4355659 0.3742365 0.0689504 0
0.4812243 0.1085277 0.1852951 0
0.7599900 0.2851249 -0.2680180 0
-0.5513610 0.2697188 0.2341896 0
0.1644356 0.1884556 -0.1349697 0
0.8442979 0.2431453 -0.1675183 0
-0.4502276 0.2349373 -0.2383993 0
0.6196042 -0.0014809 -0.1007676 0
-0.6253042 0.4807102 0.0951789 0
0.2867835 0.2394077 0.2398654 0
-0.6377561 0.4857572 -0.0728547 0
-0.5846801 0.3502300 -0.2272735 0
0.5484105 0.2008322 -0.0141899 0
-0.6999012 -0.0223717 -0.0904889 0
-0.5673181 0.3734537 0.2019568 0
-0.6619266 0.2189501 0.3092803 0
-0.6046519 0.4517007 -0.1307434 0
-0.4834054 0.2103949 0.0983143 0
0.2998209 -0.0966437 -0.0944794 0
0.8436633 0.2108218 -0.1669248 0
-0.1731457 0.2530698 0.0731692 0
0.4030629 0.4033155 0.0061473 0
-0.1340282 0.0962994 0.0012552 0
0.6350276 0.4724802 0.1147285 0
0.8663175 0.3187785 -0.0392803 0
0.6605392 0.3914496 -0.2411471 0
0.4214328 0.0772830 -0.2706726 0
0.8315672 0.3817118 -0.0848328 0
0.4671992 0.1439978 0.2081961 0
-0.7855065 0.0698635 -0.1692175 0
0.3610913 0.3957793 -0.1158911 0
0.7564884 0.1659636 0.2668166 0
-0.0625158 -0.0497904 -0.2193602 0
0.5213271 0.2376330 0.0821295 0
0.4694647 -0.0609158 0.0147484 0
0.6074479 0.0120935 -0.1260523 0
0.3093497 0.3435408 0.1731503 0
-0.3977292 -0.0280437 -0.2142715 0
-0.1587374 0.0159949 0.0258229 0
-0.8558545 0.3479435 0.0374872 0
-0.7854032 0.0488950 -0.1425053 0
0.2730285 0.1700510 -0.2798982 0
-0.4231412 0.2877406 -0.2342122 0
0.6482340 0.4105589 -0.2201712 0
-0.8524096 0.2027471 0.1291134 0
-0.0317327 -0.1322938 -0.0523350 0
0.5692180 0.3356020 0.2394916 0
-0.8198638 0.0498355 0.0604450 0
-0.5622355 0.4578192 0.0010355 0
0.6520457 0.3145664 0.2975458 0
0.4239892 0.0168548 -0.2387832 0
0.8360519 0.1126985 0.1036137 0
0.4974914 0.3241090 -0.0617177 0
0.3808758 0.1592160 -0.2975291 0
-0.7934290 0.0482707 0.1338689 0
0.7792814 0.0899594 0.1933303 0
0.7914008 0.1132401 -0.2019174 0
0.1728726 0.1077368 -0.1520733 0
-0.2016803 0.3572865 -0.0769283 0
-0.7315829 -0.0062488 0.1245782 0
0.2442506 -0.0525181 0.0920257 0
0.2056400 0.3167989 -0.1072721 0
0.5200319 0.0754508 -0.1465185 0
0.4126906 -0.1019108 -0.0092590 0
-0.7017675 0.3674101 -0.2463045 0
0.8097981 0.0692854 -0.1149212 0
0.8543912 0.1363702 0.0701997 0
-0.4742486 0.0960399 -0.2219696 0
0.3964781 0.3968903 0.0601438 0
0.4762633 0.2842635 0.0872079 0
0.3194120 -0.0248635 0.1994612 0
-0.8061385 0.2884389 0.2136647 0
0.3603135 -0.0793613 0.1312564 0
-0.8707191 0.2493239 -0.0755017 0
0.6085714 0.0409817 0.1870118 0
0.5789786 0.0602125 -0.1824774 0
-0.5522749 0.1148946 -0.1981853 0
-0.3226731 0.3616781 -0.2016779 0
-0.2798794 0.4264311 0.0312201 0
-0.6386386 0.4437024 -0.1677611 0
-0.4418295 0.4074078 -0.0092970 0
-0.7147951 0.4915672 0.0525086 0
0.6634827 -0.0241937 -0.0122180 0
0.4223596 0.3930216 0.0225514 0
-0.1148742 -0.0535769 -0.1600416 0
0.8157710 0.3714826 0.1369848 0
0.8749701 0.2827405 0.0192133 0
-0.3285002 0.4028150 -0.1470484 0
0.2744505 0.3737107 0.0929367 0
-0.2486178 0.3822294 0.1115159 0
-0.4849731 0.1186888 0.0066128 0
0.4703306 -0.0430571 -0.1108554 0
-0.4935009 0.3599854 0.0248805 0
0.5722596 0.4104700 0.1731736 0
0.7718573 0.4604011 -0.0071112 0
-0.6997530 -0.0338253 -0.0421246 0
-0.8011050 0.4214311 -0.0922672 0
-0.2098484 0.1326902 -0.2292466 0
-0.5271968 0.1928129 0.1067452 0
-0.3293500 0.0687468 0.2725876 0
-0.7172274 0.4890844 0.0638160 0
-0.4336305 0.2850202 -0.2284097 0
0.6589801 0.4914279 0.0397124 0
-0.7859538 0.0092658 -0.0458056 0
-0.3204138 0.2621295 0.2628536 0
-0.2617863 0.1774876 -0.2704496 0
-0.4539356 0.3146391 -0.1882652 0
0.3646780 0.3753554 -0.1608336 0
0.5174317 0.3490658 0.1508075 0
-0.8759988 0.2140236 0.0379631 0
-0.4310362 0.0653188 0.2367154 0
-0.6051177 0.4790165 -0.0524301 0
-0.6325858 0.3042399 -0.2738191 0
0.2022731 0.2857421 0.1038976 0
-0.3328463 -0.1005423 0.1313801 0
-0.2158553 -0.0741709 -0.0451965 0
0.8486146 0.3673421 -0.0301369 0
0.6059017 0.0282212 0.1638547 0
-0.8200296 0.3303752 0.1697553 0
-0.2113189 -0.0359386 -0.1288744 0
0.3871308 0.3869824 -0.1269448 0
-0.0758781 0.0476530 -0.2812504 0
-0.6901044 0.2738741 0.3047932 0
-0.8728947 0.2005988 -0.0595747 0
0.5007519 0.2588730 -0.1795849 0
-0.5342268 0.0317775 -0.0192147 0
0.6053708 0.1651665 -0.2785797 0
-0.6728918 0.0022173 -0.1523092 0
-0.0715199 0.3860326 0.0210230 0
-0.8059995 0.2635601 0.2201155 0
0.7899048 0.1362958 -0.2204448 0
0.6693789 0.2871931 0.3076060 0
-0.6295127 0.2174806 0.3010543 0
-0.8260712 0.2273606 0.1904584 0
-0.4229739 0.4166614 0.0311568 0
0.2208230 0.1205046 -0.2355629 0
0.4896048 -0.0189575 0.0697621 0
0.5984403 0.0514182 -0.1883998 0
-0.4778622 0.1465855 -0.0217012 0
-0.3465150 0.0012085 0.2420060 0
-0.3455220 -0.0161800 0.2301864 0
-0.4339408 0.1681800 -0.2636979 0
-0.2981533 -0.0932794 0.1309952 0
-0.2990815 -0.1021458 -0.1220522 0
-0.3815798 0.3789274 -0.1750928 0
0.4218839 -0.0845580 -0.0996313 0
-0.1768542 0.3331261 -0.0302640 0
-0.1427933 0.2160962 -0.0830319 0
0.0161559 -0.0973501 -0.1627252 0
0.5783204 0.0389265 -0.1487404 0
0.3298201 0.0364451 0.2462005 0
0.4972468 0.3140314 0.0511935 0
0.1540801 0.1003284 -0.1736716 0
0.3904151 0.3254784 0.1919959 0
-0.5490645 0.4240770 0.1020203 0
0.3078255 0.3307902 0.1870301 0
0.6123061 0.0815405 0.2371197 0
0.5875472 0.1795357 -0.2731810 0
0.7906783 0.0250501 0.0320519 0
0.6248989 0.0066866 0.1354568 0
-0.3923371 0.3426041 -0.2105110 0
0.6145551 -0.0154285 -0.0129182 0
-0.7378466 0.1230669 0.2647933 0
-0.5670411 0.0478015 -0.1501410 0
-0.7735752 0.2197692 -0.2532513 0
-0.2862721 0.4150097 -0.0980195 0
0.2859530 0.3989998 -0.0470245 0
-0.0598231 0.3862154 0.0523364 0
-0.5981835 0.1417594 0.2662613 0
-0.7071863 0.0834451 0.2558959 0
0.5083277 0.1409780 0.1437564 0
0.2437810 0.3760892 -0.0149441 0
-0.3447207 0.3449410 -0.2195807 0
-0.6725227 0.2116366 0.3094048 0
-0.4944132 0.1450364 -0.1080235 0
-0.0441375 0.2711649 -0.2656830 0
0.1803472 0.0241408 -0.1022091 0
0.5952186 0.4640138 -0.0889442 0
0.6785966 0.2565341 -0.3034146 0
-0.5192747 0.0781738 -0.0987128 0
-0.2274580 -0.0882889 -0.0178017 0
0.0587494 0.3793476 0.0391147 0
0.3777762 0.2988482 0.2203123 0
-0.0968808 0.0772888 -0.2770180 0
-0.5015456 0.3295579 0.1110655 0
-0.7985544 0.0496435 0.1252377 0
-0.6617057 0.4544020 0.1758989 0
-0.4725422 0.2148549 -0.0602897 0
0.5805408 0.1162072 0.2400178 0
-0.5433908 0.1226748 -0.1918824 0
0.6048270 -0.0046551 -0.0684335 0
-0.7610627 0.0624427 -0.1887884 0
0.5537156 0.3123361 0.2339384 0
0.1342942 0.1274458 -0.2166553 0
-0.3333701 0.2478511 0.2699518 0
-0.8342050 0.3232310 -0.1477517 0
-0.2458029 0.3654388 -0.1493667 0
-0.4859919 0.2112375 -0.2077694 0
-0.1734349 -0.0071525 -0.0737925 0
-0.8418723 0.3521367 0.0945390 0
-0.3194040 0.0616081 -0.2758507 0
-0.4296767 0.3551892 0.1585706 0
0.2067263 0.1774715 0.1737267 0
0.0626839 0.0769576 -0.2859966 0
-0.3864674 0.2313592 -0.2753217 0
0.4959928 0.0869374 0.1550298 0
0.7503310 0.0208160 0.1272488 0
0.5394250 0.2368429 0.0011582 0
0.4294910 0.1389072 0.2450017 0
-0.0783777 0.3820939 -0.0494056 0
-0.0703604 -0.1239083 -0.0107333 0
-0.8012187 0.1721859 0.2209812 0
-0.4867414 0.2382307 -0.1199264 0
-0.1736888 0.2812670 -0.0391373 0
-0.5333477 0.1975363 0.0874014 0
-0.6213539 -0.0291635 -0.0292596 0
0.2249455 -0.0611319 -0.0197094 0
-0.5571941 0.3149834 0.2269005 0
-0.6326897 -0.0044015 0.1451511 0
0.4076800 0.3971386 -0.0686671 0
0.5843870 0.3376642 0.2528962 0
0.4890181 0.1808539 -0.2190600 0
0.8403729 0.1090353 -0.0965986 0
0.5471773 0.4276313 -0.0977207 0
0.1803914 0.1103695 0.0357430 0
0.4330184 -0.0725377 0.0832672 0
0.2910965 0.3756291 -0.1379866 0
0.3651033 -0.0151916 -0.2377967 0
-0.2898596 0.0959521 0.2688440 0
-0.0483754 -0.0331702 -0.2430284 0
0.5133191 0.0054975 -0.0784362 0
-0.2786414 0.0937045 0.2627894 0
-0.2910417 0.4002554 0.1268298 0
-0.8652397 0.1406170 0.0348229 0
-0.5105453 0.1993425 0.1685951 0
-0.4737632 0.0784998 -0.2170577 0
0.4708472 -0.0274804 0.1013479 0
0.6015038 0.4742583 -0.0570399 0
0.5172361 0.3720879 -0.1334898 0
-0.6856183 -0.0280029 -0.0777867 0
0.4002096 -0.0911168 -0.1091114 0
-0.6991983 0.1126495 -0.2589147 0
-0.7649727 -0.0107347 -0.0171867 0
-0.4993303 0.1785182 0.1361933 0
0.7638416 0.3393505 0.2425632 0
-0.7669371 0.1280971 -0.2334226 0
-0.3135310 0.3829571 -0.1739765 0
0.7083939 0.4830377 -0.0601428 0
0.4364707 0.0577041 0.2198954 0
0.6887298 -0.0220122 0.0378690 0
0.6855848 0.0727924 -0.2360682 0
-0.0356065 0.3829644 0.0925546 0
0.1791327 0.0599391 -0.0253048 0
-0.6366134 -0.0311958 0.0632445 0
-0.5250077 0.1045581 0.1466571 0
0.2865013 -0.0013788 -0.2333262 0
0.5817617 0.4130726 0.1814637 0
-0.1679202 0.2934125 -0.0014562 0
-0.6899642 0.4910276 -0.0643574 0
0.5050130 0.1487832 0.1474187 0
-0.8231764 0.3733388 0.1218395 0
0.4074138 -0.0472231 0.1581731 0
0.8315326 0.1342186 0.1397151 0
0.7917634 0.2655866 -0.2444156 0
0.8228552 0.4025455 0.0547348 0
0.0787030 0.3711640 -0.0285085 0
0.1768209 0.0735994 0.0327902 0
0.4588250 0.2152648 -0.0057712 0
-0.1817657 0.2194919 -0.1247198 0
-0.0130136 -0.1277270 -0.0868204 0
-0.2254222 0.3711393 -0.1073313 0
0.5960179 0.3346072 -0.2598450 0
0.8485317 0.3683522 0.0178054 0
0.7896714 0.4320959 -0.0886470 0
0.4955418 0.0892532 -0.0253223 0
0.1848894 0.2946258 -0.0793201 0
-0.3212233 0.1637163 0.2842579 0
0.2006344 0.2276489 0.1469036 0
-0.5174940 0.3288333 0.1527418 0
0.6815587 0.4749394 0.1177860 0
-0.6043726 0.1589970 -0.2630650 0
-0.5875665 0.2270847 0.2758142 0
0.2550803 -0.0658520 -0.1167273 0
0.8782975 0.2329462 -0.0356114 0
0.5388963 0.2213385 -0.0794773 0
-0.1584195 0.1578853 -0.2097636 0
0.5152664 0.4073616 -0.0415806 0
0.5452335 0.2731245 0.2365077 0
0.5426214 0.0310442 0.0412711 0
0.3197195 -0.1039899 -0.0863046 0
0.5502144 0.1134315 -0.0100653 0
0.5965449 0.4433768 0.1485518 0
-0.5419140 0.2017294 -0.2208200 0
-0.7953973 0.0753353 0.1664812 0
-0.7132353 0.2731498 0.2988131 0
0.7987900 0.2690571 -0.2359566 0
0.6877850 0.2761426 -0.2995821 0
0.3644525 0.1429356 0.2741526 0
-0.3402720 0.4187598 -0.1159189 0
0.7154965 0.3585384 0.2654743 0
-0.4730935 0.1801684 0.0357260 0
0.1947055 -0.0186817 -0.0611370 0
0.8176304 0.3882521 0.1071217 0
-0.3495759 -0.0845774 -0.1650468 0
0.6052542 0.0396525 -0.1767258 0
-0.5416904 0.0796641 -0.0663551 0
-0.5360565 0.3980665 -0.1156680 0
-0.1857580 0.0197506 0.0270662 0
-0.2251459 0.3541521 0.1195871 0
0.4634880 0.2015962 -0.0525522 0
-0.5017776 0.3385102 -0.0440301 0
0.4337867 -0.0881016 0.0229686 0
0.3041328 0.1377436 -0.2941902 0
0.2980519 0.1159202 0.2614815 0
-0.1884473 0.2474704 -0.0037330 0
-0.7396023 0.2596464 -0.2735548 0
-0.3166663 0.2112473 -0.2848983 0
-0.7737635 0.2009222 0.2601069 0
-0.5250922 0.1841164 0.1143749 0
-0.6142896 0.1407072 -0.2613102 0
-0.7904956 0.4105320 0.1416649 0
-0.2465099 0.1496885 0.2473128 0
0.5585548 0.4165566 -0.1440423 0
-0.6270048 -0.0194357 0.1012188 0
-0.7085230 0.4920859 -0.0425004 0
-0.0438758 0.2412908 -0.2838141 0
-0.1074491 0.3160807 -0.1742085 0
-0.4928730 0.3487918 0.0508847 0
-0.5566028 0.0071300 0.0011437 0
-0.3176140 0.2052708 -0.2862204 0
-0.4914442 0.2076029 0.1233354 0
-0.3425612 -0.0869928 -0.1617391 0
0.0318312 0.1541207 -0.3067045 0
-0.1514162 0.2694175 -0.0578855 0
-0.6249372 0.4639980 -0.1236882 0
-0.5805480 0.3005414 0.2581238 0
-0.6351561 0.1042292 -0.2510543 0
-0.0956325 0.1456091 -0.2847071 0
0.6792814 0.4859212 -0.0677207 0
0.6576273 0.2652284 -0.3021977 0
-0.3047284 -0.0899072 -0.1486635 0
-0.3396669 0.3853387 -0.1750222 0
0.3902437 0.4034016 -0.0666891 0
-0.6265455 0.0620204 -0.2162306 0
0.3420916 0.4049158 0.0601831 0
0.2372001 0.2330714 0.1989781 0
0.6384437 0.1153422 -0.2665511 0
0.5381478 0.0553892 -0.0401091 0
-0.3090826 0.3350138 -0.2236595 0
-0.1340719 0.1652682 -0.0630556 0
0.5216407 0.0569850 -0.0591863 0
-0.0959558 -0.0330999 -0.2108468 0
0.2888780 -0.0928568 0.0642863 0
0.4707545 0.3116183 0.0322006 0
-0.0882824 -0.0128561 -0.2367733 0
-0.7410325 0.1850417 -0.2702972 0
-0.5260543 0.2952294 -0.0240026 0
-0.5464319 0.4234219 0.0963293 0
0.4050350 0.2504849 -0.2671247 0
-0.1734533 0.2536128 0.0712171 0
-0.4660114 0.0718805 -0.2231400 0
0.2675680 0.1760399 0.2436010 0
0.1647362 0.2523549 0.0035858 0
0.3927887 -0.1028330 -0.0747252 0
0.7224714 -0.0080574 0.0781064 0
0.1955258 -0.0155457 -0.0767214 0
0.4726505 0.2995409 -0.0770267 0
0.2289459 0.3132482 -0.1631246 0
0.6468534 0.4288450 0.2059708 0
0.2381735 0.1019815 0.2124218 0
0.5661857 0.1868991 -0.2595173 0
0.1731624 0.0361427 -0.0299613 0
0.1966109 0.2918282 0.0813570 0
0.2512207 -0.0693273 -0.0995726 0
0.8334907 0.0719955 0.0024289 0
-0.1900883 0.1449668 -0.2058238 0
-0.2382751 0.4049130 -0.0011341 0
-0.8601159 0.2464986 -0.1170542 0
0.6063866 0.4803350 0.0324076 0
-0.1744754 0.2017958 -0.1750802 0
-0.3048998 0.1621067 -0.2882928 0
-0.4881848 0.3051596 0.1239277 0
-0.7803100 0.2727236 0.2509141 0
0.2013896 0.0077654 0.0958373 0
0.3353757 0.2601993 -0.2740983 0
0.3542160 0.3038385 -0.2468306 0
-0.7081433 0.4370517 0.1945545 0
-0.6142262 0.0905430 -0.2335625 0
-0.8026390 0.0199001 0.0136543 0
-0.7660983 0.3728616 -0.2071372 0
-0.1838042 0.2604402 -0.0234837 0
-0.4162229 0.2649522 -0.2502466 0
-0.0561208 0.2593874 -0.2691413 0
0.4627142 0.3313991 -0.1456816 0
0.5898814 0.1010432 0.2371966 0
0.0704774 -0.0987984 0.0768843 0
0.3541433 0.1848984 -0.2986392 0
-0.2810234 0.1722040 0.2700952 0
0.4565181 0.3463787 -0.1296482 0
0.2552577 0.0128403 -0.2219789 0
-0.3224126 0.2189246 0.2770734 0
0.6625364 0.4877474 0.0682006 0
-0.5918284 0.3170797 0.2617974 0
-0.3613794 0.4158128 -0.1196750 0
0.5610029 0.0131746 0.0246032 0
-0.2973385 0.3896710 0.1492299 0
0.4203962 -0.0085793 0.1901401 0
-0.1128057 -0.0883753 -0.0831179 0
-0.6459531 -0.0377010 0.0038867 0
0.1279028 0.1228291 -0.2266872 0
0.7440324 0.3573157 0.2484921 0
-0.1789282 0.2041797 -0.1463714 0
-0.1115832 -0.0231378 -0.2036507 0
0.7045084 0.2343882 -0.3004769 0
0.6887451 0.0780168 0.2493160 0
0.4602169 0.2692475 -0.0075380 0
0.4052057 0.3553604 -0.1749232 0
0.2759965 -0.0827998 -0.1063386 0
0.3825022 -0.0322530 0.1902434 0
-0.5860116 -0.0148785 0.0096488 0
-0.6632145 0.4039965 0.2388946 0
0.1356558 -0.0471264 -0.0308641 0
-0.5264056 0.0728006 0.0896296 0
0.1642717 0.2491065 -0.0705138 0
0.5248289 0.2404889 0.0681993 0
-0.4260909 0.0820402 0.2459925 0
0.7876507 0.2096426 -0.2496861 0
0.0749807 0.3472747 0.1096115 0
-0.5169168 0.1582848 0.1677727 0
-0.3465501 -0.0650965 0.1844158 0
0.6180118 0.4283198 -0.1863423 0
-0.7060877 0.0508839 -0.2106272 0
0.4093289 0.3471392 0.1544484 0
0.2830415 0.3688365 0.1144510 0
-0.1328749 0.0888817 -0.2441487 0
-0.6261213 0.4751150 -0.0971108 0
-0.3684700 0.2647949 -0.2678704 0
0.3423478 -0.0932673 -0.1282118 0
-0.1697561 0.1457032 -0.1894674 0
0.6494685 0.4907951 0.0373397 0
0.2686143 0.2701324 0.2110806 0
-0.5927808 0.4747849 0.0542162 0
-0.3973626 0.1663428 0.2729347 0
0.5560773 0.0522252 -0.1400574 0
0.1558580 0.0023298 0.0398151 0
-0.5128192 0.0897915 0.0963863 0
0.6829382 0.4587088 -0.1487728 0
0.7054339 0.2459086 -0.2999308 0
0.2499243 0.0483829 -0.2402315 0
-0.6226916 0.4719555 -0.1026011 0
-0.5530909 0.0950092 -0.1838302 0
0.4640229 -0.0251251 -0.1557624 0
0.1230493 0.3195626 -0.0808214 0
0.4775013 0.3426696 -0.0015264 0
-0.1912693 -0.0492735 -0.0044457 0
0.4976882 0.1706776 0.1624275 0
-0.4565591 0.3954564 -0.0156024 0
-0.1467048 0.0422022 -0.0267150 0
0.1802797 0.1950357 -0.1678502 0
-0.6442060 0.2692836 0.3030664 0
-0.6786301 0.3192163 -0.2745042 0
0.2970535 0.3923676 -0.1000602 0
-0.4955797 0.3468220 0.0274682 0
0.2732341 -0.0912776 0.0383033 0
0.8104166 0.1578659 -0.2062379 0
0.6929970 0.4368328 0.1939360 0
-0.2738752 -0.0541593 -0.1807021 0
0.7322165 -0.0108390 -0.0326074 0
0.7595481 0.1752702 -0.2659271 0
0.2185145 0.1132143 -0.2315942 0
-0.6469926 0.1121747 -0.2586443 0
0.0999100 0.3177963 -0.1490551 0
-0.0718973 -0.0719195 -0.1840282 0
0.5196602 0.1141580 0.1501347 0
-0.1195268 -0.0190687 -0.1974187 0
-0.8276948 0.0833161 -0.1051513 0
-0.6752539 -0.0380016 -0.0279182 0
0.2313248 0.3651819 -0.0060733 0
-0.3546251 0.4263227 -0.0941860 0
-0.4417413 0.1372568 0.2426389 0
0.4616725 0.3507184 0.0726399 0
-0.1526685 0.0316070 0.0241722 0
0.2842616 0.3509940 0.1459686 0
0.1157271 0.0706517 -0.2333732 0
0.1597237 0.2615770 -0.0553836 0
-0.3207593 0.0378348 0.2596776 0
0.1329077 0.1194748 -0.2185262 0
-0.7469134 0.3845666 -0.2127731 0
0.6626697 0.3388169 0.2876371 0
-0.2424997 0.4003562 -0.0659898 0
0.1641911 0.2556791 -0.0279352 0
0.7150971 0.4572318 0.1453136 0
0.1847533 -0.0074175 -0.0311188 0
0.6913615 0.0212262 0.1769913 0
-0.4639561 0.0923488 -0.2318639 0
0.3552437 -0.1130630 0.0242275 0
-0.4550514 0.3576358 0.1200433 0
-0.1711593 -0.0238062 -0.0203681 0
0.3178803 0.2927299 -0.2513185 0
-0.4473344 0.3890273 -0.0871795 0
0.5241426 0.1694899 0.1969039 0
-0.2507440 0.1743917 0.2500148 0
-0.8679439 0.1413612 0.0124774 0
-0.0403541 -0.1116688 -0.1292001 0
-0.7276965 0.1435808 -0.2643451 0
0.2869557 0.3803314 0.0935419 0
0.1906019 0.3078037 0.0270555 0
-0.3906417 0.3102600 -0.2368867 0
0.3063050 0.3647046 -0.1691885 0
0.2209598 -0.0217156 0.0993027 0
0.2460128 0.1072582 0.2219806 0
0.6007640 0.2614295 -0.2863838 0
-0.1415226 0.1487840 -0.0998679 0
0.8195528 0.0794028 0.0995405 0
0.8508915 0.3640364 0.0149241 0
-0.4575378 -0.0656370 0.0870500 0
-0.0699321 -0.0999351 -0.1329433 0
-0.8779188 0.2047354 -0.0174238 0
0.1614783 0.0603313 0.0250915 0
0.6464041 0.1629375 -0.2909936 0
0.3868043 0.3987807 -0.0917406 0
0.7484318 -0.0050626 0.0203157 0
-0.2075758 0.0131346 -0.1775072 0
0.5764299 0.0073276 -0.0563501 0
-0.8264067 0.3635077 -0.1268915 0
0.2614733 0.3862740 -0.0474223 0
-0.2234189 0.0114939 -0.1964538 0
0.2753937 0.1225577 -0.2806146 0
-0.5897578 0.4718135 -0.0478070 0
0.4096598 -0.0535061 0.1475562 0
-0.0205695 0.3066217 -0.2412792 0
0.4099554 0.3791306 -0.1260344 0
0.5338883 0.2281165 0.0458792 0
0.0419426 0.3595740 -0.1503516 0
-0.5926765 0.0741617 0.2190711 0
0.1642916 0.2616112 -0.0258731 0
0.1263963 0.2517071 -0.1821837 0
-0.3126062 0.3636973 -0.1972024 0
-0.6407046 0.3411346 0.2783441 0
0.3462075 0.4134424 -0.0259393 0
0.2974045 0.0188801 0.2247982 0
-0.8747332 0.2166992 0.0467416 0
0.2449265 -0.0777581 0.0020588 0
0.1943462 -0.0071381 -0.0938791 0
-0.5286101 0.4147662 0.0559408 0
-0.7469891 -0.0212146 -0.0157979 0
0.6668060 0.4434113 -0.1781162 0
-0.7941208 0.4244637 -0.1027431 0
0.3563663 0.2936126 0.2282717 0
-0.1556699 0.0781777 -0.1204134 0
0.7771843 0.0143289 0.0351397 0
-0.4354027 0.1856790 -0.2611394 0
0.1290497 -0.0380349 0.0685751 0
-0.0576837 0.0317601 -0.2832587 0
-0.7475139 0.0158896 -0.1385909 0
0.2344987 -0.0215902 0.1255698 0
0.1875936 0.1075883 -0.1840247 0
0.2027698 0.3081990 -0.1157931 0
-0.0269642 0.3406916 0.1812623 0
0.7265696 0.1575682 -0.2786764 0
-0.0803431 0.2506640 -0.2614908 0
-0.3466370 -0.1078980 0.1167433 0
-0.0076932 -0.0544194 -0.2291840 0
0.4886556 -0.0263599 0.0567794 0
-0.3732253 0.1558707 -0.2895947 0
-0.3749322 -0.1156301 -0.0941800 0
0.0686644 0.3728462 0.0428757 0
-0.7235249 0.0115785 0.1679363 0
0.4441078 0.1787757 0.2308506 0
0.2586860 0.3518980 -0.1477759 0
-0.0419959 0.1466350 -0.3105842 0
0.7729946 0.3691552 -0.2113113 0
-0.6648195 0.0437443 0.2267276 0
0.1817902 0.2905153 -0.0742267 0
-0.2689199 -0.0788049 0.1307916 0
0.2215504 0.0640955 -0.2186335 0
-0.8281353 0.1834346 -0.1825506 0
0.4908852 0.2763076 -0.1532396 0
0.2185608 0.2150812 0.1817724 0
-0.1155154 0.1069253 -0.2666060 0
-0.6995385 0.4471059 0.1835310 0
-0.4900486 0.3189600 0.1035882 0
-0.1963722 0.1605980 -0.2142832 0
-0.4699300 0.2079702 0.0334107 0
0.6057512 0.0304732 0.1677026 0
-0.3923026 0.3346934 -0.2175558 0
-0.4386382 0.4067900 0.0289959 0
0.4876280 0.3374456 -0.0610259 0
0.7295848 0.3205044 0.2790973 0
0.5989531 0.3080324 -0.2736661 0
0.1043933 0.3327165 0.0763792 0
0.3584121 0.4134018 -0.0102060 0
0.2342385 -0.0692262 -0.0317033 0
0.0797156 0.1674418 -0.2780242 0
-0.6987231 0.4436127 0.1890716 0
0.1476378 0.1732937 0.0060012 0
-0.0372405 0.3748952 0.1142395 0
-0.6125836 0.0850475 0.2437230 0
-0.2643947 0.1517202 -0.2729235 0
0.6256540 0.1446821 -0.2786375 0
-0.4320490 0.3664037 -0.1545044 0
0.5110936 0.0750523 -0.1670656 0
-0.6285601 0.3862868 0.2440086 0
-0.4203829 0.2572234 -0.2512504 0
0.3348218 -0.0987542 -0.1118791 0
-0.4540665 0.3174440 -0.1856061 0
0.3365002 0.1871863 -0.2978892 0
0.3285592 0.4072451 -0.0698003 0
0.7765913 0.4510316 -0.0579626 0
-0.2914029 0.3508510 -0.2027101 0
0.4982193 0.2658696 -0.1617355 0
0.1813848 0.2187978 -0.1594886 0
-0.2076577 0.3768593 -0.0057823 0
-0.5084535 0.3204493 -0.0668269 0
-0.7090623 0.1538999 0.2918158 0
0.2621555 -0.0898793 0.0002963 0
0.2480811 0.3687311 0.0540490 0
-0.6136615 0.4026223 -0.2052776 0
0.5341659 0.2307498 0.0417795 0
0.5506302 0.4066081 -0.1477876 0
0.5421696 0.0499972 -0.1075606 0
-0.8573400 0.3497513 -0.0175968 0
-0.6276234 0.2874943 -0.2770281 0
-0.8771151 0.2391733 0.0317310 0
-0.5592541 0.2819988 0.2411172 0
0.4092444 0.2761751 -0.2509522 0
-0.5741295 0.0097128 0.0984103 0
0.7601338 0.0734946 0.1995024 0
-0.8359040 0.2005055 -0.1728584 0
0.3015870 0.2671044 0.2342711 0
-0.7034791 0.3091951 -0.2748582 0
0.8098686 0.3721075 0.1490522 0
-0.0247700 0.1766936 -0.3098967 0
-0.6061153 0.0338936 -0.1730267 0
0.6086572 0.4821677 -0.0117324 0
-0.1835632 0.1235544 -0.1562853 0
0.7272068 0.0232190 0.1592916 0
-0.3239003 0.1855569 -0.2900003 0
-0.1211128 0.3118716 0.1280305 0
0.4880218 0.3467921 0.0655941 0
-0.1802022 -0.0299194 -0.0374860 0
0.3640437 0.3547518 0.1669316 0
0.3498846 0.0156401 0.2359508 0
0.4241632 0.3767710 0.0828363 0
-0.6671219 -0.0398565 0.0183531 0
0.7848508 0.2605223 0.2488277 0
-0.5324783 0.2175517 -0.1133118 0
0.3942530 -0.0613156 -0.1753538 0
-0.4069015 -0.1194816 0.0109848 0
-0.7614442 0.0168086 0.1348684 0
0.7448965 0.0836700 0.2250506 0
0.5430560 0.0455017 0.0948863 0
0.4682117 0.3187533 -0.1555368 0
-0.5634320 0.0537190 -0.1531811 0
-0.2647133 0.2208568 -0.2645148 0
0.6390320 0.4779659 -0.0909391 0
-0.1428384 -0.0591129 0.0401163 0
-0.6188945 0.1553219 0.2844170 0
0.2796689 0.1671491 0.2530141 0
-0.5596874 0.0085598 0.0480009 0
-0.0675965 -0.1233284 0.0216046 0
0.1859949 0.0150975 0.0610988 0
-0.5542975 0.1858059 0.2369436 0
0.0859267 0.2780635 -0.2179035 0
-0.6608170 0.4909132 -0.0667234 0
-0.6427867 0.0419442 -0.2020057 0
-0.1981629 0.1720738 -0.0930580 0
0.4606492 -0.0550263 0.0686522 0
0.5515426 0.4034172 -0.1542695 0
-0.4755403 0.1948275 0.2024697 0
0.7615842 0.0016175 -0.0026620 0
-0.2092892 0.3702818 0.0454997 0
-0.7821770 0.4533220 -0.0493416 0
-0.6482091 0.4497751 0.1798990 0
0.5560999 0.3554408 -0.2130381 0
0.5422096 0.2301782 -0.0291597 0
-0.1801399 0.2451380 0.0560541 0
-0.5524955 0.1243270 0.0022676 0
0.1499093 0.1314927 -0.1870191 0
-0.4889999 0.0926426 0.1781179 0
0.3072386 -0.0714523 0.1335285 0
0.1280301 0.0141878 -0.1804067 0
0.4875268 0.1894266 0.1758699 0
-0.7816128 0.2287276 -0.2466293 0
0.2268254 -0.0387650 -0.1204807 0
-0.7466558 0.3821504 0.2284467 0
-0.4491707 0.2635358 0.2106557 0
-0.5467404 0.1423771 -0.0781805 0
-0.8502629 0.1566613 0.1152949 0
-0.7012902 0.0117348 0.1809167 0
0.0781365 0.2641034 -0.2373212 0
-0.4529984 0.2684430 -0.2212316 0
0.1758222 0.1311348 -0.1648260 0
-0.6762087 0.0489503 -0.2138343 0
-0.0107135 -0.1334070 -0.0557298 0
-0.8138102 0.0552434 -0.0936792 0
0.4658569 0.3037538 0.0008399 0
0.1539760 -0.0069009 -0.0674246 0
-0.6864259 0.4991097 0.0276683 0
0.4426754 0.2439741 -0.2469731 0
0.5322281 0.0534772 -0.0889495 0
-0.1510298 0.0371260 -0.0530453 0
0.5608749 0.3551986 -0.2183866 0
-0.2038349 0.0790848 -0.0063524 0
0.6183663 -0.0111637 0.0671368 0
-0.7815311 0.4122820 -0.1468008 0
0.7168829 0.4418733 0.1740164 0
-0.8769948 0.2389734 0.0326659 0
-0.1530341 0.3080216 -0.0784707 0
0.5053562 -0.0192925 -0.0082936 0
-0.5145591 0.0638387 0.0455708 0
-0.2134998 0.3747294 -0.0650417 0
-0.1624698 0.0966141 -0.1475534 0
-0.7253049 0.4578525 -0.1333668 0
-0.7717840 0.3909794 -0.1848941 0
0.8096177 0.0781452 -0.1312574 0
-0.3909993 0.4295354 0.0424892 0
0.2974159 0.0965813 0.2576072 0
-0.6442911 0.4484937 0.1804284 0
0.8501309 0.3039046 -0.1309120 0
-0.5107981 0.0944255 0.1390783 0
-0.4158430 0.4216627 0.0229464 0
0.0377754 0.3559802 0.1396635 0
-0.0799651 0.3318518 0.1595766 0
0.3501115 -0.1013324 0.0798282 0
0.4006663 0.1840490 0.2604631 0
0.6582253 -0.0177004 -0.0648731 0
-0.4461825 -0.0147430 0.1739985 0
0.2789656 0.0386382 0.2251323 0
-0.5217877 0.0442314 -0.1102404 0
-0.7221677 0.1157196 0.2699211 0
0.4115524 0.3730827 0.1085112 0
-0.5801480 0.2658706 -0.2562924 0
0.3307692 0.1770158 0.2723416 0
0.8294357 0.1903524 -0.1895593 0
0.6182455 -0.0001216 0.1106360 0
0.5412430 0.1674845 -0.1047155 0
-0.4394293 -0.0352276 -0.1762319 0
0.2556421 0.2842742 -0.2232316 0
0.5065241 0.0011786 -0.0977202 0
0.1289919 0.3029029 0.0676585 0
0.0556070 0.1347727 -0.2971623 0
-0.8014737 0.3585972 -0.1778820 0
0.2604718 0.0066473 -0.2216004 0
-0.1380556 0.0794586 -0.0373015 0
-0.1759811 0.1246658 -0.1819591 0
0.0613999 0.3252591 -0.1902506 0
0.4597552 0.1856255 -0.2513749 0
0.6594803 0.3353438 0.2891856 0
0.2101249 0.1690214 -0.2235679 0
0.5013317 0.1320815 0.1240037 0
-0.0254075 -0.1145389 -0.1282479 0
0.7410672 0.2795584 0.2854027 0
-0.8015021 0.0819640 0.1629813 0
-0.5781810 -0.0078124 -0.0254694 0
-0.6214247 0.3912964 -0.2199628 0
-0.7361653 0.4749753 0.0934098 0
0.5772170 0.2873231 0.2677664 0
0.0668695 0.3753165 -0.0595297 0
-0.7062097 0.2631783 -0.2852916 0
-0.0014462 -0.0074908 -0.2700071 0
-0.0108878 0.4008223 -0.0033326 0
0.7168813 -0.0153577 0.0457559 0
0.2578473 0.3841572 -0.0458876 0
0.5749509 0.0030894 0.0173186 0
-0.4825243 0.2856005 0.0802559 0
-0.5198482 0.2553644 0.1879311 0
0.5902351 0.4735922 0.0264503 0
-0.7346755 0.4391812 0.1737642 0
0.6005777 0.0823939 -0.2249569 0
0.7232276 -0.0008312 0.1046113 0
0.2254986 -0.0215560 0.1090535 0
-0.5379779 0.0658645 0.1290166 0
0.7345565 0.0003314 0.0924796 0
0.0695379 0.3218283 0.1611992 0
0.4553730 0.1345371 0.2211986 0
0.3517100 -0.1149356 -0.0300032 0
-0.8166245 0.2777487 0.2002878 0
-0.8369209 0.3941579 -0.0038037 0
-0.1599992 0.2799099 0.0785879 0
0.8118878 0.4127166 0.0695697 0
-0.1688177 0.2586977 -0.1341328 0
0.8674573 0.1683604 0.0486748 0
-0.7530193 0.0655339 0.2115517 0
0.4803414 0.2661700 0.1508044 0
-0.7595174 0.3125791 -0.2479750 0
-0.8257818 0.0707457 -0.0885615 0
-0.8566880 0.2568615 0.1168219 0
-0.3273555 -0.1330465 -0.0137798 0
-0.0839380 0.3333664 0.1527601 0
-0.3366139 0.0336223 0.2596030 0
-0.1433024 0.0645745 -0.0543975 0
0.4766085 0.2032566 0.0973640 0
-0.1851272 0.3002478 0.1065349 0
-0.5724152 0.2313514 -0.2532862 0
-0.2008936 0.3168793 0.1225626 0
-0.1375018 0.2383211 -0.2099146 0
-0.6875513 0.4928064 -0.0572623 0
-0.1791470 0.3344349 0.0215248 0
0.2421191 -0.0470831 0.0986778 0
-0.7989748 0.0205748 0.0472365 0
0.1818142 0.1650753 0.0213920 0
0.3609808 0.0523797 0.2546551 0
0.6020278 0.3565617 0.2548092 0
-0.7927319 0.1446094 0.2219038 0
-0.5071075 0.3796408 0.0549033 0
0.3035513 0.0877865 0.2581724 0
-0.4442060 -0.0142885 0.1767514 0
0.2492790 0.0058428 0.1754976 0
0.6023399 0.1688160 -0.2783161 0
0.5200308 0.1005795 -0.1450702 0
0.5466602 0.0320431 0.0641399 0
-0.7046271 0.4660660 -0.1296286 0
-0.8259543 0.1859725 0.1847649 0
-0.7458135 0.3526650 0.2503825 0
0.8196946 0.2471415 0.2005870 0
-0.1657598 0.2965652 0.0030751 0
-0.3828221 -0.0735550 -0.1716406 0
0.5974668 -0.0068141 0.0417637 0
0.7637837 0.3534777 0.2333340 0
-0.5941538 -0.0182834 -0.0188059 0
0.5213795 0.1267610 -0.1750740 0
-0.7459103 0.4245317 -0.1705232 0
0.3378230 0.2853696 0.2336306 0
-0.8322847 0.3536323 -0.1241153 0
0.6880586 0.4918276 0.0241257 0
-0.2741885 0.4235702 -0.0433668 0
0.2916051 -0.1034420 0.0139233 0
0.1986554 0.2406704 0.1356566 0
-0.2933278 0.4118998 0.1041638 0
-0.8494168 0.1704930 0.1258035 0
-0.2646850 0.2474577 -0.2560709 0
0.7209381 0.0002774 -0.1039164 0
0.5180715 0.0190498 0.0404489 0
-0.1743180 0.0650995 -0.1620855 0
-0.0564817 0.3516175 -0.1708250 0
0.8629616 0.3311493 -0.0347707 0
0.4184278 0.1778695 0.2512556 0
-0.1129268 0.3524040 0.0555772 0
-0.7745119 0.4508653 0.0912648 0
0.0669656 0.3682434 0.0675996 0
0.2824926 0.3559259 0.1367643 0
-0.3383627 -0.1130382 -0.1114361 0
0.5455860 0.0821498 -0.0223153 0
0.5320872 0.3167731 0.2014387 0
-0.3094104 0.2705446 0.2566002 0
0.1045322 -0.0706502 -0.1007911 0
-0.3667635 -0.0129764 -0.2367287 0
0.6303420 0.1144482 0.2715130 0
0.7060435 0.1264591 0.2793660 0
0.8383501 0.3623254 -0.0992014 0
-0.6583737 0.4100935 -0.2138946 0
0.7725012 0.1301752 0.2339170 0
0.0932712 0.2886051 -0.1986737 0
0.3783353 0.2286212 0.2579158 0
0.3526931 0.0444241 0.2517334 0
0.5245835 0.1060977 0.0995090 0
0.5844995 0.3915494 -0.2077711 0
-0.1299826 0.3458956 -0.0218191 0
-0.1959236 0.2785891 -0.1722291 0
0.6060603 0.4602591 0.1210825 0
-0.5279503 0.1941021 0.1043268 0
-0.4182579 -0.0141892 -0.2139259 0
0.4375865 0.3384190 0.1371236 0
-0.6069556 0.0479959 -0.1909311 0
0.1446384 0.2526838 0.0980079 0
-0.5787137 0.0456645 0.1726864 0
-0.3245064 0.2983519 -0.2524715 0
0.6444156 0.1630515 0.2993248 0
-0.4707106 0.2468686 0.0407811 0
-0.7123619 0.3013719 0.2921894 0
0.8575637 0.2825291 -0.1220716 0
0.4082695 0.1937196 0.2548591 0
0.1643258 0.0598322 0.0389642 0
-0.1699005 -0.0099015 -0.0461001 0
0.5932865 0.3526230 -0.2472683 0
0.1758056 0.0418993 -0.1117845 0
-0.4959159 0.3577763 0.0482455 0
0.6714879 0.0204077 -0.1697990 0
-0.6970945 0.2628223 0.3052476 0
-0.0586550 0.3532332 -0.1664003 0
-0.2445161 -0.0301298 -0.1821986 0
0.2118568 0.3378962 0.0317097 0
0.0451813 0.1682973 -0.2995390 0
-0.5547780 0.4218538 -0.1137784 0
-0.5318418 0.1714146 0.0982868 0
0.1929780 0.1878524 -0.1944787 0
0.1647697 0.2339890 0.0463490 0
-0.7488526 -0.0010392 -0.1007068 0
-0.2681476 -0.0856756 0.1174952 0
-0.0911305 0.2395634 -0.2602142 0
0.0265329 0.1208734 -0.3091637 0
-0.3277715 -0.0914965 0.1465933 0
0.1997071 0.2749273 0.1098932 0
0.2233781 -0.0589226 -0.0030232 0
-0.3874322 -0.1084682 0.0963836 0
