# .PCD v0.7 - synthetic VGP smoke-test fixture
VERSION 0.7
FIELDS x y z rgb
SIZE 4 4 4 4
TYPE F F F F
COUNT 1 1 1 1
WIDTH 256
HEIGHT 1
VIEWPOINT 0 0 0 1 0 0 0
POINTS 256
DATA ascii
-0.0608689 0.0013516 0.2069099 0
0.1075613 0.1023935 0.2180134 0
0.1607086 0.1654912 0.1331533 0
-0.1204287 0.0642924 0.1813355 0
-0.0307347 0.2272720 0.2582159 0
0.1179214 0.1653347 0.2082739 0
-0.0110238 0.0287423 0.2479438 0
-0.0973694 0.0531826 0.2067399 0
0.0161530 0.0110381 0.2363988 0
-0.1030335 0.0450354 0.1952864 0
-0.0228312 -0.0582716 0.1606336 0
0.0371069 -0.0644580 0.1459092 0
-0.1079470 0.0338301 0.1814688 0
-0.0589406 0.0132348 0.2177294 0
0.0743997 -0.0347361 0.1605556 0
-0.1532918 0.1400034 0.1417841 0
0.0797499 0.1736062 0.2475612 0
0.0068373 0.2319089 0.2618069 0
-0.0931574 0.1256699 0.2326924 0
-0.1022573 -0.0299747 0.1225885 0
0.0406652 -0.0515462 0.1644156 0
-0.0328334 -0.0667344 0.1418066 0
-0.0300718 -0.0283492 0.1965768 0
0.0523789 0.1059794 0.2645569 0
-0.1433664 0.2497298 0.1192990 0
-0.1169065 0.2327028 0.1810337 0
0.0465938 -0.0779523 0.1122950 0
-0.1294460 0.0106734 0.1239057 0
-0.0992742 -0.0398228 0.1114424 0
-0.1260446 0.2727935 0.1340906 0
0.0309638 -0.0544002 0.1650059 0
0.1296009 0.0098190 0.1317426 0
-0.0688438 0.0265064 0.2193735 0
-0.1238708 0.2594226 0.1508685 0
-0.0103670 -0.0842557 0.1152726 0
-0.0169494 0.2917037 0.2227629 0
-0.1030334 0.1872107 0.2174046 0
-0.1483056 0.2328393 0.1216734 0
-0.1606706 0.0732319 0.1035711 0
0.1375422 -0.0038078 0.0961618 0
-0.1555046 0.1295079 0.1361671 0
0.0002169 0.1699110 0.2787951 0
-0.0545340 0.2724711 0.2212427 0
0.1237939 0.0754328 0.1879946 0
-0.0189920 0.2757829 0.2346548 0
0.1343797 0.0715998 0.1693666 0
0.0178052 -0.0090457 0.2202998 0
0.1608125 0.1874492 0.1271803 0
0.1039689 0.0131802 0.1768537 0
0.0484682 -0.0776950 0.1112172 0
-0.0584168 0.1170638 0.2603093 0
0.0675851 -0.0693500 0.1092596 0
-0.0189332 0.2957000 0.2188568 0
-0.1405243 0.2770970 0.0955644 0
-0.1432284 0.0217122 0.1041708 0
-0.1552061 0.0511267 0.1020111 0
0.0562089 0.2424417 0.2414412 0
-0.0673134 -0.0010921 0.1995654 0
-0.0180038 -0.0534691 0.1694073 0
0.0226876 0.0239837 0.2437438 0
-0.0400412 -0.0691391 0.1326277 0
-0.1315753 0.2804537 0.1134916 0
0.1685919 0.1211513 0.1135854 0
-0.1251709 0.2699749 0.1386856 0
0.1446824 0.0883390 0.1578202 0
0.0589759 0.0185496 0.2245094 0
0.0840471 0.0918479 0.2395980 0
-0.0462551 -0.0706441 0.1246585 0
0.0649750 -0.0364761 0.1674191 0
-0.1482344 0.1795108 0.1478542 0
0.0326308 0.0888318 0.2689431 0
-0.0548471 -0.0522823 0.1499138 0
0.1022424 0.1685057 0.2268338 0
-0.0451786 0.2586519 0.2359962 0
-0.0405152 0.0275258 0.2381988 0
-0.1066164 0.0908607 0.2108290 0
0.0332068 0.0662678 0.2616730 0
0.0267468 -0.0551704 0.1655128 0
-0.1287834 0.2149764 0.1712963 0
0.1269392 0.2483066 0.1619982 0
0.1388209 0.0942462 0.1706144 0
-0.0762803 -0.0020102 0.1904055 0
0.0989845 0.0713400 0.2181896 0
-0.0799017 0.0580135 0.2272378 0
-0.0272328 0.3027107 0.2099198 0
-0.0675171 0.2210549 0.2406865 0
0.1493632 0.0505190 0.1272090 0
-0.1041135 0.0135349 0.1708829 0
-0.1610305 0.1643537 0.1219086 0
-0.0049044 0.0364282 0.2529279 0
-0.0766155 0.1213115 0.2476251 0
-0.0378528 -0.0662966 0.1394787 0
-0.0748688 0.0583870 0.2318497 0
-0.0096006 0.2048037 0.2709543 0
-0.1288585 0.1195416 0.1856997 0
-0.1134005 0.0075897 0.1509424 0
0.0647689 0.2406340 0.2369178 0
-0.0002867 0.0265852 0.2475793 0
0.0979483 0.0054768 0.1778265 0
-0.0008607 0.0901614 0.2739179 0
-0.0683401 0.2491006 0.2264066 0
0.0789356 0.1184040 0.2489944 0
0.1276863 0.1702018 0.1938182 0
-0.1423608 0.0989737 0.1574295 0
-0.0578069 -0.0198527 0.1892026 0
0.1329445 0.2434413 0.1549932 0
0.0927478 0.1768145 0.2353999 0
0.1454902 0.1571098 0.1658008 0
0.0080096 -0.0164571 0.2148445 0
-0.1508301 0.2331854 0.1152354 0
-0.0639839 0.0211327 0.2196240 0
0.0692452 0.0152258 0.2147693 0
0.0866755 0.2068816 0.2335537 0
-0.1174245 0.1719394 0.2019915 0
0.0348776 -0.0688083 0.1393497 0
-0.0047563 0.0976290 0.2754331 0
-0.0201102 -0.0646201 0.1513628 0
-0.0185307 0.0161309 0.2386064 0
-0.1131993 0.1566928 0.2095522 0
0.1237872 0.0678752 0.1846679 0
0.0378339 -0.0715562 0.1323955 0
0.0943361 0.0317510 0.2025851 0
-0.0528097 0.1971687 0.2582593 0
0.0142586 0.0467176 0.2576383 0
-0.0492531 0.2602958 0.2327312 0
-0.1497958 0.0997707 0.1424824 0
-0.0304576 0.2921644 0.2182564 0
-0.1448842 0.1380219 0.1591230 0
0.0240871 0.1235207 0.2771792 0
0.1399248 0.1887561 0.1697101 0
-0.0198385 0.1439784 0.2780310 0
-0.0303971 0.0763541 0.2646433 0
0.1231533 0.0642082 0.1838593 0
0.0103801 0.0721077 0.2683519 0
-0.0332010 0.2941587 0.2154164 0
0.0795722 0.3004427 0.1796473 0
-0.1704729 0.1455925 0.0979469 0
-0.0664025 -0.0366425 0.1616891 0
0.1558308 0.2028571 0.1325232 0
-0.1711782 0.1435737 0.0958393 0
0.0400365 0.2537387 0.2433842 0
0.1263435 0.0117851 0.1401319 0
0.1637544 0.0570885 0.0953424 0
0.1212950 0.2509301 0.1693129 0
0.1693275 0.1010007 0.1058924 0
-0.0641187 0.1076809 0.2551703 0
0.0728504 0.0985816 0.2502866 0
-0.1014608 0.1804983 0.2207325 0
-0.0961712 -0.0380730 0.1200930 0
-0.0295993 0.0150906 0.2346521 0
-0.1626940 0.0706732 0.0960176 0
0.0710541 0.2655919 0.2173017 0
-0.1558045 0.1676733 0.1339071 0
-0.0849942 0.1577586 0.2409371 0
0.0070061 -0.0815112 0.1228574 0
0.1032549 0.2454746 0.1980339 0
-0.1414405 0.1937446 0.1571378 0
0.1478458 0.0340208 0.1166664 0
-0.1687827 0.1645671 0.1008556 0
-0.0213291 0.2399988 0.2553219 0
-0.1492214 0.2329407 0.1193919 0
-0.0813043 0.0516860 0.2229020 0
0.1374151 0.1435873 0.1806456 0
0.1291180 0.2095778 0.1803740 0
0.1653177 0.0638577 0.0962429 0
-0.1061256 0.1105735 0.2160842 0
0.1330532 0.1181919 0.1858424 0
0.1455263 0.2255583 0.1425742 0
-0.1008457 0.0848274 0.2159369 0
0.0958060 0.1245899 0.2343905 0
-0.0344241 0.0333680 0.2442863 0
-0.0197545 0.2302766 0.2601055 0
-0.0905024 -0.0161346 0.1593522 0
0.1709403 0.1768874 0.1042513 0
0.1745347 0.1701798 0.0955687 0
-0.0835524 0.0883676 0.2351043 0
0.0943438 -0.0373609 0.1313919 0
0.0088333 -0.0589021 0.1640069 0
-0.0937145 -0.0151340 0.1561624 0
0.0900727 0.2129551 0.2281967 0
-0.0601633 0.2352110 0.2397338 0
-0.0064411 -0.0896770 0.1024032 0
-0.1435896 0.2346144 0.1311993 0
-0.0780968 -0.0173293 0.1729951 0
0.0986636 0.0251028 0.1930002 0
-0.1334993 0.2752175 0.1154866 0
-0.1108216 -0.0281990 0.1089348 0
-0.0797936 0.2895055 0.1857460 0
0.1178783 0.1570994 0.2091654 0
0.0548854 0.1800528 0.2633005 0
0.0352416 0.0769140 0.2646753 0
-0.0783438 -0.0018741 0.1884365 0
0.0912825 0.0793062 0.2291068 0
0.1215590 0.2278758 0.1833252 0
-0.0615898 -0.0420163 0.1589925 0
-0.1029432 -0.0306566 0.1202642 0
0.0238628 -0.0109140 0.2173134 0
0.0342313 -0.0318769 0.1927624 0
-0.1512846 0.1806146 0.1410439 0
0.0928225 0.0562354 0.2181180 0
-0.1045748 0.1162348 0.2188784 0
-0.0645472 0.0376653 0.2295541 0
0.0693444 0.0731035 0.2455206 0
0.0755549 0.0325846 0.2213192 0
-0.1396564 0.0816468 0.1563020 0
-0.0451267 -0.0290103 0.1880722 0
-0.1225667 0.0845134 0.1867106 0
0.0210401 0.2984902 0.2169196 0
0.0398965 0.2640950 0.2371551 0
-0.0609218 0.0240258 0.2238468 0
-0.0702336 0.1660618 0.2525654 0
-0.0136124 0.0037506 0.2307191 0
0.0402544 -0.0705737 0.1327663 0
-0.1250731 0.1236981 0.1921463 0
-0.1000175 0.3012362 0.1472857 0
0.0928495 0.2663517 0.1959592 0
-0.0631704 0.0582132 0.2408766 0
0.1032178 0.2788405 0.1728420 0
0.1291016 0.2517511 0.1556667 0
-0.1174698 0.2093666 0.1914512 0
0.1066891 0.0740052 0.2103779 0
-0.1026081 0.1154156 0.2210781 0
0.0712643 0.2258935 0.2391778 0
-0.1570349 0.1446911 0.1333433 0
0.1289623 0.2133524 0.1789917 0
-0.1170952 0.2371094 0.1781632 0
-0.0446072 0.2185437 0.2558466 0
0.0145733 -0.0389202 0.1902671 0
0.1043680 -0.0419028 0.1062720 0
-0.0040698 0.0157783 0.2405345 0
0.1108709 0.1013763 0.2137833 0
0.1039196 0.2067609 0.2157313 0
-0.1451796 0.2337840 0.1282434 0
0.1112778 0.1949978 0.2106669 0
0.1192640 0.2086009 0.1954832 0
0.0068025 -0.0313363 0.1998193 0
-0.0542084 -0.0627382 0.1326958 0
0.1046998 0.0236731 0.1844008 0
-0.1304534 0.1349921 0.1846381 0
-0.0311309 -0.0673388 0.1416751 0
-0.0674638 -0.0559710 0.1307227 0
0.0873688 -0.0033682 0.1820749 0
-0.0784078 0.0655007 0.2318361 0
0.1167885 0.2895115 0.1410469 0
-0.1238328 -0.0143903 0.1027098 0
-0.0161065 0.2156130 0.2665177 0
0.1126951 0.2501635 0.1826436 0
0.0318534 0.1373892 0.2759948 0
0.1533851 0.1862562 0.1443518 0
0.1346478 0.1610496 0.1842148 0
-0.0467531 -0.0009585 0.2144585 0
-0.0201724 0.2167819 0.2652590 0
-0.0989669 0.2664989 0.1831710 0
-0.0380657 0.0925131 0.2663137 0
-0.0111280 0.2334073 0.2603378 0
0.0473581 -0.0809456 0.1043621 0
