# .PCD v0.7 - synthetic VGP smoke-test fixture
VERSION 0.7
FIELDS x y z rgb
SIZE 4 4 4 4
TYPE F F F F
COUNT 1 1 1 1
WIDTH 30
HEIGHT 1
VIEWPOINT 0 0 0 1 0 0 0
POINTS 30
DATA ascii
0.0210401 0.2984902 0.2169196 0
-0.0064411 -0.0896770 0.1024032 0
-0.1711782 0.1435737 0.0958393 0
0.1693275 0.1010007 0.1058924 0
-0.0303971 0.0763541 0.2646433 0
0.1022424 0.1685057 0.2268338 0
-0.1134005 0.0075897 0.1509424 0
0.0873688 -0.0033682 0.1820749 0
-0.1315753 0.2804537 0.1134916 0
-0.1030334 0.1872107 0.2174046 0
0.1167885 0.2895115 0.1410469 0
-0.0096006 0.2048037 0.2709543 0
-0.0300718 -0.0283492 0.1965768 0
0.0693444 0.0731035 0.2455206 0
0.1375422 -0.0038078 0.0961618 0
0.1558308 0.2028571 0.1325232 0
-0.1066164 0.0908607 0.2108290 0
-0.0797936 0.2895055 0.1857460 0
0.1237872 0.0678752 0.1846679 0
0.0318534 0.1373892 0.2759948 0
-0.1552061 0.0511267 0.1020111 0
0.0675851 -0.0693500 0.1092596 0
-0.0674638 -0.0559710 0.1307227 0
0.0647689 0.2406340 0.2369178 0
0.0161530 0.0110381 0.2363988 0
-0.1414405 0.1937446 0.1571378 0
-0.0688438 0.0265064 0.2193735 0
0.0267468 -0.0551704 0.1655128 0
-0.0451786 0.2586519 0.2359962 0
0.1215590 0.2278758 0.1833252 0
